<svg width="154" height="57" viewBox="0 0 154 57" fill="none" xmlns="http://www.w3.org/2000/svg">
<rect width="154" height="57" rx="7" fill="#081C27"/>
<g clip-path="url(#clip0_1_2220)">
<path d="M20.6833 40.9785C17.1114 40.958 14.1567 33.6664 14.1567 29.9531C14.1567 23.8873 18.7071 22.5593 20.4608 22.5593C21.2512 22.5593 22.095 22.8696 22.8393 23.1443C23.3599 23.3359 23.8981 23.5336 24.1976 23.5336C24.3768 23.5336 24.7991 23.3654 25.1719 23.2178C25.967 22.9012 26.9564 22.5078 28.1087 22.5078C28.1107 22.5078 28.1135 22.5078 28.1155 22.5078C28.9759 22.5078 31.5844 22.6966 33.1528 25.0518L33.5201 25.6039L32.9914 26.0028C32.2361 26.5728 30.858 27.6123 30.858 29.6716C30.858 32.1105 32.4187 33.0485 33.1685 33.4996C33.4995 33.6988 33.8421 33.904 33.8421 34.3532C33.8421 34.6464 31.502 40.9421 28.1038 40.9421C27.2723 40.9421 26.6845 40.6922 26.1661 40.4718C25.6416 40.2487 25.189 40.0564 24.4412 40.0564C24.0622 40.0564 23.5829 40.2356 23.0755 40.4258C22.382 40.6846 21.5972 40.9785 20.7066 40.9785H20.6833Z" fill="white"/>
<path d="M28.4683 16.9785C28.5568 20.1696 26.2747 22.3834 23.9953 22.2445C23.6197 19.698 26.2744 16.9785 28.4683 16.9785Z" fill="white"/>
</g>
<path opacity="0.8" d="M49.75 22.7759H47.0568V14.0486H49.8693C50.7159 14.0486 51.4403 14.2233 52.0426 14.5728C52.6449 14.9193 53.1065 15.4179 53.4276 16.0685C53.7486 16.7162 53.9091 17.4918 53.9091 18.3952C53.9091 19.3043 53.7472 20.087 53.4233 20.7432C53.0994 21.3966 52.6278 21.8995 52.0085 22.2517C51.3892 22.6012 50.6364 22.7759 49.75 22.7759ZM48.1136 21.8384H49.6818C50.4034 21.8384 51.0014 21.6992 51.4759 21.4208C51.9503 21.1424 52.304 20.746 52.5369 20.2318C52.7699 19.7176 52.8864 19.1054 52.8864 18.3952C52.8864 17.6907 52.7713 17.0841 52.5412 16.5756C52.3111 16.0642 51.9673 15.6722 51.5099 15.3995C51.0526 15.1239 50.483 14.9861 49.8011 14.9861H48.1136V21.8384ZM58.2045 22.9122C57.6136 22.9122 57.0952 22.7716 56.6491 22.4904C56.206 22.2091 55.8594 21.8157 55.6094 21.31C55.3622 20.8043 55.2386 20.2134 55.2386 19.5372C55.2386 18.8554 55.3622 18.2603 55.6094 17.7517C55.8594 17.2432 56.206 16.8483 56.6491 16.5671C57.0952 16.2858 57.6136 16.1452 58.2045 16.1452C58.7955 16.1452 59.3125 16.2858 59.7557 16.5671C60.2017 16.8483 60.5483 17.2432 60.7955 17.7517C61.0455 18.2603 61.1705 18.8554 61.1705 19.5372C61.1705 20.2134 61.0455 20.8043 60.7955 21.31C60.5483 21.8157 60.2017 22.2091 59.7557 22.4904C59.3125 22.7716 58.7955 22.9122 58.2045 22.9122ZM58.2045 22.0088C58.6534 22.0088 59.0227 21.8938 59.3125 21.6637C59.6023 21.4335 59.8168 21.131 59.956 20.756C60.0952 20.381 60.1648 19.9747 60.1648 19.5372C60.1648 19.0997 60.0952 18.6921 59.956 18.3142C59.8168 17.9364 59.6023 17.631 59.3125 17.398C59.0227 17.1651 58.6534 17.0486 58.2045 17.0486C57.7557 17.0486 57.3864 17.1651 57.0966 17.398C56.8068 17.631 56.5923 17.9364 56.4531 18.3142C56.3139 18.6921 56.2443 19.0997 56.2443 19.5372C56.2443 19.9747 56.3139 20.381 56.4531 20.756C56.5923 21.131 56.8068 21.4335 57.0966 21.6637C57.3864 21.8938 57.7557 22.0088 58.2045 22.0088ZM63.9659 22.7759L61.9716 16.2304H63.0284L64.4432 21.2418H64.5114L65.9091 16.2304H66.983L68.3636 21.2247H68.4318L69.8466 16.2304H70.9034L68.9091 22.7759H67.9205L66.4886 17.7475H66.3864L64.9545 22.7759H63.9659ZM73.2386 18.8384V22.7759H72.233V16.2304H73.2045V17.2532H73.2898C73.4432 16.9208 73.6761 16.6537 73.9886 16.452C74.3011 16.2475 74.7045 16.1452 75.1989 16.1452C75.642 16.1452 76.0298 16.2361 76.3622 16.4179C76.6946 16.5969 76.9531 16.8696 77.1378 17.2361C77.3224 17.5997 77.4148 18.06 77.4148 18.6168V22.7759H76.4091V18.685C76.4091 18.1708 76.2756 17.7702 76.0085 17.4833C75.7415 17.1935 75.375 17.0486 74.9091 17.0486C74.5881 17.0486 74.3011 17.1182 74.0483 17.2574C73.7983 17.3966 73.6009 17.5997 73.456 17.8668C73.3111 18.1338 73.2386 18.4577 73.2386 18.8384ZM80.2582 14.0486V22.7759H79.2525V14.0486H80.2582ZM84.7592 22.9122C84.1683 22.9122 83.6499 22.7716 83.2038 22.4904C82.7607 22.2091 82.4141 21.8157 82.1641 21.31C81.9169 20.8043 81.7933 20.2134 81.7933 19.5372C81.7933 18.8554 81.9169 18.2603 82.1641 17.7517C82.4141 17.2432 82.7607 16.8483 83.2038 16.5671C83.6499 16.2858 84.1683 16.1452 84.7592 16.1452C85.3501 16.1452 85.8672 16.2858 86.3104 16.5671C86.7564 16.8483 87.103 17.2432 87.3501 17.7517C87.6001 18.2603 87.7251 18.8554 87.7251 19.5372C87.7251 20.2134 87.6001 20.8043 87.3501 21.31C87.103 21.8157 86.7564 22.2091 86.3104 22.4904C85.8672 22.7716 85.3501 22.9122 84.7592 22.9122ZM84.7592 22.0088C85.2081 22.0088 85.5774 21.8938 85.8672 21.6637C86.157 21.4335 86.3714 21.131 86.5107 20.756C86.6499 20.381 86.7195 19.9747 86.7195 19.5372C86.7195 19.0997 86.6499 18.6921 86.5107 18.3142C86.3714 17.9364 86.157 17.631 85.8672 17.398C85.5774 17.1651 85.2081 17.0486 84.7592 17.0486C84.3104 17.0486 83.9411 17.1651 83.6513 17.398C83.3615 17.631 83.147 17.9364 83.0078 18.3142C82.8686 18.6921 82.799 19.0997 82.799 19.5372C82.799 19.9747 82.8686 20.381 83.0078 20.756C83.147 21.131 83.3615 21.4335 83.6513 21.6637C83.9411 21.8938 84.3104 22.0088 84.7592 22.0088ZM91.1864 22.9293C90.7717 22.9293 90.3952 22.8512 90.0572 22.6949C89.7191 22.5358 89.4506 22.3071 89.2518 22.0088C89.0529 21.7077 88.9535 21.3441 88.9535 20.9179C88.9535 20.5429 89.0273 20.2389 89.1751 20.006C89.3228 19.7702 89.5202 19.5855 89.7674 19.452C90.0146 19.3185 90.2873 19.2191 90.5856 19.1537C90.8867 19.0855 91.1893 19.0316 91.4933 18.9918C91.891 18.9407 92.2134 18.9023 92.4606 18.8767C92.7106 18.8483 92.8924 18.8014 93.006 18.7361C93.1225 18.6708 93.1808 18.5571 93.1808 18.3952V18.3611C93.1808 17.9407 93.0657 17.6139 92.8356 17.381C92.6083 17.148 92.2631 17.0316 91.8001 17.0316C91.32 17.0316 90.9435 17.1367 90.6708 17.3469C90.3981 17.5571 90.2063 17.7816 90.0955 18.0202L89.141 17.6793C89.3114 17.2816 89.5387 16.9719 89.8228 16.7503C90.1097 16.5259 90.4222 16.3696 90.7603 16.2816C91.1012 16.1907 91.4364 16.1452 91.766 16.1452C91.9762 16.1452 92.2177 16.1708 92.4904 16.2219C92.766 16.2702 93.0316 16.371 93.2873 16.5245C93.5458 16.6779 93.7603 16.9094 93.9308 17.2191C94.1012 17.5287 94.1864 17.9435 94.1864 18.4634V22.7759H93.1808V21.8895H93.1296C93.0614 22.0316 92.9478 22.1835 92.7887 22.3455C92.6296 22.5074 92.418 22.6452 92.1538 22.7588C91.8896 22.8725 91.5671 22.9293 91.1864 22.9293ZM91.3398 22.0259C91.7376 22.0259 92.0728 21.9478 92.3455 21.7915C92.6211 21.6353 92.8285 21.4335 92.9677 21.1864C93.1097 20.9392 93.1808 20.6793 93.1808 20.4066V19.4861C93.1381 19.5372 93.0444 19.5841 92.8995 19.6267C92.7575 19.6665 92.5927 19.702 92.4052 19.7333C92.2205 19.7617 92.0401 19.7872 91.864 19.81C91.6907 19.8299 91.5501 19.8469 91.4421 19.8611C91.1808 19.8952 90.9364 19.9506 90.7092 20.0273C90.4847 20.1012 90.3029 20.2134 90.1637 20.3639C90.0273 20.5117 89.9592 20.7134 89.9592 20.9691C89.9592 21.3185 90.0884 21.5827 90.3469 21.7617C90.6083 21.9378 90.9393 22.0259 91.3398 22.0259ZM98.4936 22.9122C97.9482 22.9122 97.4666 22.7745 97.049 22.4989C96.6314 22.2205 96.3047 21.8284 96.0689 21.3228C95.8331 20.8142 95.7152 20.2134 95.7152 19.5202C95.7152 18.8327 95.8331 18.2361 96.0689 17.7304C96.3047 17.2247 96.6328 16.8341 97.0533 16.5585C97.4737 16.283 97.9595 16.1452 98.5107 16.1452C98.9368 16.1452 99.2734 16.2162 99.5206 16.3583C99.7706 16.4975 99.9609 16.6566 100.092 16.8355C100.225 17.0117 100.329 17.1566 100.403 17.2702H100.488V14.0486H101.494V22.7759H100.522V21.7702H100.403C100.329 21.8895 100.224 22.0401 100.087 22.2219C99.951 22.4009 99.7564 22.5614 99.5036 22.7034C99.2507 22.8426 98.9141 22.9122 98.4936 22.9122ZM98.63 22.0088C99.0334 22.0088 99.3743 21.9037 99.6527 21.6935C99.9311 21.4804 100.143 21.1864 100.288 20.8114C100.433 20.4335 100.505 19.9975 100.505 19.5032C100.505 19.0145 100.434 18.587 100.292 18.2205C100.15 17.8512 99.9396 17.5642 99.6612 17.3597C99.3828 17.1523 99.0391 17.0486 98.63 17.0486C98.2038 17.0486 97.8487 17.158 97.5646 17.3767C97.2834 17.5926 97.0717 17.8867 96.9297 18.2588C96.7905 18.6282 96.7209 19.0429 96.7209 19.5032C96.7209 19.9691 96.7919 20.3924 96.9339 20.773C97.0788 21.1509 97.2919 21.452 97.5732 21.6764C97.8572 21.898 98.2095 22.0088 98.63 22.0088ZM109.509 22.9122C108.918 22.9122 108.4 22.7716 107.954 22.4904C107.511 22.2091 107.164 21.8157 106.914 21.31C106.667 20.8043 106.543 20.2134 106.543 19.5372C106.543 18.8554 106.667 18.2603 106.914 17.7517C107.164 17.2432 107.511 16.8483 107.954 16.5671C108.4 16.2858 108.918 16.1452 109.509 16.1452C110.1 16.1452 110.617 16.2858 111.06 16.5671C111.506 16.8483 111.853 17.2432 112.1 17.7517C112.35 18.2603 112.475 18.8554 112.475 19.5372C112.475 20.2134 112.35 20.8043 112.1 21.31C111.853 21.8157 111.506 22.2091 111.06 22.4904C110.617 22.7716 110.1 22.9122 109.509 22.9122ZM109.509 22.0088C109.958 22.0088 110.327 21.8938 110.617 21.6637C110.907 21.4335 111.121 21.131 111.261 20.756C111.4 20.381 111.469 19.9747 111.469 19.5372C111.469 19.0997 111.4 18.6921 111.261 18.3142C111.121 17.9364 110.907 17.631 110.617 17.398C110.327 17.1651 109.958 17.0486 109.509 17.0486C109.06 17.0486 108.691 17.1651 108.401 17.398C108.112 17.631 107.897 17.9364 107.758 18.3142C107.619 18.6921 107.549 19.0997 107.549 19.5372C107.549 19.9747 107.619 20.381 107.758 20.756C107.897 21.131 108.112 21.4335 108.401 21.6637C108.691 21.8938 109.06 22.0088 109.509 22.0088ZM115.016 18.8384V22.7759H114.01V16.2304H114.982V17.2532H115.067C115.221 16.9208 115.453 16.6537 115.766 16.452C116.078 16.2475 116.482 16.1452 116.976 16.1452C117.419 16.1452 117.807 16.2361 118.14 16.4179C118.472 16.5969 118.73 16.8696 118.915 17.2361C119.1 17.5997 119.192 18.06 119.192 18.6168V22.7759H118.186V18.685C118.186 18.1708 118.053 17.7702 117.786 17.4833C117.519 17.1935 117.152 17.0486 116.686 17.0486C116.365 17.0486 116.078 17.1182 115.826 17.2574C115.576 17.3966 115.378 17.5997 115.233 17.8668C115.088 18.1338 115.016 18.4577 115.016 18.8384ZM127.251 16.2304V17.0827H123.859V16.2304H127.251ZM124.848 14.6622H125.854V20.9009C125.854 21.185 125.895 21.398 125.977 21.5401C126.063 21.6793 126.17 21.773 126.301 21.8213C126.435 21.8668 126.575 21.8895 126.723 21.8895C126.834 21.8895 126.925 21.8838 126.996 21.8725C127.067 21.8583 127.124 21.8469 127.166 21.8384L127.371 22.7418C127.303 22.7674 127.207 22.7929 127.085 22.8185C126.963 22.8469 126.808 22.8611 126.621 22.8611C126.337 22.8611 126.058 22.8 125.786 22.6779C125.516 22.5557 125.291 22.3696 125.112 22.1196C124.936 21.8696 124.848 21.5543 124.848 21.1736V14.6622ZM129.911 18.8384V22.7759H128.905V14.0486H129.911V17.2532H129.996C130.149 16.9151 130.379 16.6466 130.686 16.4478C130.996 16.246 131.408 16.1452 131.922 16.1452C132.368 16.1452 132.759 16.2347 133.094 16.4137C133.429 16.5898 133.689 16.8611 133.874 17.2276C134.061 17.5912 134.155 18.0543 134.155 18.6168V22.7759H133.149V18.685C133.149 18.1651 133.014 17.7631 132.744 17.479C132.477 17.1921 132.107 17.0486 131.632 17.0486C131.303 17.0486 131.007 17.1182 130.746 17.2574C130.487 17.3966 130.283 17.5997 130.132 17.8668C129.984 18.1338 129.911 18.4577 129.911 18.8384ZM138.739 22.9122C138.108 22.9122 137.564 22.773 137.107 22.4946C136.652 22.2134 136.301 21.8213 136.054 21.3185C135.81 20.8128 135.688 20.2247 135.688 19.5543C135.688 18.8838 135.81 18.2929 136.054 17.7816C136.301 17.2674 136.645 16.8668 137.086 16.5799C137.529 16.2901 138.046 16.1452 138.637 16.1452C138.978 16.1452 139.314 16.202 139.647 16.3157C139.979 16.4293 140.282 16.6139 140.554 16.8696C140.827 17.1225 141.044 17.4577 141.206 17.8753C141.368 18.2929 141.449 18.8071 141.449 19.4179V19.8441H136.404V18.9747H140.426C140.426 18.6054 140.353 18.2759 140.205 17.9861C140.06 17.6963 139.853 17.4676 139.583 17.3C139.316 17.1324 139 17.0486 138.637 17.0486C138.236 17.0486 137.89 17.148 137.597 17.3469C137.307 17.5429 137.084 17.7986 136.928 18.1139C136.772 18.4293 136.694 18.7674 136.694 19.1282V19.7077C136.694 20.202 136.779 20.621 136.949 20.9648C137.123 21.3057 137.363 21.5657 137.669 21.7446C137.976 21.9208 138.333 22.0088 138.739 22.0088C139.003 22.0088 139.242 21.9719 139.455 21.898C139.671 21.8213 139.857 21.7077 140.013 21.5571C140.169 21.4037 140.29 21.2134 140.375 20.9861L141.347 21.2588C141.245 21.5884 141.073 21.8782 140.831 22.1282C140.59 22.3753 140.292 22.5685 139.936 22.7077C139.581 22.8441 139.182 22.9122 138.739 22.9122Z" fill="white"/>
<path d="M48.12 42.1812H46.3729L50.2987 31.2721H52.2003L56.1261 42.1812H54.3789L51.2947 33.2536H51.2095L48.12 42.1812ZM48.413 37.9091H54.0806V39.2941H48.413V37.9091ZM57.5736 45.2493V33.9993H59.129V35.3257H59.2622C59.3545 35.1552 59.4877 34.9581 59.6617 34.7344C59.8357 34.5107 60.0771 34.3154 60.3861 34.1485C60.695 33.978 61.1034 33.8928 61.6112 33.8928C62.2718 33.8928 62.8612 34.0597 63.3797 34.3935C63.8982 34.7273 64.3048 35.2085 64.5995 35.837C64.8978 36.4656 65.047 37.222 65.047 38.1062C65.047 38.9905 64.8996 39.7486 64.6048 40.3807C64.3101 41.0093 63.9053 41.494 63.3904 41.8349C62.8754 42.1723 62.2877 42.341 61.6272 42.341C61.1301 42.341 60.7235 42.2575 60.4074 42.0906C60.0949 41.9237 59.8499 41.7284 59.6723 41.5047C59.4948 41.2809 59.358 41.0821 59.2622 40.9081H59.1663V45.2493H57.5736ZM59.1343 38.0902C59.1343 38.6655 59.2178 39.1698 59.3847 39.603C59.5516 40.0363 59.7931 40.3754 60.1091 40.6204C60.4252 40.8619 60.8122 40.9826 61.2703 40.9826C61.7462 40.9826 62.1439 40.8566 62.4635 40.6044C62.7831 40.3488 63.0246 40.0025 63.1879 39.5657C63.3548 39.129 63.4383 38.6371 63.4383 38.0902C63.4383 37.5505 63.3566 37.0657 63.1933 36.6361C63.0335 36.2064 62.792 35.8672 62.4688 35.6187C62.1492 35.3701 61.7497 35.2458 61.2703 35.2458C60.8087 35.2458 60.4181 35.3647 60.0985 35.6027C59.7824 35.8406 59.5427 36.1726 59.3794 36.5988C59.216 37.0249 59.1343 37.5221 59.1343 38.0902ZM66.8314 45.2493V33.9993H68.3868V35.3257H68.52C68.6123 35.1552 68.7455 34.9581 68.9195 34.7344C69.0935 34.5107 69.335 34.3154 69.6439 34.1485C69.9529 33.978 70.3612 33.8928 70.8691 33.8928C71.5296 33.8928 72.1191 34.0597 72.6375 34.3935C73.156 34.7273 73.5626 35.2085 73.8573 35.837C74.1556 36.4656 74.3048 37.222 74.3048 38.1062C74.3048 38.9905 74.1574 39.7486 73.8627 40.3807C73.5679 41.0093 73.1631 41.494 72.6482 41.8349C72.1333 42.1723 71.5455 42.341 70.885 42.341C70.3879 42.341 69.9813 42.2575 69.6652 42.0906C69.3527 41.9237 69.1077 41.7284 68.9301 41.5047C68.7526 41.2809 68.6159 41.0821 68.52 40.9081H68.4241V45.2493H66.8314ZM68.3921 38.0902C68.3921 38.6655 68.4756 39.1698 68.6425 39.603C68.8094 40.0363 69.0509 40.3754 69.3669 40.6204C69.683 40.8619 70.07 40.9826 70.5281 40.9826C71.004 40.9826 71.4017 40.8566 71.7213 40.6044C72.0409 40.3488 72.2824 40.0025 72.4458 39.5657C72.6127 39.129 72.6961 38.6371 72.6961 38.0902C72.6961 37.5505 72.6144 37.0657 72.4511 36.6361C72.2913 36.2064 72.0498 35.8672 71.7267 35.6187C71.407 35.3701 71.0075 35.2458 70.5281 35.2458C70.0665 35.2458 69.6759 35.3647 69.3563 35.6027C69.0402 35.8406 68.8005 36.1726 68.6372 36.5988C68.4738 37.0249 68.3921 37.5221 68.3921 38.0902ZM86.1367 34.1378C86.0799 33.6336 85.8455 33.2429 85.4336 32.966C85.0217 32.6854 84.5032 32.5451 83.8782 32.5451C83.4308 32.5451 83.0437 32.6162 82.717 32.7582C82.3903 32.8967 82.1364 33.0885 81.9553 33.3335C81.7777 33.575 81.6889 33.8502 81.6889 34.1591C81.6889 34.4184 81.7493 34.6421 81.87 34.8303C81.9943 35.0185 82.1559 35.1765 82.3548 35.3044C82.5572 35.4287 82.7738 35.5334 83.0046 35.6187C83.2354 35.7003 83.4574 35.7678 83.6705 35.8211L84.7358 36.0981C85.0838 36.1833 85.4407 36.2987 85.8065 36.4443C86.1722 36.5899 86.5114 36.7816 86.8239 37.0196C87.1364 37.2575 87.3885 37.5522 87.5803 37.9038C87.7756 38.2554 87.8732 38.6762 87.8732 39.1662C87.8732 39.7841 87.7134 40.3328 87.3938 40.8122C87.0778 41.2916 86.6179 41.6698 86.0142 41.9468C85.4141 42.2238 84.6879 42.3623 83.8356 42.3623C83.0188 42.3623 82.3121 42.2326 81.7156 41.9734C81.119 41.7142 80.652 41.3466 80.3146 40.8708C79.9773 40.3914 79.7908 39.8232 79.7553 39.1662H81.4066C81.4386 39.5604 81.5664 39.8889 81.7901 40.1517C82.0174 40.4109 82.3068 40.6044 82.6584 40.7323C83.0135 40.8566 83.4023 40.9187 83.8249 40.9187C84.2901 40.9187 84.7038 40.8459 85.0661 40.7003C85.4318 40.5512 85.7195 40.3452 85.929 40.0824C86.1385 39.8161 86.2433 39.5054 86.2433 39.1503C86.2433 38.8271 86.1509 38.5625 85.9663 38.3566C85.7852 38.1506 85.5384 37.9802 85.2259 37.8452C84.9169 37.7103 84.5671 37.5913 84.1765 37.4883L82.8874 37.1368C82.0138 36.8988 81.3214 36.549 80.81 36.0874C80.3022 35.6258 80.0483 35.015 80.0483 34.255C80.0483 33.6265 80.2188 33.0778 80.5597 32.6091C80.9006 32.1403 81.3622 31.7763 81.9446 31.5171C82.527 31.2543 83.1839 31.1229 83.9155 31.1229C84.6541 31.1229 85.3058 31.2525 85.8704 31.5118C86.4386 31.771 86.886 32.1279 87.2127 32.5824C87.5394 33.0334 87.7099 33.5519 87.7241 34.1378H86.1367ZM93.5315 33.9993V35.2777H89.0624V33.9993H93.5315ZM90.2609 32.0391H91.8536V39.7788C91.8536 40.0878 91.8998 40.3204 91.9921 40.4766C92.0844 40.6293 92.2034 40.7341 92.349 40.7909C92.4981 40.8441 92.6597 40.8708 92.8337 40.8708C92.9616 40.8708 93.0734 40.8619 93.1693 40.8441C93.2652 40.8264 93.3398 40.8122 93.393 40.8015L93.6807 42.1172C93.5883 42.1527 93.4569 42.1883 93.2865 42.2238C93.116 42.2628 92.903 42.2841 92.6473 42.2877C92.2282 42.2948 91.8376 42.2202 91.4754 42.064C91.1132 41.9077 90.8202 41.6662 90.5965 41.3395C90.3728 41.0128 90.2609 40.6027 90.2609 40.1091V32.0391ZM98.6518 42.3463C97.8848 42.3463 97.2154 42.1705 96.6436 41.8189C96.0719 41.4674 95.628 40.9755 95.312 40.3434C94.9959 39.7113 94.8379 38.9727 94.8379 38.1275C94.8379 37.2788 94.9959 36.5366 95.312 35.901C95.628 35.2653 96.0719 34.7717 96.6436 34.4201C97.2154 34.0686 97.8848 33.8928 98.6518 33.8928C99.4189 33.8928 100.088 34.0686 100.66 34.4201C101.232 34.7717 101.676 35.2653 101.992 35.901C102.308 36.5366 102.466 37.2788 102.466 38.1275C102.466 38.9727 102.308 39.7113 101.992 40.3434C101.676 40.9755 101.232 41.4674 100.66 41.8189C100.088 42.1705 99.4189 42.3463 98.6518 42.3463ZM98.6571 41.0093C99.1543 41.0093 99.5662 40.8779 99.8929 40.6151C100.22 40.3523 100.461 40.0025 100.617 39.5657C100.777 39.129 100.857 38.6478 100.857 38.1222C100.857 37.6002 100.777 37.1208 100.617 36.684C100.461 36.2437 100.22 35.8903 99.8929 35.624C99.5662 35.3576 99.1543 35.2245 98.6571 35.2245C98.1564 35.2245 97.7409 35.3576 97.4107 35.624C97.084 35.8903 96.8407 36.2437 96.6809 36.684C96.5247 37.1208 96.4466 37.6002 96.4466 38.1222C96.4466 38.6478 96.5247 39.129 96.6809 39.5657C96.8407 40.0025 97.084 40.3523 97.4107 40.6151C97.7409 40.8779 98.1564 41.0093 98.6571 41.0093ZM104.244 42.1812V33.9993H105.783V35.299H105.868C106.017 34.8587 106.28 34.5125 106.657 34.2603C107.036 34.0047 107.466 33.8768 107.946 33.8768C108.045 33.8768 108.162 33.8804 108.297 33.8875C108.436 33.8946 108.544 33.9035 108.622 33.9141V35.4375C108.558 35.4198 108.445 35.4003 108.281 35.379C108.118 35.3541 107.954 35.3417 107.791 35.3417C107.415 35.3417 107.079 35.4216 106.784 35.5814C106.493 35.7376 106.262 35.956 106.092 36.2365C105.921 36.5135 105.836 36.8296 105.836 37.1847V42.1812H104.244ZM113.234 42.3463C112.428 42.3463 111.733 42.1741 111.151 41.8296C110.572 41.4816 110.125 40.9933 109.809 40.3647C109.496 39.7326 109.34 38.9922 109.34 38.1435C109.34 37.3054 109.496 36.5668 109.809 35.9276C110.125 35.2884 110.565 34.7895 111.13 34.4308C111.698 34.0721 112.362 33.8928 113.122 33.8928C113.583 33.8928 114.031 33.9691 114.464 34.1218C114.897 34.2745 115.286 34.5142 115.631 34.841C115.975 35.1677 116.247 35.592 116.446 36.114C116.645 36.6325 116.744 37.2628 116.744 38.005V38.5696H110.24V37.3765H115.183C115.183 36.9574 115.098 36.5863 114.928 36.2632C114.757 35.9365 114.517 35.679 114.208 35.4908C113.903 35.3026 113.544 35.2085 113.132 35.2085C112.685 35.2085 112.294 35.3186 111.961 35.5388C111.63 35.7554 111.375 36.0395 111.194 36.391C111.016 36.739 110.927 37.1172 110.927 37.5256V38.4578C110.927 39.0047 111.023 39.4699 111.215 39.8534C111.41 40.2369 111.682 40.5299 112.03 40.7323C112.378 40.9312 112.784 41.0306 113.25 41.0306C113.551 41.0306 113.827 40.988 114.075 40.9027C114.324 40.814 114.539 40.6826 114.72 40.5086C114.901 40.3346 115.039 40.1197 115.135 39.864L116.643 40.1357C116.522 40.5796 116.305 40.9684 115.993 41.3022C115.684 41.6325 115.295 41.89 114.826 42.0746C114.361 42.2557 113.83 42.3463 113.234 42.3463Z" fill="white"/>
<defs>
<clipPath id="clip0_1_2220">
<rect width="24" height="24" fill="white" transform="translate(12 16.9785)"/>
</clipPath>
</defs>
</svg>
