<svg width="271" height="234" viewBox="0 0 271 234" fill="none" xmlns="http://www.w3.org/2000/svg">
<g clip-path="url(#clip0_1_5217)">
<path d="M173.836 9.54278C158.294 13.285 144.006 21.52 127.612 24.868C101.033 30.268 71.0629 28.6804 51.3475 50.5936C36.4597 67.1446 28.0465 91.3798 33.0739 113.455C46.1635 170.889 128.654 181.139 173.069 156.736C196.111 144.073 212.818 120.556 224.45 97.5682C235.126 76.4596 246.471 48.6766 230.39 27.2548C222.722 17.0326 210.669 10.5148 198.065 8.40338C189.425 6.93998 181.477 7.70138 173.836 9.54278Z" fill="#515DEF"/>
<path opacity="0.5" d="M173.836 9.54278C158.294 13.285 144.006 21.52 127.612 24.868C101.033 30.268 71.0629 28.6804 51.3475 50.5936C36.4597 67.1446 28.0465 91.3798 33.0739 113.455C46.1635 170.889 128.654 181.139 173.069 156.736C196.111 144.073 212.818 120.556 224.45 97.5682C235.126 76.4596 246.471 48.6766 230.39 27.2548C222.722 17.0326 210.669 10.5148 198.065 8.40338C189.425 6.93998 181.477 7.70138 173.836 9.54278Z" fill="white"/>
<path d="M230.394 57.1636H184.17C184.17 57.1636 188.755 44.641 195.807 44.641C202.86 44.641 205.074 53.281 205.074 53.281C205.074 53.281 209.831 48.5884 213.741 48.5884C217.65 48.5884 221.047 54.82 221.047 54.82C221.047 54.82 226.571 51.4558 230.394 57.1636Z" fill="#EBEBEB"/>
<path d="M190.04 24.9688H168.44C168.44 24.9688 173.268 17.9488 177.08 17.9488C180.893 17.9488 182.01 22.609 182.01 22.609C182.01 22.609 184.71 20.449 187.178 20.827C189.646 21.205 190.04 24.9688 190.04 24.9688Z" fill="#EBEBEB"/>
<path d="M74.2533 63.1684H32.1819C32.1819 63.1684 37.9437 50.3056 44.1051 49.501C50.2665 48.6964 53.2203 59.059 53.2203 59.059C53.2203 59.059 57.1947 55.3978 60.3213 55.3978C63.4479 55.3978 65.8401 60.22 65.8401 60.22C65.8401 60.22 72.1095 56.9152 74.2533 63.1684Z" fill="#EBEBEB"/>
<path d="M117.901 9.12519H89.4758C89.4758 9.12519 94.3358 -0.195214 99.6602 -0.330214C104.985 -0.465214 107.76 6.72219 107.76 6.72219C107.76 6.72219 115.979 0.112586 117.901 9.12519Z" fill="#EBEBEB"/>
<path d="M148.638 34.9102H129.458C129.458 34.9102 132.752 28.6192 136.326 28.5328C139.901 28.4464 141.78 33.2902 141.78 33.2902C141.78 33.2902 147.342 28.8298 148.638 34.9102Z" fill="#EBEBEB"/>
<path d="M198.059 65.0908H178.408V168.112H198.059V65.0908Z" fill="#DBDBDB"/>
<path d="M185.277 68.4388H181.459V72.37H185.277V68.4388Z" fill="#EBEBEB"/>
<path d="M190.164 68.4388H186.346V72.37H190.164V68.4388Z" fill="#EBEBEB"/>
<path d="M185.277 75.1186H181.459V79.0498H185.277V75.1186Z" fill="#EBEBEB"/>
<path d="M190.164 75.1186H186.346V79.0498H190.164V75.1186Z" fill="#EBEBEB"/>
<path d="M185.277 81.7984H181.459V85.7296H185.277V81.7984Z" fill="#EBEBEB"/>
<path d="M190.164 81.7984H186.346V85.7296H190.164V81.7984Z" fill="#EBEBEB"/>
<path d="M185.277 88.4728H181.459V92.404H185.277V88.4728Z" fill="#EBEBEB"/>
<path d="M190.164 88.4728H186.346V92.404H190.164V88.4728Z" fill="#EBEBEB"/>
<path d="M185.277 95.1526H181.459V99.0838H185.277V95.1526Z" fill="#EBEBEB"/>
<path d="M190.164 95.1526H186.346V99.0838H190.164V95.1526Z" fill="#EBEBEB"/>
<path d="M185.277 101.832H181.459V105.764H185.277V101.832Z" fill="#EBEBEB"/>
<path d="M190.164 101.832H186.346V105.764H190.164V101.832Z" fill="#EBEBEB"/>
<path d="M185.277 108.512H181.459V112.443H185.277V108.512Z" fill="#EBEBEB"/>
<path d="M190.164 108.512H186.346V112.443H190.164V108.512Z" fill="#EBEBEB"/>
<path d="M185.277 115.187H181.459V119.118H185.277V115.187Z" fill="#EBEBEB"/>
<path d="M190.164 115.187H186.346V119.118H190.164V115.187Z" fill="#EBEBEB"/>
<path d="M185.277 121.866H181.459V125.798H185.277V121.866Z" fill="#EBEBEB"/>
<path d="M190.164 121.866H186.346V125.798H190.164V121.866Z" fill="#EBEBEB"/>
<path d="M185.277 128.546H181.459V132.477H185.277V128.546Z" fill="#EBEBEB"/>
<path d="M190.164 128.546H186.346V132.477H190.164V128.546Z" fill="#EBEBEB"/>
<path d="M185.277 135.221H181.459V139.152H185.277V135.221Z" fill="#EBEBEB"/>
<path d="M190.164 135.221H186.346V139.152H190.164V135.221Z" fill="#EBEBEB"/>
<path d="M185.277 141.9H181.459V145.832H185.277V141.9Z" fill="#EBEBEB"/>
<path d="M190.164 141.9H186.346V145.832H190.164V141.9Z" fill="#EBEBEB"/>
<path d="M185.277 148.58H181.459V152.511H185.277V148.58Z" fill="#EBEBEB"/>
<path d="M190.164 148.58H186.346V152.511H190.164V148.58Z" fill="#EBEBEB"/>
<path d="M185.277 155.26H181.459V159.191H185.277V155.26Z" fill="#EBEBEB"/>
<path d="M191.19 159.191H195.008V155.26H191.19V159.191Z" fill="#EBEBEB"/>
<path d="M191.19 152.511H195.008V148.58H191.19V152.511Z" fill="#EBEBEB"/>
<path d="M191.19 145.837H195.008V141.906H191.19V145.837Z" fill="#EBEBEB"/>
<path d="M191.19 139.157H195.008V135.226H191.19V139.157Z" fill="#EBEBEB"/>
<path d="M191.19 132.477H195.008V128.546H191.19V132.477Z" fill="#EBEBEB"/>
<path d="M191.19 125.798H195.008V121.866H191.19V125.798Z" fill="#EBEBEB"/>
<path d="M191.19 119.123H195.008V115.192H191.19V119.123Z" fill="#EBEBEB"/>
<path d="M191.19 112.438H195.008V108.507H191.19V112.438Z" fill="#EBEBEB"/>
<path d="M191.19 105.764H195.008V101.832H191.19V105.764Z" fill="#EBEBEB"/>
<path d="M191.19 99.0892H195.008V95.158H191.19V99.0892Z" fill="#EBEBEB"/>
<path d="M191.19 92.4094H195.008V88.4782H191.19V92.4094Z" fill="#EBEBEB"/>
<path d="M191.19 85.7296H195.008V81.7984H191.19V85.7296Z" fill="#EBEBEB"/>
<path d="M191.19 79.0498H195.008V75.1186H191.19V79.0498Z" fill="#EBEBEB"/>
<path d="M191.19 72.3754H195.008V68.4442H191.19V72.3754Z" fill="#EBEBEB"/>
<path d="M190.164 155.26H186.346V159.191H190.164V155.26Z" fill="#EBEBEB"/>
<path d="M213.552 65.0908H198.059V168.112H213.552V65.0908Z" fill="#A6A6A6"/>
<path d="M208.8 159.191H211.953V155.26H208.8V159.191Z" fill="#C7C7C7"/>
<path d="M204.771 159.191H207.925V155.26H204.771V159.191Z" fill="#C7C7C7"/>
<path d="M208.8 152.511H211.953V148.58H208.8V152.511Z" fill="#C7C7C7"/>
<path d="M204.771 152.511H207.925V148.58H204.771V152.511Z" fill="#C7C7C7"/>
<path d="M208.8 145.837H211.953V141.906H208.8V145.837Z" fill="#C7C7C7"/>
<path d="M204.771 145.837H207.925V141.906H204.771V145.837Z" fill="#C7C7C7"/>
<path d="M208.8 139.157H211.953V135.226H208.8V139.157Z" fill="#C7C7C7"/>
<path d="M204.771 139.157H207.925V135.226H204.771V139.157Z" fill="#C7C7C7"/>
<path d="M208.8 132.477H211.953V128.546H208.8V132.477Z" fill="#C7C7C7"/>
<path d="M204.771 132.477H207.925V128.546H204.771V132.477Z" fill="#C7C7C7"/>
<path d="M208.8 125.798H211.953V121.866H208.8V125.798Z" fill="#C7C7C7"/>
<path d="M204.771 125.798H207.925V121.866H204.771V125.798Z" fill="#C7C7C7"/>
<path d="M208.8 119.123H211.953V115.192H208.8V119.123Z" fill="#C7C7C7"/>
<path d="M204.771 119.123H207.925V115.192H204.771V119.123Z" fill="#C7C7C7"/>
<path d="M208.8 112.438H211.953V108.507H208.8V112.438Z" fill="#C7C7C7"/>
<path d="M204.771 112.438H207.925V108.507H204.771V112.438Z" fill="#C7C7C7"/>
<path d="M208.8 105.764H211.953V101.832H208.8V105.764Z" fill="#C7C7C7"/>
<path d="M204.771 105.764H207.925V101.832H204.771V105.764Z" fill="#C7C7C7"/>
<path d="M208.8 99.0892H211.953V95.158H208.8V99.0892Z" fill="#C7C7C7"/>
<path d="M204.771 99.0892H207.925V95.158H204.771V99.0892Z" fill="#C7C7C7"/>
<path d="M208.8 92.4094H211.953V88.4782H208.8V92.4094Z" fill="#C7C7C7"/>
<path d="M204.771 92.4094H207.925V88.4782H204.771V92.4094Z" fill="#C7C7C7"/>
<path d="M208.8 85.7296H211.953V81.7984H208.8V85.7296Z" fill="#C7C7C7"/>
<path d="M204.771 85.7296H207.925V81.7984H204.771V85.7296Z" fill="#C7C7C7"/>
<path d="M208.8 79.0498H211.953V75.1186H208.8V79.0498Z" fill="#C7C7C7"/>
<path d="M204.771 79.0498H207.925V75.1186H204.771V79.0498Z" fill="#C7C7C7"/>
<path d="M208.8 72.3754H211.953V68.4442H208.8V72.3754Z" fill="#C7C7C7"/>
<path d="M203.918 68.4388H200.764V72.37H203.918V68.4388Z" fill="#C7C7C7"/>
<path d="M203.918 75.1186H200.764V79.0498H203.918V75.1186Z" fill="#C7C7C7"/>
<path d="M203.918 81.7984H200.764V85.7296H203.918V81.7984Z" fill="#C7C7C7"/>
<path d="M203.918 88.4728H200.764V92.404H203.918V88.4728Z" fill="#C7C7C7"/>
<path d="M203.918 95.1526H200.764V99.0838H203.918V95.1526Z" fill="#C7C7C7"/>
<path d="M203.918 101.832H200.764V105.764H203.918V101.832Z" fill="#C7C7C7"/>
<path d="M203.918 108.512H200.764V112.443H203.918V108.512Z" fill="#C7C7C7"/>
<path d="M203.918 115.187H200.764V119.118H203.918V115.187Z" fill="#C7C7C7"/>
<path d="M203.918 121.866H200.764V125.798H203.918V121.866Z" fill="#C7C7C7"/>
<path d="M203.918 128.546H200.764V132.477H203.918V128.546Z" fill="#C7C7C7"/>
<path d="M203.918 135.221H200.764V139.152H203.918V135.221Z" fill="#C7C7C7"/>
<path d="M203.918 141.9H200.764V145.832H203.918V141.9Z" fill="#C7C7C7"/>
<path d="M203.918 148.58H200.764V152.511H203.918V148.58Z" fill="#C7C7C7"/>
<path d="M203.918 155.26H200.764V159.191H203.918V155.26Z" fill="#C7C7C7"/>
<path d="M204.771 72.3754H207.925V68.4442H204.771V72.3754Z" fill="#C7C7C7"/>
<path d="M77.0829 59.5396H53.8359V168.112H77.0829V59.5396Z" fill="#EBEBEB"/>
<path d="M77.083 57.1636H53.2744V59.5396H77.083V57.1636Z" fill="#C7C7C7"/>
<path d="M58.2909 63.0442H55.9365V168.117H58.2909V63.0442Z" fill="white"/>
<path d="M62.4596 63.0442H60.1052V168.117H62.4596V63.0442Z" fill="white"/>
<path d="M66.6339 63.0442H64.2795V168.117H66.6339V63.0442Z" fill="white"/>
<path d="M70.808 63.0442H68.4536V168.117H70.808V63.0442Z" fill="white"/>
<path d="M74.977 63.0442H72.6226V168.117H74.977V63.0442Z" fill="white"/>
<path d="M58.2909 66.0466H55.9365V70.7392H58.2909V66.0466Z" fill="#EBEBEB"/>
<path d="M62.4596 66.0466H60.1052V70.7392H62.4596V66.0466Z" fill="#EBEBEB"/>
<path d="M66.6339 66.0466H64.2795V70.7392H66.6339V66.0466Z" fill="#EBEBEB"/>
<path d="M70.808 66.0466H68.4536V70.7392H70.808V66.0466Z" fill="#EBEBEB"/>
<path d="M74.977 66.0466H72.6226V70.7392H74.977V66.0466Z" fill="#EBEBEB"/>
<path d="M58.2909 73.6714H55.9365V78.364H58.2909V73.6714Z" fill="#EBEBEB"/>
<path d="M62.4596 73.6714H60.1052V78.364H62.4596V73.6714Z" fill="#EBEBEB"/>
<path d="M66.6339 73.6714H64.2795V78.364H66.6339V73.6714Z" fill="#EBEBEB"/>
<path d="M70.808 73.6714H68.4536V78.364H70.808V73.6714Z" fill="#EBEBEB"/>
<path d="M74.977 73.6714H72.6226V78.364H74.977V73.6714Z" fill="#EBEBEB"/>
<path d="M58.2909 81.2962H55.9365V85.9888H58.2909V81.2962Z" fill="#EBEBEB"/>
<path d="M62.4596 81.2962H60.1052V85.9888H62.4596V81.2962Z" fill="#EBEBEB"/>
<path d="M66.6339 81.2962H64.2795V85.9888H66.6339V81.2962Z" fill="#EBEBEB"/>
<path d="M70.808 81.2962H68.4536V85.9888H70.808V81.2962Z" fill="#EBEBEB"/>
<path d="M74.977 81.2962H72.6226V85.9888H74.977V81.2962Z" fill="#EBEBEB"/>
<path d="M58.2909 88.9264H55.9365V93.619H58.2909V88.9264Z" fill="#EBEBEB"/>
<path d="M62.4596 88.9264H60.1052V93.619H62.4596V88.9264Z" fill="#EBEBEB"/>
<path d="M66.6339 88.9264H64.2795V93.619H66.6339V88.9264Z" fill="#EBEBEB"/>
<path d="M70.808 88.9264H68.4536V93.619H70.808V88.9264Z" fill="#EBEBEB"/>
<path d="M74.977 88.9264H72.6226V93.619H74.977V88.9264Z" fill="#EBEBEB"/>
<path d="M58.2909 96.5512H55.9365V101.244H58.2909V96.5512Z" fill="#EBEBEB"/>
<path d="M62.4596 96.5512H60.1052V101.244H62.4596V96.5512Z" fill="#EBEBEB"/>
<path d="M66.6339 96.5512H64.2795V101.244H66.6339V96.5512Z" fill="#EBEBEB"/>
<path d="M70.808 96.5512H68.4536V101.244H70.808V96.5512Z" fill="#EBEBEB"/>
<path d="M74.977 96.5512H72.6226V101.244H74.977V96.5512Z" fill="#EBEBEB"/>
<path d="M58.2909 104.176H55.9365V108.869H58.2909V104.176Z" fill="#EBEBEB"/>
<path d="M62.4596 104.176H60.1052V108.869H62.4596V104.176Z" fill="#EBEBEB"/>
<path d="M66.6339 104.176H64.2795V108.869H66.6339V104.176Z" fill="#EBEBEB"/>
<path d="M70.808 104.176H68.4536V108.869H70.808V104.176Z" fill="#EBEBEB"/>
<path d="M74.977 104.176H72.6226V108.869H74.977V104.176Z" fill="#EBEBEB"/>
<path d="M58.2909 111.801H55.9365V116.493H58.2909V111.801Z" fill="#EBEBEB"/>
<path d="M62.4596 111.801H60.1052V116.493H62.4596V111.801Z" fill="#EBEBEB"/>
<path d="M66.6339 111.801H64.2795V116.493H66.6339V111.801Z" fill="#EBEBEB"/>
<path d="M70.808 111.801H68.4536V116.493H70.808V111.801Z" fill="#EBEBEB"/>
<path d="M74.977 111.801H72.6226V116.493H74.977V111.801Z" fill="#EBEBEB"/>
<path d="M58.2909 119.431H55.9365V124.124H58.2909V119.431Z" fill="#EBEBEB"/>
<path d="M62.4596 119.431H60.1052V124.124H62.4596V119.431Z" fill="#EBEBEB"/>
<path d="M66.6339 119.431H64.2795V124.124H66.6339V119.431Z" fill="#EBEBEB"/>
<path d="M70.808 119.431H68.4536V124.124H70.808V119.431Z" fill="#EBEBEB"/>
<path d="M74.977 119.431H72.6226V124.124H74.977V119.431Z" fill="#EBEBEB"/>
<path d="M58.2909 127.056H55.9365V131.748H58.2909V127.056Z" fill="#EBEBEB"/>
<path d="M62.4596 127.056H60.1052V131.748H62.4596V127.056Z" fill="#EBEBEB"/>
<path d="M66.6339 127.056H64.2795V131.748H66.6339V127.056Z" fill="#EBEBEB"/>
<path d="M70.808 127.056H68.4536V131.748H70.808V127.056Z" fill="#EBEBEB"/>
<path d="M74.977 127.056H72.6226V131.748H74.977V127.056Z" fill="#EBEBEB"/>
<path d="M58.2909 134.681H55.9365V139.373H58.2909V134.681Z" fill="#EBEBEB"/>
<path d="M62.4596 134.681H60.1052V139.373H62.4596V134.681Z" fill="#EBEBEB"/>
<path d="M66.6339 134.681H64.2795V139.373H66.6339V134.681Z" fill="#EBEBEB"/>
<path d="M70.808 134.681H68.4536V139.373H70.808V134.681Z" fill="#EBEBEB"/>
<path d="M74.977 134.681H72.6226V139.373H74.977V134.681Z" fill="#EBEBEB"/>
<path d="M58.2909 142.311H55.9365V147.003H58.2909V142.311Z" fill="#EBEBEB"/>
<path d="M62.4596 142.311H60.1052V147.003H62.4596V142.311Z" fill="#EBEBEB"/>
<path d="M66.6339 142.311H64.2795V147.003H66.6339V142.311Z" fill="#EBEBEB"/>
<path d="M70.808 142.311H68.4536V147.003H70.808V142.311Z" fill="#EBEBEB"/>
<path d="M74.977 142.311H72.6226V147.003H74.977V142.311Z" fill="#EBEBEB"/>
<path d="M58.2909 149.936H55.9365V154.628H58.2909V149.936Z" fill="#EBEBEB"/>
<path d="M62.4596 149.936H60.1052V154.628H62.4596V149.936Z" fill="#EBEBEB"/>
<path d="M66.6339 149.936H64.2795V154.628H66.6339V149.936Z" fill="#EBEBEB"/>
<path d="M70.808 149.936H68.4536V154.628H70.808V149.936Z" fill="#EBEBEB"/>
<path d="M74.977 149.936H72.6226V154.628H74.977V149.936Z" fill="#EBEBEB"/>
<path d="M58.2909 157.56H55.9365V162.253H58.2909V157.56Z" fill="#EBEBEB"/>
<path d="M62.4596 157.56H60.1052V162.253H62.4596V157.56Z" fill="#EBEBEB"/>
<path d="M66.6339 157.56H64.2795V162.253H66.6339V157.56Z" fill="#EBEBEB"/>
<path d="M70.808 157.56H68.4536V162.253H70.808V157.56Z" fill="#EBEBEB"/>
<path d="M74.977 157.56H72.6226V162.253H74.977V157.56Z" fill="#EBEBEB"/>
<path d="M58.2909 165.185H55.9365V168.112H58.2909V165.185Z" fill="#EBEBEB"/>
<path d="M62.4596 165.185H60.1052V168.112H62.4596V165.185Z" fill="#EBEBEB"/>
<path d="M66.6339 165.185H64.2795V168.112H66.6339V165.185Z" fill="#EBEBEB"/>
<path d="M70.808 165.185H68.4536V168.112H70.808V165.185Z" fill="#EBEBEB"/>
<path d="M74.977 165.185H72.6226V168.112H74.977V165.185Z" fill="#EBEBEB"/>
<path d="M92.0086 59.5396H77.083V168.112H92.0086V59.5396Z" fill="#DBDBDB"/>
<path d="M92.6566 57.1636H77.083V59.5396H92.6566V57.1636Z" fill="#C7C7C7"/>
<path d="M81.538 63.0442H79.1836V168.117H81.538V63.0442Z" fill="#C7C7C7"/>
<path d="M85.7121 63.0442H83.3577V168.117H85.7121V63.0442Z" fill="#C7C7C7"/>
<path d="M89.8864 63.0442H87.532V168.117H89.8864V63.0442Z" fill="#C7C7C7"/>
<path d="M81.538 66.0466H79.1836V70.7392H81.538V66.0466Z" fill="#DBDBDB"/>
<path d="M85.7121 66.0466H83.3577V70.7392H85.7121V66.0466Z" fill="#DBDBDB"/>
<path d="M89.8864 66.0466H87.532V70.7392H89.8864V66.0466Z" fill="#DBDBDB"/>
<path d="M81.538 73.6714H79.1836V78.364H81.538V73.6714Z" fill="#DBDBDB"/>
<path d="M85.7121 73.6714H83.3577V78.364H85.7121V73.6714Z" fill="#DBDBDB"/>
<path d="M89.8864 73.6714H87.532V78.364H89.8864V73.6714Z" fill="#DBDBDB"/>
<path d="M81.538 81.2962H79.1836V85.9888H81.538V81.2962Z" fill="#DBDBDB"/>
<path d="M85.7121 81.2962H83.3577V85.9888H85.7121V81.2962Z" fill="#DBDBDB"/>
<path d="M89.8864 81.2962H87.532V85.9888H89.8864V81.2962Z" fill="#DBDBDB"/>
<path d="M81.538 88.9264H79.1836V93.619H81.538V88.9264Z" fill="#DBDBDB"/>
<path d="M85.7121 88.9264H83.3577V93.619H85.7121V88.9264Z" fill="#DBDBDB"/>
<path d="M89.8864 88.9264H87.532V93.619H89.8864V88.9264Z" fill="#DBDBDB"/>
<path d="M81.538 96.5512H79.1836V101.244H81.538V96.5512Z" fill="#DBDBDB"/>
<path d="M85.7121 96.5512H83.3577V101.244H85.7121V96.5512Z" fill="#DBDBDB"/>
<path d="M89.8864 96.5512H87.532V101.244H89.8864V96.5512Z" fill="#DBDBDB"/>
<path d="M81.538 104.176H79.1836V108.869H81.538V104.176Z" fill="#DBDBDB"/>
<path d="M85.7121 104.176H83.3577V108.869H85.7121V104.176Z" fill="#DBDBDB"/>
<path d="M89.8864 104.176H87.532V108.869H89.8864V104.176Z" fill="#DBDBDB"/>
<path d="M81.538 111.801H79.1836V116.493H81.538V111.801Z" fill="#DBDBDB"/>
<path d="M85.7121 111.801H83.3577V116.493H85.7121V111.801Z" fill="#DBDBDB"/>
<path d="M89.8864 111.801H87.532V116.493H89.8864V111.801Z" fill="#DBDBDB"/>
<path d="M81.538 119.431H79.1836V124.124H81.538V119.431Z" fill="#DBDBDB"/>
<path d="M85.7121 119.431H83.3577V124.124H85.7121V119.431Z" fill="#DBDBDB"/>
<path d="M89.8864 119.431H87.532V124.124H89.8864V119.431Z" fill="#DBDBDB"/>
<path d="M81.538 127.056H79.1836V131.748H81.538V127.056Z" fill="#DBDBDB"/>
<path d="M85.7121 127.056H83.3577V131.748H85.7121V127.056Z" fill="#DBDBDB"/>
<path d="M89.8864 127.056H87.532V131.748H89.8864V127.056Z" fill="#DBDBDB"/>
<path d="M81.538 134.681H79.1836V139.373H81.538V134.681Z" fill="#DBDBDB"/>
<path d="M85.7121 134.681H83.3577V139.373H85.7121V134.681Z" fill="#DBDBDB"/>
<path d="M89.8864 134.681H87.532V139.373H89.8864V134.681Z" fill="#DBDBDB"/>
<path d="M81.538 142.311H79.1836V147.003H81.538V142.311Z" fill="#DBDBDB"/>
<path d="M85.7121 142.311H83.3577V147.003H85.7121V142.311Z" fill="#DBDBDB"/>
<path d="M89.8864 142.311H87.532V147.003H89.8864V142.311Z" fill="#DBDBDB"/>
<path d="M81.538 149.936H79.1836V154.628H81.538V149.936Z" fill="#DBDBDB"/>
<path d="M85.7121 149.936H83.3577V154.628H85.7121V149.936Z" fill="#DBDBDB"/>
<path d="M89.8864 149.936H87.532V154.628H89.8864V149.936Z" fill="#DBDBDB"/>
<path d="M81.538 157.56H79.1836V162.253H81.538V157.56Z" fill="#DBDBDB"/>
<path d="M85.7121 157.56H83.3577V162.253H85.7121V157.56Z" fill="#DBDBDB"/>
<path d="M89.8864 157.56H87.532V162.253H89.8864V157.56Z" fill="#DBDBDB"/>
<path d="M81.538 165.185H79.1836V168.112H81.538V165.185Z" fill="#DBDBDB"/>
<path d="M85.7121 165.185H83.3577V168.112H85.7121V165.185Z" fill="#DBDBDB"/>
<path d="M89.8864 165.185H87.532V168.112H89.8864V165.185Z" fill="#DBDBDB"/>
<path d="M47.7987 99.4402H24.6489V168.112H47.7987V99.4402Z" fill="#EBEBEB"/>
<path d="M47.7933 93.619H27.9375V99.4402H47.7933V93.619Z" fill="#C7C7C7"/>
<path d="M45.2608 102.48H27.187V168.112H45.2608V102.48Z" fill="#DBDBDB"/>
<path d="M45.2608 108.744H27.187V110.294H45.2608V108.744Z" fill="white"/>
<path d="M45.2608 115.165H27.187V116.715H45.2608V115.165Z" fill="white"/>
<path d="M45.2608 121.591H27.187V123.141H45.2608V121.591Z" fill="white"/>
<path d="M45.2608 128.017H27.187V129.567H45.2608V128.017Z" fill="white"/>
<path d="M45.2608 134.438H27.187V135.987H45.2608V134.438Z" fill="white"/>
<path d="M45.2608 140.864H27.187V142.413H45.2608V140.864Z" fill="white"/>
<path d="M45.2608 147.29H27.187V148.839H45.2608V147.29Z" fill="white"/>
<path d="M45.2608 153.71H27.187V155.26H45.2608V153.71Z" fill="white"/>
<path d="M45.2608 160.136H27.187V161.686H45.2608V160.136Z" fill="white"/>
<path d="M45.2608 166.562H27.187V168.112H45.2608V166.562Z" fill="white"/>
<path d="M62.2978 99.4402H47.7988V168.112H62.2978V99.4402Z" fill="#DBDBDB"/>
<path d="M60.1216 93.619H47.7988V99.4402H60.1216V93.619Z" fill="#A6A6A6"/>
<path d="M60.9476 102.48H49.7966V168.112H60.9476V102.48Z" fill="#C7C7C7"/>
<path d="M60.9476 108.744H49.7966V110.294H60.9476V108.744Z" fill="white"/>
<path d="M60.9476 115.165H49.7966V116.715H60.9476V115.165Z" fill="white"/>
<path d="M60.9476 121.591H49.7966V123.141H60.9476V121.591Z" fill="white"/>
<path d="M60.9476 128.017H49.7966V129.567H60.9476V128.017Z" fill="white"/>
<path d="M60.9476 134.438H49.7966V135.987H60.9476V134.438Z" fill="white"/>
<path d="M60.9476 140.864H49.7966V142.413H60.9476V140.864Z" fill="white"/>
<path d="M60.9476 147.29H49.7966V148.839H60.9476V147.29Z" fill="white"/>
<path d="M60.9476 153.71H49.7966V155.26H60.9476V153.71Z" fill="white"/>
<path d="M60.9476 160.136H49.7966V161.686H60.9476V160.136Z" fill="white"/>
<path d="M60.9476 166.562H49.7966V168.112H60.9476V166.562Z" fill="white"/>
<path d="M106.491 127.909H88.5957V168.112H106.491V127.909Z" fill="#DBDBDB"/>
<path d="M94.5736 131.392H91.4092V133.854H94.5736V131.392Z" fill="#C7C7C7"/>
<path d="M94.5736 136.652H91.4092V139.114H94.5736V136.652Z" fill="#C7C7C7"/>
<path d="M94.5736 141.911H91.4092V144.374H94.5736V141.911Z" fill="#C7C7C7"/>
<path d="M94.5736 147.171H91.4092V149.633H94.5736V147.171Z" fill="#C7C7C7"/>
<path d="M94.5736 152.436H91.4092V154.898H94.5736V152.436Z" fill="#C7C7C7"/>
<path d="M94.5736 157.695H91.4092V160.158H94.5736V157.695Z" fill="#C7C7C7"/>
<path d="M94.5736 162.955H91.4092V165.417H94.5736V162.955Z" fill="#C7C7C7"/>
<path d="M99.1366 131.392H95.9668V133.854H99.1366V131.392Z" fill="#C7C7C7"/>
<path d="M99.1366 136.652H95.9668V139.114H99.1366V136.652Z" fill="#C7C7C7"/>
<path d="M99.1366 141.911H95.9668V144.374H99.1366V141.911Z" fill="#C7C7C7"/>
<path d="M99.1366 147.171H95.9668V149.633H99.1366V147.171Z" fill="#C7C7C7"/>
<path d="M99.1366 152.436H95.9668V154.898H99.1366V152.436Z" fill="#C7C7C7"/>
<path d="M99.1366 157.695H95.9668V160.158H99.1366V157.695Z" fill="#C7C7C7"/>
<path d="M99.1366 162.955H95.9668V165.417H99.1366V162.955Z" fill="#C7C7C7"/>
<path d="M103.683 131.392H100.513V133.854H103.683V131.392Z" fill="#C7C7C7"/>
<path d="M103.683 136.652H100.513V139.114H103.683V136.652Z" fill="#C7C7C7"/>
<path d="M103.683 141.911H100.513V144.374H103.683V141.911Z" fill="#C7C7C7"/>
<path d="M103.683 147.171H100.513V149.633H103.683V147.171Z" fill="#C7C7C7"/>
<path d="M103.683 152.436H100.513V154.898H103.683V152.436Z" fill="#C7C7C7"/>
<path d="M103.683 157.695H100.513V160.158H103.683V157.695Z" fill="#C7C7C7"/>
<path d="M103.683 162.955H100.513V165.417H103.683V162.955Z" fill="#C7C7C7"/>
<path d="M119.046 127.909H106.491V168.112H119.046V127.909Z" fill="#A6A6A6"/>
<path d="M115.191 165.029H117.767V162.566H115.191V165.029Z" fill="#C7C7C7"/>
<path d="M115.191 159.764H117.767V157.301H115.191V159.764Z" fill="#C7C7C7"/>
<path d="M115.191 154.504H117.767V152.042H115.191V154.504Z" fill="#C7C7C7"/>
<path d="M115.191 149.239H117.767V146.777H115.191V149.239Z" fill="#C7C7C7"/>
<path d="M115.191 143.985H117.767V141.522H115.191V143.985Z" fill="#C7C7C7"/>
<path d="M115.191 138.72H117.767V136.257H115.191V138.72Z" fill="#C7C7C7"/>
<path d="M115.191 133.46H117.767V130.998H115.191V133.46Z" fill="#C7C7C7"/>
<path d="M111.481 165.029H114.057V162.566H111.481V165.029Z" fill="#C7C7C7"/>
<path d="M111.481 159.764H114.057V157.301H111.481V159.764Z" fill="#C7C7C7"/>
<path d="M111.481 154.504H114.057V152.042H111.481V154.504Z" fill="#C7C7C7"/>
<path d="M111.481 149.239H114.057V146.777H111.481V149.239Z" fill="#C7C7C7"/>
<path d="M111.481 143.985H114.057V141.522H111.481V143.985Z" fill="#C7C7C7"/>
<path d="M111.481 138.72H114.057V136.257H111.481V138.72Z" fill="#C7C7C7"/>
<path d="M111.481 133.46H114.057V130.998H111.481V133.46Z" fill="#C7C7C7"/>
<path d="M107.782 165.029H110.358V162.566H107.782V165.029Z" fill="#C7C7C7"/>
<path d="M107.782 159.764H110.358V157.301H107.782V159.764Z" fill="#C7C7C7"/>
<path d="M107.782 154.504H110.358V152.042H107.782V154.504Z" fill="#C7C7C7"/>
<path d="M107.782 149.239H110.358V146.777H107.782V149.239Z" fill="#C7C7C7"/>
<path d="M107.782 143.985H110.358V141.522H107.782V143.985Z" fill="#C7C7C7"/>
<path d="M107.782 138.72H110.358V136.257H107.782V138.72Z" fill="#C7C7C7"/>
<path d="M107.782 133.46H110.358V130.998H107.782V133.46Z" fill="#C7C7C7"/>
<path d="M227.268 81.7984H214.902V96.4054H227.268V81.7984Z" fill="#DBDBDB"/>
<path d="M235.109 81.7984H227.268V96.94H235.109V81.7984Z" fill="#C7C7C7"/>
<path d="M235.627 88.246H227.845V96.94H235.627V88.246Z" fill="#DBDBDB"/>
<path d="M240.482 88.246H235.627V96.94H240.482V88.246Z" fill="#C7C7C7"/>
<path d="M230.151 95.4496H210.161V168.112H230.151V95.4496Z" fill="#EBEBEB"/>
<path d="M218.73 98.5762H212.445V101.147H218.73V98.5762Z" fill="white"/>
<path d="M226.771 98.5762H220.485V101.147H226.771V98.5762Z" fill="white"/>
<path d="M218.73 102.939H212.445V105.51H218.73V102.939Z" fill="white"/>
<path d="M226.771 102.939H220.485V105.51H226.771V102.939Z" fill="white"/>
<path d="M218.73 107.297H212.445V109.868H218.73V107.297Z" fill="white"/>
<path d="M226.771 107.297H220.485V109.868H226.771V107.297Z" fill="white"/>
<path d="M218.73 111.66H212.445V114.231H218.73V111.66Z" fill="white"/>
<path d="M226.771 111.66H220.485V114.231H226.771V111.66Z" fill="white"/>
<path d="M218.73 116.018H212.445V118.589H218.73V116.018Z" fill="white"/>
<path d="M226.771 116.018H220.485V118.589H226.771V116.018Z" fill="white"/>
<path d="M218.73 120.381H212.445V122.952H218.73V120.381Z" fill="white"/>
<path d="M226.771 120.381H220.485V122.952H226.771V120.381Z" fill="white"/>
<path d="M218.73 124.745H212.445V127.315H218.73V124.745Z" fill="white"/>
<path d="M226.771 124.745H220.485V127.315H226.771V124.745Z" fill="white"/>
<path d="M218.73 129.102H212.445V131.673H218.73V129.102Z" fill="white"/>
<path d="M226.771 129.102H220.485V131.673H226.771V129.102Z" fill="white"/>
<path d="M218.73 133.466H212.445V136.036H218.73V133.466Z" fill="white"/>
<path d="M226.771 133.466H220.485V136.036H226.771V133.466Z" fill="white"/>
<path d="M218.73 137.829H212.445V140.399H218.73V137.829Z" fill="white"/>
<path d="M226.771 137.829H220.485V140.399H226.771V137.829Z" fill="white"/>
<path d="M218.73 142.187H212.445V144.757H218.73V142.187Z" fill="white"/>
<path d="M226.771 142.187H220.485V144.757H226.771V142.187Z" fill="white"/>
<path d="M218.73 146.55H212.445V149.12H218.73V146.55Z" fill="white"/>
<path d="M226.771 146.55H220.485V149.12H226.771V146.55Z" fill="white"/>
<path d="M218.73 150.913H212.445V153.483H218.73V150.913Z" fill="white"/>
<path d="M226.771 150.913H220.485V153.483H226.771V150.913Z" fill="white"/>
<path d="M218.73 155.271H212.445V157.841H218.73V155.271Z" fill="white"/>
<path d="M226.771 155.271H220.485V157.841H226.771V155.271Z" fill="white"/>
<path d="M246.351 95.4496H230.151V168.112H246.351V95.4496Z" fill="#C7C7C7"/>
<path d="M239.563 157.841H244.726V155.271H239.563V157.841Z" fill="#EBEBEB"/>
<path d="M232.965 157.841H238.127V155.271H232.965V157.841Z" fill="#EBEBEB"/>
<path d="M239.563 153.478H244.726V150.908H239.563V153.478Z" fill="#EBEBEB"/>
<path d="M232.965 153.478H238.127V150.908H232.965V153.478Z" fill="#EBEBEB"/>
<path d="M239.563 149.12H244.726V146.55H239.563V149.12Z" fill="#EBEBEB"/>
<path d="M232.965 149.12H238.127V146.55H232.965V149.12Z" fill="#EBEBEB"/>
<path d="M239.563 144.757H244.726V142.187H239.563V144.757Z" fill="#EBEBEB"/>
<path d="M232.965 144.757H238.127V142.187H232.965V144.757Z" fill="#EBEBEB"/>
<path d="M239.563 140.394H244.726V137.823H239.563V140.394Z" fill="#EBEBEB"/>
<path d="M232.965 140.394H238.127V137.823H232.965V140.394Z" fill="#EBEBEB"/>
<path d="M239.563 136.036H244.726V133.466H239.563V136.036Z" fill="#EBEBEB"/>
<path d="M232.965 136.036H238.127V133.466H232.965V136.036Z" fill="#EBEBEB"/>
<path d="M239.563 131.678H244.726V129.108H239.563V131.678Z" fill="#EBEBEB"/>
<path d="M232.965 131.678H238.127V129.108H232.965V131.678Z" fill="#EBEBEB"/>
<path d="M239.563 127.31H244.726V124.739H239.563V127.31Z" fill="#EBEBEB"/>
<path d="M232.965 127.31H238.127V124.739H232.965V127.31Z" fill="#EBEBEB"/>
<path d="M239.563 122.952H244.726V120.381H239.563V122.952Z" fill="#EBEBEB"/>
<path d="M232.965 122.952H238.127V120.381H232.965V122.952Z" fill="#EBEBEB"/>
<path d="M239.563 118.594H244.726V116.024H239.563V118.594Z" fill="#EBEBEB"/>
<path d="M232.965 118.594H238.127V116.024H232.965V118.594Z" fill="#EBEBEB"/>
<path d="M239.563 114.225H244.726V111.655H239.563V114.225Z" fill="#EBEBEB"/>
<path d="M232.965 114.225H238.127V111.655H232.965V114.225Z" fill="#EBEBEB"/>
<path d="M239.563 109.868H244.726V107.297H239.563V109.868Z" fill="#EBEBEB"/>
<path d="M232.965 109.868H238.127V107.297H232.965V109.868Z" fill="#EBEBEB"/>
<path d="M239.563 105.504H244.726V102.934H239.563V105.504Z" fill="#EBEBEB"/>
<path d="M232.965 105.504H238.127V102.934H232.965V105.504Z" fill="#EBEBEB"/>
<path d="M239.563 101.141H244.726V98.5708H239.563V101.141Z" fill="#EBEBEB"/>
<path d="M232.965 101.141H238.127V98.5708H232.965V101.141Z" fill="#EBEBEB"/>
<path d="M157.937 120.765H134.355V168.112H157.937V120.765Z" fill="#C7C7C7"/>
<path d="M142.239 124.863H138.065V127.763H142.239V124.863Z" fill="#DBDBDB"/>
<path d="M142.239 131.063H138.065V133.962H142.239V131.063Z" fill="#DBDBDB"/>
<path d="M142.239 137.256H138.065V140.156H142.239V137.256Z" fill="#DBDBDB"/>
<path d="M142.239 143.45H138.065V146.35H142.239V143.45Z" fill="#DBDBDB"/>
<path d="M142.239 149.649H138.065V152.549H142.239V149.649Z" fill="#DBDBDB"/>
<path d="M142.239 155.843H138.065V158.743H142.239V155.843Z" fill="#DBDBDB"/>
<path d="M142.239 162.037H138.065V164.937H142.239V162.037Z" fill="#DBDBDB"/>
<path d="M148.244 124.863H144.07V127.763H148.244V124.863Z" fill="#DBDBDB"/>
<path d="M148.244 131.063H144.07V133.962H148.244V131.063Z" fill="#DBDBDB"/>
<path d="M148.244 137.256H144.07V140.156H148.244V137.256Z" fill="#DBDBDB"/>
<path d="M148.244 143.45H144.07V146.35H148.244V143.45Z" fill="#DBDBDB"/>
<path d="M148.244 149.649H144.07V152.549H148.244V149.649Z" fill="#DBDBDB"/>
<path d="M148.244 155.843H144.07V158.743H148.244V155.843Z" fill="#DBDBDB"/>
<path d="M148.244 162.037H144.07V164.937H148.244V162.037Z" fill="#DBDBDB"/>
<path d="M154.233 124.863H150.059V127.763H154.233V124.863Z" fill="#DBDBDB"/>
<path d="M154.233 131.063H150.059V133.962H154.233V131.063Z" fill="#DBDBDB"/>
<path d="M154.233 137.256H150.059V140.156H154.233V137.256Z" fill="#DBDBDB"/>
<path d="M154.233 143.45H150.059V146.35H154.233V143.45Z" fill="#DBDBDB"/>
<path d="M154.233 149.649H150.059V152.549H154.233V149.649Z" fill="#DBDBDB"/>
<path d="M154.233 155.843H150.059V158.743H154.233V155.843Z" fill="#DBDBDB"/>
<path d="M154.233 162.037H150.059V164.937H154.233V162.037Z" fill="#DBDBDB"/>
<path d="M157.937 115.835H142.239V120.77H157.937V115.835Z" fill="#DBDBDB"/>
<path d="M157.937 112.778H147.985V115.835H157.937V112.778Z" fill="#EBEBEB"/>
<path d="M174.483 120.765H157.937V168.112H174.483V120.765Z" fill="#A6A6A6"/>
<path d="M169.396 164.478H172.792V161.578H169.396V164.478Z" fill="#C7C7C7"/>
<path d="M169.396 158.284H172.792V155.384H169.396V158.284Z" fill="#C7C7C7"/>
<path d="M169.396 152.085H172.792V149.185H169.396V152.085Z" fill="#C7C7C7"/>
<path d="M169.396 145.886H172.792V142.986H169.396V145.886Z" fill="#C7C7C7"/>
<path d="M169.396 139.697H172.792V136.797H169.396V139.697Z" fill="#C7C7C7"/>
<path d="M169.396 133.498H172.792V130.598H169.396V133.498Z" fill="#C7C7C7"/>
<path d="M169.396 127.304H172.792V124.404H169.396V127.304Z" fill="#C7C7C7"/>
<path d="M164.509 164.478H167.906V161.578H164.509V164.478Z" fill="#C7C7C7"/>
<path d="M164.509 158.284H167.906V155.384H164.509V158.284Z" fill="#C7C7C7"/>
<path d="M164.509 152.085H167.906V149.185H164.509V152.085Z" fill="#C7C7C7"/>
<path d="M164.509 145.886H167.906V142.986H164.509V145.886Z" fill="#C7C7C7"/>
<path d="M164.509 139.697H167.906V136.797H164.509V139.697Z" fill="#C7C7C7"/>
<path d="M164.509 133.498H167.906V130.598H164.509V133.498Z" fill="#C7C7C7"/>
<path d="M164.509 127.304H167.906V124.404H164.509V127.304Z" fill="#C7C7C7"/>
<path d="M159.633 164.478H163.029V161.578H159.633V164.478Z" fill="#C7C7C7"/>
<path d="M159.633 158.284H163.029V155.384H159.633V158.284Z" fill="#C7C7C7"/>
<path d="M159.633 152.085H163.029V149.185H159.633V152.085Z" fill="#C7C7C7"/>
<path d="M159.633 145.886H163.029V142.986H159.633V145.886Z" fill="#C7C7C7"/>
<path d="M159.633 139.697H163.029V136.797H159.633V139.697Z" fill="#C7C7C7"/>
<path d="M159.633 133.498H163.029V130.598H159.633V133.498Z" fill="#C7C7C7"/>
<path d="M159.633 127.304H163.029V124.404H159.633V127.304Z" fill="#C7C7C7"/>
<path d="M171.977 115.835H157.937V120.77H171.977V115.835Z" fill="#C7C7C7"/>
<path d="M165.546 112.778H157.937V115.835H165.546V112.778Z" fill="#DBDBDB"/>
<path d="M135.5 234.446C192.051 234.446 237.895 230.72 237.895 226.124C237.895 221.528 192.051 217.803 135.5 217.803C78.9487 217.803 33.105 221.528 33.105 226.124C33.105 230.72 78.9487 234.446 135.5 234.446Z" fill="#EBEBEB"/>
<path d="M21.6196 172.038L50.0884 171.908L78.5626 171.86L135.5 171.768L192.438 171.86L220.912 171.903L249.381 172.038L220.912 172.167L192.438 172.216L135.5 172.308L78.5626 172.216L50.0884 172.167L21.6196 172.038Z" fill="#263238"/>
<path d="M248.161 168.112H22.8347V172.038H248.161V168.112Z" fill="#C7C7C7"/>
<path d="M38.6351 168.112C38.9879 169.397 38.9879 170.753 38.6351 172.038C38.4453 171.402 38.3543 170.741 38.3651 170.078C38.3562 169.413 38.4472 168.75 38.6351 168.112Z" fill="#263238"/>
<path d="M56.2445 168.112C56.4324 168.75 56.5235 169.413 56.5145 170.078C56.5254 170.741 56.4344 171.402 56.2445 172.038C55.8918 170.753 55.8918 169.397 56.2445 168.112Z" fill="#263238"/>
<path d="M73.8593 168.112C74.212 169.397 74.212 170.753 73.8593 172.038C73.6694 171.402 73.5784 170.741 73.5893 170.078C73.5803 169.413 73.6713 168.75 73.8593 168.112Z" fill="#263238"/>
<path d="M91.4687 168.112C91.6566 168.75 91.7476 169.413 91.7387 170.078C91.7495 170.741 91.6585 171.402 91.4687 172.038C91.1159 170.753 91.1159 169.397 91.4687 168.112Z" fill="#263238"/>
<path d="M109.083 168.112C109.436 169.397 109.436 170.753 109.083 172.038C108.894 171.402 108.802 170.741 108.813 170.078C108.804 169.413 108.895 168.75 109.083 168.112Z" fill="#263238"/>
<path d="M126.693 168.112C126.881 168.75 126.972 169.413 126.963 170.078C126.974 170.741 126.883 171.402 126.693 172.038C126.34 170.753 126.34 169.397 126.693 168.112Z" fill="#263238"/>
<path d="M144.308 168.112C144.66 169.397 144.66 170.753 144.308 172.038C144.118 171.402 144.027 170.741 144.038 170.078C144.029 169.413 144.12 168.75 144.308 168.112Z" fill="#263238"/>
<path d="M161.917 168.112C162.105 168.75 162.196 169.413 162.187 170.078C162.198 170.741 162.107 171.402 161.917 172.038C161.564 170.753 161.564 169.397 161.917 168.112Z" fill="#263238"/>
<path d="M179.532 168.112C179.885 169.397 179.885 170.753 179.532 172.038C179.342 171.402 179.251 170.741 179.262 170.078C179.253 169.413 179.344 168.75 179.532 168.112Z" fill="#263238"/>
<path d="M197.141 168.112C197.329 168.75 197.42 169.413 197.411 170.078C197.422 170.741 197.331 171.402 197.141 172.038C196.789 170.753 196.789 169.397 197.141 168.112Z" fill="#263238"/>
<path d="M214.756 168.112C215.109 169.397 215.109 170.753 214.756 172.038C214.566 171.402 214.475 170.741 214.486 170.078C214.477 169.413 214.568 168.75 214.756 168.112Z" fill="#263238"/>
<path d="M232.365 168.112C232.553 168.75 232.644 169.413 232.635 170.078C232.646 170.741 232.555 171.402 232.365 172.038C232.013 170.753 232.013 169.397 232.365 168.112Z" fill="#263238"/>
<path d="M48.2468 168.112C48.2468 168.112 47.7932 165.99 46.886 165.666C45.9788 165.342 45.4226 166.292 45.4226 166.292C45.4226 166.292 45.212 164.262 43.9214 163.657C42.6308 163.052 41.6696 164.294 41.6696 164.294C41.6696 164.294 40.6814 161.74 38.9156 161.74C37.1498 161.74 36.2642 165.52 36.2642 165.52C36.2642 165.52 35.222 164.402 34.1528 165.034C33.0836 165.666 33.0728 168.15 33.0728 168.15L48.2468 168.112Z" fill="#37474F"/>
<path d="M198.82 168.112C198.82 168.112 198.367 165.99 197.46 165.666C196.552 165.342 196.002 166.292 196.002 166.292C196.002 166.292 195.786 164.262 194.5 163.657C193.215 163.052 192.249 164.294 192.249 164.294C192.249 164.294 191.26 161.74 189.5 161.74C187.74 161.74 186.843 165.52 186.843 165.52C186.843 165.52 185.806 164.402 184.737 165.034C183.668 165.666 183.657 168.15 183.657 168.15L198.82 168.112Z" fill="#455A64"/>
<path d="M88.3581 168.112H72.4011C72.4011 168.112 72.9411 165.866 73.9833 165.704C74.3066 165.672 74.6317 165.741 74.9141 165.901C75.1965 166.062 75.4222 166.306 75.5601 166.6C75.5601 166.6 75.5115 163.463 77.4879 162.928C79.4643 162.393 81.1167 165.164 81.1167 165.164C81.1167 165.164 82.3587 163.581 84.0435 163.684C85.7283 163.787 86.1657 166.384 86.1657 166.384C86.1657 166.384 87.6777 165.482 88.3581 168.112Z" fill="#37474F"/>
<path d="M34.0664 168.112H25.6694C25.6694 168.112 25.6694 166.865 26.5118 166.53C26.7363 166.433 26.9862 166.412 27.2238 166.469C27.4614 166.527 27.6739 166.66 27.8294 166.848C27.8294 166.848 28.1642 164.548 29.7032 164.548C31.2422 164.548 31.982 166.53 31.982 166.53C32.1126 166.341 32.2957 166.194 32.5087 166.107C32.7217 166.021 32.9554 165.999 33.1808 166.044C34.034 166.152 34.0664 168.112 34.0664 168.112Z" fill="#455A64"/>
<path d="M94.9461 168.112H86.5491C86.5491 168.112 86.5491 166.865 87.3915 166.53C87.616 166.433 87.8658 166.412 88.1034 166.469C88.341 166.527 88.5536 166.66 88.7091 166.848C88.7091 166.848 89.0493 164.548 90.5883 164.548C92.1273 164.548 92.8617 166.53 92.8617 166.53C92.9922 166.341 93.1753 166.194 93.3883 166.107C93.6014 166.021 93.835 165.999 94.0605 166.044C94.9137 166.152 94.9461 168.112 94.9461 168.112Z" fill="#455A64"/>
<path d="M233.078 168.112H224.681C224.681 168.112 224.681 166.865 225.523 166.53C225.748 166.433 225.998 166.412 226.235 166.469C226.473 166.527 226.685 166.66 226.841 166.848C226.841 166.848 227.176 164.548 228.715 164.548C230.254 164.548 230.994 166.53 230.994 166.53C231.124 166.34 231.307 166.193 231.52 166.106C231.733 166.02 231.967 165.998 232.192 166.044C233.046 166.152 233.078 168.112 233.078 168.112Z" fill="#455A64"/>
<path d="M245.331 168.112H231.485C231.485 168.112 231.518 166.049 232.878 165.504C233.248 165.348 233.659 165.317 234.048 165.414C234.438 165.512 234.785 165.733 235.038 166.044C235.038 166.044 235.578 162.264 238.133 162.264C240.687 162.264 241.88 165.52 241.88 165.52C242.095 165.208 242.397 164.965 242.748 164.822C243.099 164.679 243.485 164.642 243.857 164.715C245.277 164.883 245.331 168.112 245.331 168.112Z" fill="#37474F"/>
<path d="M182.939 9.10901H173.705V14.3416H182.939V9.10901Z" fill="#263238"/>
<path d="M184.24 7.34863H172.398V10.7722H184.24V7.34863Z" fill="#455A64"/>
<path d="M162.292 14.2806L159.776 16.7969L163.751 20.7719L166.267 18.2556L162.292 14.2806Z" fill="#263238"/>
<path d="M161.698 12.2006L157.7 16.1984L160.296 18.7949L164.294 14.7971L161.698 12.2006Z" fill="#455A64"/>
<path d="M190.376 18.2511L192.892 20.7674L196.867 16.7925L194.351 14.2761L190.376 18.2511Z" fill="#263238"/>
<path d="M192.339 14.7996L196.337 18.7974L198.933 16.2009L194.935 12.2031L192.339 14.7996Z" fill="#455A64"/>
<path d="M200.164 41.2489C202.995 29.1789 195.505 17.0992 183.435 14.2682C171.365 11.4372 159.286 18.9269 156.455 30.9969C153.624 43.067 161.113 55.1466 173.183 57.9776C185.253 60.8086 197.333 53.3189 200.164 41.2489Z" fill="#455A64"/>
<path d="M178.047 57.1744C189.874 57.1744 199.463 47.586 199.463 35.758C199.463 23.9301 189.874 14.3416 178.047 14.3416C166.219 14.3416 156.63 23.9301 156.63 35.758C156.63 47.586 166.219 57.1744 178.047 57.1744Z" fill="#263238"/>
<path d="M197.032 38.7636C198.543 28.4264 191.389 18.821 181.052 17.3093C170.715 15.7976 161.109 22.952 159.598 33.2892C158.086 43.6264 165.24 53.2318 175.577 54.7435C185.915 56.2552 195.52 49.1008 197.032 38.7636Z" fill="white"/>
<path opacity="0.5" d="M197.238 36.0334H178.338V17.1334C183.351 17.1334 188.158 19.1247 191.702 22.6691C195.247 26.2135 197.238 31.0208 197.238 36.0334Z" fill="#515DEF"/>
<path d="M178.505 18.4888H178.138V21.3562H178.505V18.4888Z" fill="#C7C7C7"/>
<path d="M169.704 20.7356L169.386 20.9192L170.819 23.4024L171.137 23.2188L169.704 20.7356Z" fill="#C7C7C7"/>
<path d="M163.211 27.0945L163.028 27.4125L165.511 28.8462L165.695 28.5282L163.211 27.0945Z" fill="#C7C7C7"/>
<path d="M163.645 35.8499H160.777V36.2171H163.645V35.8499Z" fill="#C7C7C7"/>
<path d="M166.161 43.3949L163.667 44.8286L163.85 45.148L166.345 43.7143L166.161 43.3949Z" fill="#C7C7C7"/>
<path d="M170.821 48.6532L169.389 51.1371L169.707 51.3206L171.139 48.8366L170.821 48.6532Z" fill="#C7C7C7"/>
<path d="M178.505 50.7106H178.138V53.578H178.505V50.7106Z" fill="#C7C7C7"/>
<path d="M185.814 48.6434L185.496 48.827L186.93 51.3103L187.248 51.1267L185.814 48.6434Z" fill="#C7C7C7"/>
<path d="M191.12 43.1994L190.936 43.5174L193.42 44.9511L193.603 44.6331L191.12 43.1994Z" fill="#C7C7C7"/>
<path d="M195.866 35.8499H192.999V36.2171H195.866V35.8499Z" fill="#C7C7C7"/>
<path d="M193.42 27.092L190.937 28.5257L191.121 28.8437L193.604 27.41L193.42 27.092Z" fill="#C7C7C7"/>
<path d="M186.931 20.7431L185.498 23.2268L185.816 23.4103L187.249 20.9266L186.931 20.7431Z" fill="#C7C7C7"/>
<path d="M178.451 22.3445L179.294 37.1567L177.393 37.1297L177.938 22.3391L178.451 22.3445Z" fill="#515DEF"/>
<path d="M178.97 36.0334C178.97 36.1629 178.931 36.2894 178.859 36.397C178.787 36.5046 178.685 36.5883 178.565 36.6376C178.446 36.6869 178.314 36.6995 178.187 36.6738C178.06 36.6482 177.944 36.5854 177.853 36.4935C177.761 36.4016 177.7 36.2847 177.675 36.1576C177.65 36.0305 177.664 35.8989 177.714 35.7796C177.765 35.6603 177.849 35.5587 177.957 35.4875C178.066 35.4164 178.192 35.379 178.322 35.38C178.407 35.38 178.492 35.397 178.571 35.4299C178.65 35.4628 178.722 35.511 178.782 35.5717C178.842 35.6325 178.89 35.7045 178.922 35.7838C178.954 35.863 178.971 35.9479 178.97 36.0334Z" fill="#515DEF"/>
<path d="M192.032 36.2548L177.22 37.0918L177.247 35.191L192.038 35.7364L192.032 36.2548Z" fill="#263238"/>
<path d="M178.97 36.0334C178.97 36.1629 178.931 36.2894 178.859 36.397C178.787 36.5046 178.685 36.5883 178.565 36.6376C178.446 36.6869 178.314 36.6995 178.187 36.6738C178.06 36.6482 177.944 36.5854 177.853 36.4935C177.761 36.4016 177.7 36.2847 177.675 36.1576C177.65 36.0305 177.664 35.8989 177.714 35.7796C177.765 35.6603 177.849 35.5587 177.957 35.4875C178.066 35.4164 178.192 35.379 178.322 35.38C178.407 35.38 178.492 35.397 178.571 35.4299C178.65 35.4628 178.722 35.511 178.782 35.5717C178.842 35.6325 178.89 35.7045 178.922 35.7838C178.954 35.863 178.971 35.9479 178.97 36.0334Z" fill="#515DEF"/>
<path d="M101.41 76.69C104.191 87.301 107.814 94.2292 110.244 96.6268C116.065 102.372 128.604 103.647 135.657 106.574C137.952 107.529 144.297 92.971 141.948 91.6966C140.214 90.7516 120.083 88.2028 118.371 87.679C117.491 87.409 110.811 78.7096 107.031 73.8172C100.94 65.9764 99.887 70.8958 101.41 76.69Z" fill="#F7A9A0"/>
<path d="M146.678 108.615C145.598 108.588 145.56 109.155 147.067 110.402C148.573 111.65 155.588 115.262 154.114 117.611C152.64 119.96 142.817 114.69 140.468 112.433C138.119 110.175 135.1 105.704 135.1 105.704C137.223 106.347 142.52 107.411 146.678 108.615Z" fill="#F7A9A0"/>
<path d="M140.252 91.2376C150.706 92.8576 154.864 94.9042 159.444 100.25C159.966 100.828 160.282 101.563 160.34 102.34C162.435 104.694 161.96 106.395 161.96 106.395C163.234 109.187 162.5 110.856 162.5 110.856C162.5 110.856 164.93 113.648 163.483 115.397C161.863 117.363 158.774 113.054 155.626 111.725C148.406 108.674 137.266 106.363 135.106 105.693L140.252 91.2376Z" fill="#F7A9A0"/>
<path d="M150.285 103.226C152.41 104.09 154.472 105.101 156.457 106.25C158.55 107.639 160.536 109.185 162.397 110.872C162.41 110.879 162.425 110.882 162.439 110.88C162.454 110.878 162.467 110.871 162.477 110.86C162.487 110.85 162.493 110.836 162.494 110.821C162.495 110.807 162.492 110.792 162.484 110.78C159.208 107.166 155.004 104.519 150.328 103.128C150.22 103.096 150.177 103.177 150.285 103.226Z" fill="#263238"/>
<path d="M151.489 98.5978C153.493 99.6238 156.992 101.454 161.89 106.455C161.89 106.455 161.938 106.455 161.922 106.455C159.264 102.898 155.668 100.151 151.538 98.5222C151.408 98.4466 151.36 98.5276 151.489 98.5978Z" fill="#263238"/>
<path d="M152.186 96.1246C155.518 98.0038 157.381 99.6076 160.313 102.351C160.313 102.351 160.356 102.351 160.34 102.324C157.343 98.857 155.863 97.939 152.24 96.0004C152.11 95.9356 152.056 96.049 152.186 96.1246Z" fill="#263238"/>
<path d="M113.268 81.5014L103.64 90.5248C103.64 90.5248 99.7519 76.528 99.7789 72.1C99.7789 67.105 102.349 68.2066 105.719 71.56C109.089 74.9134 113.268 81.5014 113.268 81.5014Z" fill="#515DEF"/>
<path opacity="0.1" d="M113.268 81.5014L103.64 90.5248C103.64 90.5248 99.7519 76.528 99.7789 72.1C99.7789 67.105 102.349 68.2066 105.719 71.56C109.089 74.9134 113.268 81.5014 113.268 81.5014Z" fill="black"/>
<path d="M111.297 80.0758C109.915 81.0586 106.183 84.5902 105.557 85.168C105.228 85.4758 103.975 86.7448 103.645 87.0472C103.602 87.085 103.645 87.1444 103.71 87.1066C104.342 86.5342 105.033 86.0266 105.665 85.4488C106.297 84.871 110.228 81.4204 111.34 80.1244C111.367 80.0974 111.33 80.0542 111.297 80.0758Z" fill="#263238"/>
<path d="M164.293 189.782C162.986 190.209 125.359 188.702 123.949 187.79C123.777 187.687 123.107 180.451 123.107 180.451L127.459 152.646L152.164 152.976L147.396 176.736C147.396 176.736 152.839 179.241 157.327 181.428C160.092 182.768 162.495 183.993 163.045 184.442C164.493 185.597 165.605 189.361 164.293 189.782Z" fill="#F7A9A0"/>
<path d="M164.298 189.782C162.991 190.209 125.353 188.702 123.949 187.795C123.782 187.687 123.102 180.451 123.102 180.451L124.446 171.887L148.147 172.967L147.38 176.714C147.38 176.714 152.818 179.22 157.311 181.401C160.075 182.741 162.478 183.966 163.029 184.415C164.487 185.603 165.6 189.366 164.298 189.782Z" fill="#EBEBEB"/>
<path d="M164.277 189.82C162.943 190.236 125.067 189.356 123.647 188.405C123.107 188.054 122.907 182.525 122.864 175.839V175.634L147.31 175.931V176.342C147.31 176.342 161.658 183.167 163.11 184.377C164.563 185.586 165.61 189.42 164.277 189.82Z" fill="#C7C7C7"/>
<path d="M162.117 189.928C153.828 190.014 124.857 189.237 123.647 188.411C123.107 188.06 122.907 182.53 122.864 175.845V175.64L138.173 175.823L162.117 189.928Z" fill="#A6A6A6"/>
<path d="M163.882 188.351C157.499 188.043 131.731 187.412 125.402 187.595C125.348 187.595 125.348 187.633 125.402 187.638C131.72 188.076 157.489 188.497 163.877 188.454C164.012 188.454 164.017 188.357 163.882 188.351Z" fill="#263238"/>
<path d="M149.34 176.471C146.84 175.931 143.757 176.255 141.78 178.005C141.705 178.07 141.78 178.178 141.883 178.151C144.302 177.433 146.791 176.977 149.308 176.79C149.346 176.788 149.383 176.772 149.411 176.745C149.439 176.719 149.457 176.683 149.461 176.644C149.465 176.606 149.455 176.567 149.432 176.536C149.41 176.504 149.378 176.481 149.34 176.471Z" fill="#263238"/>
<path d="M151.128 177.605C148.627 177.065 145.544 177.395 143.568 179.139C143.492 179.204 143.568 179.312 143.67 179.29C146.095 178.575 148.59 178.122 151.111 177.94C151.156 177.942 151.199 177.927 151.232 177.897C151.265 177.867 151.285 177.825 151.287 177.781C151.289 177.736 151.273 177.693 151.244 177.66C151.214 177.627 151.172 177.607 151.128 177.605Z" fill="#263238"/>
<path d="M152.915 178.739C150.415 178.199 147.331 178.529 145.355 180.273C145.279 180.343 145.355 180.446 145.457 180.424C147.877 179.705 150.366 179.247 152.882 179.058C152.921 179.056 152.958 179.04 152.986 179.013C153.014 178.987 153.031 178.951 153.035 178.912C153.039 178.874 153.029 178.835 153.007 178.803C152.985 178.772 152.952 178.749 152.915 178.739Z" fill="#263238"/>
<path d="M149.47 173.139L121.892 171.887C121.892 171.887 131.423 133.185 130.408 131.927C129.328 130.577 89.4 140.567 81.4188 130.663C73.2432 120.516 77.3418 105.909 77.3418 105.909H104.574C104.574 105.909 104.034 109.565 104.401 111.309C104.401 111.309 142.741 105.445 151.079 109.862C152.699 110.732 158.639 115.613 158.736 120.241C159.26 140.68 149.47 173.139 149.47 173.139Z" fill="#455A64"/>
<path d="M149.745 168.144C146.473 167.734 143.195 167.486 139.906 167.237C136.618 166.989 133.329 166.794 130.04 166.67C128.183 166.595 126.325 166.611 124.468 166.546C124.458 166.549 124.45 166.556 124.444 166.564C124.438 166.572 124.435 166.582 124.435 166.592C124.435 166.602 124.438 166.612 124.444 166.62C124.45 166.628 124.458 166.635 124.468 166.638C126.12 166.757 127.767 166.967 129.419 167.097L134.312 167.453C137.6 167.669 140.889 167.853 144.178 168.053C146.03 168.166 147.882 168.225 149.74 168.269C149.753 168.265 149.765 168.258 149.774 168.247C149.783 168.236 149.788 168.223 149.789 168.209C149.789 168.195 149.786 168.181 149.778 168.169C149.77 168.158 149.758 168.149 149.745 168.144Z" fill="#263238"/>
<path d="M134.658 129.178C129.36 129.351 124.09 129.81 118.819 130.328C113.549 130.847 108.246 131.408 102.933 131.754C100.297 131.921 97.6514 132.029 95.0054 132.045C92.8076 132.14 90.6079 131.91 88.4768 131.365C86.3609 130.747 84.5525 129.36 83.4062 127.477C82.2538 125.569 81.4989 123.447 81.1868 121.24C80.4902 116.774 81.1868 112.211 82.0022 107.805C82.1048 107.265 82.2074 106.725 82.3046 106.142C82.3046 106.093 82.2344 106.071 82.2182 106.142C81.1382 110.586 80.1284 115.16 80.4524 119.75C80.5849 122.002 81.1342 124.21 82.0724 126.262C82.9187 128.256 84.3741 129.93 86.2304 131.046C88.1258 132.126 90.3668 132.445 92.543 132.553C95.081 132.683 97.6514 132.553 100.189 132.44C105.622 132.175 111.033 131.613 116.433 131.052C121.833 130.49 127.206 129.939 132.633 129.669C133.232 129.637 133.831 129.615 134.431 129.594C133.61 134.454 126.66 163.387 126.271 165.677C126.234 165.903 126.45 165.974 126.509 165.741C127.697 161.232 134.442 132.261 134.89 129.432C134.897 129.399 134.896 129.365 134.887 129.332C134.879 129.3 134.862 129.27 134.839 129.245C134.817 129.22 134.788 129.201 134.757 129.189C134.725 129.178 134.691 129.174 134.658 129.178Z" fill="#263238"/>
<path d="M155.917 190.911H96.9817V197.429H155.917V190.911Z" fill="#FDB900"/>
<path d="M45.1902 133.73H48.5328L70.1328 158.441H66.7902L45.1902 133.73Z" fill="#A6A6A6"/>
<path d="M87.2887 131.77H40.8379V133.725H87.2887V131.77Z" fill="#A6A6A6"/>
<path d="M57.7939 133.73H61.1365L82.7365 158.441H79.3939L57.7939 133.73Z" fill="#A6A6A6"/>
<path d="M79.2859 179.285C96.0691 179.285 105.794 190.943 105.794 204.665C105.794 218.386 96.7873 229.78 80.4199 229.78C62.3083 229.78 53.6575 215.373 53.6575 204.54C53.6575 193.708 62.2975 179.285 79.2859 179.285Z" fill="#37474F"/>
<path d="M76.7046 179.285C92.6616 179.285 101.901 190.943 101.901 204.665C101.901 218.386 93.342 229.78 77.7738 229.78C60.5532 229.78 52.3398 215.351 52.3398 204.519C52.3398 193.686 60.5532 179.285 76.7046 179.285Z" fill="#263238"/>
<path d="M76.8666 189.14C86.5866 189.14 92.2188 196.246 92.2188 204.605C92.2188 212.964 87.0024 219.903 77.52 219.903C67.0224 219.903 62.0112 211.123 62.0112 204.519C62.0112 197.915 67.0224 189.14 76.8666 189.14Z" fill="#C7C7C7"/>
<path d="M126.795 148.521V146.312L70.3164 148.132V153.1C70.3164 153.1 53.9598 171.163 52.3074 189.939L108.943 191.138L118.042 190.911H129.214V179.56C129.214 179.56 120.769 173.404 122.248 160.827C122.74 156.653 126.795 148.521 126.795 148.521Z" fill="#FDB900"/>
<path d="M103.667 188.508C103.078 189.588 94.4869 191.138 78.2005 191.575C63.5395 191.969 52.5883 191.645 51.7405 190.7C50.8927 189.755 53.0527 173.042 62.9779 163.992C72.9031 154.941 86.9539 153.64 96.2203 159.04C104.369 163.776 110.449 175.812 103.667 188.508Z" fill="#FDB900"/>
<path opacity="0.1" d="M106.432 172.686C105.561 168.728 103.553 165.111 100.654 162.28C97.7477 159.368 94.1188 157.283 90.1399 156.237C85.7016 155.13 81.0533 155.18 76.6399 156.383C74.4312 156.962 72.2954 157.79 70.2733 158.851C68.1384 159.998 66.1263 161.361 64.2685 162.917C63.7717 163.328 63.2695 163.738 62.7781 164.159C62.7349 164.192 62.7781 164.251 62.8429 164.219C64.7122 162.575 66.7358 161.116 68.8855 159.861C70.8472 158.74 72.9284 157.844 75.0901 157.188C79.3759 155.847 83.9273 155.591 88.3363 156.443C92.3212 157.243 96.0144 159.11 99.0229 161.843C101.922 164.453 104.054 167.804 105.19 171.536C106.54 176.082 106.097 181.088 104.752 185.576C104.574 186.18 104.38 186.774 104.18 187.368C104.18 187.433 104.256 187.455 104.277 187.395C106.092 182.735 107.447 177.713 106.432 172.686Z" fill="black"/>
<path d="M67.1737 193.298C57.3403 193.298 52.1347 192.995 49.4941 191.948L50.7199 188.864C53.8087 190.09 63.4801 190.068 79.0429 189.89C90.5395 189.755 99.0229 188.67 104.315 186.65L105.498 189.75C99.7735 191.91 91.1335 193.055 79.0807 193.195C74.5069 193.26 70.5649 193.298 67.1737 193.298Z" fill="#DBDBDB"/>
<path d="M127.724 147.765C127.724 147.765 128.102 135.41 127.724 134.924C127.346 134.438 70.1706 133.406 68.4588 133.557C66.747 133.709 66.5742 148.137 66.7038 148.812C66.8334 149.487 126.233 147.894 127.724 147.765Z" fill="#37474F"/>
<path d="M133.081 135.172C132.913 134.978 125.666 134.772 125.267 134.762C124.867 134.751 124.727 147.921 124.943 147.911C125.159 147.9 132.816 148.008 133.07 147.727C133.324 147.446 133.442 135.593 133.081 135.172Z" fill="#455A64"/>
<path d="M93.0343 133.568C92.8294 133.782 92.6955 134.053 92.6509 134.346C92.583 134.654 92.5343 134.966 92.5051 135.28C92.4349 135.906 92.3971 136.544 92.3647 137.175C92.3107 138.45 92.2783 139.73 92.2567 141.015C92.2351 142.3 92.2027 143.574 92.2567 144.843C92.2614 145.472 92.3047 146.099 92.3863 146.723C92.4187 147.024 92.4895 147.32 92.5969 147.603C92.6364 147.73 92.7062 147.845 92.8002 147.939C92.8943 148.033 93.0098 148.103 93.1369 148.143C92.9944 148.139 92.856 148.094 92.7383 148.013C92.6206 147.933 92.5284 147.82 92.4727 147.689C92.3216 147.407 92.2038 147.108 92.1217 146.798C91.9689 146.165 91.8695 145.52 91.8247 144.87C91.725 143.577 91.6925 142.279 91.7275 140.982C91.7599 139.692 91.8139 138.396 91.9597 137.105C92.0298 136.46 92.1325 135.818 92.2675 135.183C92.3428 134.869 92.4348 134.559 92.5429 134.254C92.6293 133.989 92.7805 133.66 93.0343 133.568Z" fill="#455A64"/>
<path d="M42.9871 131.743H96.9817V98.1766H42.9871L42.9871 131.743Z" fill="#37474F"/>
<path d="M42.987 131.743H81.9966V98.1766H42.987L42.987 131.743Z" fill="#263238"/>
<path d="M64.5925 98.1712H60.3967V131.738H64.5925V98.1712Z" fill="#FDB900"/>
<path d="M82.0021 95.0662H41.8909V98.1712H82.0021V95.0662Z" fill="#37474F"/>
<path d="M98.1912 95.0662H81.9966V98.1712H98.1912V95.0662Z" fill="#263238"/>
<path d="M64.9435 95.0662H60.0403V98.1712H64.9435V95.0662Z" fill="#FDB900"/>
<path d="M48.7058 95.2066H88.1204V70.7014H48.7058V95.2066Z" fill="#37474F"/>
<path d="M48.7057 95.2066H77.1799V70.7014H48.7057V95.2066Z" fill="#263238"/>
<path d="M64.4737 70.7068H61.4119V95.212H64.4737V70.7068Z" fill="#FDB900"/>
<path d="M77.1799 68.4388H47.9011V70.7068H77.1799V68.4388Z" fill="#37474F"/>
<path d="M89.0005 68.4388H77.1799V70.7068H89.0005V68.4388Z" fill="#263238"/>
<path d="M64.7328 68.4388H61.1526V70.7068H64.7328V68.4388Z" fill="#FDB900"/>
<path d="M202.557 179.079C219.346 179.079 229.066 190.738 229.066 204.459C229.066 218.181 220.059 229.559 203.686 229.559C185.569 229.559 176.918 215.151 176.918 204.324C176.918 193.497 185.569 179.079 202.557 179.079Z" fill="#37474F"/>
<path d="M199.976 179.079C215.933 179.079 225.178 190.738 225.178 204.459C225.178 218.181 216.613 229.559 201.051 229.559C183.83 229.559 175.606 215.151 175.606 204.324C175.606 193.497 183.83 179.079 199.976 179.079Z" fill="#263238"/>
<path d="M200.138 188.934C209.858 188.934 215.495 196.041 215.495 204.4C215.495 212.759 210.279 219.698 200.791 219.698C190.299 219.698 185.288 210.918 185.288 204.319C185.288 197.72 190.299 188.934 200.138 188.934Z" fill="#C7C7C7"/>
<path d="M175.4 121.758H168.796L164.271 115.116H172.009L175.4 121.758Z" fill="#FDB900"/>
<path d="M164.271 115.116L166.922 119.004L168.796 121.758H175.4L173.613 118.259L172.004 115.116H164.271Z" fill="#FDB900"/>
<path opacity="0.1" d="M164.271 115.116L166.922 119.004L173.613 118.259L172.004 115.116H164.271Z" fill="black"/>
<path d="M191.449 171.325L185.018 172.805L179.121 167.34L186.659 165.612L191.449 171.325Z" fill="#FDB900"/>
<path d="M179.121 167.34L182.572 170.542L185.012 172.805L191.455 171.325L188.927 168.317L186.659 165.612L179.121 167.34Z" fill="#FDB900"/>
<path opacity="0.1" d="M179.121 167.34L182.572 170.542L188.927 168.317L186.659 165.612L179.121 167.34Z" fill="black"/>
<path d="M227.608 182.319L221.36 185.603C221.36 185.603 203.264 182.319 191.66 184.803C180.055 187.287 176.923 193.487 176.923 193.487H171.059C171.059 193.487 176.092 175.607 184.629 169.116C193.166 162.626 206.888 164.078 214.475 168.166C222.062 172.254 227.608 182.319 227.608 182.319Z" fill="#FDB900"/>
<path opacity="0.1" d="M220.701 184.366C219.491 183.102 218.18 181.939 216.781 180.888C215.394 179.811 213.929 178.84 212.396 177.983C209.425 176.332 206.166 175.262 202.795 174.83C196.196 174.02 189.295 175.942 184.435 181.013C181.702 183.885 179.758 187.412 177.911 190.97C177.884 191.024 177.96 191.067 177.987 191.013C179.552 187.885 181.528 184.979 183.862 182.373C186.112 179.917 188.912 178.03 192.032 176.865C198.259 174.581 204.992 175.456 210.976 178.215C212.689 178.992 214.342 179.894 215.922 180.915C217.538 182.003 219.097 183.173 220.593 184.42C220.603 184.429 220.615 184.434 220.628 184.436C220.641 184.438 220.654 184.436 220.666 184.43C220.677 184.424 220.687 184.415 220.693 184.403C220.7 184.392 220.702 184.379 220.701 184.366Z" fill="black"/>
<path d="M152.04 118.184C151.943 118.41 138.902 120.808 138.902 120.808C138.902 120.808 136.742 119.35 138.076 117.503L151.16 114.679C151.663 115.092 152.02 115.655 152.178 116.286C152.337 116.917 152.288 117.582 152.04 118.184Z" fill="#263238"/>
<path d="M179.413 101.325V116.796C179.413 116.796 171.059 116.067 168.834 115.991C166.609 115.916 156.722 117.195 156.722 117.195L155.955 113.729C155.955 113.729 163.58 111.066 166.82 108.987C170.06 106.908 173.791 102.934 175.795 102.054C176.929 101.536 178.167 101.286 179.413 101.325Z" fill="#FDB900"/>
<path d="M156.754 113.291C157.251 113.802 157.626 114.419 157.85 115.095C158.074 115.771 158.143 116.489 158.05 117.195C158.05 117.195 151.824 118.335 151.748 118.335C151.8 117.602 151.623 116.872 151.24 116.245C150.858 115.618 150.29 115.125 149.615 114.836L156.754 113.291Z" fill="#DBDBDB"/>
<path d="M179.494 116.796C181.754 116.796 183.587 113.334 183.587 109.063C183.587 104.792 181.754 101.33 179.494 101.33C177.233 101.33 175.4 104.792 175.4 109.063C175.4 113.334 177.233 116.796 179.494 116.796Z" fill="#DBDBDB"/>
<path d="M179.748 115.964C181.683 115.964 183.252 112.874 183.252 109.063C183.252 105.252 181.683 102.162 179.748 102.162C177.812 102.162 176.243 105.252 176.243 109.063C176.243 112.874 177.812 115.964 179.748 115.964Z" fill="white"/>
<path d="M180.811 121.78C182.172 123.773 187.621 150.87 188.69 152.231C189.759 153.591 191.806 153.689 191.806 153.689L195.408 162.642C195.408 162.642 186.46 165.466 181.492 169.548C175.071 174.824 169.137 192.315 169.137 192.315C168.165 192.995 156.101 197.958 152.791 198.152C152.791 198.152 168.175 181.261 169.428 157.884C169.914 148.829 164.341 136.074 163.98 129.756C163.58 122.973 165.632 121.78 169.234 121.78H180.811Z" fill="#FDB900"/>
<path d="M152.051 200.08L149.643 197.801C163.143 183.513 168.121 161 167.727 154.855C167.522 151.707 166.512 148.186 165.438 144.455C164.293 140.475 162.997 135.966 162.446 131.068C161.933 126.521 162.446 123.584 163.996 121.829C165.546 120.074 167.673 120.079 169.088 120.084H181.94V123.4H169.083C167.846 123.4 167.004 123.443 166.469 124.043C165.934 124.642 165.238 126.203 165.745 130.701C166.285 135.318 167.468 139.497 168.629 143.537C169.752 147.446 170.789 151.134 171.037 154.639C171.459 161.2 166.28 185.084 152.051 200.08Z" fill="#DBDBDB"/>
<path d="M188.755 159.623C189.511 162.41 191.892 164.181 194.074 163.587C196.255 162.993 197.416 160.255 196.655 157.474C195.893 154.693 193.512 152.911 191.33 153.505C189.149 154.099 187.993 156.842 188.755 159.623Z" fill="#DBDBDB"/>
<path d="M189.565 159.402C190.24 161.886 192.302 163.484 194.171 162.977C196.039 162.469 197 160.044 196.331 157.577C195.661 155.109 193.593 153.494 191.73 154.002C189.867 154.509 188.89 156.918 189.565 159.402Z" fill="white"/>
<path opacity="0.1" d="M179.202 159.175C178.603 156.372 177.955 153.581 177.393 150.773C176.832 147.965 176.313 145.151 175.876 142.327C175.449 139.697 174.99 137.04 174.823 134.378C174.655 131.597 174.823 128.789 176.173 126.278C176.176 126.273 176.177 126.268 176.178 126.262C176.179 126.256 176.178 126.251 176.177 126.245C176.175 126.24 176.173 126.234 176.169 126.23C176.166 126.225 176.162 126.222 176.157 126.219C176.152 126.216 176.146 126.214 176.14 126.213C176.135 126.213 176.129 126.213 176.124 126.215C176.118 126.216 176.113 126.219 176.108 126.222C176.104 126.226 176.1 126.23 176.097 126.235C174.709 128.26 174.256 130.695 174.18 133.109C174.187 135.77 174.422 138.426 174.882 141.047C175.67 146.803 176.751 152.515 178.122 158.16C178.905 161.351 179.915 164.489 180.995 167.588C180.995 167.598 180.999 167.608 181.006 167.615C181.013 167.622 181.023 167.626 181.033 167.626C181.043 167.626 181.052 167.622 181.06 167.615C181.067 167.608 181.071 167.598 181.071 167.588C180.426 164.769 179.803 161.965 179.202 159.175Z" fill="black"/>
<path opacity="0.1" d="M129.214 179.56V190.9H119.538V182.314C119.538 182.314 114.138 179.587 113.058 169.667C112.086 160.682 119.257 148.688 120.618 146.512L126.779 146.312V148.521C126.779 148.521 122.724 156.653 122.232 160.827C120.769 173.404 129.214 179.56 129.214 179.56Z" fill="black"/>
<path d="M153.552 193.551C152.245 193.973 114.613 192.471 113.203 191.559C113.036 191.456 112.366 184.215 112.366 184.215L116.719 156.41L141.424 156.74L136.655 180.5C136.655 180.5 142.093 183 146.586 185.187C149.351 186.531 151.754 187.757 152.305 188.2C153.746 189.366 154.859 193.13 153.552 193.551Z" fill="#F7A9A0"/>
<path d="M153.557 193.551C152.245 193.973 114.613 192.471 113.209 191.559C113.036 191.456 112.361 184.22 112.361 184.22L113.705 175.65L137.406 176.73L136.655 180.467C136.655 180.467 142.093 182.973 146.586 185.154C149.345 186.499 151.754 187.725 152.305 188.168C153.746 189.372 154.859 193.13 153.557 193.551Z" fill="#EBEBEB"/>
<path d="M153.53 193.6C152.202 194.016 114.321 193.13 112.901 192.18C112.361 191.829 112.166 186.305 112.123 179.619V179.409L136.564 179.706V180.122C136.564 180.122 150.911 186.942 152.364 188.151C153.817 189.361 154.864 193.184 153.53 193.6Z" fill="#C7C7C7"/>
<path d="M153.136 192.115C146.759 191.813 120.99 191.181 114.661 191.364C114.607 191.364 114.607 191.402 114.661 191.402C120.979 191.845 146.748 192.266 153.136 192.223C153.271 192.218 153.271 192.12 153.136 192.115Z" fill="#263238"/>
<path d="M138.599 180.235C136.099 179.695 133.016 180.024 131.039 181.769C130.958 181.839 131.039 181.941 131.142 181.92C133.561 181.2 136.05 180.742 138.567 180.554C138.606 180.552 138.642 180.536 138.67 180.509C138.698 180.483 138.716 180.447 138.72 180.408C138.724 180.37 138.714 180.331 138.692 180.299C138.67 180.268 138.637 180.245 138.599 180.235Z" fill="#263238"/>
<path d="M140.387 181.374C137.887 180.834 134.803 181.158 132.827 182.903C132.751 182.973 132.827 183.081 132.929 183.054C135.35 182.334 137.841 181.876 140.36 181.688C140.38 181.689 140.401 181.687 140.421 181.681C140.44 181.675 140.459 181.665 140.474 181.651C140.49 181.638 140.503 181.622 140.513 181.603C140.522 181.585 140.528 181.565 140.53 181.545C140.532 181.524 140.529 181.503 140.523 181.484C140.517 181.464 140.507 181.446 140.494 181.43C140.48 181.414 140.464 181.401 140.446 181.391C140.427 181.382 140.407 181.376 140.387 181.374Z" fill="#263238"/>
<path d="M142.174 182.508C139.674 181.968 136.591 182.292 134.614 184.042C134.539 184.107 134.614 184.215 134.717 184.188C137.137 183.473 139.626 183.017 142.142 182.827C142.181 182.825 142.217 182.809 142.245 182.783C142.273 182.756 142.291 182.72 142.295 182.682C142.299 182.643 142.289 182.605 142.267 182.573C142.245 182.541 142.212 182.518 142.174 182.508Z" fill="#263238"/>
<path d="M138.74 176.909L111.162 175.65C111.162 175.65 120.698 136.949 119.683 135.69C118.603 134.335 82.2396 144.33 74.253 134.427C66.0774 124.28 74.253 107.297 74.253 107.297H102.209C102.209 107.297 102.209 110.408 100.308 115.062C100.308 115.062 132.006 109.193 140.36 113.61C142.007 114.485 147.92 119.366 148.017 123.994C148.503 144.46 138.74 176.909 138.74 176.909Z" fill="#455A64"/>
<path d="M139.004 171.914C135.732 171.503 132.449 171.249 129.16 171.006C125.872 170.763 122.588 170.564 119.294 170.434C117.442 170.364 115.585 170.38 113.727 170.31C113.714 170.31 113.702 170.315 113.693 170.324C113.684 170.333 113.678 170.346 113.678 170.358C113.678 170.371 113.684 170.384 113.693 170.393C113.702 170.402 113.714 170.407 113.727 170.407C115.379 170.526 117.026 170.731 118.679 170.861C120.331 170.99 121.919 171.109 123.571 171.217C126.854 171.438 130.143 171.617 133.432 171.822C135.289 171.935 137.141 171.995 138.999 172.038C139.013 172.034 139.025 172.027 139.034 172.016C139.042 172.005 139.048 171.992 139.048 171.978C139.049 171.964 139.045 171.95 139.037 171.938C139.029 171.927 139.018 171.918 139.004 171.914Z" fill="#263238"/>
<path d="M85.944 109.635C85.9074 109.749 85.8604 109.86 85.8036 109.965C85.7975 109.972 85.7941 109.982 85.7941 109.992C85.7941 110.002 85.7975 110.011 85.8036 110.019C85.4796 111.029 85.3446 112.098 85.0314 113.113C84.7339 114.191 84.0741 115.133 83.163 115.781C81.2514 117.109 78.9564 117.708 76.7316 118.259C76.7182 118.263 76.7065 118.271 76.6981 118.283C76.6898 118.294 76.6853 118.307 76.6853 118.321C76.6853 118.335 76.6898 118.349 76.6981 118.36C76.7065 118.371 76.7182 118.379 76.7316 118.383C78.0141 118.391 79.2898 118.196 80.5116 117.806C81.6596 117.488 82.742 116.969 83.7084 116.272C84.616 115.585 85.2634 114.61 85.5444 113.507C85.6802 112.921 85.7866 112.328 85.863 111.731C85.988 111.044 86.062 110.349 86.0844 109.652C86.0765 109.641 86.0665 109.632 86.055 109.626C86.0435 109.619 86.0308 109.615 86.0177 109.613C86.0045 109.612 85.9912 109.613 85.9786 109.617C85.9659 109.621 85.9541 109.627 85.944 109.635Z" fill="#263238"/>
<path d="M104.806 113.68C103.286 114.119 101.805 114.684 100.378 115.37L100.308 115.403C100.337 115.315 100.359 115.224 100.373 115.133C100.373 115.025 100.405 114.922 100.427 114.814C100.449 114.706 100.427 114.593 100.459 114.479V114.306C100.643 114.295 100.822 114.245 100.986 114.16C101.15 114.076 101.294 113.958 101.41 113.815C101.708 113.401 101.909 112.924 101.998 112.422C102.166 111.795 102.322 111.158 102.457 110.521C102.592 109.884 102.738 109.101 102.852 108.361C102.989 107.661 103.07 106.952 103.095 106.239C103.095 106.213 103.084 106.188 103.066 106.17C103.048 106.152 103.023 106.142 102.997 106.142C102.972 106.142 102.947 106.152 102.929 106.17C102.91 106.188 102.9 106.213 102.9 106.239C102.733 106.892 102.657 107.567 102.533 108.226C102.409 108.885 102.268 109.549 102.117 110.208C101.966 110.867 101.804 111.525 101.62 112.173C101.437 112.821 101.296 113.594 100.627 113.793C99.2443 114.188 99.8653 111.093 99.9247 110.478C100.065 109.074 100.152 107.637 100.4 106.244C100.4 106.19 100.319 106.163 100.308 106.244C100.006 107.524 99.6655 108.782 99.4387 110.078C99.3253 110.715 99.2443 111.358 99.1741 111.995C99.062 112.547 99.1069 113.12 99.3037 113.648C99.3894 113.826 99.5173 113.981 99.6763 114.098C99.8354 114.216 100.021 114.293 100.216 114.323L100.173 114.468C100.141 114.571 100.108 114.674 100.081 114.776C100.054 114.879 100.033 114.987 100.011 115.089C99.9636 115.211 99.9469 115.343 99.9625 115.473C99.9745 115.509 99.9995 115.54 100.033 115.559C99.4441 115.813 98.8501 116.067 98.2669 116.342C97.5337 116.63 96.8242 116.975 96.1447 117.374C96.0637 117.411 96.1447 117.519 96.2041 117.503C96.9644 117.29 97.708 117.021 98.4289 116.699C99.1687 116.418 99.8977 116.115 100.632 115.808C102.087 115.273 103.494 114.618 104.839 113.847C104.861 113.843 104.88 113.83 104.893 113.811C104.906 113.793 104.911 113.77 104.906 113.748C104.902 113.725 104.889 113.706 104.87 113.693C104.852 113.68 104.829 113.676 104.806 113.68Z" fill="#263238"/>
<path d="M147.196 120.479C146.24 117.666 144.304 115.292 141.742 113.788C139.113 112.335 136.045 111.947 133.102 111.855C129.679 111.752 126.234 111.93 122.815 112.146C119.176 112.373 115.536 112.719 111.918 113.226C108.3 113.734 104.747 114.355 101.188 115.122C100.335 115.305 99.4874 115.532 98.6396 115.77C98.5748 115.77 98.5856 115.91 98.6396 115.899C102.177 115.403 105.697 114.819 109.234 114.333C112.771 113.847 116.346 113.464 119.921 113.194C123.496 112.924 127.033 112.773 130.591 112.719C133.507 112.676 136.531 112.719 139.302 113.658C140.671 114.096 141.94 114.803 143.033 115.737C144.107 116.697 144.986 117.854 145.625 119.145C147.083 122.012 147.218 125.301 147.364 128.476C147.785 137.899 141.008 167.842 139.804 172.653C139.801 172.695 139.812 172.737 139.837 172.771C139.861 172.805 139.897 172.829 139.938 172.839C139.978 172.85 140.021 172.845 140.059 172.827C140.097 172.809 140.127 172.778 140.144 172.74C141.499 167.307 148.244 139.022 148.244 130.523C148.249 127.131 148.374 123.675 147.196 120.479Z" fill="#263238"/>
<path d="M123.733 132.429C118.792 132.602 113.878 133.061 108.964 133.579C104.05 134.097 99.0985 134.659 94.1521 135.005C91.6897 135.172 89.2219 135.28 86.7541 135.296C84.7023 135.392 82.6482 135.163 80.6683 134.616C78.6574 133.966 76.9672 132.579 75.9379 130.733C74.8575 128.799 74.1556 126.677 73.8697 124.48C73.2217 120.014 73.8697 115.451 74.6311 111.045C74.7283 110.505 74.8201 109.965 74.9173 109.387C74.9173 109.333 74.8471 109.311 74.8363 109.387C73.8049 113.831 72.8815 118.405 73.2163 122.995C73.339 125.238 73.8487 127.443 74.7229 129.513C75.485 131.471 76.8407 133.142 78.6001 134.292C80.4119 135.261 82.4313 135.778 84.4861 135.798C86.8642 135.887 89.2454 135.85 91.6195 135.685C96.6847 135.42 101.728 134.859 106.766 134.297C111.805 133.736 116.81 133.185 121.854 132.915C122.394 132.888 122.972 132.861 123.528 132.845C122.767 137.678 116.287 166.632 115.925 168.922C115.887 169.149 116.092 169.219 116.146 168.992C117.226 164.478 123.544 135.512 123.96 132.677C123.967 132.645 123.967 132.612 123.958 132.58C123.95 132.548 123.934 132.518 123.911 132.494C123.889 132.47 123.861 132.451 123.83 132.44C123.799 132.428 123.766 132.425 123.733 132.429Z" fill="#263238"/>
<path d="M72.6493 110.748C72.7249 110.856 109.666 113.696 110.055 113.351C110.595 112.859 106.939 75.0106 103.64 69.4594C102.933 68.2768 100.227 67.6558 97.8565 67.6774C97.2392 67.6744 96.623 67.7268 96.0151 67.834H95.9557C95.465 67.9175 94.9921 68.0836 94.5571 68.3254C87.4615 72.7534 79.8907 90.2386 77.9845 95.5306C74.8255 104.257 72.3739 110.359 72.6493 110.748Z" fill="#515DEF"/>
<path d="M101.939 74.287C100.103 74.287 97.0033 71.3224 96.3877 68.5414C96.3445 68.347 97.1059 66.6892 97.9267 64.6264C98.4235 63.3682 98.9473 61.9642 99.3307 60.6466C99.4063 60.3712 107.015 65.0584 107.015 65.0584C106.064 66.5708 105.303 68.1939 104.747 69.8914C104.697 70.0681 104.663 70.2488 104.644 70.4314C104.646 70.462 104.646 70.4927 104.644 70.5232C104.499 71.6194 103.899 74.314 101.939 74.287Z" fill="#F7A9A0"/>
<path d="M104.644 70.4476C104.647 70.4782 104.647 70.5089 104.644 70.5394C104.353 70.497 104.066 70.4302 103.786 70.3396C98.9258 68.8168 99.4334 62.3476 99.6386 60.733C101.048 61.3702 107.031 65.053 107.031 65.053C106.082 66.5666 105.318 68.1894 104.758 69.886C104.705 70.07 104.667 70.2578 104.644 70.4476Z" fill="#263238"/>
<path d="M100.006 50.527C98.6718 53.4322 99.0822 62.407 100.967 64.6318C103.705 67.8718 108.781 68.8492 111.691 65.4256C114.51 62.1046 113.77 50.4352 111.61 48.3346C108.419 45.2458 101.982 46.2448 100.006 50.527Z" fill="#F7A9A0"/>
<path d="M107.825 56.9206C107.825 56.9206 107.782 56.953 107.782 56.98C107.825 57.5794 107.782 58.2814 107.242 58.5028C107.242 58.5028 107.242 58.5406 107.242 58.5352C107.906 58.4164 107.96 57.4876 107.825 56.9206Z" fill="#263238"/>
<path d="M107.258 56.3158C106.286 56.278 106.291 58.2328 107.193 58.2652C108.095 58.2976 108.079 56.3428 107.258 56.3158Z" fill="#263238"/>
<path d="M111.324 57.0178C111.324 57.0178 111.373 57.0448 111.367 57.0718C111.367 57.6712 111.432 58.3678 111.978 58.5676C111.978 58.5676 111.978 58.6054 111.978 58.6C111.308 58.5082 111.2 57.5848 111.324 57.0178Z" fill="#263238"/>
<path d="M111.864 56.386C112.831 56.3104 112.912 58.2598 112.01 58.3246C111.108 58.3894 111.049 56.44 111.864 56.386Z" fill="#263238"/>
<path d="M106.491 55.4248C106.746 55.3485 106.997 55.2584 107.242 55.1548C107.521 55.101 107.774 54.9545 107.96 54.739C108.006 54.6598 108.024 54.5677 108.013 54.4769C108.001 54.3861 107.96 54.3017 107.895 54.2368C107.748 54.1291 107.575 54.0629 107.393 54.0448C107.212 54.0268 107.029 54.0576 106.864 54.1342C106.504 54.2354 106.195 54.4688 106 54.7876C105.96 54.8626 105.943 54.9473 105.951 55.0317C105.958 55.1161 105.989 55.1966 106.041 55.2637C106.093 55.3307 106.163 55.3816 106.242 55.4101C106.322 55.4387 106.408 55.4438 106.491 55.4248Z" fill="#263238"/>
<path d="M112.615 55.3978C112.352 55.3471 112.092 55.2804 111.837 55.198C111.554 55.1695 111.29 55.0457 111.087 54.847C111.032 54.7747 111.002 54.6865 111.002 54.5959C111.002 54.5052 111.032 54.417 111.087 54.3448C111.224 54.224 111.391 54.1422 111.57 54.108C111.75 54.0738 111.935 54.0884 112.107 54.1504C112.474 54.2195 112.802 54.4237 113.025 54.7228C113.071 54.7919 113.095 54.8725 113.097 54.9552C113.098 55.0379 113.076 55.1192 113.033 55.1899C112.99 55.2606 112.928 55.3176 112.854 55.3544C112.78 55.3912 112.697 55.4062 112.615 55.3978Z" fill="#263238"/>
<path d="M107.274 62.5312C107.42 62.6716 107.566 62.866 107.814 62.8876C108.039 62.8809 108.259 62.8275 108.462 62.731C108.462 62.731 108.5 62.731 108.489 62.7634C108.403 62.8823 108.286 62.9756 108.151 63.0336C108.016 63.0916 107.868 63.1121 107.722 63.0928C107.598 63.0611 107.486 62.9926 107.401 62.8963C107.316 62.7999 107.263 62.6802 107.247 62.5528C107.209 62.5258 107.253 62.5096 107.274 62.5312Z" fill="#263238"/>
<path d="M107.906 60.7222C108.06 60.9612 108.262 61.1657 108.499 61.3228C108.736 61.4799 109.003 61.5861 109.283 61.6348C109.527 61.6808 109.776 61.6917 110.023 61.6672C110.069 61.6728 110.117 61.6728 110.163 61.6672H110.298C110.33 61.6604 110.358 61.6436 110.38 61.6193C110.401 61.595 110.414 61.5645 110.417 61.5322C110.42 61.5125 110.42 61.4925 110.417 61.4728V61.4188C110.417 60.9544 110.379 60.247 110.379 60.247C110.552 60.3334 111.421 60.7222 111.405 60.4792C111.348 58.3816 111.077 56.2954 110.595 54.253C110.595 54.2387 110.589 54.225 110.579 54.2148C110.569 54.2047 110.555 54.199 110.541 54.199C110.527 54.199 110.513 54.2047 110.503 54.2148C110.493 54.225 110.487 54.2387 110.487 54.253C110.53 56.1916 110.908 58.1086 110.984 60.0526C110.675 59.9107 110.348 59.8126 110.012 59.761C109.947 59.761 110.125 61.1272 110.104 61.3378C109.723 61.3755 109.339 61.3366 108.973 61.2235C108.608 61.1103 108.269 60.9252 107.976 60.679C107.922 60.6358 107.874 60.6736 107.906 60.7222Z" fill="#263238"/>
<path d="M109.747 61.4296C109.493 61.7643 109.157 62.0268 108.77 62.191C108.558 62.2732 108.326 62.2883 108.106 62.2342C107.625 62.11 107.609 61.6942 107.695 61.2838C107.747 61.0842 107.819 60.8905 107.911 60.706C108.43 61.1374 109.074 61.391 109.747 61.4296Z" fill="#263238"/>
<path d="M108.77 62.191C108.558 62.2732 108.326 62.2883 108.106 62.2342C107.625 62.11 107.609 61.6942 107.695 61.2838C107.95 61.2921 108.195 61.3861 108.39 61.5507C108.585 61.7153 108.719 61.9409 108.77 62.191Z" fill="#FF9BBC"/>
<path d="M112.901 51.2992C112.572 50.5324 112.188 49.7602 111.724 49.6036C111.259 49.447 110.962 50.581 109.909 50.6512C108.495 50.7484 107.809 49.447 105.827 49.3066C102.976 49.1122 101.723 51.4666 101.658 55.5274C101.599 59.1346 99.4171 59.4748 99.4171 59.4748C99.4171 59.4748 98.0941 51.5206 100.335 48.8854C102.576 46.2502 107.722 45.1054 111.178 47.6002C112.437 48.5128 112.901 51.2992 112.901 51.2992Z" fill="#263238"/>
<path d="M101.237 58.06C101.237 58.06 99.579 54.9982 98.2128 55.5544C96.8466 56.1106 97.8618 60.4144 99.2928 61.1326C99.4721 61.2404 99.6714 61.3107 99.8786 61.3393C100.086 61.368 100.297 61.3544 100.498 61.2994C100.7 61.2445 100.889 61.1492 101.053 61.0193C101.217 60.8895 101.353 60.7278 101.453 60.544L101.237 58.06Z" fill="#F7A9A0"/>
<path d="M98.5369 56.7694V56.8072C99.5467 57.3472 99.9895 58.4272 100.265 59.4694C100.216 59.3563 100.142 59.2551 100.05 59.173C99.958 59.0909 99.8491 59.0298 99.7311 58.9939C99.613 58.9579 99.4885 58.9481 99.3663 58.9649C99.244 58.9817 99.1268 59.0249 99.0229 59.0914C98.9905 59.0914 99.0229 59.1562 99.0229 59.1508C99.216 59.1138 99.4159 59.1369 99.5955 59.2171C99.7751 59.2972 99.9258 59.4305 100.027 59.599C100.191 59.8852 100.325 60.1873 100.427 60.5008C100.465 60.598 100.643 60.571 100.616 60.4576V60.4306C100.799 59.0806 99.9679 57.0718 98.5369 56.7694Z" fill="#263238"/>
<path d="M112.561 48.9286C111.724 48.7288 107.085 48.8692 105.001 49.7656C102.916 50.662 99.212 53.659 99.023 53.8156C98.834 53.9722 97.8782 46.3258 104.083 44.9326C110.838 43.4098 112.561 48.9286 112.561 48.9286Z" fill="#FDB900"/>
<path d="M99.3794 53.5024C99.3794 53.5024 103.478 48.1024 105.757 46.8604C108.036 45.6184 113.139 44.9272 116.298 46.3204C118.755 47.4004 112.75 50.5648 112.75 50.5648C112.693 50.3057 112.576 50.0634 112.41 49.8572C112.243 49.6509 112.03 49.4865 111.789 49.3768C110.255 48.7666 107.339 49.2364 105.676 49.7926C103.581 50.5 99.3794 53.5024 99.3794 53.5024Z" fill="#FDB900"/>
<path opacity="0.2" d="M99.3794 53.5294C99.3794 53.5294 103.478 48.097 105.757 46.8604C108.036 45.6238 113.139 44.9272 116.298 46.3204C118.755 47.4004 112.75 50.5648 112.75 50.5648C112.693 50.3057 112.576 50.0634 112.41 49.8572C112.243 49.651 112.03 49.4865 111.789 49.3768C110.255 48.7666 107.339 49.2364 105.676 49.7926C103.581 50.5 99.3794 53.5294 99.3794 53.5294Z" fill="black"/>
<path d="M92.2188 78.4234C91.8732 89.0722 95.8044 109.014 98.6988 110.37C108.041 114.733 123.76 115.008 129.144 115.057C131.466 115.057 135.03 98.5438 132.73 97.615C131.201 96.9994 108.154 96.994 107.749 96.1732C107.344 95.3524 101.852 83.494 99.4818 76.9276C96.3336 68.1958 92.4186 72.1702 92.2188 78.4234Z" fill="#F7A9A0"/>
<path d="M130.257 97.3936C130.257 97.3936 137.314 97.8256 141.91 98.3224C144.48 98.5978 148.838 99.4672 150.625 100.531C153.325 102.151 163.499 110.51 161.523 113.027C159.73 115.3 151.889 106.989 151.889 106.989C151.889 106.989 160.529 114.674 157.883 117.023C155.237 119.372 147.623 108.793 147.623 108.793C147.623 108.793 156.339 116.893 153.212 118.88C150.852 120.376 143.416 111.191 143.416 111.191C143.416 111.191 150.863 118.211 148.498 119.831C145.884 121.65 138.492 113.599 138.492 113.599C131.779 116.774 127.287 115.538 124.192 114.279C123.431 113.999 130.257 97.3936 130.257 97.3936Z" fill="#F7A9A0"/>
<path d="M149.065 104.138C150.112 105.002 151.181 105.872 152.148 106.838C153.115 107.805 154.054 108.788 154.929 109.83C156.1 111.17 157.114 112.64 157.953 114.209C156.263 111.509 152.85 108.053 151.878 107.097C150.906 106.142 149.993 105.137 149.027 104.181C149 104.149 149.038 104.117 149.065 104.138Z" fill="#263238"/>
<path d="M145.549 107.573C146.84 108.734 148.163 109.846 149.405 111.066C150.647 112.287 151.705 113.545 152.856 114.846C152.942 114.944 152.855 114.96 152.764 114.846C151.565 113.599 150.361 112.535 149.151 111.299C147.941 110.062 146.77 108.777 145.517 107.589C145.495 107.583 145.528 107.556 145.549 107.573Z" fill="#263238"/>
<path d="M141.98 109.976C144.005 111.713 145.846 113.654 147.472 115.77C147.553 115.872 147.445 115.883 147.353 115.77C145.565 113.81 144.178 112.26 141.92 110.04C141.904 110.013 141.98 109.943 141.98 109.976Z" fill="#263238"/>
<path d="M149.734 99.6778C148.057 98.9611 146.276 98.5145 144.458 98.3548C140.538 97.8742 136.596 97.561 132.654 97.2748C128.712 96.9886 124.711 96.7348 120.736 96.589C118.501 96.5026 116.265 96.436 114.029 96.3892C111.794 96.346 111.329 96.427 109.083 96.454C109.024 96.454 109.029 96.535 109.083 96.5404C112.998 96.7456 115.158 96.9076 119.073 97.1128C122.988 97.318 126.892 97.5502 130.796 97.8202C134.701 98.0902 138.54 98.3602 142.396 98.7922C144.261 98.9188 146.11 99.217 147.92 99.6832C149.693 100.335 151.338 101.292 152.78 102.513C154.432 103.814 160.626 109.77 161.193 110.543C161.263 110.634 161.29 110.607 161.252 110.489C160.804 108.874 153.358 101.368 149.734 99.6778Z" fill="#263238"/>
<path d="M103.37 85.2976L91.884 91.81C91.884 91.81 91.398 77.2948 92.4618 72.9856C93.6606 68.1256 95.8746 69.8104 98.3694 73.8496C100.864 77.8888 103.37 85.2976 103.37 85.2976Z" fill="#515DEF"/>
<path opacity="0.1" d="M103.37 85.2976L91.884 91.81C91.884 91.81 91.398 77.2948 92.4618 72.9856C93.6606 68.1256 95.8746 69.8104 98.3694 73.8496C100.864 77.8888 103.37 85.2976 103.37 85.2976Z" fill="black"/>
<path d="M101.788 83.44C100.216 84.0718 95.7559 86.6314 95.0161 87.0472C94.6273 87.2632 93.1045 88.2082 92.7157 88.4242C92.6671 88.4512 92.7157 88.5214 92.7643 88.4944C93.5149 88.084 94.3033 87.7492 95.0593 87.3442C95.8153 86.9392 100.459 84.4984 101.82 83.494C101.825 83.4889 101.829 83.4822 101.829 83.475C101.83 83.4678 101.829 83.4605 101.825 83.4543C101.821 83.448 101.816 83.4432 101.809 83.4407C101.802 83.4381 101.795 83.4378 101.788 83.44Z" fill="#263238"/>
<path d="M101.561 79.9246C101.383 79.2496 101.199 78.58 100.994 77.9104C101.107 78.4072 101.237 78.904 101.367 79.4008C100.951 78.4612 100.524 77.5324 100.06 76.6306H100.033C100.535 78.094 101.113 79.5304 101.653 80.983C102.193 82.4356 102.733 83.8234 103.273 85.2436C103.03 85.4326 102.792 85.6162 102.544 85.7836C102.534 85.7901 102.527 85.8002 102.524 85.8119C102.522 85.8235 102.524 85.8357 102.53 85.8457C102.537 85.8557 102.547 85.8628 102.558 85.8653C102.57 85.8679 102.582 85.8657 102.592 85.8592C102.889 85.708 103.186 85.5568 103.494 85.4218C103.53 85.4084 103.559 85.382 103.576 85.348C103.593 85.3139 103.597 85.2748 103.586 85.2382C102.981 83.4724 102.312 81.6796 101.561 79.9246Z" fill="#263238"/>
<g opacity="0.5">
<path d="M229.795 73.4986C229.795 73.9997 229.646 74.4896 229.368 74.9062C229.089 75.3228 228.693 75.6474 228.23 75.8389C227.767 76.0305 227.258 76.0803 226.766 75.9821C226.275 75.884 225.824 75.6422 225.47 75.2875C225.116 74.9328 224.875 74.481 224.778 73.9894C224.681 73.4977 224.732 72.9884 224.924 72.5257C225.117 72.063 225.442 71.6678 225.859 71.3902C226.276 71.1126 226.767 70.9649 227.268 70.966C227.6 70.966 227.929 71.0316 228.236 71.1589C228.543 71.2862 228.822 71.4729 229.057 71.7081C229.291 71.9434 229.477 72.2226 229.604 72.5298C229.731 72.8371 229.796 73.1663 229.795 73.4986Z" fill="black"/>
<path d="M227.268 77.7916C226.411 77.797 225.572 77.5475 224.858 77.0749C224.143 76.6022 223.585 75.9278 223.255 75.1374C222.925 74.3469 222.837 73.4761 223.003 72.6355C223.168 71.795 223.58 71.0228 224.186 70.417C224.792 69.8113 225.564 69.3993 226.405 69.2334C227.245 69.0676 228.116 69.1554 228.907 69.4857C229.697 69.8161 230.371 70.3739 230.844 71.0885C231.317 71.803 231.566 72.642 231.561 73.4986C231.554 74.635 231.099 75.7229 230.296 76.5264C229.492 77.33 228.404 77.7846 227.268 77.7916ZM227.268 69.7457C226.527 69.7457 225.802 69.9651 225.186 70.3763C224.569 70.7875 224.088 71.3721 223.803 72.0563C223.518 72.7405 223.442 73.4937 223.585 74.221C223.728 74.9482 224.082 75.617 224.605 76.1429C225.127 76.6688 225.793 77.0284 226.519 77.1762C227.245 77.3241 227.999 77.2536 228.685 76.9737C229.372 76.6937 229.96 76.2169 230.375 75.6033C230.791 74.9897 231.015 74.2668 231.021 73.5257C231.024 73.0305 230.93 72.5396 230.743 72.0811C230.556 71.6227 230.28 71.2058 229.931 70.8544C229.582 70.503 229.167 70.2242 228.71 70.0339C228.253 69.8436 227.763 69.7456 227.268 69.7457Z" fill="black"/>
<path d="M74.9338 49.2796C74.9349 49.7808 74.7873 50.271 74.5097 50.6881C74.232 51.1053 73.8369 51.4308 73.3742 51.6233C72.9115 51.8158 72.4021 51.8667 71.9105 51.7696C71.4188 51.6725 70.9671 51.4317 70.6123 51.0778C70.2576 50.7238 70.0159 50.2725 69.9177 49.7811C69.8196 49.2897 69.8694 48.7802 70.0609 48.3171C70.2524 47.854 70.5771 47.4582 70.9937 47.1796C71.4103 46.9011 71.9001 46.7524 72.4012 46.7524C73.072 46.7524 73.7154 47.0185 74.1902 47.4923C74.665 47.9661 74.9324 48.6089 74.9338 49.2796Z" fill="black"/>
<path d="M72.4012 53.578C71.5457 53.5834 70.7078 53.3346 69.9938 52.8631C69.2799 52.3917 68.722 51.7189 68.3908 50.93C68.0597 50.1411 67.9703 49.2717 68.1339 48.4319C68.2976 47.5921 68.7069 46.8199 69.3099 46.213C69.913 45.6061 70.6827 45.192 71.5214 45.0231C72.3602 44.8542 73.2301 44.9382 74.0211 45.2643C74.812 45.5905 75.4883 46.1442 75.9642 46.8552C76.4401 47.5662 76.6942 48.4025 76.6942 49.258C76.6942 50.3991 76.2428 51.4938 75.4385 52.3032C74.6341 53.1126 73.5422 53.5709 72.4012 53.578ZM72.4012 45.5266C71.6513 45.5213 70.9168 45.7391 70.291 46.1524C69.6653 46.5657 69.1766 47.1558 68.8872 47.8476C68.5978 48.5394 68.5206 49.3016 68.6656 50.0374C68.8106 50.7731 69.1712 51.4491 69.7014 51.9794C70.2317 52.5097 70.9077 52.8702 71.6435 53.0152C72.3792 53.1602 73.1415 53.0831 73.8333 52.7936C74.5251 52.5042 75.1151 52.0155 75.5284 51.3898C75.9417 50.764 76.1595 50.0295 76.1542 49.2796C76.1471 48.2865 75.7495 47.336 75.0472 46.6337C74.3449 45.9314 73.3944 45.5337 72.4012 45.5266Z" fill="black"/>
<path d="M167.954 86.869H135.23V36.2818H92.0465V49.5496H76.4243V49.0096H91.5065V35.7418H135.77V86.329H167.414V72.316H204.453V58.6702H227.538V69.4756H226.998V59.2102H204.993V72.856H167.954V86.869Z" fill="black"/>
</g>
<path d="M81.3919 22.96C80.9437 18.4672 77.8441 13.9906 72.4009 13.9906C66.9577 13.9906 63.8635 18.4888 63.4153 22.96C62.7295 29.899 67.4059 36.1846 72.4009 41.9194C77.3959 36.2062 82.0777 29.9206 81.3919 22.96ZM72.4009 27.9496C71.4266 27.9496 70.4743 27.6606 69.6643 27.1192C68.8543 26.5779 68.2231 25.8084 67.8505 24.9082C67.4779 24.008 67.3807 23.0175 67.5711 22.062C67.7616 21.1066 68.2312 20.2291 68.9205 19.5405C69.6097 18.852 70.4878 18.3834 71.4434 18.194C72.3991 18.0046 73.3895 18.1029 74.2893 18.4764C75.1891 18.85 75.9579 19.4821 76.4984 20.2927C77.0389 21.1032 77.3268 22.0559 77.3257 23.0302C77.3286 23.6785 77.2032 24.321 76.9569 24.9207C76.7107 25.5204 76.3483 26.0655 75.8906 26.5246C75.4329 26.9838 74.889 27.348 74.2901 27.5962C73.6913 27.8445 73.0492 27.9719 72.4009 27.9712V27.9496Z" fill="#FDB900"/>
</g>
<defs>
<clipPath id="clip0_1_5217">
<rect width="270" height="234" fill="white" transform="translate(0.5)"/>
</clipPath>
</defs>
</svg>
