<svg width="154" height="57" viewBox="0 0 154 57" fill="none" xmlns="http://www.w3.org/2000/svg">
<rect width="154" height="57" rx="7" fill="#081C27"/>
<g clip-path="url(#clip0_1_2228)">
<mask id="mask0_1_2228" style="mask-type:luminance" maskUnits="userSpaceOnUse" x="12" y="16" width="24" height="25">
<path d="M36 16.9785H12V40.9785H36V16.9785Z" fill="white"/>
</mask>
<g mask="url(#mask0_1_2228)">
<path d="M29.7032 32.6464C32.7462 31.0852 35.0533 29.8956 35.2521 29.8032C35.8882 29.4872 36.5451 28.6507 35.2521 28.0008C34.8346 27.7966 32.587 26.644 29.7032 25.1577L25.7056 28.9298L29.7032 32.6464Z" fill="white" stroke="#081C27" stroke-width="1.58595"/>
<path d="M25.7027 28.9297L12.9736 40.9159C13.2724 40.9529 13.6097 40.879 14.0074 40.6746C14.8424 40.2477 23.6935 35.7315 29.7005 32.6472L25.7027 28.9297Z" fill="white" stroke="#081C27" stroke-width="1.58595"/>
<path d="M25.7034 28.9298L29.7012 25.1762C29.7012 25.1762 14.9035 17.6312 14.0082 17.1857C13.6708 16.999 13.2929 16.9435 12.9546 16.999L25.7034 28.9298Z" fill="white" stroke="#081C27" stroke-width="1.58595"/>
<path d="M25.7035 28.9298L12.9547 16.999C12.4373 17.1109 12 17.5379 12 18.4113C12 19.8052 12 38.3512 12 39.5037C12 40.3032 12.3383 40.8791 12.9744 40.9345L25.7035 28.9298Z" fill="white" stroke="#081C27" stroke-width="1.58595"/>
</g>
</g>
<path opacity="0.8" d="M49.75 22.7759H47.0568V14.0486H49.8693C50.7159 14.0486 51.4403 14.2233 52.0426 14.5728C52.6449 14.9193 53.1065 15.4179 53.4276 16.0685C53.7486 16.7162 53.9091 17.4918 53.9091 18.3952C53.9091 19.3043 53.7472 20.087 53.4233 20.7432C53.0994 21.3966 52.6278 21.8995 52.0085 22.2517C51.3892 22.6012 50.6364 22.7759 49.75 22.7759ZM48.1136 21.8384H49.6818C50.4034 21.8384 51.0014 21.6992 51.4759 21.4208C51.9503 21.1424 52.304 20.746 52.5369 20.2318C52.7699 19.7176 52.8864 19.1054 52.8864 18.3952C52.8864 17.6907 52.7713 17.0841 52.5412 16.5756C52.3111 16.0642 51.9673 15.6722 51.5099 15.3995C51.0526 15.1239 50.483 14.9861 49.8011 14.9861H48.1136V21.8384ZM58.2045 22.9122C57.6136 22.9122 57.0952 22.7716 56.6491 22.4904C56.206 22.2091 55.8594 21.8157 55.6094 21.31C55.3622 20.8043 55.2386 20.2134 55.2386 19.5372C55.2386 18.8554 55.3622 18.2603 55.6094 17.7517C55.8594 17.2432 56.206 16.8483 56.6491 16.5671C57.0952 16.2858 57.6136 16.1452 58.2045 16.1452C58.7955 16.1452 59.3125 16.2858 59.7557 16.5671C60.2017 16.8483 60.5483 17.2432 60.7955 17.7517C61.0455 18.2603 61.1705 18.8554 61.1705 19.5372C61.1705 20.2134 61.0455 20.8043 60.7955 21.31C60.5483 21.8157 60.2017 22.2091 59.7557 22.4904C59.3125 22.7716 58.7955 22.9122 58.2045 22.9122ZM58.2045 22.0088C58.6534 22.0088 59.0227 21.8938 59.3125 21.6637C59.6023 21.4335 59.8168 21.131 59.956 20.756C60.0952 20.381 60.1648 19.9747 60.1648 19.5372C60.1648 19.0997 60.0952 18.6921 59.956 18.3142C59.8168 17.9364 59.6023 17.631 59.3125 17.398C59.0227 17.1651 58.6534 17.0486 58.2045 17.0486C57.7557 17.0486 57.3864 17.1651 57.0966 17.398C56.8068 17.631 56.5923 17.9364 56.4531 18.3142C56.3139 18.6921 56.2443 19.0997 56.2443 19.5372C56.2443 19.9747 56.3139 20.381 56.4531 20.756C56.5923 21.131 56.8068 21.4335 57.0966 21.6637C57.3864 21.8938 57.7557 22.0088 58.2045 22.0088ZM63.9659 22.7759L61.9716 16.2304H63.0284L64.4432 21.2418H64.5114L65.9091 16.2304H66.983L68.3636 21.2247H68.4318L69.8466 16.2304H70.9034L68.9091 22.7759H67.9205L66.4886 17.7475H66.3864L64.9545 22.7759H63.9659ZM73.2386 18.8384V22.7759H72.233V16.2304H73.2045V17.2532H73.2898C73.4432 16.9208 73.6761 16.6537 73.9886 16.452C74.3011 16.2475 74.7045 16.1452 75.1989 16.1452C75.642 16.1452 76.0298 16.2361 76.3622 16.4179C76.6946 16.5969 76.9531 16.8696 77.1378 17.2361C77.3224 17.5997 77.4148 18.06 77.4148 18.6168V22.7759H76.4091V18.685C76.4091 18.1708 76.2756 17.7702 76.0085 17.4833C75.7415 17.1935 75.375 17.0486 74.9091 17.0486C74.5881 17.0486 74.3011 17.1182 74.0483 17.2574C73.7983 17.3966 73.6009 17.5997 73.456 17.8668C73.3111 18.1338 73.2386 18.4577 73.2386 18.8384ZM80.2582 14.0486V22.7759H79.2525V14.0486H80.2582ZM84.7592 22.9122C84.1683 22.9122 83.6499 22.7716 83.2038 22.4904C82.7607 22.2091 82.4141 21.8157 82.1641 21.31C81.9169 20.8043 81.7933 20.2134 81.7933 19.5372C81.7933 18.8554 81.9169 18.2603 82.1641 17.7517C82.4141 17.2432 82.7607 16.8483 83.2038 16.5671C83.6499 16.2858 84.1683 16.1452 84.7592 16.1452C85.3501 16.1452 85.8672 16.2858 86.3104 16.5671C86.7564 16.8483 87.103 17.2432 87.3501 17.7517C87.6001 18.2603 87.7251 18.8554 87.7251 19.5372C87.7251 20.2134 87.6001 20.8043 87.3501 21.31C87.103 21.8157 86.7564 22.2091 86.3104 22.4904C85.8672 22.7716 85.3501 22.9122 84.7592 22.9122ZM84.7592 22.0088C85.2081 22.0088 85.5774 21.8938 85.8672 21.6637C86.157 21.4335 86.3714 21.131 86.5107 20.756C86.6499 20.381 86.7195 19.9747 86.7195 19.5372C86.7195 19.0997 86.6499 18.6921 86.5107 18.3142C86.3714 17.9364 86.157 17.631 85.8672 17.398C85.5774 17.1651 85.2081 17.0486 84.7592 17.0486C84.3104 17.0486 83.9411 17.1651 83.6513 17.398C83.3615 17.631 83.147 17.9364 83.0078 18.3142C82.8686 18.6921 82.799 19.0997 82.799 19.5372C82.799 19.9747 82.8686 20.381 83.0078 20.756C83.147 21.131 83.3615 21.4335 83.6513 21.6637C83.9411 21.8938 84.3104 22.0088 84.7592 22.0088ZM91.1864 22.9293C90.7717 22.9293 90.3952 22.8512 90.0572 22.6949C89.7191 22.5358 89.4506 22.3071 89.2518 22.0088C89.0529 21.7077 88.9535 21.3441 88.9535 20.9179C88.9535 20.5429 89.0273 20.2389 89.1751 20.006C89.3228 19.7702 89.5202 19.5855 89.7674 19.452C90.0146 19.3185 90.2873 19.2191 90.5856 19.1537C90.8867 19.0855 91.1893 19.0316 91.4933 18.9918C91.891 18.9407 92.2134 18.9023 92.4606 18.8767C92.7106 18.8483 92.8924 18.8014 93.006 18.7361C93.1225 18.6708 93.1808 18.5571 93.1808 18.3952V18.3611C93.1808 17.9407 93.0657 17.6139 92.8356 17.381C92.6083 17.148 92.2631 17.0316 91.8001 17.0316C91.32 17.0316 90.9435 17.1367 90.6708 17.3469C90.3981 17.5571 90.2063 17.7816 90.0955 18.0202L89.141 17.6793C89.3114 17.2816 89.5387 16.9719 89.8228 16.7503C90.1097 16.5259 90.4222 16.3696 90.7603 16.2816C91.1012 16.1907 91.4364 16.1452 91.766 16.1452C91.9762 16.1452 92.2177 16.1708 92.4904 16.2219C92.766 16.2702 93.0316 16.371 93.2873 16.5245C93.5458 16.6779 93.7603 16.9094 93.9308 17.2191C94.1012 17.5287 94.1864 17.9435 94.1864 18.4634V22.7759H93.1808V21.8895H93.1296C93.0614 22.0316 92.9478 22.1835 92.7887 22.3455C92.6296 22.5074 92.418 22.6452 92.1538 22.7588C91.8896 22.8725 91.5671 22.9293 91.1864 22.9293ZM91.3398 22.0259C91.7376 22.0259 92.0728 21.9478 92.3455 21.7915C92.6211 21.6353 92.8285 21.4335 92.9677 21.1864C93.1097 20.9392 93.1808 20.6793 93.1808 20.4066V19.4861C93.1381 19.5372 93.0444 19.5841 92.8995 19.6267C92.7575 19.6665 92.5927 19.702 92.4052 19.7333C92.2205 19.7617 92.0401 19.7872 91.864 19.81C91.6907 19.8299 91.5501 19.8469 91.4421 19.8611C91.1808 19.8952 90.9364 19.9506 90.7092 20.0273C90.4847 20.1012 90.3029 20.2134 90.1637 20.3639C90.0273 20.5117 89.9592 20.7134 89.9592 20.9691C89.9592 21.3185 90.0884 21.5827 90.3469 21.7617C90.6083 21.9378 90.9393 22.0259 91.3398 22.0259ZM98.4936 22.9122C97.9482 22.9122 97.4666 22.7745 97.049 22.4989C96.6314 22.2205 96.3047 21.8284 96.0689 21.3228C95.8331 20.8142 95.7152 20.2134 95.7152 19.5202C95.7152 18.8327 95.8331 18.2361 96.0689 17.7304C96.3047 17.2247 96.6328 16.8341 97.0533 16.5585C97.4737 16.283 97.9595 16.1452 98.5107 16.1452C98.9368 16.1452 99.2734 16.2162 99.5206 16.3583C99.7706 16.4975 99.9609 16.6566 100.092 16.8355C100.225 17.0117 100.329 17.1566 100.403 17.2702H100.488V14.0486H101.494V22.7759H100.522V21.7702H100.403C100.329 21.8895 100.224 22.0401 100.087 22.2219C99.951 22.4009 99.7564 22.5614 99.5036 22.7034C99.2507 22.8426 98.9141 22.9122 98.4936 22.9122ZM98.63 22.0088C99.0334 22.0088 99.3743 21.9037 99.6527 21.6935C99.9311 21.4804 100.143 21.1864 100.288 20.8114C100.433 20.4335 100.505 19.9975 100.505 19.5032C100.505 19.0145 100.434 18.587 100.292 18.2205C100.15 17.8512 99.9396 17.5642 99.6612 17.3597C99.3828 17.1523 99.0391 17.0486 98.63 17.0486C98.2038 17.0486 97.8487 17.158 97.5646 17.3767C97.2834 17.5926 97.0717 17.8867 96.9297 18.2588C96.7905 18.6282 96.7209 19.0429 96.7209 19.5032C96.7209 19.9691 96.7919 20.3924 96.9339 20.773C97.0788 21.1509 97.2919 21.452 97.5732 21.6764C97.8572 21.898 98.2095 22.0088 98.63 22.0088ZM109.509 22.9122C108.918 22.9122 108.4 22.7716 107.954 22.4904C107.511 22.2091 107.164 21.8157 106.914 21.31C106.667 20.8043 106.543 20.2134 106.543 19.5372C106.543 18.8554 106.667 18.2603 106.914 17.7517C107.164 17.2432 107.511 16.8483 107.954 16.5671C108.4 16.2858 108.918 16.1452 109.509 16.1452C110.1 16.1452 110.617 16.2858 111.06 16.5671C111.506 16.8483 111.853 17.2432 112.1 17.7517C112.35 18.2603 112.475 18.8554 112.475 19.5372C112.475 20.2134 112.35 20.8043 112.1 21.31C111.853 21.8157 111.506 22.2091 111.06 22.4904C110.617 22.7716 110.1 22.9122 109.509 22.9122ZM109.509 22.0088C109.958 22.0088 110.327 21.8938 110.617 21.6637C110.907 21.4335 111.121 21.131 111.261 20.756C111.4 20.381 111.469 19.9747 111.469 19.5372C111.469 19.0997 111.4 18.6921 111.261 18.3142C111.121 17.9364 110.907 17.631 110.617 17.398C110.327 17.1651 109.958 17.0486 109.509 17.0486C109.06 17.0486 108.691 17.1651 108.401 17.398C108.112 17.631 107.897 17.9364 107.758 18.3142C107.619 18.6921 107.549 19.0997 107.549 19.5372C107.549 19.9747 107.619 20.381 107.758 20.756C107.897 21.131 108.112 21.4335 108.401 21.6637C108.691 21.8938 109.06 22.0088 109.509 22.0088ZM115.016 18.8384V22.7759H114.01V16.2304H114.982V17.2532H115.067C115.221 16.9208 115.453 16.6537 115.766 16.452C116.078 16.2475 116.482 16.1452 116.976 16.1452C117.419 16.1452 117.807 16.2361 118.14 16.4179C118.472 16.5969 118.73 16.8696 118.915 17.2361C119.1 17.5997 119.192 18.06 119.192 18.6168V22.7759H118.186V18.685C118.186 18.1708 118.053 17.7702 117.786 17.4833C117.519 17.1935 117.152 17.0486 116.686 17.0486C116.365 17.0486 116.078 17.1182 115.826 17.2574C115.576 17.3966 115.378 17.5997 115.233 17.8668C115.088 18.1338 115.016 18.4577 115.016 18.8384ZM127.251 16.2304V17.0827H123.859V16.2304H127.251ZM124.848 14.6622H125.854V20.9009C125.854 21.185 125.895 21.398 125.977 21.5401C126.063 21.6793 126.17 21.773 126.301 21.8213C126.435 21.8668 126.575 21.8895 126.723 21.8895C126.834 21.8895 126.925 21.8838 126.996 21.8725C127.067 21.8583 127.124 21.8469 127.166 21.8384L127.371 22.7418C127.303 22.7674 127.207 22.7929 127.085 22.8185C126.963 22.8469 126.808 22.8611 126.621 22.8611C126.337 22.8611 126.058 22.8 125.786 22.6779C125.516 22.5557 125.291 22.3696 125.112 22.1196C124.936 21.8696 124.848 21.5543 124.848 21.1736V14.6622ZM129.911 18.8384V22.7759H128.905V14.0486H129.911V17.2532H129.996C130.149 16.9151 130.379 16.6466 130.686 16.4478C130.996 16.246 131.408 16.1452 131.922 16.1452C132.368 16.1452 132.759 16.2347 133.094 16.4137C133.429 16.5898 133.689 16.8611 133.874 17.2276C134.061 17.5912 134.155 18.0543 134.155 18.6168V22.7759H133.149V18.685C133.149 18.1651 133.014 17.7631 132.744 17.479C132.477 17.1921 132.107 17.0486 131.632 17.0486C131.303 17.0486 131.007 17.1182 130.746 17.2574C130.487 17.3966 130.283 17.5997 130.132 17.8668C129.984 18.1338 129.911 18.4577 129.911 18.8384ZM138.739 22.9122C138.108 22.9122 137.564 22.773 137.107 22.4946C136.652 22.2134 136.301 21.8213 136.054 21.3185C135.81 20.8128 135.688 20.2247 135.688 19.5543C135.688 18.8838 135.81 18.2929 136.054 17.7816C136.301 17.2674 136.645 16.8668 137.086 16.5799C137.529 16.2901 138.046 16.1452 138.637 16.1452C138.978 16.1452 139.314 16.202 139.647 16.3157C139.979 16.4293 140.282 16.6139 140.554 16.8696C140.827 17.1225 141.044 17.4577 141.206 17.8753C141.368 18.2929 141.449 18.8071 141.449 19.4179V19.8441H136.404V18.9747H140.426C140.426 18.6054 140.353 18.2759 140.205 17.9861C140.06 17.6963 139.853 17.4676 139.583 17.3C139.316 17.1324 139 17.0486 138.637 17.0486C138.236 17.0486 137.89 17.148 137.597 17.3469C137.307 17.5429 137.084 17.7986 136.928 18.1139C136.772 18.4293 136.694 18.7674 136.694 19.1282V19.7077C136.694 20.202 136.779 20.621 136.949 20.9648C137.123 21.3057 137.363 21.5657 137.669 21.7446C137.976 21.9208 138.333 22.0088 138.739 22.0088C139.003 22.0088 139.242 21.9719 139.455 21.898C139.671 21.8213 139.857 21.7077 140.013 21.5571C140.169 21.4037 140.29 21.2134 140.375 20.9861L141.347 21.2588C141.245 21.5884 141.073 21.8782 140.831 22.1282C140.59 22.3753 140.292 22.5685 139.936 22.7077C139.581 22.8441 139.182 22.9122 138.739 22.9122Z" fill="white"/>
<path d="M54.5813 34.7184C54.4783 34.3953 54.3398 34.1059 54.1658 33.8502C53.9954 33.591 53.7912 33.3708 53.5533 33.1897C53.3153 33.005 53.0437 32.8647 52.7383 32.7689C52.4364 32.673 52.1044 32.625 51.7422 32.625C51.1278 32.625 50.5739 32.7831 50.0803 33.0991C49.5866 33.4152 49.196 33.8786 48.9084 34.4894C48.6243 35.0966 48.4822 35.8406 48.4822 36.7213C48.4822 37.6055 48.6261 38.353 48.9137 38.9638C49.2013 39.5746 49.5955 40.038 50.0962 40.3541C50.5969 40.6701 51.1669 40.8282 51.8061 40.8282C52.3991 40.8282 52.9158 40.7074 53.3562 40.466C53.8001 40.2245 54.1428 39.8836 54.3842 39.4432C54.6293 38.9993 54.7518 38.4773 54.7518 37.8772L55.1779 37.9571H52.0565V36.5988H56.3445V37.8399C56.3445 38.7561 56.1491 39.5515 55.7585 40.2263C55.3714 40.8974 54.8352 41.4159 54.1499 41.7816C53.468 42.1474 52.6868 42.3303 51.8061 42.3303C50.8189 42.3303 49.9524 42.103 49.2067 41.6485C48.4645 41.1939 47.8857 40.5494 47.4702 39.7149C47.0547 38.8768 46.8469 37.8825 46.8469 36.7319C46.8469 35.8619 46.9677 35.0807 47.2092 34.3882C47.4506 33.6957 47.7898 33.108 48.2266 32.625C48.6669 32.1385 49.1836 31.7674 49.7766 31.5118C50.3732 31.2525 51.0249 31.1229 51.7315 31.1229C52.321 31.1229 52.8697 31.2099 53.3775 31.3839C53.8888 31.5579 54.3434 31.8047 54.7411 32.1243C55.1424 32.4439 55.4744 32.8239 55.7372 33.2642C56 33.701 56.1776 34.1858 56.2699 34.7184H54.5813ZM61.7524 42.3463C60.9854 42.3463 60.316 42.1705 59.7442 41.8189C59.1725 41.4674 58.7286 40.9755 58.4126 40.3434C58.0965 39.7113 57.9385 38.9727 57.9385 38.1275C57.9385 37.2788 58.0965 36.5366 58.4126 35.901C58.7286 35.2653 59.1725 34.7717 59.7442 34.4201C60.316 34.0686 60.9854 33.8928 61.7524 33.8928C62.5194 33.8928 63.1888 34.0686 63.7606 34.4201C64.3323 34.7717 64.7762 35.2653 65.0922 35.901C65.4083 36.5366 65.5663 37.2788 65.5663 38.1275C65.5663 38.9727 65.4083 39.7113 65.0922 40.3434C64.7762 40.9755 64.3323 41.4674 63.7606 41.8189C63.1888 42.1705 62.5194 42.3463 61.7524 42.3463ZM61.7577 41.0093C62.2549 41.0093 62.6668 40.8779 62.9935 40.6151C63.3202 40.3523 63.5617 40.0025 63.718 39.5657C63.8778 39.129 63.9577 38.6478 63.9577 38.1222C63.9577 37.6002 63.8778 37.1208 63.718 36.684C63.5617 36.2437 63.3202 35.8903 62.9935 35.624C62.6668 35.3576 62.2549 35.2245 61.7577 35.2245C61.257 35.2245 60.8415 35.3576 60.5113 35.624C60.1846 35.8903 59.9413 36.2437 59.7815 36.684C59.6253 37.1208 59.5471 37.6002 59.5471 38.1222C59.5471 38.6478 59.6253 39.129 59.7815 39.5657C59.9413 40.0025 60.1846 40.3523 60.5113 40.6151C60.8415 40.8779 61.257 41.0093 61.7577 41.0093ZM70.7905 42.3463C70.0234 42.3463 69.354 42.1705 68.7823 41.8189C68.2106 41.4674 67.7667 40.9755 67.4506 40.3434C67.1346 39.7113 66.9766 38.9727 66.9766 38.1275C66.9766 37.2788 67.1346 36.5366 67.4506 35.901C67.7667 35.2653 68.2106 34.7717 68.7823 34.4201C69.354 34.0686 70.0234 33.8928 70.7905 33.8928C71.5575 33.8928 72.2269 34.0686 72.7987 34.4201C73.3704 34.7717 73.8143 35.2653 74.1303 35.901C74.4464 36.5366 74.6044 37.2788 74.6044 38.1275C74.6044 38.9727 74.4464 39.7113 74.1303 40.3434C73.8143 40.9755 73.3704 41.4674 72.7987 41.8189C72.2269 42.1705 71.5575 42.3463 70.7905 42.3463ZM70.7958 41.0093C71.293 41.0093 71.7049 40.8779 72.0316 40.6151C72.3583 40.3523 72.5998 40.0025 72.756 39.5657C72.9158 39.129 72.9957 38.6478 72.9957 38.1222C72.9957 37.6002 72.9158 37.1208 72.756 36.684C72.5998 36.2437 72.3583 35.8903 72.0316 35.624C71.7049 35.3576 71.293 35.2245 70.7958 35.2245C70.2951 35.2245 69.8796 35.3576 69.5494 35.624C69.2227 35.8903 68.9794 36.2437 68.8196 36.684C68.6634 37.1208 68.5852 37.6002 68.5852 38.1222C68.5852 38.6478 68.6634 39.129 68.8196 39.5657C68.9794 40.0025 69.2227 40.3523 69.5494 40.6151C69.8796 40.8779 70.2951 41.0093 70.7958 41.0093ZM79.8126 45.4198C79.1627 45.4198 78.6034 45.3346 78.1347 45.1641C77.6695 44.9937 77.2895 44.7682 76.9948 44.4876C76.7 44.2071 76.4798 43.8999 76.3343 43.5661L77.7032 43.0015C77.7991 43.1577 77.9269 43.3228 78.0867 43.4968C78.2501 43.6744 78.4703 43.8253 78.7472 43.9496C79.0278 44.0739 79.3882 44.1361 79.8286 44.1361C80.4323 44.1361 80.9312 43.9887 81.3254 43.6939C81.7195 43.4027 81.9166 42.9375 81.9166 42.2983V40.6897H81.8154C81.7195 40.8637 81.5811 41.0572 81.3999 41.2703C81.2224 41.4834 80.9774 41.668 80.6649 41.8243C80.3524 41.9805 79.9458 42.0586 79.445 42.0586C78.7987 42.0586 78.2164 41.9077 77.6979 41.6059C77.183 41.3005 76.7746 40.8513 76.4727 40.2582C76.1744 39.6616 76.0253 38.9283 76.0253 38.0583C76.0253 37.1883 76.1727 36.4425 76.4674 35.8211C76.7657 35.1996 77.1741 34.7238 77.6926 34.3935C78.211 34.0597 78.7987 33.8928 79.4557 33.8928C79.9635 33.8928 80.3737 33.978 80.6862 34.1485C80.9987 34.3154 81.2419 34.5107 81.4159 34.7344C81.5935 34.9581 81.7302 35.1552 81.8261 35.3257H81.9433V33.9993H83.504V42.3623C83.504 43.0654 83.3406 43.6424 83.0139 44.0934C82.6872 44.5444 82.2451 44.8782 81.6876 45.0949C81.1336 45.3115 80.5086 45.4198 79.8126 45.4198ZM79.7966 40.7376C80.2547 40.7376 80.6418 40.6311 80.9578 40.418C81.2774 40.2014 81.5189 39.8924 81.6823 39.4912C81.8492 39.0863 81.9326 38.6016 81.9326 38.037C81.9326 37.4866 81.8509 37.0018 81.6876 36.5828C81.5242 36.1638 81.2845 35.837 80.9685 35.6027C80.6524 35.3647 80.2618 35.2458 79.7966 35.2458C79.3172 35.2458 78.9177 35.3701 78.5981 35.6187C78.2785 35.8637 78.037 36.1975 77.8737 36.6201C77.7139 37.0427 77.634 37.515 77.634 38.037C77.634 38.5732 77.7156 39.0437 77.879 39.4486C78.0423 39.8534 78.2838 40.1694 78.6034 40.3967C78.9266 40.624 79.3243 40.7376 79.7966 40.7376ZM87.2327 31.2721V42.1812H85.64V31.2721H87.2327ZM92.9016 42.3463C92.0955 42.3463 91.4013 42.1741 90.8189 41.8296C90.2401 41.4816 89.7926 40.9933 89.4766 40.3647C89.1641 39.7326 89.0078 38.9922 89.0078 38.1435C89.0078 37.3054 89.1641 36.5668 89.4766 35.9276C89.7926 35.2884 90.233 34.7895 90.7976 34.4308C91.3658 34.0721 92.0298 33.8928 92.7898 33.8928C93.2514 33.8928 93.6989 33.9691 94.1321 34.1218C94.5653 34.2745 94.9542 34.5142 95.2987 34.841C95.6431 35.1677 95.9148 35.592 96.1136 36.114C96.3125 36.6325 96.4119 37.2628 96.4119 38.005V38.5696H89.908V37.3765H94.8512C94.8512 36.9574 94.766 36.5863 94.5955 36.2632C94.4251 35.9365 94.1854 35.679 93.8764 35.4908C93.571 35.3026 93.2124 35.2085 92.8004 35.2085C92.353 35.2085 91.9624 35.3186 91.6286 35.5388C91.2983 35.7554 91.0426 36.0395 90.8615 36.391C90.6839 36.739 90.5952 37.1172 90.5952 37.5256V38.4578C90.5952 39.0047 90.6911 39.4699 90.8828 39.8534C91.0781 40.2369 91.3498 40.5299 91.6978 40.7323C92.0458 40.9312 92.4524 41.0306 92.9176 41.0306C93.2195 41.0306 93.4947 40.988 93.7433 40.9027C93.9918 40.814 94.2067 40.6826 94.3878 40.5086C94.5689 40.3346 94.7074 40.1197 94.8033 39.864L96.3107 40.1357C96.19 40.5796 95.9734 40.9684 95.6609 41.3022C95.3519 41.6325 94.9631 41.89 94.4943 42.0746C94.0291 42.2557 93.4982 42.3463 92.9016 42.3463ZM102.277 42.1812V31.2721H106.165C107.014 31.2721 107.717 31.4265 108.275 31.7355C108.832 32.0444 109.249 32.467 109.526 33.0032C109.803 33.5359 109.942 34.1361 109.942 34.8037C109.942 35.4748 109.801 36.0785 109.521 36.6147C109.244 37.1474 108.825 37.57 108.264 37.8825C107.706 38.1915 107.005 38.3459 106.16 38.3459H103.486V36.9503H106.011C106.547 36.9503 106.982 36.858 107.316 36.6733C107.65 36.4851 107.895 36.2294 108.051 35.9063C108.207 35.5831 108.285 35.2156 108.285 34.8037C108.285 34.3917 108.207 34.026 108.051 33.7064C107.895 33.3868 107.648 33.1364 107.31 32.9553C106.977 32.7742 106.536 32.6836 105.989 32.6836H103.923V42.1812H102.277ZM113.336 31.2721V42.1812H111.744V31.2721H113.336ZM117.86 42.3623C117.341 42.3623 116.873 42.2664 116.454 42.0746C116.035 41.8793 115.703 41.597 115.458 41.2277C115.216 40.8584 115.095 40.4056 115.095 39.8694C115.095 39.4077 115.184 39.0277 115.362 38.7294C115.539 38.4312 115.779 38.195 116.081 38.021C116.383 37.847 116.72 37.7156 117.093 37.6268C117.466 37.538 117.846 37.4706 118.233 37.4244C118.723 37.3676 119.121 37.3214 119.426 37.2859C119.731 37.2468 119.953 37.1847 120.092 37.0995C120.23 37.0142 120.3 36.8758 120.3 36.684V36.6467C120.3 36.1815 120.168 35.8211 119.905 35.5654C119.646 35.3097 119.259 35.1819 118.744 35.1819C118.208 35.1819 117.785 35.3008 117.476 35.5388C117.171 35.7731 116.96 36.0341 116.843 36.3218L115.346 35.9809C115.523 35.4837 115.782 35.0824 116.123 34.777C116.468 34.4681 116.864 34.2444 117.311 34.1059C117.759 33.9638 118.229 33.8928 118.723 33.8928C119.05 33.8928 119.396 33.9319 119.762 34.01C120.131 34.0846 120.475 34.2231 120.795 34.4255C121.118 34.6279 121.383 34.9173 121.589 35.2937C121.795 35.6666 121.898 36.1513 121.898 36.7479V42.1812H120.342V41.0625H120.278C120.175 41.2685 120.021 41.4709 119.815 41.6698C119.609 41.8687 119.344 42.0338 119.021 42.1652C118.698 42.2966 118.311 42.3623 117.86 42.3623ZM118.206 41.0839C118.646 41.0839 119.023 40.9968 119.335 40.8228C119.651 40.6488 119.891 40.4216 120.055 40.141C120.221 39.8569 120.305 39.5533 120.305 39.2302V38.1755C120.248 38.2323 120.138 38.2856 119.975 38.3353C119.815 38.3814 119.632 38.4223 119.426 38.4578C119.22 38.4897 119.019 38.5199 118.824 38.5483C118.629 38.5732 118.465 38.5945 118.334 38.6123C118.025 38.6513 117.743 38.717 117.487 38.8093C117.235 38.9017 117.032 39.0348 116.88 39.2089C116.731 39.3793 116.656 39.6066 116.656 39.8907C116.656 40.2848 116.802 40.5831 117.093 40.7856C117.384 40.9844 117.755 41.0839 118.206 41.0839ZM124.733 45.2493C124.495 45.2493 124.278 45.2298 124.083 45.1907C123.888 45.1552 123.742 45.1162 123.646 45.0736L124.03 43.7685C124.321 43.8466 124.58 43.8804 124.807 43.8697C125.035 43.8591 125.235 43.7738 125.409 43.614C125.587 43.4542 125.743 43.1932 125.878 42.831L126.075 42.2877L123.081 33.9993H124.786L126.858 40.3488H126.943L129.015 33.9993H130.725L127.353 43.2731C127.197 43.6993 126.998 44.0597 126.757 44.3544C126.515 44.6527 126.228 44.8765 125.894 45.0256C125.56 45.1748 125.173 45.2493 124.733 45.2493Z" fill="white"/>
<defs>
<clipPath id="clip0_1_2228">
<rect width="24" height="24" fill="white" transform="translate(12 16.9785)"/>
</clipPath>
</defs>
</svg>
