<svg width="27" height="27" viewBox="0 0 27 27" fill="none" xmlns="http://www.w3.org/2000/svg">
<g clip-path="url(#clip0_1_1984)">
<path d="M25.3721 19.1764C25.3721 20.0082 25.0802 20.5815 24.4066 20.9075C23.9351 21.1435 23.4636 21.3571 22.9808 21.5594C22.3072 21.8404 21.8357 22.3013 21.555 22.9757C21.3642 23.4366 21.1397 23.8975 20.9263 24.3471C20.5559 25.1452 19.8935 25.4262 19.0515 25.37C18.9617 25.3588 18.8606 25.3588 18.7708 25.3363C17.3451 24.9991 16.1214 25.2801 14.9875 26.2692C13.8536 27.2472 13.1912 27.1797 11.9787 26.2917C11.6981 26.0782 11.4062 25.8758 11.1255 25.651C10.2835 24.9766 9.31803 25.1901 8.37499 25.3026C6.91553 25.4712 6.43279 25.2126 5.82655 23.8862C5.69183 23.594 5.55712 23.313 5.44485 23.0207C5.16418 22.3013 4.65899 21.8067 3.94048 21.5257C3.51387 21.3458 3.08726 21.1548 2.66065 20.9524C1.84111 20.5702 1.42572 19.8846 1.61657 19.0415C2.00951 17.3442 1.61657 15.9391 0.460233 14.6577C-0.179684 13.9495 -0.168457 13.084 0.43778 12.3421C1.91969 10.4986 1.95337 10.094 1.60535 7.91329C1.47063 7.08148 1.82988 6.40705 2.62697 6.0361C3.08726 5.82253 3.53632 5.60896 3.99662 5.40663C4.64776 5.13685 5.10805 4.67599 5.38872 4.02403C5.5908 3.56317 5.79287 3.1023 6.00618 2.64143C6.38788 1.82087 7.06148 1.52861 7.92593 1.59605C8.06065 1.6073 8.18414 1.62978 8.31886 1.65226C9.66605 1.95575 10.8224 1.6635 11.9002 0.741766C13.1126 -0.292372 13.7525 -0.236169 15.0436 0.719285C15.6386 1.16891 16.1999 1.68598 16.9858 1.76466C17.5696 1.82087 18.1421 1.69722 18.7147 1.61854C19.916 1.46117 20.4997 1.75342 21.0162 2.83252C21.0386 2.87749 21.0723 2.93369 21.0947 2.97865C21.5101 4.47366 22.4981 5.33919 23.9463 5.85625C25.2037 6.30588 25.518 6.95784 25.271 8.27299C25.0128 9.64435 25.2598 10.8134 26.1916 11.915C27.202 13.084 27.2245 13.8034 26.2702 14.905C25.2374 16.0965 24.9455 17.3667 25.3047 18.8504C25.3721 19.0078 25.3609 19.1427 25.3721 19.1764ZM19.8823 10.4986C19.916 10.2064 19.7925 9.89164 19.5792 9.62187C18.9954 8.8575 18.0074 8.84626 17.244 9.61063C15.6947 11.1506 14.1455 12.7018 12.6074 14.2642C12.338 14.534 12.1808 14.5565 11.9002 14.2755C11.1816 13.5111 10.4295 12.7805 9.67728 12.0498C8.98123 11.3754 8.09433 11.3529 7.48809 11.9824C6.90431 12.5782 6.92676 13.4886 7.5779 14.1406C8.7567 15.3433 9.94672 16.5349 11.148 17.7151C11.844 18.4008 12.6411 18.4233 13.3259 17.7376C15.3579 15.7255 17.3787 13.691 19.3995 11.6677C19.7026 11.3529 19.8935 11.0045 19.8823 10.4986Z" fill="#43AE63"/>
<path d="M19.8823 10.4987C19.8935 11.0045 19.6915 11.353 19.3883 11.6565C17.3676 13.6798 15.3468 15.7143 13.3147 17.7264C12.6299 18.4008 11.8328 18.3896 11.1368 17.7039C9.93554 16.5237 8.74552 15.3321 7.56672 14.1294C6.9268 13.4774 6.90435 12.5669 7.47691 11.9712C8.09437 11.3417 8.97005 11.3642 9.6661 12.0386C10.4183 12.7693 11.1592 13.4999 11.889 14.2643C12.1696 14.5565 12.3268 14.5341 12.5962 14.253C14.1343 12.6906 15.6836 11.1506 17.2328 9.59942C18.0075 8.83506 18.9842 8.8463 19.568 9.61066C19.7925 9.89168 19.9272 10.2064 19.8823 10.4987Z" fill="#F9F7EE"/>
</g>
<defs>
<clipPath id="clip0_1_1984">
<rect width="27" height="27" fill="white"/>
</clipPath>
</defs>
</svg>
