<svg width="40" height="40" viewBox="0 0 40 40" fill="none" xmlns="http://www.w3.org/2000/svg">
<path d="M36.4968 0.538949C36.4435 0.343152 36.311 0.178413 36.1309 0.0846357C35.7757 -0.103321 35.3354 0.032269 35.1473 0.387478C35.1468 0.388382 35.1463 0.389287 35.1459 0.390192C35.1459 0.410294 31.4592 7.56272 20.1415 8.80906C18.6652 8.96657 17.2222 9.35173 15.8637 9.95088C13.4323 11.008 11.4241 12.8477 10.1587 15.1775C8.97726 17.3659 8.48797 19.8614 8.75553 22.3339C8.95264 24.1363 9.5546 25.8709 10.5165 27.4078C8.50627 28.8511 2.12979 33.8405 1.55486 39.1958C1.51265 39.5954 1.80253 39.9537 2.20216 39.9959C2.6019 40.0381 2.96002 39.7482 3.00224 39.3486C3.52892 34.5682 9.51138 29.9326 11.3769 28.5898C13.6163 31.3398 16.9694 32.8917 20.5677 33.145C22.9895 33.3013 25.4143 32.8883 27.6477 31.9389C30.0723 30.9216 32.2136 29.3308 33.8875 27.3032C38.2015 22.0766 40.256 13.2919 36.4968 0.538949ZM11.795 26.6881C11.5176 26.2512 11.2731 25.7943 11.0633 25.3211C10.6218 24.3228 10.3371 23.2624 10.219 22.1771C9.97273 19.9995 10.3933 17.7984 11.4251 15.865C12.5404 13.8152 14.3095 12.1975 16.4507 11.2696C17.6749 10.7366 18.9741 10.3962 20.3023 10.2605C27.7724 9.45636 32.1668 6.13143 34.4343 3.71914C33.102 8.10538 30.8082 12.1393 27.7201 15.5273L27.2779 11.0726C27.2553 10.6713 26.9118 10.3643 26.5106 10.3868C26.1093 10.4093 25.8022 10.7529 25.8248 11.1541C25.8259 11.1739 25.8278 11.1937 25.8305 11.2133L26.3974 16.9385C23.0162 20.3679 18.3162 23.8135 11.795 26.6881ZM32.7618 26.3705V26.3745C31.2408 28.2262 29.2926 29.6806 27.0849 30.6121C25.0546 31.4701 22.8511 31.8391 20.6521 31.6896C17.5908 31.5345 14.7181 30.1639 12.6715 27.8822C15.0699 26.8209 17.3889 25.5888 19.6108 24.1954L25.9993 25.4016C26.3964 25.4638 26.7687 25.1923 26.8309 24.7953C26.8909 24.4123 26.6401 24.0495 26.2607 23.9703L21.3517 23.0415C23.6183 21.4848 25.7283 19.7115 27.6518 17.7466C27.687 17.7162 27.7193 17.6826 27.7483 17.6461C32.8221 12.3632 34.9811 7.13655 35.8817 3.92017C38.3663 14.5181 36.4646 21.8917 32.7618 26.3705Z" fill="#515DEF"/>
</svg>
