<svg width="110" height="39" viewBox="0 0 110 39" fill="none" xmlns="http://www.w3.org/2000/svg">
<path d="M30.4194 17.3752C30.4194 16.6599 30.5357 15.9178 30.7681 15.1488C31.0006 14.362 31.3225 13.5841 31.7338 12.8152C32.1451 12.0462 32.6279 11.313 33.1823 10.6156C33.7545 9.9182 34.3804 9.30125 35.0599 8.76478C35.7395 8.22831 36.4548 7.79913 37.2058 7.47724C37.9569 7.17324 38.7079 7.02124 39.459 7.02124C39.8882 7.02124 40.2101 7.18218 40.4247 7.50407C40.6393 7.82595 40.7465 8.1836 40.7465 8.57701C40.7465 8.80949 40.7018 9.07772 40.6124 9.38172C40.523 9.68573 40.3889 9.98973 40.2101 10.2937C40.0313 10.5798 39.8256 10.8302 39.5931 11.0448C39.3785 11.2415 39.1371 11.3399 38.8689 11.3399C38.8689 11.161 38.8957 10.9911 38.9494 10.8302C39.003 10.6514 39.0745 10.4904 39.164 10.3474C39.2534 10.1864 39.3249 10.0255 39.3785 9.86455C39.4322 9.70361 39.459 9.52478 39.459 9.32808C39.459 9.07772 39.3517 8.93466 39.1371 8.8989C38.9404 8.84525 38.7437 8.81843 38.547 8.81843C38.5112 8.81843 38.4397 8.81843 38.3324 8.81843C38.2609 8.81843 38.2072 8.81843 38.1715 8.81843C37.3489 9.14031 36.5442 9.56949 35.7573 10.106C34.9705 10.6246 34.2731 11.2326 33.6651 11.93C33.0571 12.6095 32.5743 13.3695 32.2166 14.21C31.859 15.0326 31.6801 15.9178 31.6801 16.8655C31.6801 17.4735 31.7338 18.1441 31.8411 18.8773C31.9663 19.5926 32.1719 20.2632 32.458 20.8891C32.7442 21.4971 33.1286 22.0067 33.6115 22.418C34.1122 22.8293 34.7291 23.035 35.4623 23.035C36.0703 23.035 36.6694 22.9813 37.2595 22.874C37.8675 22.7489 38.4665 22.6237 39.0567 22.4985C39.6647 22.3554 40.2637 22.2303 40.8538 22.123C41.4618 22.0157 42.0698 21.962 42.6779 21.962C42.8209 21.962 42.964 21.9799 43.107 22.0157C43.2501 22.0514 43.3216 22.1587 43.3216 22.3376C43.3216 22.427 43.268 22.5432 43.1607 22.6863C43.0534 22.8114 42.9193 22.9366 42.7583 23.0618C42.5974 23.187 42.4454 23.2853 42.3023 23.3569C42.1593 23.4284 42.0698 23.4731 42.0341 23.491L35.8378 24.8053C35.8021 24.8053 35.7216 24.8053 35.5964 24.8053C35.4891 24.8232 35.3997 24.8322 35.3282 24.8322C34.738 24.8322 34.2016 24.7159 33.7187 24.4835C33.2538 24.2331 32.8336 23.9202 32.458 23.5446C32.1004 23.1512 31.7874 22.7041 31.5192 22.2034C31.2688 21.6848 31.0543 21.1484 30.8754 20.594C30.7145 20.0397 30.5983 19.4853 30.5267 18.931C30.4552 18.3766 30.4194 17.858 30.4194 17.3752Z" fill="#36526C"/>
<path d="M44.5825 19.3333C44.5825 18.3498 44.7971 17.4914 45.2263 16.7582C45.6555 16.0251 46.2188 15.4081 46.9162 14.9074C47.6136 14.4067 48.3915 14.0401 49.2499 13.8076C50.1261 13.5573 51.0023 13.4321 51.8786 13.4321C52.3435 13.4321 52.7727 13.5215 53.1661 13.7003C53.5774 13.8613 53.9619 14.0937 54.3195 14.3978C54.6951 14.6839 55.0259 15.0236 55.312 15.4171C55.5981 15.7926 55.8395 16.186 56.0362 16.5973C56.2508 17.0086 56.4118 17.4288 56.5191 17.858C56.6264 18.2693 56.68 18.6717 56.68 19.0651C56.68 19.9771 56.5012 20.7907 56.1435 21.506C55.7859 22.2213 55.3031 22.8293 54.6951 23.33C54.0871 23.8129 53.3986 24.1884 52.6296 24.4566C51.8607 24.707 51.0739 24.8322 50.2692 24.8322C49.4466 24.8322 48.6866 24.707 47.9891 24.4566C47.3096 24.1884 46.7105 23.8218 46.192 23.3569C45.6912 22.8919 45.2978 22.3197 45.0117 21.6401C44.7256 20.9427 44.5825 20.1738 44.5825 19.3333ZM45.8969 19.1187C45.8969 19.6731 45.9952 20.2095 46.192 20.7281C46.4065 21.2288 46.6927 21.667 47.0503 22.0425C47.4258 22.418 47.864 22.722 48.3647 22.9545C48.8654 23.1691 49.4019 23.2764 49.9741 23.2764C50.2781 23.3122 50.6447 23.2674 51.0739 23.1423C51.5209 22.9992 51.959 22.8025 52.3882 22.5521C52.8353 22.2839 53.2555 21.971 53.6489 21.6133C54.0602 21.2378 54.4 20.8354 54.6682 20.4063C54.9365 19.9592 55.0974 19.5032 55.1511 19.0382C55.2226 18.5554 55.1421 18.0815 54.9097 17.6166C54.6951 17.1338 54.2927 16.6778 53.7026 16.2486C53.1125 15.8015 52.2988 15.3902 51.2616 15.0147C50.6715 15.0147 50.0546 15.1041 49.4108 15.2829C48.7849 15.4439 48.2127 15.6942 47.6941 16.034C47.1755 16.3738 46.7463 16.8029 46.4065 17.3215C46.0668 17.8401 45.8969 18.4392 45.8969 19.1187Z" fill="#36526C"/>
<path d="M57.9673 19.3333C57.9673 18.3498 58.1819 17.4914 58.6111 16.7582C59.0403 16.0251 59.6036 15.4081 60.301 14.9074C60.9984 14.4067 61.7763 14.0401 62.6347 13.8076C63.5109 13.5573 64.3871 13.4321 65.2634 13.4321C65.7283 13.4321 66.1575 13.5215 66.5509 13.7003C66.9622 13.8613 67.3467 14.0937 67.7043 14.3978C68.0799 14.6839 68.4107 15.0236 68.6968 15.4171C68.9829 15.7926 69.2243 16.186 69.4211 16.5973C69.6356 17.0086 69.7966 17.4288 69.9039 17.858C70.0112 18.2693 70.0648 18.6717 70.0648 19.0651C70.0648 19.9771 69.886 20.7907 69.5284 21.506C69.1707 22.2213 68.6879 22.8293 68.0799 23.33C67.4719 23.8129 66.7834 24.1884 66.0145 24.4566C65.2455 24.707 64.4587 24.8322 63.654 24.8322C62.8314 24.8322 62.0714 24.707 61.374 24.4566C60.6944 24.1884 60.0954 23.8218 59.5768 23.3569C59.0761 22.8919 58.6826 22.3197 58.3965 21.6401C58.1104 20.9427 57.9673 20.1738 57.9673 19.3333ZM59.2817 19.1187C59.2817 19.6731 59.3801 20.2095 59.5768 20.7281C59.7914 21.2288 60.0775 21.667 60.4351 22.0425C60.8107 22.418 61.2488 22.722 61.7495 22.9545C62.2502 23.1691 62.7867 23.2764 63.3589 23.2764C63.6629 23.3122 64.0295 23.2674 64.4587 23.1423C64.9057 22.9992 65.3439 22.8025 65.773 22.5521C66.2201 22.2839 66.6403 21.971 67.0338 21.6133C67.445 21.2378 67.7848 20.8354 68.0531 20.4063C68.3213 19.9592 68.4822 19.5032 68.5359 19.0382C68.6074 18.5554 68.5269 18.0815 68.2945 17.6166C68.0799 17.1338 67.6775 16.6778 67.0874 16.2486C66.4973 15.8015 65.6836 15.3902 64.6464 15.0147C64.0563 15.0147 63.4394 15.1041 62.7956 15.2829C62.1697 15.4439 61.5975 15.6942 61.0789 16.034C60.5603 16.3738 60.1311 16.8029 59.7914 17.3215C59.4516 17.8401 59.2817 18.4392 59.2817 19.1187Z" fill="#36526C"/>
<path d="M72.1839 24.0275C72.1839 23.9917 72.1928 23.9023 72.2107 23.7592C72.2286 23.5983 72.2554 23.4284 72.2912 23.2496C72.327 23.0707 72.3538 22.9098 72.3717 22.7667C72.3895 22.6058 72.3985 22.5074 72.3985 22.4717C72.3985 22.4359 72.3985 22.3465 72.3985 22.2034C72.3985 22.0425 72.3985 21.8637 72.3985 21.667C72.4164 21.4703 72.4253 21.2646 72.4253 21.05C72.4253 20.8354 72.4253 20.6745 72.4253 20.5672C72.4253 20.4599 72.4253 20.3168 72.4253 20.138C72.4253 19.9592 72.4164 19.7804 72.3985 19.6015C72.3985 19.4048 72.3985 19.2439 72.3985 19.1187C72.3985 18.9757 72.3985 18.8952 72.3985 18.8773C72.3448 18.0547 72.2375 17.1874 72.0766 16.2754C71.9335 15.3455 71.7726 14.4246 71.5938 13.5126C71.4328 12.6006 71.2719 11.7064 71.111 10.8302C70.9679 9.95395 70.8606 9.14924 70.7891 8.41606C70.95 7.98688 71.1199 7.84382 71.2987 7.98688C71.4954 8.11206 71.6921 8.425 71.8888 8.92571C72.0855 9.42642 72.2822 10.0523 72.479 10.8034C72.6757 11.5366 72.8455 12.2876 72.9886 13.0566C73.1496 13.8255 73.2926 14.5498 73.4178 15.2293C73.5251 15.9088 73.6145 16.4364 73.686 16.8119C73.7218 16.8476 73.7844 16.8655 73.8738 16.8655C73.9811 16.8655 74.0526 16.8655 74.0884 16.8655C74.446 16.8655 74.759 16.7582 75.0272 16.5436C75.2954 16.3291 75.5458 16.0608 75.7783 15.7389C76.0286 15.3992 76.27 15.0415 76.5025 14.666C76.735 14.2726 76.9764 13.9149 77.2267 13.593C77.4771 13.2712 77.7543 13.0029 78.0583 12.7883C78.3623 12.5559 78.711 12.4396 79.1044 12.4396C79.3548 12.4396 79.5068 12.5201 79.5604 12.681C79.6141 12.8241 79.6319 12.994 79.6141 13.1907C79.3637 13.3874 79.0776 13.6467 78.7557 13.9686C78.4338 14.2905 78.0851 14.6392 77.7096 15.0147C77.3519 15.3902 76.9853 15.7836 76.6098 16.1949C76.2522 16.6062 75.9303 17.0086 75.6441 17.402C75.3759 17.7775 75.1434 18.1441 74.9467 18.5018C74.7679 18.8594 74.6785 19.1724 74.6785 19.4406C74.6785 19.834 74.8037 20.1917 75.054 20.5135C75.3223 20.8354 75.6531 21.1305 76.0465 21.3987C76.4578 21.667 76.9138 21.8994 77.4145 22.0961C77.9152 22.275 78.4159 22.4359 78.9166 22.579C79.4173 22.7041 79.8912 22.8025 80.3383 22.874C80.7675 22.9456 81.1251 22.9813 81.4112 22.9813C81.5722 23.0171 81.6616 23.1065 81.6795 23.2496C81.6974 23.3926 81.7063 23.5267 81.7063 23.6519C81.7063 23.9202 81.6169 24.1169 81.4381 24.242C81.2771 24.3672 81.0715 24.4566 80.8211 24.5103C80.5886 24.5639 80.3383 24.5907 80.0701 24.5907C79.8197 24.5907 79.6051 24.5907 79.4263 24.5907C79.0329 24.5907 78.5769 24.4656 78.0583 24.2152C77.5576 23.9649 77.0658 23.6966 76.583 23.4105C76.118 23.1065 75.7067 22.8293 75.3491 22.579C74.9914 22.3286 74.7411 22.2034 74.598 22.2034C74.3119 22.2034 74.1152 22.3465 74.0079 22.6326C73.9185 22.9009 73.8559 23.1959 73.8201 23.5178C73.7844 23.8397 73.7218 24.1437 73.6324 24.4298C73.5608 24.698 73.391 24.8322 73.1227 24.8322C72.8903 24.8322 72.6757 24.7696 72.479 24.6444C72.2822 24.5192 72.1839 24.3136 72.1839 24.0275Z" fill="#36526C"/>
<path d="M83.6107 15.5243C83.6107 15.4528 83.6107 15.3187 83.6107 15.122C83.6107 14.9253 83.6107 14.7196 83.6107 14.505C83.6286 14.2905 83.6375 14.0848 83.6375 13.8881C83.6375 13.6914 83.6375 13.5573 83.6375 13.4857C83.566 12.9314 83.7269 12.6542 84.1203 12.6542C84.2992 12.6542 84.4512 12.6989 84.5763 12.7883C84.7015 12.8777 84.8177 13.0119 84.925 13.1907C84.8714 14.1206 84.9072 15.0236 85.0323 15.8999C85.1754 16.7582 85.3274 17.6166 85.4883 18.4749C85.6672 19.3154 85.8281 20.1648 85.9712 21.0232C86.1321 21.8816 86.2126 22.7757 86.2126 23.7056C86.2126 23.9559 86.1321 24.2063 85.9712 24.4566C85.8281 24.707 85.6046 24.8322 85.3006 24.8322C85.0681 24.8322 84.8625 24.6355 84.6836 24.242C84.5227 23.8307 84.3796 23.3211 84.2545 22.7131C84.1293 22.0872 84.022 21.3987 83.9326 20.6477C83.8432 19.8966 83.7716 19.1813 83.718 18.5018C83.6822 17.8044 83.6554 17.1874 83.6375 16.6509C83.6196 16.0966 83.6107 15.7211 83.6107 15.5243ZM82.2427 8.79163C82.2427 8.57704 82.3053 8.44293 82.4304 8.38928C82.5556 8.31775 82.7166 8.28198 82.9133 8.28198C83.0384 8.2641 83.1994 8.34457 83.3961 8.5234C83.6107 8.68434 83.7806 8.8721 83.9057 9.08669C84.0488 9.30128 84.1293 9.49799 84.1472 9.67681C84.165 9.8914 84.0309 10.0166 83.7448 10.0523H83.6107C83.3424 10.0523 83.1189 10.0344 82.9401 9.9987C82.7613 9.96293 82.6182 9.90929 82.5109 9.83776C82.4215 9.74834 82.35 9.62317 82.2963 9.46222C82.2606 9.30128 82.2427 9.07775 82.2427 8.79163Z" fill="#36526C"/>
<path d="M87.5 14.3441C87.5 14.1832 87.5537 14.0848 87.661 14.049C87.7861 13.9954 87.9203 13.9686 88.0633 13.9686C88.1706 13.9686 88.2421 13.9954 88.2779 14.049C88.3315 14.1027 88.3673 14.1653 88.3852 14.2368C88.4031 14.3083 88.4299 14.3799 88.4657 14.4514C88.5014 14.505 88.564 14.5319 88.6534 14.5319C88.9038 14.5319 89.2078 14.4335 89.5654 14.2368C89.9231 14.0401 90.3076 13.8255 90.7189 13.593C91.148 13.3606 91.5951 13.146 92.06 12.9493C92.5429 12.7526 93.0168 12.6542 93.4817 12.6542C94.0897 12.6542 94.6441 12.8152 95.1448 13.137C95.6634 13.441 96.1194 13.8523 96.5128 14.3709C96.9241 14.8895 97.2728 15.4707 97.5589 16.1145C97.845 16.7582 98.0864 17.4199 98.2831 18.0994C98.4798 18.7611 98.6229 19.4138 98.7123 20.0575C98.8017 20.6834 98.8464 21.2288 98.8464 21.6938C98.8464 21.8547 98.8286 22.0961 98.7928 22.418C98.7749 22.7399 98.7302 23.0618 98.6587 23.3837C98.605 23.7056 98.5067 23.9917 98.3636 24.242C98.2205 24.4745 98.0417 24.5907 97.8271 24.5907C97.7914 24.5907 97.7288 24.5907 97.6394 24.5907C97.55 24.5729 97.4605 24.555 97.3711 24.5371C97.2817 24.5013 97.2012 24.4656 97.1297 24.4298C97.0761 24.394 97.0492 24.3404 97.0492 24.2689C97.2102 22.8919 97.2102 21.6044 97.0492 20.4063C96.8883 19.1902 96.629 18.1262 96.2714 17.2142C95.9137 16.3022 95.4756 15.578 94.957 15.0415C94.4384 14.505 93.8841 14.2368 93.2939 14.2368C92.7396 14.2368 92.221 14.3262 91.7382 14.505C91.2553 14.6839 90.8351 14.9432 90.4774 15.2829C90.1198 15.6227 89.8337 16.034 89.6191 16.5168C89.4224 16.9996 89.324 17.5272 89.324 18.0994C89.324 18.6717 89.3777 19.2439 89.485 19.8161C89.5923 20.3705 89.7085 20.9338 89.8337 21.506C89.9767 22.0604 90.1019 22.6237 90.2092 23.1959C90.3165 23.7682 90.3701 24.3404 90.3701 24.9126C89.8694 24.9126 89.4492 24.707 89.1094 24.2957C88.7697 23.8844 88.4925 23.3569 88.2779 22.7131C88.0812 22.0693 87.9203 21.3451 87.7951 20.5404C87.6878 19.7357 87.6073 18.9488 87.5537 18.1799C87.5179 17.3931 87.5 16.6599 87.5 15.9803C87.5 15.2829 87.5 14.7375 87.5 14.3441Z" fill="#36526C"/>
<path d="M95.762 32.2623C95.6905 32.012 95.6994 31.7884 95.7888 31.5917C95.8604 31.395 95.9677 31.2341 96.1107 31.1089C96.2538 30.9837 96.4147 30.9033 96.5935 30.8675C96.7545 30.8317 96.8975 30.8496 97.0227 30.9211C97.13 31.0105 97.2015 31.1625 97.2373 31.3771C97.2552 31.5917 97.1926 31.8868 97.0495 32.2623C97.0495 32.6557 97.2194 33.0402 97.5592 33.4157C97.8811 33.7913 98.3103 34.131 98.8467 34.435C99.3651 34.739 99.9371 35.0162 100.563 35.2666C101.189 35.5169 101.797 35.7315 102.387 35.9103C102.977 36.0892 103.505 36.2233 103.97 36.3127C104.399 36.4021 104.721 36.4468 104.936 36.4468C105.383 36.4468 105.758 36.3306 106.062 36.0981C106.384 35.8656 106.652 35.5616 106.867 35.1861C107.099 34.8106 107.278 34.3814 107.403 33.8986C107.546 33.4336 107.654 32.9597 107.725 32.4769C107.797 32.012 107.842 31.556 107.859 31.1089C107.877 30.6618 107.886 30.2863 107.886 29.9823C107.886 29.8392 107.868 29.571 107.833 29.1776C107.815 28.8021 107.779 28.3639 107.725 27.8632C107.672 27.3625 107.609 26.8439 107.538 26.3075C107.466 25.771 107.385 25.2703 107.296 24.8053C107.207 24.3404 107.108 23.9649 107.001 23.6787C106.912 23.3926 106.813 23.2496 106.706 23.2496C106.527 23.2496 106.313 23.3032 106.062 23.4105C105.83 23.5178 105.579 23.634 105.311 23.7592C105.061 23.8844 104.801 24.0006 104.533 24.1079C104.265 24.2152 104.006 24.2689 103.755 24.2689C103.255 24.2689 102.763 24.1616 102.28 23.947C101.797 23.7324 101.377 23.4552 101.019 23.1154C100.68 22.7757 100.402 22.3733 100.188 21.9084C99.9731 21.4434 99.8661 20.9606 99.8661 20.4599C99.8661 19.6731 100.018 18.8684 100.322 18.0458C100.644 17.2232 101.073 16.4721 101.609 15.7926C102.164 15.113 102.808 14.5587 103.541 14.1295C104.292 13.7003 105.088 13.4857 105.928 13.4857C106.572 13.6646 107.09 14.0759 107.484 14.7196C107.895 15.3455 108.208 16.1234 108.423 17.0533C108.655 17.9832 108.816 19.0204 108.906 20.1648C109.013 21.2914 109.084 22.4449 109.12 23.6251C109.156 24.8053 109.183 25.9588 109.201 27.0854C109.236 28.2298 109.308 29.267 109.415 30.1969C109.415 30.6082 109.388 31.091 109.335 31.6454C109.299 32.2176 109.227 32.7988 109.12 33.3889C109.013 33.979 108.861 34.5602 108.664 35.1325C108.485 35.7226 108.244 36.2412 107.94 36.6882C107.636 37.1532 107.26 37.5198 106.813 37.788C106.384 38.0741 105.883 38.2172 105.311 38.2172C104.846 38.2172 104.283 38.1635 103.621 38.0562C102.977 37.9489 102.298 37.7791 101.583 37.5466C100.885 37.3141 100.188 37.028 99.4901 36.6882C98.7931 36.3485 98.1672 35.955 97.6128 35.508C97.0585 35.0788 96.6114 34.587 96.2717 34.0327C95.9319 33.4962 95.762 32.9061 95.762 32.2623ZM101.395 20.0039C101.395 20.3258 101.44 20.6387 101.529 20.9427C101.636 21.2288 101.779 21.4881 101.958 21.7206C102.155 21.9531 102.387 22.1409 102.656 22.2839C102.942 22.4091 103.255 22.4717 103.594 22.4717C104.506 22.4717 105.195 22.2929 105.66 21.9352C106.143 21.5776 106.473 21.1305 106.652 20.594C106.831 20.0575 106.921 19.4853 106.921 18.8773C106.903 18.2514 106.876 17.6881 106.84 17.1874C106.84 16.9371 106.822 16.6867 106.786 16.4364C106.751 16.186 106.679 15.9535 106.572 15.7389C106.465 15.5243 106.313 15.3545 106.116 15.2293C105.937 15.1041 105.705 15.0415 105.418 15.0415C104.828 15.0415 104.283 15.2114 103.782 15.5512C103.281 15.8731 102.852 16.2843 102.495 16.7851C102.155 17.2679 101.887 17.8044 101.69 18.3945C101.493 18.9667 101.395 19.5032 101.395 20.0039Z" fill="#36526C"/>
<path d="M22.8177 25.8135C22.7922 24.7549 22.5345 23.5584 22.4495 22.4607C22.3796 21.4236 22.4404 20.4319 22.1766 19.2864C21.7754 17.5325 20.789 15.3952 19.3961 13.3333C18.7236 12.3383 17.8799 11.3084 16.8757 10.4191C15.7605 9.42979 14.7461 9.04847 13.9259 9.08253C12.9826 9.11877 12.2841 9.46316 11.4938 9.68766C10.5976 9.93465 9.60762 10.0672 8.61562 10.2052C7.30005 10.3924 5.97489 10.5721 4.67459 10.785C4.60341 10.7787 4.53986 10.7852 4.49353 10.8121C3.84435 10.9158 3.20281 11.0324 2.5785 11.1694C2.42051 11.2004 2.42745 11.3522 2.52475 11.5251C2.48962 11.6234 2.54076 11.7885 2.71103 11.9971C4.00443 13.5496 5.45795 15.031 6.89994 16.5103C8.38595 18.0378 9.81982 19.6084 11.1939 21.1747C12.6045 22.7762 14.0518 24.3434 15.5164 25.9309C16.1616 26.6258 16.7471 27.3163 17.4599 27.9591C18.0712 28.5092 18.7518 29.0364 19.282 29.6422C19.5174 29.9082 19.7766 30.0393 19.946 30.0449C20.0555 30.081 20.1632 30.0877 20.2309 30.0355C20.8937 29.5171 21.6024 29.0412 22.1177 28.3876C22.6521 27.7488 22.8413 26.8774 22.8177 25.8135ZM7.87995 11.4411C7.89114 11.5125 7.90038 11.5894 7.90216 11.6186C7.89296 11.9183 7.78027 12.1308 7.59087 12.2839C7.22557 12.5865 6.57831 12.3083 5.89213 11.728C6.55284 11.6263 7.2116 11.53 7.87995 11.4411ZM16.187 25.7671C14.734 24.1816 13.2732 22.6179 11.8646 21.011C10.5096 19.4595 9.09102 17.9146 7.6242 16.402C6.25501 14.993 4.87996 13.6003 3.63041 12.1305C4.13136 12.0305 4.6323 11.9305 5.15242 11.8453C5.77114 12.443 6.42305 12.948 7.12411 13.247C7.80404 13.5365 8.28581 13.4217 8.58917 13.1895C8.9408 12.9251 9.23152 12.1463 8.67167 11.3153C8.97984 11.2751 9.28992 11.2295 9.58852 11.1819C10.6094 11.0314 11.6303 10.881 12.5574 10.6161C13.2418 10.4141 13.8652 10.0743 14.7197 10.0808C14.5024 10.8257 15.2504 12.1232 16.0315 13.3626C17.288 15.3606 17.8415 17.0652 17.9915 18.6314C17.9933 18.6607 17.9951 18.69 17.9969 18.7192C17.9394 18.6747 17.8703 18.6282 17.8089 18.5945C17.0123 18.1519 16.3373 18.0195 15.6168 17.7751C15.3535 17.6897 15.2085 17.8214 15.3246 18.0787C15.6311 18.7622 15.7196 19.5419 16.4665 20.2947C16.9702 20.8033 17.5913 20.9149 18.1141 21.0619C18.1198 21.0803 18.114 21.0966 18.1196 21.115C18.1618 21.9215 18.2752 22.7343 18.1485 23.431C16.9732 22.5068 15.7128 22.4369 15.6703 23.2405C15.6241 24.0204 16.6842 25.2668 17.7057 26.1416C17.6539 26.4919 17.5734 26.82 17.4832 27.1406C17.0389 26.7057 16.6273 26.2476 16.187 25.7671ZM17.9606 19.4371C17.9913 19.4539 18.0335 19.4727 18.0547 19.4821C18.063 19.7326 18.0714 19.9831 18.0798 20.2336C18.0702 20.2261 18.0587 20.2242 18.0491 20.2167C17.6534 20.0567 17.2994 20.0195 16.9056 19.854C16.8751 19.8024 16.8445 19.7509 16.8255 19.7013C16.7551 19.5561 16.6981 19.4074 16.6391 19.2641C16.5878 19.1337 16.5384 18.9979 16.4967 18.8749C16.981 19.0269 17.448 19.1586 17.9606 19.4371ZM17.9778 24.0796C17.9425 24.2126 17.9072 24.3456 17.8719 24.4786C17.803 24.7739 17.8052 25.1102 17.7862 25.4371C17.2977 24.989 16.7886 24.3926 16.7424 24.0082C16.6756 23.5103 17.4063 23.6579 17.9778 24.0796ZM19.4624 28.9663C19.1541 28.6647 18.8302 28.3721 18.5025 28.0903C18.659 27.5841 18.7752 27.0536 18.8339 26.4786C18.8664 26.1482 18.8489 25.7861 18.9025 25.4651C18.9601 25.0984 19.0657 24.7689 19.1598 24.4373C19.3344 23.7778 19.2823 23.0333 19.217 22.2229C19.15 21.3832 19.1559 20.5791 19.1005 19.7413C19.0099 18.2141 18.6236 16.5554 17.5728 14.5982C16.7948 13.1451 15.0994 11.1418 16.0531 10.5628C16.0551 10.5574 16.0666 10.5593 16.0686 10.5539C16.6958 10.9909 17.3179 11.6819 17.7962 12.2615C18.6667 13.3191 19.3098 14.4307 19.8359 15.4587C20.3468 16.4609 20.7442 17.438 21.0072 18.3458C21.3308 19.4609 21.2971 20.4109 21.3443 21.3747C21.421 22.9748 21.9236 24.856 21.6818 26.2513C21.4615 27.5865 20.4034 28.252 19.4624 28.9663Z" fill="#36526C"/>
<path d="M15.3796 15.5273C15.4884 14.7969 14.8 13.6702 13.6006 12.8594C12.4596 12.09 11.5475 12.128 11.3038 12.6879C11.0414 12.5695 10.7974 12.5727 10.8127 12.8075C10.8519 13.6362 11.8331 14.7942 13.003 15.5502C14.3033 16.3851 15.2654 16.3081 15.3796 15.5273ZM13.0363 14.8273C12.4503 14.452 12.0417 13.9515 11.9223 13.5274C12.1225 13.6152 12.3124 13.6279 12.3539 13.4741C12.4541 13.1516 12.8859 13.1324 13.4718 13.5077C14.157 13.9466 14.3435 14.5269 14.2803 14.8825C14.2255 15.3187 13.7098 15.2647 13.0363 14.8273Z" fill="#36526C"/>
<path d="M13.7808 20.7146C13.5722 19.868 12.294 18.7309 11.2189 18.2776C10.6913 18.0574 10.1259 17.985 9.78551 18.0668C9.47031 18.1452 9.43691 18.4948 9.30171 18.7178C9.17011 18.93 9.54831 19.344 9.88651 19.5194C10.5195 20.2133 11.3067 20.8425 12.1597 21.2761C13.2603 21.8324 13.9602 21.4691 13.7808 20.7146ZM11.9025 20.4308C11.3753 20.138 10.8203 19.6412 10.4611 19.2065C10.5393 19.0456 10.6552 18.916 10.948 18.9755C11.2975 19.0456 11.5652 19.1084 11.9603 19.4008C12.2389 19.6101 12.5116 19.9084 12.6371 20.1433C12.9141 20.6435 12.4415 20.7247 11.9025 20.4308Z" fill="#36526C"/>
<path d="M11.1126 16.307C10.8034 16.0374 10.6007 16.051 10.5213 16.2004C10.5671 16.1091 10.4968 16.2 10.4794 16.2137C10.4406 16.2521 10.3833 16.2736 10.3373 16.298C10.2413 16.3579 10.138 16.4037 10.0512 16.4721C9.91836 16.5649 10.0701 16.9269 10.3188 17.1929C10.5932 17.4898 10.8742 17.6001 10.9977 17.4988C11.1847 17.3594 11.4302 17.2962 11.538 17.0692C11.6359 16.9368 11.3662 16.5256 11.1126 16.307Z" fill="#36526C"/>
<path d="M14.3402 10.7432C13.9015 10.331 13.3998 10.2475 12.9354 9.99972C12.6319 9.84002 12.3532 9.87224 12.3259 10.0421C12.2954 10.223 12.5327 10.4867 12.8361 10.6464C13.039 10.751 13.2483 10.8337 13.4593 10.911C13.4911 10.922 13.6788 10.9992 13.6369 10.9827C13.6469 10.9882 13.657 10.9937 13.657 10.9937C13.657 10.9937 13.6654 11.0047 13.6755 11.0102C13.9125 11.2355 14.2875 11.3515 14.4608 11.2807C14.6473 11.2044 14.5773 10.9685 14.3402 10.7432Z" fill="#36526C"/>
<path d="M14.0156 21.8077C13.4475 21.2068 12.7944 21.4151 13.3508 22.0146C13.5376 22.2108 13.7341 22.4138 13.9073 22.6142C13.8975 22.6074 13.9841 22.7076 13.9841 22.7076C13.992 22.7198 14.0632 22.8295 14.073 22.8362C14.079 22.8539 14.1009 22.8959 14.1088 22.9081C14.1069 22.9135 14.113 22.9311 14.1111 22.9366C14.113 22.9311 14.1092 22.942 14.1017 22.9637C13.9981 23.3698 15.0912 24.0641 15.1929 23.6635C15.3208 23.1867 14.5995 22.433 14.0156 21.8077Z" fill="#36526C"/>
</svg>
