<svg width="29" height="37" viewBox="0 0 29 37" fill="none" xmlns="http://www.w3.org/2000/svg">
<path d="M5.10593 3.34151C8.98785 -0.0728694 14.7838 -0.887529 19.557 0.975405C26.3937 3.43136 30.3474 11.56 28.4513 18.5026C27.6199 21.3898 26.0049 23.9536 24.4557 26.4994C23.0441 24.0674 21.0523 22.0487 18.594 20.677C20.5858 18.5864 21.9316 15.4656 20.5618 12.6742C18.9229 8.26541 12.463 6.97154 9.40655 10.6375C6.53548 13.4648 7.3669 18.0892 10.0167 20.7549C7.56428 21.9469 5.69211 23.9776 4.54368 26.4395C1.81617 23.0431 -0.367038 18.862 0.0516588 14.3694C-0.175634 10.1283 1.99561 6.10297 5.10593 3.34151Z" fill="#515DEF"/>
<path d="M9.87305 33.1063C10.7643 29.0091 11.3325 24.8519 12.1639 20.7427C13.5755 20.7487 14.9812 20.7487 16.3928 20.7487C17.2601 24.828 17.8821 28.9552 18.7076 33.0464C17.272 34.3583 16.1296 36.335 14.2933 36.9999C12.4869 36.2991 11.3325 34.3703 9.87305 33.1063Z" fill="#515DEF"/>
</svg>
