<svg width="124" height="18" viewBox="0 0 124 18" fill="none" xmlns="http://www.w3.org/2000/svg">
<g clip-path="url(#clip0_1_6266)">
<path d="M13.4024 2.09769V0.274566H15.3956V5.71098H13.4024C12.9456 4.64933 12.2224 3.8 11.2327 3.16301C10.2499 2.52601 9.21523 2.20751 8.12864 2.20751C7.04898 2.20751 6.08697 2.47842 5.24261 3.02023C4.39826 3.55472 3.74077 4.29422 3.27014 5.23873C2.80644 6.18324 2.57459 7.25588 2.57459 8.45665C2.57459 9.71599 2.82028 10.8326 3.31167 11.8064C3.80306 12.7802 4.48477 13.538 5.35681 14.0798C6.23577 14.6216 7.23584 14.8925 8.35703 14.8925C9.20831 14.8925 9.9973 14.7277 10.724 14.3983C11.4576 14.0688 12.0632 13.6002 12.5407 12.9925C13.0252 12.3848 13.3263 11.6892 13.4439 10.9058H10.5683V8.81908H16.2677V9.35723C16.2677 10.9314 15.9285 12.3042 15.2503 13.4757C14.572 14.6472 13.6343 15.5441 12.4369 16.1665C11.2465 16.7888 9.90733 17.1 8.41932 17.1C6.72369 17.1 5.23569 16.7412 3.95532 16.0237C2.68186 15.2988 1.70255 14.2884 1.01738 12.9925C0.339126 11.6965 0 10.1919 0 8.47861C0 6.84586 0.339126 5.38516 1.01738 4.09653C1.70255 2.8079 2.6438 1.80482 3.84112 1.08728C5.03844 0.362428 6.39495 0 7.91063 0C10.0561 0 11.8867 0.699229 13.4024 2.09769Z" fill="#36526C"/>
<path d="M29.7324 4.61269C29.7324 5.67434 29.4486 6.5676 28.8811 7.29246C28.3136 8.00999 27.5211 8.50421 26.5037 8.77511L29.2652 14.7607H31.1754V16.8254H27.6665L24.2094 9.11558H22.019V14.7607H24.0122V16.8254H17.5342V14.7607H19.652V2.33928H17.5342V0.274536H24.033C26.047 0.274536 27.5004 0.622321 28.3932 1.31789C29.286 2.01346 29.7324 3.11172 29.7324 4.61269ZM27.2927 4.56876C27.2927 3.79997 27.0643 3.23619 26.6076 2.87743C26.1508 2.51866 25.4275 2.33928 24.4378 2.33928H22.019V7.03985H24.2925C25.3099 7.03985 26.0643 6.85315 26.5556 6.47974C27.047 6.10633 27.2927 5.46933 27.2927 4.56876Z" fill="#36526C"/>
<path d="M36.1586 2.33928V14.7607H37.8611V16.8254H32.0994V14.7607H33.7916V2.33928H32.0994V0.274536H37.8611V2.33928H36.1586Z" fill="#36526C"/>
<path d="M43.2802 2.33928V14.7607H48.419V9.63176H50.3603V16.8254H38.8992V14.7607H40.9132V2.33928H38.8992V0.274536H45.2942V2.33928H43.2802Z" fill="#36526C"/>
<path d="M55.7793 2.33928V14.7607H60.9181V9.63176H62.8594V16.8254H51.3984V14.7607H53.4124V2.33928H51.3984V0.274536H57.7933V2.33928H55.7793Z" fill="#36526C"/>
<path d="M74.3101 3.55838C74.3101 4.26127 74.1579 4.84701 73.8533 5.31561C73.5488 5.77688 73.182 6.14297 72.7529 6.41387C72.3307 6.68478 71.7528 6.98497 71.0192 7.31445L74.2063 11.8723C74.7738 10.8106 75.1787 9.54393 75.4209 8.07225H78.6288V10.104H76.9885C76.5664 11.6636 76.0438 12.8387 75.4209 13.6295L76.2515 14.7607H78.6288V16.8254H75.0784L74.0402 15.3647C72.6629 16.5216 71.2649 17.1 69.8461 17.1C68.8011 17.1 67.8529 16.8547 67.0016 16.3642C66.1503 15.8736 65.4825 15.2073 64.998 14.3653C64.5205 13.516 64.2817 12.5751 64.2817 11.5428C64.2817 10.4152 64.5758 9.44509 65.1641 8.63237C65.7524 7.81233 66.6487 7.11676 67.8529 6.54566C67.1262 5.57187 66.7628 4.60539 66.7628 3.64624C66.7628 2.94335 66.9393 2.31368 67.2923 1.75723C67.6522 1.20077 68.1228 0.768786 68.7042 0.461272C69.2855 0.153757 69.9084 0 70.5728 0C71.2511 0 71.8774 0.153757 72.4519 0.461272C73.0263 0.768786 73.4796 1.19711 73.8118 1.74624C74.144 2.29538 74.3101 2.89942 74.3101 3.55838ZM69.8876 5.75491C70.7528 5.36686 71.3584 5.00443 71.7044 4.66763C72.0574 4.33083 72.2338 3.93911 72.2338 3.49249C72.2338 3.08247 72.0954 2.7237 71.8186 2.41618C71.5418 2.10867 71.1403 1.95491 70.6143 1.95491C70.116 1.95491 69.7146 2.10501 69.4101 2.4052C69.1056 2.70539 68.9533 3.09711 68.9533 3.58035C68.9533 3.74143 69.0052 3.95742 69.109 4.22832C69.2198 4.49923 69.4793 5.00809 69.8876 5.75491ZM70.1057 15.0243C71.1092 15.0243 72.0158 14.5813 72.8256 13.6954L69.0156 8.07225C68.1989 8.48227 67.5899 8.95453 67.1885 9.48902C66.794 10.0162 66.5967 10.6459 66.5967 11.378C66.5967 12.037 66.749 12.6447 67.0535 13.2012C67.358 13.7576 67.7802 14.2006 68.3201 14.5301C68.8599 14.8595 69.4551 15.0243 70.1057 15.0243Z" fill="#36526C"/>
<path d="M90.7334 4.54679C90.7334 5.3229 90.5708 6.00748 90.2455 6.60055C89.9202 7.19361 89.4461 7.64756 88.8232 7.9624C89.7022 8.29188 90.3735 8.80806 90.8372 9.51095C91.3079 10.2066 91.5432 11.0339 91.5432 11.9931C91.5432 13.5672 90.9964 14.768 89.9029 15.5954C88.8163 16.4154 87.1864 16.8254 85.0133 16.8254H79.5942V14.7607H81.5251V2.33928H79.5942V0.274536H85.0963C86.9996 0.274536 88.4149 0.625982 89.3423 1.32887C90.2697 2.03176 90.7334 3.1044 90.7334 4.54679ZM88.3976 4.67858C88.3976 3.90247 88.1381 3.32039 87.619 2.93234C87.0999 2.53696 86.3663 2.33928 85.4181 2.33928H83.8713V7.17165H85.4389C87.4114 7.17165 88.3976 6.34063 88.3976 4.67858ZM89.1451 11.9491C89.1451 11.0339 88.8371 10.353 88.2211 9.90633C87.6121 9.45238 86.6639 9.2254 85.3766 9.2254H83.8713V14.7607H84.8056C85.74 14.7607 86.5082 14.7021 87.1103 14.585C87.7124 14.4605 88.2004 14.1969 88.5741 13.7942C88.9547 13.3842 89.1451 12.7692 89.1451 11.9491Z" fill="#36526C"/>
<path d="M103.087 2.27338L107.323 14.7607H109.067V16.8254H102.901V14.7607H104.946L103.731 11.0046H98.0523L96.8377 14.7607H98.8205V16.8254H92.6125V14.7607H94.5019L98.7167 2.27338H96.8377V0.274536H104.966V2.27338H103.087ZM100.949 2.27338H100.876L98.6648 9.06066H103.108L100.949 2.27338Z" fill="#36526C"/>
<path d="M121.857 4.61269C121.857 5.67434 121.573 6.5676 121.006 7.29246C120.438 8.00999 119.646 8.50421 118.628 8.77511L121.39 14.7607H123.3V16.8254H119.791L116.334 9.11558H114.144V14.7607H116.137V16.8254H109.659V14.7607H111.777V2.33928H109.659V0.274536H116.158C118.172 0.274536 119.625 0.622321 120.518 1.31789C121.411 2.01346 121.857 3.11172 121.857 4.61269ZM119.417 4.56876C119.417 3.79997 119.189 3.23619 118.732 2.87743C118.275 2.51866 117.552 2.33928 116.562 2.33928H114.144V7.03985H116.417C117.435 7.03985 118.189 6.85315 118.68 6.47974C119.172 6.10633 119.417 5.46933 119.417 4.56876Z" fill="#36526C"/>
</g>
<defs>
<clipPath id="clip0_1_6266">
<rect width="124" height="18" fill="white"/>
</clipPath>
</defs>
</svg>
