<svg width="32" height="32" viewBox="0 0 32 32" fill="none" xmlns="http://www.w3.org/2000/svg">
<path d="M31.7501 16.0799C31.7501 21.2799 27.5501 25.5299 22.3001 25.5299C17.1001 25.5299 12.8501 21.2799 12.8501 16.0799C12.8501 10.8799 17.0501 6.62988 22.2501 6.62988C27.5501 6.62988 31.7501 10.8799 31.7501 16.0799Z" fill="#FFB600"/>
<path d="M22.3001 6.62988C27.5001 6.62988 31.7501 10.8799 31.7501 16.0799C31.7501 21.2799 27.5501 25.5299 22.3001 25.5299C17.1001 25.5299 12.8501 21.2799 12.8501 16.0799" fill="#F7981D"/>
<path d="M22.2998 6.62988C27.4998 6.62988 31.7498 10.8799 31.7498 16.0799C31.7498 21.2799 27.5498 25.5299 22.2998 25.5299" fill="#FF8500"/>
<path d="M9.6 6.62988C4.45 6.67988 0.25 10.8799 0.25 16.0799C0.25 21.2799 4.45 25.5299 9.7 25.5299C12.15 25.5299 14.35 24.5799 16.05 23.0799C16.4 22.7799 16.7 22.4299 17 22.0799H15.05C14.8 21.7799 14.55 21.4299 14.35 21.1299H17.7C17.9 20.8299 18.1 20.4799 18.25 20.1299H13.8C13.65 19.8299 13.5 19.4799 13.4 19.1299H18.6C18.9 18.1799 19.1 17.1799 19.1 16.1299C19.1 15.4299 19 14.7799 18.9 14.1299H13.1C13.15 13.7799 13.25 13.4799 13.35 13.1299H18.55C18.45 12.7799 18.3 12.4299 18.15 12.1299H13.75C13.9 11.7799 14.1 11.4799 14.3 11.1299H17.65C17.45 10.7799 17.2 10.4299 16.9 10.1299H15.05C15.35 9.77988 15.65 9.47988 16 9.17988C14.35 7.62988 12.1 6.72988 9.65 6.72988C9.65 6.62988 9.65 6.62988 9.6 6.62988Z" fill="#FF5050"/>
<path d="M0.25 16.08C0.25 21.28 4.45 25.53 9.7 25.53C12.15 25.53 14.35 24.58 16.05 23.08C16.4 22.78 16.7 22.43 17 22.08H15.05C14.8 21.78 14.55 21.43 14.35 21.13H17.7C17.9 20.83 18.1 20.48 18.25 20.13H13.8C13.65 19.83 13.5 19.4799 13.4 19.13H18.6C18.9 18.1799 19.1 17.1799 19.1 16.1299C19.1 15.4299 19 14.78 18.9 14.13H13.1C13.15 13.78 13.25 13.48 13.35 13.13H18.55C18.45 12.78 18.3 12.43 18.15 12.13H13.75C13.9 11.78 14.1 11.48 14.3 11.13H17.65C17.45 10.78 17.2 10.43 16.9 10.13H15.05C15.35 9.77998 15.65 9.47998 16 9.17998C14.35 7.62998 12.1 6.72998 9.65 6.72998H9.6" fill="#E52836"/>
<path d="M9.7001 25.53C12.1501 25.53 14.3501 24.58 16.0501 23.08C16.4001 22.78 16.7001 22.43 17.0001 22.08H15.0501C14.8001 21.78 14.5501 21.43 14.3501 21.13H17.7001C17.9001 20.83 18.1001 20.48 18.2501 20.13H13.8001C13.6501 19.83 13.5001 19.4799 13.4001 19.13H18.6001C18.9001 18.1799 19.1001 17.1799 19.1001 16.1299C19.1001 15.4299 19.0001 14.78 18.9001 14.13H13.1001C13.1501 13.78 13.2501 13.48 13.3501 13.13H18.5501C18.4501 12.78 18.3001 12.43 18.1501 12.13H13.7501C13.9001 11.78 14.1001 11.48 14.3001 11.13H17.6501C17.4501 10.78 17.2001 10.43 16.9001 10.13H15.0501C15.3501 9.77998 15.6501 9.47998 16.0001 9.17998C14.3501 7.62998 12.1001 6.72998 9.6501 6.72998H9.6001" fill="#CB2026"/>
<path d="M13.0501 18.4801L13.2001 17.6301C13.1501 17.6301 13.0501 17.6801 12.9501 17.6801C12.6001 17.6801 12.5501 17.4801 12.6001 17.3801L12.9001 15.6301H13.4501L13.6001 14.6801H13.1001L13.2001 14.0801H12.2001C12.2001 14.0801 11.6001 17.3801 11.6001 17.7801C11.6001 18.3801 11.9501 18.6301 12.4001 18.6301C12.7001 18.6301 12.9501 18.5301 13.0501 18.4801Z" fill="white"/>
<path d="M13.3999 16.8799C13.3999 18.2799 14.3499 18.6299 15.1499 18.6299C15.8999 18.6299 16.1999 18.4799 16.1999 18.4799L16.3999 17.5299C16.3999 17.5299 15.8499 17.7799 15.3499 17.7799C14.2499 17.7799 14.4499 16.9799 14.4499 16.9799H16.4999C16.4999 16.9799 16.6499 16.3299 16.6499 16.0799C16.6499 15.4299 16.2999 14.6299 15.1999 14.6299C14.1499 14.5299 13.3999 15.6299 13.3999 16.8799ZM15.1499 15.4299C15.6999 15.4299 15.5999 16.0799 15.5999 16.1299H14.4999C14.4999 16.0799 14.5999 15.4299 15.1499 15.4299Z" fill="white"/>
<path d="M21.5 18.4799L21.7 17.3799C21.7 17.3799 21.2 17.6299 20.85 17.6299C20.15 17.6299 19.85 17.0799 19.85 16.4799C19.85 15.2799 20.45 14.6299 21.15 14.6299C21.65 14.6299 22.05 14.9299 22.05 14.9299L22.2 13.8799C22.2 13.8799 21.6 13.6299 21.05 13.6299C19.9 13.6299 18.75 14.6299 18.75 16.5299C18.75 17.7799 19.35 18.6299 20.55 18.6299C20.95 18.6299 21.5 18.4799 21.5 18.4799Z" fill="white"/>
<path d="M7.5499 14.5303C6.8499 14.5303 6.3499 14.7303 6.3499 14.7303L6.1999 15.5803C6.1999 15.5803 6.6499 15.3803 7.2999 15.3803C7.6499 15.3803 7.9499 15.4303 7.9499 15.7303C7.9499 15.9303 7.8999 15.9803 7.8999 15.9803C7.8999 15.9803 7.5999 15.9803 7.4499 15.9803C6.5999 15.9803 5.6499 16.3303 5.6499 17.4803C5.6499 18.3803 6.2499 18.5803 6.5999 18.5803C7.2999 18.5803 7.5999 18.1303 7.6499 18.1303L7.5999 18.5303H8.4999L8.8999 15.7803C8.8999 14.5803 7.8999 14.5303 7.5499 14.5303ZM7.7499 16.7803C7.7499 16.9303 7.6499 17.7303 7.0499 17.7303C6.7499 17.7303 6.6499 17.4803 6.6499 17.3303C6.6499 17.0803 6.7999 16.7303 7.5499 16.7303C7.6999 16.7803 7.7499 16.7803 7.7499 16.7803Z" fill="white"/>
<path d="M9.8502 18.5799C10.1002 18.5799 11.3502 18.6299 11.3502 17.2799C11.3502 16.0299 10.1502 16.2799 10.1502 15.7799C10.1502 15.5299 10.3502 15.4299 10.7002 15.4299C10.8502 15.4299 11.4002 15.4799 11.4002 15.4799L11.5502 14.5799C11.5502 14.5799 11.2002 14.48 10.6002 14.48C9.8502 14.48 9.1002 14.7799 9.1002 15.7799C9.1002 16.9299 10.3502 16.8299 10.3502 17.2799C10.3502 17.5799 10.0002 17.6299 9.7502 17.6299C9.3002 17.6299 8.8502 17.4799 8.8502 17.4799L8.7002 18.3799C8.7502 18.4799 9.0002 18.5799 9.8502 18.5799Z" fill="white"/>
<path d="M29.8002 13.73L29.6002 15.0799C29.6002 15.0799 29.2002 14.5799 28.6502 14.5799C27.7502 14.5799 26.9502 15.6799 26.9502 16.9799C26.9502 17.7799 27.3502 18.6299 28.2002 18.6299C28.8002 18.6299 29.1502 18.2299 29.1502 18.2299L29.1002 18.5799H30.1002L30.8502 13.78L29.8002 13.73ZM29.3502 16.3799C29.3502 16.9299 29.1002 17.6299 28.5502 17.6299C28.2002 17.6299 28.0002 17.3299 28.0002 16.8299C28.0002 16.0299 28.3502 15.5299 28.8002 15.5299C29.1502 15.5299 29.3502 15.7799 29.3502 16.3799Z" fill="white"/>
<path d="M2.0999 18.5299L2.6999 14.9299L2.7999 18.5299H3.4999L4.7999 14.9299L4.2499 18.5299H5.2999L6.0999 13.73H4.4499L3.4499 16.6799L3.3999 13.73H1.9499L1.1499 18.5299H2.0999Z" fill="white"/>
<path d="M17.6 18.5299C17.9 16.8799 17.95 15.5299 18.65 15.7799C18.75 15.1299 18.9 14.8799 19 14.6299C19 14.6299 18.95 14.6299 18.8 14.6299C18.35 14.6299 18 15.2299 18 15.2299L18.1 14.6799H17.15L16.5 18.5799H17.6V18.5299Z" fill="white"/>
<path d="M23.7999 14.5303C23.0999 14.5303 22.5999 14.7303 22.5999 14.7303L22.4499 15.5803C22.4499 15.5803 22.8999 15.3803 23.5499 15.3803C23.8999 15.3803 24.1999 15.4303 24.1999 15.7303C24.1999 15.9303 24.1499 15.9803 24.1499 15.9803C24.1499 15.9803 23.8499 15.9803 23.6999 15.9803C22.8499 15.9803 21.8999 16.3303 21.8999 17.4803C21.8999 18.3803 22.4999 18.5803 22.8499 18.5803C23.5499 18.5803 23.8499 18.1303 23.8999 18.1303L23.8499 18.5303H24.7499L25.1499 15.7803C25.1999 14.5803 24.1499 14.5303 23.7999 14.5303ZM24.0499 16.7803C24.0499 16.9303 23.9499 17.7303 23.3499 17.7303C23.0499 17.7303 22.9499 17.4803 22.9499 17.3303C22.9499 17.0803 23.0999 16.7303 23.8499 16.7303C23.9999 16.7803 23.9999 16.7803 24.0499 16.7803Z" fill="white"/>
<path d="M25.9999 18.5299C26.2999 16.8799 26.3499 15.5299 27.0499 15.7799C27.1499 15.1299 27.2999 14.8799 27.3999 14.6299C27.3999 14.6299 27.3499 14.6299 27.1999 14.6299C26.7499 14.6299 26.3999 15.2299 26.3999 15.2299L26.4999 14.6799H25.5499L24.8999 18.5799H25.9999V18.5299Z" fill="white"/>
<path d="M11.5 17.7801C11.5 18.3801 11.85 18.6301 12.3 18.6301C12.65 18.6301 12.95 18.5301 13.05 18.4801L13.2 17.6301C13.15 17.6301 13.05 17.6801 12.95 17.6801C12.6 17.6801 12.55 17.4801 12.6 17.3801L12.9 15.6301H13.45L13.6 14.6801H13.1L13.2 14.0801" fill="#DCE5E5"/>
<path d="M13.8999 16.8799C13.8999 18.2799 14.3499 18.6299 15.1499 18.6299C15.8999 18.6299 16.1999 18.4799 16.1999 18.4799L16.3999 17.5299C16.3999 17.5299 15.8499 17.7799 15.3499 17.7799C14.2499 17.7799 14.4499 16.9799 14.4499 16.9799H16.4999C16.4999 16.9799 16.6499 16.3299 16.6499 16.0799C16.6499 15.4299 16.2999 14.6299 15.1999 14.6299C14.1499 14.5299 13.8999 15.6299 13.8999 16.8799ZM15.1499 15.4299C15.6999 15.4299 15.7999 16.0799 15.7999 16.1299H14.4999C14.4999 16.0799 14.5999 15.4299 15.1499 15.4299Z" fill="#DCE5E5"/>
<path d="M21.5 18.4799L21.7 17.3799C21.7 17.3799 21.2 17.6299 20.85 17.6299C20.15 17.6299 19.85 17.0799 19.85 16.4799C19.85 15.2799 20.45 14.6299 21.15 14.6299C21.65 14.6299 22.05 14.9299 22.05 14.9299L22.2 13.8799C22.2 13.8799 21.6 13.6299 21.05 13.6299C19.9 13.6299 19.25 14.6299 19.25 16.5299C19.25 17.7799 19.35 18.6299 20.55 18.6299C20.95 18.6299 21.5 18.4799 21.5 18.4799Z" fill="#DCE5E5"/>
<path d="M6.1999 15.6299C6.1999 15.6299 6.6499 15.4299 7.2999 15.4299C7.6499 15.4299 7.9499 15.4799 7.9499 15.7799C7.9499 15.9799 7.8999 16.0299 7.8999 16.0299C7.8999 16.0299 7.5999 16.0299 7.4499 16.0299C6.5999 16.0299 5.6499 16.3799 5.6499 17.5299C5.6499 18.4299 6.2499 18.6299 6.5999 18.6299C7.2999 18.6299 7.5999 18.1799 7.6499 18.1799L7.5999 18.5799H8.4999L8.8999 15.8299C8.8999 14.6799 7.8999 14.6299 7.4999 14.6299L6.1999 15.6299ZM8.2499 16.7799C8.2499 16.9299 7.6499 17.7299 7.0499 17.7299C6.7499 17.7299 6.6499 17.4799 6.6499 17.3299C6.6499 17.0799 6.7999 16.7299 7.5499 16.7299C7.6999 16.7799 8.2499 16.7799 8.2499 16.7799Z" fill="#DCE5E5"/>
<path d="M8.75 18.4799C8.75 18.4799 9.05 18.5799 9.9 18.5799C10.15 18.5799 11.4 18.6299 11.4 17.2799C11.4 16.0299 10.2 16.2799 10.2 15.7799C10.2 15.5299 10.4 15.4299 10.75 15.4299C10.9 15.4299 11.45 15.4799 11.45 15.4799L11.6 14.5799C11.6 14.5799 11.25 14.48 10.65 14.48C9.9 14.48 9.65 14.7799 9.65 15.7799C9.65 16.9299 10.4 16.8299 10.4 17.2799C10.4 17.5799 10.05 17.6299 9.8 17.6299" fill="#DCE5E5"/>
<path d="M29.5999 15.0803C29.5999 15.0803 29.1998 14.5803 28.6498 14.5803C27.7499 14.5803 27.4499 15.6803 27.4499 16.9803C27.4499 17.7803 27.3499 18.6303 28.1999 18.6303C28.7999 18.6303 29.1498 18.2303 29.1498 18.2303L29.0999 18.5803H30.0998L30.8498 13.7803L29.5999 15.0803ZM29.5498 16.3803C29.5498 16.9303 29.0998 17.6303 28.5498 17.6303C28.1998 17.6303 27.9999 17.3303 27.9999 16.8303C27.9999 16.0303 28.3498 15.5303 28.7998 15.5303C29.1498 15.5303 29.5498 15.7803 29.5498 16.3803Z" fill="#DCE5E5"/>
<path d="M2.0999 18.5299L2.6999 14.9299L2.7999 18.5299H3.4999L4.7999 14.9299L4.2499 18.5299H5.2999L6.0999 13.73H4.8499L3.4499 16.6799L3.3999 13.73H2.8499L1.1499 18.5299H2.0999Z" fill="#DCE5E5"/>
<path d="M16.5498 18.5299H17.5998C17.8998 16.8799 17.9498 15.5299 18.6498 15.7799C18.7498 15.1299 18.8998 14.8799 18.9998 14.6299C18.9998 14.6299 18.9498 14.6299 18.7998 14.6299C18.3498 14.6299 17.9998 15.2299 17.9998 15.2299L18.0998 14.6799" fill="#DCE5E5"/>
<path d="M22.4499 15.6299C22.4499 15.6299 22.8999 15.4299 23.5499 15.4299C23.8999 15.4299 24.1999 15.4799 24.1999 15.7799C24.1999 15.9799 24.1499 16.0299 24.1499 16.0299C24.1499 16.0299 23.8499 16.0299 23.6999 16.0299C22.8499 16.0299 21.8999 16.3799 21.8999 17.5299C21.8999 18.4299 22.4999 18.6299 22.8499 18.6299C23.5499 18.6299 23.8499 18.1799 23.8999 18.1799L23.8499 18.5799H24.7499L25.1499 15.8299C25.1499 14.6799 24.1499 14.6299 23.7499 14.6299L22.4499 15.6299ZM24.4999 16.7799C24.4999 16.9299 23.8999 17.7299 23.2999 17.7299C22.9999 17.7299 22.8999 17.4799 22.8999 17.3299C22.8999 17.0799 23.0499 16.7299 23.7999 16.7299C23.9999 16.7799 24.4999 16.7799 24.4999 16.7799Z" fill="#DCE5E5"/>
<path d="M24.9502 18.5299H26.0002C26.3002 16.8799 26.3502 15.5299 27.0502 15.7799C27.1502 15.1299 27.3002 14.8799 27.4002 14.6299C27.4002 14.6299 27.3502 14.6299 27.2002 14.6299C26.7502 14.6299 26.4002 15.2299 26.4002 15.2299L26.5002 14.6799" fill="#DCE5E5"/>
</svg>
