<svg width="37" height="36" viewBox="0 0 37 36" fill="none" xmlns="http://www.w3.org/2000/svg">
<path d="M32.5627 31.201L30.4911 7.85427C30.4538 7.39226 30.0663 7.04202 29.5969 7.04202H25.2301C25.2226 3.15959 22.063 0 18.1806 0C14.2982 0 11.1386 3.15959 11.1311 7.04202H6.76431C6.30229 7.04202 5.91479 7.39226 5.87008 7.85427L3.79846 31.201C3.79846 31.2308 3.79846 31.2532 3.79846 31.283C3.79846 33.8837 6.19051 36 9.12655 36H27.2346C30.1706 36 32.5627 33.8837 32.5627 31.283C32.5627 31.2532 32.5627 31.2308 32.5627 31.201ZM18.1806 1.78845C21.0794 1.78845 23.4342 4.14324 23.4416 7.04202H12.9196C12.927 4.14324 15.2818 1.78845 18.1806 1.78845ZM27.2346 34.2041H9.12655C7.18906 34.2041 5.60927 32.9149 5.58691 31.3128L7.58401 8.83047H11.1311V11.9677C11.1311 12.4595 11.5335 12.8619 12.0253 12.8619C12.5172 12.8619 12.9196 12.4595 12.9196 11.9677V8.83047H23.4416V11.9677C23.4416 12.4595 23.844 12.8619 24.3358 12.8619C24.8277 12.8619 25.2301 12.4595 25.2301 11.9677V8.83047H28.7771L30.7742 31.3202C30.7519 32.9149 29.1721 34.2041 27.2346 34.2041Z" fill="#515DEF"/>
<path d="M21.8981 18.6148L16.6222 23.8907L14.4686 21.7371C14.1183 21.3869 13.552 21.3869 13.2018 21.7371C12.8515 22.0873 12.8515 22.6537 13.2018 23.0039L15.9888 25.7909C16.1602 25.9623 16.3912 26.0517 16.6222 26.0517C16.8532 26.0517 17.0767 25.9623 17.2556 25.7909L23.1649 19.8816C23.5151 19.5313 23.5151 18.965 23.1649 18.6148C22.8147 18.272 22.2483 18.272 21.8981 18.6148Z" fill="#515DEF"/>
</svg>
