<svg width="32" height="32" viewBox="0 0 32 32" fill="none" xmlns="http://www.w3.org/2000/svg">
<path d="M11.7998 20.5801L13.3998 11.5801H15.8998L14.3498 20.5801H11.7998Z" fill="#3C58BF"/>
<path d="M11.7998 20.5801L13.8498 11.5801H15.8998L14.3498 20.5801H11.7998Z" fill="#293688"/>
<path d="M23.4 11.6803C22.9 11.4803 22.1 11.2803 21.1 11.2803C18.6 11.2803 16.8 12.5303 16.8 14.3303C16.8 15.6803 18.05 16.3803 19.05 16.8303C20.05 17.2803 20.35 17.5803 20.35 17.9803C20.35 18.5803 19.55 18.8803 18.85 18.8803C17.85 18.8803 17.3 18.7303 16.45 18.3803L16.1 18.2303L15.75 20.2803C16.35 20.5303 17.45 20.7803 18.6 20.7803C21.25 20.7803 23 19.5303 23 17.6303C23 16.5803 22.35 15.7803 20.85 15.1303C19.95 14.6803 19.4 14.4303 19.4 13.9803C19.4 13.5803 19.85 13.1803 20.85 13.1803C21.7 13.1803 22.3 13.3303 22.75 13.5303L23 13.6303L23.4 11.6803Z" fill="#3C58BF"/>
<path d="M23.4 11.6803C22.9 11.4803 22.1 11.2803 21.1 11.2803C18.6 11.2803 17.25 12.5303 17.25 14.3303C17.25 15.6803 18.05 16.3803 19.05 16.8303C20.05 17.2803 20.35 17.5803 20.35 17.9803C20.35 18.5803 19.55 18.8803 18.85 18.8803C17.85 18.8803 17.3 18.7303 16.45 18.3803L16.1 18.2303L15.75 20.2803C16.35 20.5303 17.45 20.7803 18.6 20.7803C21.25 20.7803 23 19.5303 23 17.6303C23 16.5803 22.35 15.7803 20.85 15.1303C19.95 14.6803 19.4 14.4303 19.4 13.9803C19.4 13.5803 19.85 13.1803 20.85 13.1803C21.7 13.1803 22.3 13.3303 22.75 13.5303L23 13.6303L23.4 11.6803Z" fill="#293688"/>
<path d="M27.6999 11.5801C27.0999 11.5801 26.6499 11.6301 26.3999 12.2301L22.6499 20.5801H25.3499L25.8499 19.0801H29.0499L29.3499 20.5801H31.7499L29.6499 11.5801H27.6999ZM26.5499 17.5801C26.6999 17.1301 27.5499 14.9301 27.5499 14.9301C27.5499 14.9301 27.7499 14.3801 27.8999 14.0301L28.0499 14.8801C28.0499 14.8801 28.5499 17.1301 28.6499 17.6301H26.5499V17.5801Z" fill="#3C58BF"/>
<path d="M28.2999 11.5801C27.6999 11.5801 27.2499 11.6301 26.9999 12.2301L22.6499 20.5801H25.3499L25.8499 19.0801H29.0499L29.3499 20.5801H31.7499L29.6499 11.5801H28.2999ZM26.5499 17.5801C26.7499 17.0801 27.5499 14.9301 27.5499 14.9301C27.5499 14.9301 27.7499 14.3801 27.8999 14.0301L28.0499 14.8801C28.0499 14.8801 28.5499 17.1301 28.6499 17.6301H26.5499V17.5801Z" fill="#293688"/>
<path d="M7.2002 17.8799L6.9502 16.5799C6.5002 15.0799 5.0502 13.4299 3.4502 12.6299L5.7002 20.6299H8.4002L12.4502 11.6299H9.7502L7.2002 17.8799Z" fill="#3C58BF"/>
<path d="M7.2002 17.8799L6.9502 16.5799C6.5002 15.0799 5.0502 13.4299 3.4502 12.6299L5.7002 20.6299H8.4002L12.4502 11.6299H10.2502L7.2002 17.8799Z" fill="#293688"/>
<path d="M0.25 11.5801L0.7 11.6801C3.9 12.4301 6.1 14.3301 6.95 16.5801L6.05 12.3301C5.9 11.7301 5.45 11.5801 4.9 11.5801H0.25Z" fill="#FFBC00"/>
<path d="M0.25 11.5801C3.45 12.3301 6.1 14.2801 6.95 16.5301L6.1 12.9801C5.95 12.3801 5.45 12.0301 4.9 12.0301L0.25 11.5801Z" fill="#F7981D"/>
<path d="M0.25 11.5801C3.45 12.3301 6.1 14.2801 6.95 16.5301L6.35 14.5801C6.2 13.9801 6 13.3801 5.3 13.1301L0.25 11.5801Z" fill="#ED7C00"/>
<path d="M9.7 17.5801L8 15.8801L7.2 17.7801L7 16.5301C6.55 15.0301 5.1 13.3801 3.5 12.5801L5.75 20.5801H8.45L9.7 17.5801Z" fill="#051244"/>
<path d="M14.3498 20.5799L12.1998 18.3799L11.7998 20.5799H14.3498Z" fill="#051244"/>
<path d="M20.1 17.48C20.3 17.68 20.4 17.83 20.35 18.03C20.35 18.63 19.55 18.93 18.85 18.93C17.85 18.93 17.3 18.78 16.45 18.43L16.1 18.28L15.75 20.33C16.35 20.58 17.45 20.83 18.6 20.83C20.2 20.83 21.5 20.38 22.25 19.58L20.1 17.48Z" fill="#051244"/>
<path d="M23 20.5803H25.35L25.85 19.0803H29.05L29.35 20.5803H31.75L30.9 16.9303L27.9 14.0303L28.05 14.8303C28.05 14.8303 28.55 17.0803 28.65 17.5803H26.55C26.75 17.0803 27.55 14.9303 27.55 14.9303C27.55 14.9303 27.75 14.3803 27.9 14.0303" fill="#051244"/>
</svg>
