<svg width="32" height="32" viewBox="0 0 32 32" fill="none" xmlns="http://www.w3.org/2000/svg">
<path d="M20.3496 18.7803C20.3496 18.4734 20.2181 18.3052 20.0197 18.1852C19.8178 18.0694 19.5742 18.0536 19.2407 18.0536H17.7624V20.7562H18.4099V19.7722H19.1027C19.3305 19.7722 19.4735 19.7952 19.5591 19.8922C19.6748 20.0159 19.6604 20.2552 19.6604 20.4205V20.7541H20.2893V20.2222C20.2893 19.9828 20.2749 19.8628 20.1886 19.7276C20.104 19.6263 19.9942 19.5489 19.8703 19.5034L19.8882 19.4955C20.0643 19.4286 20.3496 19.2109 20.3496 18.7803ZM19.5145 19.1692L19.4879 19.1656C19.4017 19.218 19.3011 19.2224 19.1695 19.2224H18.3955V18.6193H19.1854C19.3011 18.6193 19.4132 18.6193 19.5037 18.6682C19.5488 18.6902 19.5864 18.7251 19.6116 18.7685C19.6368 18.8119 19.6485 18.8618 19.6453 18.9118C19.6453 19.0276 19.6 19.1167 19.5181 19.1699L19.5145 19.1692ZM24.4519 20.1769H23.2093V20.7541H24.4598C25.1066 20.7541 25.4659 20.4874 25.4659 19.9081C25.4659 19.6378 25.4027 19.4768 25.287 19.3503C25.1411 19.2231 24.9082 19.1627 24.5877 19.1519L24.2276 19.1368C24.127 19.1368 24.0559 19.1368 23.9811 19.1073C23.9385 19.094 23.9014 19.067 23.8755 19.0305C23.8497 18.994 23.8365 18.9501 23.8381 18.9054C23.8381 18.8191 23.8532 18.748 23.9244 18.707C24.0043 18.6624 24.0953 18.6415 24.1867 18.6466H25.3617V18.0709H24.0702C23.3968 18.0709 23.1532 18.4899 23.1532 18.8759C23.1532 19.7406 23.8949 19.6953 24.5015 19.7104C24.5985 19.7104 24.6732 19.7248 24.7142 19.7657C24.7595 19.7966 24.7925 19.8671 24.7925 19.9382C24.7925 20.013 24.7587 20.0842 24.7178 20.1108C24.6624 20.1625 24.5762 20.1776 24.4526 20.1776L24.4519 20.1769ZM5.00216 5V14.6776L5.77761 12.877H7.4543L7.67062 13.3227V12.877H9.62832L10.0588 13.8538L10.4785 12.8849H16.7109C16.9919 12.8849 17.2456 12.9403 17.4332 13.1128V12.8914H19.1473V13.1128C19.4383 12.9482 19.802 12.8914 20.2174 12.8914H22.7134L22.9462 13.337V12.8914H24.7839L25.0261 13.337V12.8878H26.8084V16.6736H25.0002L24.656 16.0964V16.6578H22.3986L22.155 16.0547H21.5937L21.3357 16.642H20.175C19.7143 16.642 19.3701 16.5449 19.1379 16.4141V16.642H16.3674V15.7967C16.3674 15.681 16.3415 15.681 16.2704 15.6651H16.169V16.6571H10.8127V16.2006L10.6108 16.6571H9.49536L9.3006 16.2006V16.6456H7.14096L6.89732 16.0468H6.33962L6.09743 16.6456H5V28H27.7916V21.1868C27.5336 21.3169 27.2044 21.3585 26.8595 21.3585H25.2094V21.1149C25.0074 21.2723 24.6632 21.3585 24.3333 21.3585H19.0962V20.4982C19.0962 20.3825 19.0768 20.3824 18.9805 20.3824H18.9094V21.3629H17.1838V20.3415C16.8992 20.473 16.5658 20.4831 16.2927 20.473H16.0907V21.3492H14.0029L13.4826 20.7569L12.9357 21.3341H9.54423V17.5677H13.0033L13.5006 18.1449L14.0324 17.5677H16.3415C16.611 17.5677 17.0487 17.5986 17.2435 17.7855V17.5534H19.3284C19.5231 17.5534 19.9464 17.5986 20.1965 17.7697V17.5419H23.3221V17.7697C23.4795 17.6123 23.813 17.5419 24.0932 17.5419H25.9043V17.7697C26.0919 17.6281 26.3499 17.5419 26.7092 17.5419H27.8361V5.00072L5.00216 5ZM25.2748 19.3302C25.2784 19.3381 25.2783 19.3453 25.2827 19.3496C25.2942 19.356 25.3085 19.356 25.3164 19.3675L25.2755 19.3338L25.2748 19.3302ZM27.8354 17.5375H27.8994V18.0694H27.8354V17.5375ZM27.8685 19.4049V19.397C27.8426 19.3747 27.8275 19.3532 27.7973 19.3302C27.6558 19.1843 27.4229 19.1239 27.0672 19.1167L26.7193 19.1059C26.6072 19.1059 26.536 19.098 26.4613 19.0764C26.4187 19.063 26.3817 19.036 26.3558 18.9995C26.33 18.963 26.3168 18.9191 26.3183 18.8745C26.3183 18.7882 26.3477 18.7199 26.4045 18.679C26.4757 18.638 26.5461 18.6308 26.6625 18.6308H27.8347L27.8354 18.0694H26.6072C25.9438 18.0694 25.6866 18.4885 25.6866 18.8745C25.6866 19.7348 26.4347 19.6939 27.0377 19.709C27.139 19.709 27.2102 19.7197 27.2511 19.7643C27.2964 19.7952 27.3259 19.8657 27.3259 19.9368C27.3253 19.9702 27.3173 20.003 27.3024 20.0329C27.2875 20.0627 27.266 20.0889 27.2396 20.1093C27.1944 20.1611 27.1081 20.1762 26.9816 20.1762H25.7455V20.7562H26.978C27.3812 20.7562 27.6816 20.6441 27.8426 20.4119H27.8685C27.9547 20.2804 28 20.1237 28 19.9109C28 19.6781 27.9547 19.5365 27.8685 19.4049ZM22.8233 18.6157V18.0579H20.6817V20.772H22.8233V20.2107H21.3177V19.668H22.786V19.1066H21.3177V18.62L22.8233 18.6157ZM17.9499 13.419H18.6047V16.1187H17.9499V13.419ZM17.5791 14.1457L17.5712 14.1536C17.5712 13.8495 17.4476 13.6741 17.2456 13.5548C17.0394 13.4348 16.7972 13.4233 16.4716 13.4233H14.9969V16.1259H15.6437V15.134H16.3329C16.5607 15.134 16.7073 15.1634 16.8008 15.2497C16.9179 15.3812 16.9021 15.6127 16.9021 15.7737V16.1151H17.5496V15.5868C17.5496 15.3474 17.5345 15.2274 17.444 15.0887C17.3597 14.9888 17.2517 14.9117 17.1299 14.8644C17.2684 14.8032 17.3854 14.7022 17.4662 14.5742C17.547 14.4461 17.5878 14.297 17.5834 14.1457H17.5791ZM16.7598 14.5245H16.7483C16.6585 14.5762 16.5607 14.5798 16.4299 14.5798H15.6401V13.9811H16.4299C16.5456 13.9811 16.6578 13.9847 16.744 14.0299C16.8302 14.0673 16.8899 14.1536 16.8899 14.2693C16.8899 14.385 16.8446 14.4792 16.7598 14.5245ZM20.2591 13.9811H20.862V13.4082H20.244C19.802 13.4082 19.4764 13.5095 19.2673 13.7237C18.9942 14.0113 18.9223 14.3857 18.9223 14.7904C18.9223 15.2813 19.038 15.5875 19.2673 15.8161C19.4879 16.0439 19.8846 16.1158 20.1951 16.1158H20.9447L21.1883 15.5128H22.52L22.7709 16.1158H24.0731V14.0939L25.2942 16.1158H26.2076V13.4197H25.5486V15.3029L24.4188 13.4233H23.4414V15.9239L22.3555 13.3787H21.3932L20.4912 15.5092H20.203C20.0356 15.5092 19.8552 15.4797 19.7546 15.3776C19.6345 15.236 19.5785 15.0333 19.5785 14.7451C19.5785 14.472 19.6532 14.2542 19.7617 14.1421C19.8889 14.0105 20.0241 13.9811 20.2562 13.9811H20.2591ZM21.8574 13.8804L22.2994 14.9507V14.9543H21.4082L21.8574 13.8804ZM7.28182 15.512L7.52545 16.1151H8.83561V14.0041L9.76774 16.1151H10.3254L11.2569 14.0041L11.2719 16.1151H11.9339V13.4233H10.8637L10.0926 15.2461L9.25101 13.4197H8.20676V15.9728L7.11365 13.4197H6.15924L5.01437 16.1158H5.70215L5.94938 15.5171H7.28254L7.28182 15.512ZM6.62279 13.8804L7.06478 14.9507L7.06118 14.9543H6.18511L6.62279 13.8804ZM16.3624 18.0536H14.312L13.4955 18.937L12.7057 18.0536H10.1271V20.7562H12.6683L13.4876 19.8621L14.2782 20.7533H15.5237V19.8542H16.3286C16.9014 19.8542 17.4476 19.6967 17.4476 18.9485L17.444 18.9449C17.444 18.1967 16.8719 18.0536 16.3624 18.0536ZM12.3536 20.192H10.7703V19.6565H12.1768V19.1066H10.7703V18.62H12.3794L13.0837 19.4056L12.35 20.1956L12.3536 20.192ZM14.8833 20.5104L13.8951 19.4092L14.8833 18.3505V20.5104ZM16.3696 19.3043H15.5237V18.615H16.3696C16.6017 18.615 16.7742 18.7091 16.7742 18.9449C16.7742 19.1807 16.6326 19.3043 16.3696 19.3043ZM14.5549 13.9811V13.4197H12.4096V16.1194H14.5549V15.5616H13.0492V15.0218H14.5132V14.4677H13.0492V13.9811H14.5549Z" fill="#3A7CF5"/>
</svg>
