<svg xmlns="http://www.w3.org/2000/svg" viewBox="0 0 800 600"><g data-name="Layer 55" style="isolation:isolate"><path fill="#03277d" d="M533.48 294.32c7.78 2 20.24 5 21.77 19.61.84 8-3.3 20.32-6.87 27.52-7.81 15.74-18.37 29.92-28.86 44l1.57 1.11c-2.85 1-4.59 4.26-5.44 7.93s1.78 9.69 4.46 12.34c1.22 1.21 2.94 2.17 4.61 1.75a6.45 6.45 0 0 0 3-2.28A225.88 225.88 0 0 0 562 354.61c4.16-8.67 7.79-17.74 9-27.28s-.29-19.69-5.66-27.66-25.45-20.35-35-19.1Z"/><rect width="213.65" height="190.31" x="177.73" y="125.23" fill="#fd8200" rx="7.01"/><rect width="213.65" height="190.31" x="189.24" y="125.23" fill="#fd9f02" rx="7.01"/><path fill="none" stroke="#03277d" stroke-linecap="round" stroke-linejoin="round" stroke-width="4.17" d="m277.19 314.69 63.5 47.79M402.88 314.69H255.59"/><path fill="#fe9592" d="m515.955 96.733 25.435 4.774-7.956 42.39L508 139.123z"/><path fill="#fb7874" d="m515.94 96.78-3.08 16.4c9 8.22 15.66 18.62 20.74 29.78l7.78-41.41Z"/><path fill="#70bb92" d="M524.31 248c5.06-29.74 9.81-51 13.68-81 1.8-13.93-7.07-34.13-20.12-39.06-9.4-3.55-20.3-2.45-29.15 2.32-14 7.53-21 23.23-26.38 37.35-7.19 19-10.9 39-14.57 58.86-2.39 12.95-4.59 27-.54 38.86A153.39 153.39 0 0 0 524.31 248Z"/><path fill="#48956b" d="M537.29 155c-.24 39.46-16.67 75.92-43.18 104.8a152.69 152.69 0 0 0 30.2-11.8c5.06-29.74 9.81-51 13.68-81a35.75 35.75 0 0 0-.7-12Z" opacity=".4"/><path fill="#436dd6" d="M593.72 276.84c-10-14.65-28.48-24.51-45.5-27.19-2.56-.41-23.58-3.67-24.13-.4.07-.43.15-.84.22-1.27a153.39 153.39 0 0 1-77.08 17.28 33.42 33.42 0 0 0 2.86 6.31c13.12 22.07 41.91 18.79 63.75 19.2 14.63.28 41.57.27 46.2 18.36 1.24 4.85.74 10-.16 14.89-2.69 14.53-8.82 28.11-15.82 41-1.62 3-21 36.32-21.52 36l11.14 7.23c4.17 2.71 24.51-21.41 27-24.88 8.56-12 17.32-24.08 25-36.63 8.47-13.82 15.2-29.26 15.59-45.47a41.14 41.14 0 0 0-7.55-24.43Z"/><path fill="#315fd2" d="M563.8 297.09c-20-31.36-83.06 7.36-107.68-31.75-3 .05-5.93.05-8.89-.08a33.42 33.42 0 0 0 2.86 6.31c13.12 22.07 41.91 18.79 63.75 19.2 14.63.28 41.57.27 46.2 18.36 1.24 4.85.74 10-.16 14.89-2.69 14.53-8.82 28.11-15.82 41-1.62 3-21 36.32-21.52 36l2.08 1.35c29.81-32.26 63.19-66.85 39.18-105.28Z"/><circle cx="409.67" cy="473.35" r="73.74" fill="#03277d"/><circle cx="409.67" cy="473.35" r="49.41" fill="#1765cf"/><circle cx="409.67" cy="473.35" r="20.25" fill="#b2b2b2"/><path fill="#fdb702" d="M686.52 220.5h-45.11c5.07 19.87 21.17 51.4 8.31 118.18-4.92 25.55-29.8 80.41-61.3 79.67-27-.64-64.09-3.58-76.88-38.09-16.59-44.76 13-72.55 13-72.55H410.12c-27.6 0-96 18.36-104.53 130-.87 11.38 8.81 20.85 20.23 20.85H659.4l26.49-65.89 36.7 12.57c13.58-15.39 40.16 20.07 44.45 0 23.21-108.46-80.52-184.74-80.52-184.74Z"/><path fill="#fd9f02" d="M673.38 220.5h-32c5.07 19.87 21.17 51.4 8.31 118.18-4.51 23.39-25.74 70.69-53.46 78.53 26.36-1.86 115.93-56.44 77.15-196.71Z"/><circle cx="710.29" cy="473.35" r="73.74" fill="#03277d"/><circle cx="710.29" cy="473.35" r="49.41" fill="#1765cf"/><circle cx="710.29" cy="473.35" r="20.25" fill="#b2b2b2"/><path fill="#fd9f02" d="M781 455.29a4.81 4.81 0 0 0 7.52-5.06c-9.46-37-40.61-64.2-77.59-64.2s-68.13 27.17-77.6 64.2a4.81 4.81 0 0 0 7.52 5.06 118.46 118.46 0 0 1 140.15 0Z"/><path fill="#fdb702" d="M693.22 179.45v40.93a20.57 20.57 0 0 0 18.42-20.46 20.58 20.58 0 0 0-18.42-20.47Z"/><path fill="#fd9f02" d="M691.06 179.33H642.9a11 11 0 0 0-10.9 10.95v19.27a11 11 0 0 0 10.9 10.95h48.16a19.28 19.28 0 0 0 2.16-.12v-40.93a19.28 19.28 0 0 0-2.16-.12Z"/><path fill="#03277d" d="m655.72 203.44-47.77 24a7.69 7.69 0 0 1-6.95-13.71l.43-.2 49.17-21a6 6 0 0 1 5.08 10.94Z"/><path fill="#fd9f02" d="M397.21 329.54a113.75 113.75 0 0 0-40.6 7.46c57.13.49 104.84 35.08 113.35 90.21a16 16 0 0 0 15.7 13.73h8a15.9 15.9 0 0 0 15.53-19 114.1 114.1 0 0 0-111.98-92.4Z"/><path fill="#03277d" d="M530.53 289.63H397.67a9.68 9.68 0 0 0-9.69 9.68 9.68 9.68 0 0 0 9.69 9.68h132.86a9.68 9.68 0 0 0 9.69-9.68 9.68 9.68 0 0 0-9.69-9.68ZM427.06 389.38h-86.37a2.84 2.84 0 0 1 0-5.68h86.37a2.84 2.84 0 0 1 0 5.68ZM427.06 406.28h-86.37a2.84 2.84 0 0 1 0-5.67h86.37a2.84 2.84 0 1 1 0 5.67ZM427.06 423.18h-86.37a2.84 2.84 0 0 1 0-5.67h86.37a2.84 2.84 0 1 1 0 5.67Z"/><path fill="#fe9592" d="M548.55 189.29a69.7 69.7 0 0 0 28.7 17.81c5.22 1.7 10.59 3.2 16 2.46 6.91-.95 13.8-2.58 20.66-3.86 3.71-.7 7.57-1.38 11.22-.4s7 4.17 6.84 7.94a8.59 8.59 0 0 1-3.5 6.14c-3.37 2.67-6.37 5.5-10.56 2.19-2.07-1.64-3.59-3.95-5.88-5.27-4.21-2.43-9.48-.78-14.15.57-19 5.49-39.94 6.1-57.63-3.45-21.36-11.55-36.54-31.95-48.23-53.23-2.45-4.46-3.79-8.56-1-13.31a20.77 20.77 0 0 1 12.72-9.53c13.89-3.49 16.67 7.46 22.29 17.39 6.76 11.97 12.9 24.53 22.52 34.55Z"/><path fill="#fb7874" d="M552.79 213.82a77.84 77.84 0 0 1-26.32-18.57 128.54 128.54 0 0 1-10.84-13.56c-3.24-4.56-6.19-9.32-9.43-13.88-3.13-4.4-6.37-8.72-9.17-13.34a49.34 49.34 0 0 1-4.66-9.58 22.43 22.43 0 0 0-1.35 2c-2.78 4.75-1.44 8.85 1 13.31 11.69 21.28 26.87 41.68 48.23 53.23 13.13 7.09 28.07 8.57 42.67 6.62a77.68 77.68 0 0 1-30.13-6.23Z"/><path fill="#7fc29d" d="M485 136.23c-5.39 6.06-1.25 18.49.41 23 2.74 7.37 7.28 13.91 11.77 20.37 10-5.67 34.37-19.86 34.37-19.86s-13.36-35.75-36.58-30c-3.39.81-7.28 3.42-9.97 6.49Z"/><path fill="#5bb182" d="M505.77 167.83c-1.24-2-2.45-4-3.61-6.05s-2.42-4.39-3.54-6.63-2.11-4.45-3-6.74a48.56 48.56 0 0 1-2.1-6.45 22.87 22.87 0 0 1-.75-5.7 9.63 9.63 0 0 1 1-4.51 6.49 6.49 0 0 1 2.18-2.24c-.35.07-.69.12-1 .21-3.35.83-7.24 3.44-10 6.51-5.39 6.06-1.25 18.49.41 23 2.74 7.37 7.28 13.91 11.77 20.37 3-1.7 7.29-4.17 11.82-6.78q-1.62-2.49-3.18-4.99Z"/><path fill="#fe9592" d="M565.09 87.8a15.29 15.29 0 0 0 .51 2.8c-.12-.94-.3-1.87-.51-2.8Z"/><path fill="#fe9592" d="M570.1 101.39a3.39 3.39 0 0 1-1.57 2.08 19.85 19.85 0 0 1-3.38 2c-1.9 8.38-6.72 15.28-14 18.62-14.59 6.73-33.46-3.19-42.2-22.12s-4-39.72 10.58-46.45 33.46 3.2 42.17 22.13a48.22 48.22 0 0 1 3.4 10.19 15.29 15.29 0 0 0 .51 2.8A26.29 26.29 0 0 0 569.1 99a3.74 3.74 0 0 1 1 2.39Z"/><path fill="#fe9592" d="M565.09 87.8a15.29 15.29 0 0 0 .51 2.8c-.12-.94-.3-1.87-.51-2.8Z"/><path fill="#03277d" d="M573.17 77.15c-.9 3.36-3.81 5.77-6.73 7.66a56.75 56.75 0 0 1-35 8.86 16.75 16.75 0 0 0 1 5.61A10.21 10.21 0 0 0 528 98.1a3.45 3.45 0 0 0-3.37 2.68 3.4 3.4 0 0 0 1.86 3.17c1.39.81 3.67.34 3.89 2 .16 1.27-1.48 2.94-2.26 3.8a15 15 0 0 1-3.79 3c-.92.51-3.26.81-3.91 1.46a2.76 2.76 0 0 0 .77-2.25 9.5 9.5 0 0 1-7.19 3.48l1.45-1.71a12.21 12.21 0 0 1-6.89 3.56 11.43 11.43 0 0 0 1.48-8.66c-.52-2.81-2.63-5.51-2.88-8.26a11.93 11.93 0 0 1 2.41-7.37 20.26 20.26 0 0 1 6.69-5.45c6.8-3.75 14.52-5.41 22.15-6.86q9.78-1.84 19.64-3.31a21.48 21.48 0 0 1 6.79 0c.87.15 8.16.35 8.33-.23Z"/><path fill="#cb0030" d="M507.43 98.23S580.61 81 583.59 67.42c.69-3.11-24.63 5.14-24.63 5.14Z"/><path fill="#fe2d5d" d="M519.52 55.49c-19.46 8.66-18.64 24.87-12.09 42.74L559 72.56c-9.56-15.56-23.23-24.31-39.48-17.07Z"/><path fill="#cb0030" d="M508.64 63.16c-7.82 9.06-6.15 21.59-1.21 35.07l3.8-1.9c-5.23-10.47-7.73-21.2-2.59-33.17Z"/><path fill="#fb7874" d="M570.1 101.39a2.32 2.32 0 0 0 0-.53 5.41 5.41 0 0 1-3.78 2.25 5.43 5.43 0 0 0-1.61.26 1.1 1.1 0 0 0-.69 1.31c.19.46.76.61 1.25.68a19.82 19.82 0 0 0 3.25-1.89 3.39 3.39 0 0 0 1.58-2.08ZM539.68 103.49a2.73 2.73 0 0 0-.36 2.65 5.11 5.11 0 0 0 1.72 2.17 9.07 9.07 0 0 0 3.19 1.61 2.61 2.61 0 0 0 2.71-.44 1.88 1.88 0 0 0 .34-1.51 4 4 0 0 0-.65-1.45c-1.04-1.52-5.09-5.23-6.95-3.03Z"/><path fill="#03277d" d="M564.88 413.08c.93.36 2 .86 2.19 1.84a2 2 0 0 1-1.4 2 5.69 5.69 0 0 1-2.67.08 104.73 104.73 0 0 1-36.84-12.71c-2.66-1.53-4.53-4.18-3.7-7.38.26-1 5.66-8.28 6.5-7.67 6.2 4.47 13.42 8 19.34 12.79 5.39 4.34 9.97 8.44 16.58 11.05Z"/><path fill="#fdb702" d="M383.88 144.89H204.67a4.1 4.1 0 0 1-4.11-4.1 4.1 4.1 0 0 1 4.11-4.1h179.21a4.09 4.09 0 0 1 4.1 4.1 4.09 4.09 0 0 1-4.1 4.1Z"/><path fill="none" stroke="#80b7f9" stroke-linecap="round" stroke-linejoin="round" stroke-width="4.17" d="M286.23 536.13h25.22M103.2 536.13h105.03M56.38 513.26h208.25M13.37 490.59h208.25M192.6 470.33h76.57"/><path fill="#4f94f9" d="M561.82 95.67a73.94 73.94 0 0 1-10.17 4.55 21.8 21.8 0 0 1-11 1c-1-.21-2.29-.43-2.91.4a2.44 2.44 0 0 0-.36 1.38 30.22 30.22 0 0 0 5.36 18.6c1.47 2.1 3.48 4.15 6 4.32a9.4 9.4 0 0 0 5.3-1.81 54.7 54.7 0 0 0 8.75-6.7c3.19-3 6.09-6.49 7.27-10.7a12.67 12.67 0 0 0-.72-8.94c-.48-1-1.46-2.7-2.46-3.2-1.47-.78-3.73.43-5.06 1.1Z"/><path fill="#4a87da" d="M540.9 118.49a29.07 29.07 0 0 0 1.85 3.07c1.47 2.1 3.48 4.15 6 4.32a9.4 9.4 0 0 0 5.3-1.81c.21-.14.41-.3.62-.43a19.28 19.28 0 0 1-13.77-5.15Z"/><path fill="#4f94f9" d="M539.36 103.23a2.4 2.4 0 0 1-.79-.19c-.53-.19-7-3.61-7.47-4.09a11.64 11.64 0 0 1 2.36.12 7.63 7.63 0 0 1 2.12.91c1 .5 2.06 1 3.1 1.47a10.13 10.13 0 0 1 1.19 1.41c-.14.22-.23.37-.51.37Z"/><path fill="#fff" d="M248.53 203.26a6.26 6.26 0 0 1 5 2.31 6.36 6.36 0 0 1 1.31 5.67l-.7 3.44a9.92 9.92 0 0 1-3 5.72 7.88 7.88 0 0 1-5.44 2h-7l3.82-19.14Zm-2.34 3.42L243.73 219h2.32a2.83 2.83 0 0 0 2.33-1.13 7.45 7.45 0 0 0 1.32-3.17l.69-3.47a4.3 4.3 0 0 0-.4-3.3 2.74 2.74 0 0 0-2.45-1.23ZM268.69 214.21h-6.86l-.94 4.77H269l-.68 3.42H255.8l3.83-19.14h12.51l-.68 3.42h-8.11l-.83 4.11h6.85ZM275.93 219h7.56l-.69 3.42h-12l3.83-19.14h4.4ZM289.89 222.4h-4.37l3.82-19.14h4.38ZM301.15 217.21v.59h.07l.2-.55 5.59-14h4.6l-8.77 19.14h-4.75l-2.6-19.14h4.58ZM323.32 214.21h-6.85l-1 4.77h8.09l-.68 3.42h-12.5l3.83-19.14h12.52l-.69 3.42H318l-.83 4.11H324ZM331.35 215.07l-1.46 7.33h-4.41l3.82-19.14h6.94a6.23 6.23 0 0 1 4.53 1.56 4.31 4.31 0 0 1 1.1 4.19 5.62 5.62 0 0 1-1.25 2.63 6.71 6.71 0 0 1-2.52 1.68 3.23 3.23 0 0 1 2 1.71 4.52 4.52 0 0 1 .21 2.82l-.24 1.21a7.77 7.77 0 0 0-.14 1.73 1.91 1.91 0 0 0 .45 1.35l-.05.26h-4.52a1.84 1.84 0 0 1-.36-1.41 15.28 15.28 0 0 1 .24-2l.24-1.16a2.87 2.87 0 0 0-.18-2.14 2 2 0 0 0-1.73-.67Zm.69-3.42h2.58a2.83 2.83 0 0 0 2.82-2.37 2.48 2.48 0 0 0-.24-1.93 1.88 1.88 0 0 0-1.64-.67H333ZM351.09 211.32h.08l5-8.07h4.76l-8.48 12.37-1.36 6.77h-4.38l1.41-7-3.46-12.13h4.75ZM326.27 232.42H193.52a1.06 1.06 0 1 1 0-2.11h132.75a1.06 1.06 0 0 1 0 2.11ZM223.84 223.46h-22.13a1.06 1.06 0 0 1 0-2.11h22.13a1.06 1.06 0 0 1 0 2.11ZM227.69 215.81h-15.83a1.05 1.05 0 1 1 0-2.1h15.83a1.05 1.05 0 1 1 0 2.1Z"/><path fill="#fff" d="M336.38 255A41.46 41.46 0 0 1 306 241.66a2.11 2.11 0 0 1 3.1-2.86 37.11 37.11 0 1 0-2.49-47.16 2.11 2.11 0 1 1-3.39-2.52A41.32 41.32 0 1 1 336.38 255Z"/></g></svg>