<svg width="40" height="40" viewBox="0 0 40 40" fill="none" xmlns="http://www.w3.org/2000/svg">
<g clip-path="url(#clip0_1_2708)">
<path d="M32.708 26.3042C31.7306 26.3042 30.802 26.687 30.1016 27.3793C29.4011 28.0798 29.0101 28.9921 29.0101 29.9694C29.0101 30.9468 29.393 31.8591 30.1016 32.5596C30.8102 33.2519 31.7306 33.6347 32.708 33.6347C34.7116 33.6347 36.3406 31.9894 36.3406 29.9694C36.3406 27.9495 34.7116 26.3042 32.708 26.3042ZM32.708 32.0057C31.584 32.0057 30.6391 31.0772 30.6391 29.9694C30.6391 28.8617 31.584 27.9332 32.708 27.9332C33.8157 27.9332 34.7116 28.8454 34.7116 29.9694C34.7116 31.0935 33.8157 32.0057 32.708 32.0057ZM33.6528 14.0949C33.5062 13.9564 33.3107 13.8831 33.1071 13.8831H28.9287C28.4807 13.8831 28.1142 14.2496 28.1142 14.6976V21.3765C28.1142 21.8245 28.4807 22.191 28.9287 22.191H35.5587C36.0067 22.191 36.3732 21.8245 36.3732 21.3765V16.9049C36.3732 16.6768 36.2755 16.4569 36.1044 16.3022L33.6528 14.0949ZM34.7442 20.562H29.7432V15.504H32.7894L34.7442 17.2633V20.562ZM12.8179 26.3042C11.8405 26.3042 10.912 26.687 10.2115 27.3793C9.51105 28.0798 9.12009 28.9921 9.12009 29.9694C9.12009 30.9468 9.50291 31.8591 10.2115 32.5596C10.9201 33.2519 11.8405 33.6347 12.8179 33.6347C14.8216 33.6347 16.4506 31.9894 16.4506 29.9694C16.4506 27.9495 14.8216 26.3042 12.8179 26.3042ZM12.8179 32.0057C11.6939 32.0057 10.7491 31.0772 10.7491 29.9694C10.7491 28.8617 11.6939 27.9332 12.8179 27.9332C13.9256 27.9332 14.8216 28.8454 14.8216 29.9694C14.8216 31.0935 13.9256 32.0057 12.8179 32.0057ZM7.38521 27.306H5.74807V25.1395C5.74807 24.6915 5.38155 24.325 4.93357 24.325C4.4856 24.325 4.11907 24.6915 4.11907 25.1395V28.1205C4.11907 28.5685 4.4856 28.935 4.93357 28.935H7.38521C7.83319 28.935 8.19971 28.5685 8.19971 28.1205C8.19971 27.6726 7.83319 27.306 7.38521 27.306ZM11.5147 22.867C11.5147 22.4191 11.1482 22.0525 10.7002 22.0525H0.820357C0.372384 22.0525 0.00585938 22.4191 0.00585938 22.867C0.00585938 23.315 0.372384 23.6815 0.820357 23.6815H10.7002C11.1482 23.6815 11.5147 23.3231 11.5147 22.867ZM2.47379 19.9267L12.3537 19.9837C12.8016 19.9837 13.1681 19.6253 13.1763 19.1773C13.1844 18.7212 12.8179 18.3547 12.3699 18.3547L2.49008 18.2977C2.48193 18.2977 2.48193 18.2977 2.48193 18.2977C2.03396 18.2977 1.66744 18.6561 1.66744 19.104C1.65929 19.5602 2.02581 19.9267 2.47379 19.9267ZM4.13536 16.2289H14.0152C14.4632 16.2289 14.8297 15.8623 14.8297 15.4144C14.8297 14.9664 14.4632 14.5999 14.0152 14.5999H4.13536C3.68739 14.5999 3.32087 14.9664 3.32087 15.4144C3.32087 15.8623 3.68739 16.2289 4.13536 16.2289ZM39.7045 15.1293L33.8727 10.2993C33.7261 10.1771 33.5469 10.112 33.3514 10.112H26.4933V7.17979C26.4933 6.73182 26.1268 6.3653 25.6788 6.3653H4.93357C4.4856 6.3653 4.11907 6.73182 4.11907 7.17979V13.1419C4.11907 13.5899 4.4856 13.9564 4.93357 13.9564C5.38155 13.9564 5.74807 13.5899 5.74807 13.1419V7.99429H24.8725V27.306H18.1936C17.7456 27.306 17.3791 27.6726 17.3791 28.1205C17.3791 28.5685 17.7456 28.935 18.1936 28.935H28.1386C28.5866 28.935 28.9531 28.5685 28.9531 28.1205C28.9531 27.6726 28.5866 27.306 28.1386 27.306H26.5015V11.741H33.0663L38.3769 16.1393L38.3198 27.2897H37.4728C37.0248 27.2897 36.6583 27.6563 36.6583 28.1042C36.6583 28.5522 37.0248 28.9187 37.4728 28.9187H39.1262C39.5742 28.9187 39.9407 28.5604 39.9407 28.1124L40.0059 15.7646C39.9977 15.5203 39.8918 15.284 39.7045 15.1293Z" fill="#515DEF"/>
</g>
<defs>
<clipPath id="clip0_1_2708">
<rect width="40" height="40" fill="white" transform="translate(0.00585938)"/>
</clipPath>
</defs>
</svg>
