<svg width="52" height="51" viewBox="0 0 52 51" fill="none" xmlns="http://www.w3.org/2000/svg">
<g clip-path="url(#clip0_1_2967)">
<path d="M48.95 5.94983H3.05C1.64172 5.94983 0.5 7.09145 0.5 8.49983V42.4998C0.5 43.9081 1.64162 45.0498 3.05 45.0498H48.95C50.3583 45.0498 51.5 43.9082 51.5 42.4998V8.49983C51.5 7.09155 50.3584 5.94983 48.95 5.94983ZM49.8 42.4999C49.8 42.9694 49.4195 43.3499 48.95 43.3499H3.05C2.58054 43.3499 2.20003 42.9694 2.20003 42.4999V8.49983C2.20003 8.03037 2.58054 7.64986 3.05 7.64986H48.95C49.4195 7.64986 49.8 8.03037 49.8 8.49983V42.4999Z" fill="#515DEF"/>
<path d="M47.3244 9.35314C47.0998 9.33351 46.8766 9.40394 46.7039 9.54897L27.0943 26.0219C26.4619 26.5535 25.5388 26.5535 24.9064 26.0219L5.29703 9.54887C5.06444 9.35363 4.74529 9.29725 4.45991 9.40105C4.17453 9.50484 3.96614 9.75307 3.91335 10.0522C3.86056 10.3513 3.97132 10.6558 4.20391 10.8511L23.8134 27.3232C25.0773 28.3873 26.9236 28.3873 28.1876 27.3232L47.797 10.8512C47.9697 10.7062 48.0777 10.4986 48.0973 10.274C48.1169 10.0494 48.0465 9.82618 47.9014 9.65356C47.7566 9.48074 47.549 9.37276 47.3244 9.35314Z" fill="#515DEF"/>
<path d="M16.8483 27.2059C16.5474 27.1387 16.2339 27.2397 16.0287 27.4698L4.12863 40.2198C3.91327 40.4403 3.83418 40.7603 3.92204 41.0557C4.00989 41.3513 4.25085 41.576 4.55167 41.6431C4.85259 41.7103 5.16616 41.6093 5.37135 41.3792L17.2714 28.6292C17.4867 28.4086 17.5658 28.0887 17.478 27.7932C17.3901 27.4978 17.1493 27.273 16.8483 27.2059Z" fill="#515DEF"/>
<path d="M35.9709 27.4699C35.7658 27.2398 35.4521 27.1388 35.1512 27.206C34.8503 27.2731 34.6094 27.4979 34.5216 27.7934C34.4337 28.0889 34.5128 28.4088 34.7282 28.6293L46.6282 41.3793C46.9509 41.7098 47.4785 41.7221 47.8162 41.407C48.154 41.0918 48.1783 40.5647 47.8709 40.2198L35.9709 27.4699Z" fill="#515DEF"/>
</g>
<defs>
<clipPath id="clip0_1_2967">
<rect width="51" height="51" fill="white" transform="translate(0.5)"/>
</clipPath>
</defs>
</svg>
