<svg width="37" height="36" viewBox="0 0 37 36" fill="none" xmlns="http://www.w3.org/2000/svg">
<g clip-path="url(#clip0_1_2715)">
<path d="M30.4977 13.6891V12.305C30.4977 8.99244 29.3254 5.91429 27.2002 3.63025C25.0221 1.28571 22.0271 0 18.7599 0H17.6179C14.3506 0 11.3557 1.28571 9.17752 3.63025C7.05231 5.91429 5.88004 8.99244 5.88004 12.305V13.6891C3.30104 13.863 1.25146 16.0109 1.25146 18.6353V20.7983C1.25146 23.5286 3.47499 25.7521 6.20525 25.7521H8.996C9.49516 25.7521 9.90357 25.3437 9.90357 24.8445V14.5815C9.90357 14.0824 9.49516 13.674 8.996 13.674H7.69516V12.305C7.69516 6.32269 11.9607 1.81513 17.6103 1.81513H18.7523C24.4095 1.81513 28.6674 6.32269 28.6674 12.305V13.674H27.3666C26.8674 13.674 26.459 14.0824 26.459 14.5815V24.837C26.459 25.3361 26.8674 25.7445 27.3666 25.7445H28.6372C28.2666 30.479 25.0069 31.5756 23.4943 31.8252C23.0784 30.5471 21.8758 29.6244 20.4615 29.6244H18.1926C16.438 29.6244 15.0086 31.0538 15.0086 32.8084C15.0086 34.563 16.438 36 18.1926 36H20.4691C21.9363 36 23.1691 35.0017 23.5397 33.6555C24.2809 33.5496 25.4531 33.2849 26.6179 32.6042C28.259 31.6437 30.2027 29.6849 30.4599 25.737C33.054 25.5782 35.1111 23.4227 35.1111 20.7908V18.6277C35.1187 16.0109 33.0767 13.8555 30.4977 13.6891ZM8.10357 23.9294H6.22037C4.48844 23.9294 3.08172 22.5227 3.08172 20.7908V18.6277C3.08172 16.8958 4.48844 15.4891 6.22037 15.4891H8.10357V23.9294ZM20.4691 34.1849H18.1926C17.4363 34.1849 16.8237 33.5723 16.8237 32.816C16.8237 32.0597 17.4363 31.4471 18.1926 31.4471H20.4691C21.2254 31.4471 21.838 32.0597 21.838 32.816C21.838 33.5723 21.2254 34.1849 20.4691 34.1849ZM33.3036 20.7908C33.3036 22.5227 31.8968 23.9294 30.1649 23.9294H28.2817V15.4891H30.1649C31.8968 15.4891 33.3036 16.8958 33.3036 18.6277V20.7908Z" fill="#515DEF"/>
</g>
<defs>
<clipPath id="clip0_1_2715">
<rect width="36" height="36" fill="white" transform="translate(0.181274)"/>
</clipPath>
</defs>
</svg>
