<svg width="25" height="25" viewBox="0 0 25 25" fill="none" xmlns="http://www.w3.org/2000/svg">
<g clip-path="url(#clip0_1_2287)">
<path d="M3.12219 18.3095C2.83648 18.3095 2.646 18.1191 2.646 17.8334C2.646 12.6905 6.83647 8.5 11.9794 8.5C12.2651 8.5 12.4555 8.69048 12.4555 8.97619C12.4555 9.26191 12.2651 9.45238 11.9794 9.45238C7.40789 9.45238 3.59837 13.1666 3.59837 17.8334C3.59837 18.1191 3.4079 18.3095 3.12219 18.3095Z" fill="#515DEF"/>
<path d="M11.9794 9.45224C11.6937 9.45224 11.5032 9.26177 11.5032 8.97606C11.5032 8.69034 11.6937 8.49986 11.9794 8.49986C15.7889 8.49986 18.9317 5.357 18.9317 1.54748C18.9317 1.26177 19.1223 1.07129 19.408 1.07129C19.6937 1.07129 19.8841 1.26177 19.8841 1.54748C19.8841 5.92843 16.3603 9.45224 11.9794 9.45224Z" fill="#515DEF"/>
<path d="M19.3126 20.7859C19.2174 20.7859 19.0269 20.6905 18.9317 20.5953C18.7412 20.4048 18.7412 20.1191 18.9317 19.9287C21.4079 17.5477 22.7412 14.4048 22.7412 10.9763C22.7412 7.54772 21.5031 4.30961 19.1222 1.92867C18.9317 1.73819 18.9317 1.45247 19.1222 1.262C19.3126 1.07152 19.5983 1.07152 19.7888 1.262C22.4555 3.92867 23.7888 7.35724 23.7888 11.0715C23.7888 14.6905 22.2651 18.1191 19.6936 20.6905C19.5983 20.7859 19.4079 20.7859 19.3126 20.7859Z" fill="#515DEF"/>
<path d="M11.6937 23.9285C11.5985 23.9285 11.5985 23.9285 11.5032 23.9285C8.45559 23.9285 5.59845 22.6904 3.50321 20.5C3.31273 20.3095 3.31273 20.0237 3.50321 19.8332C3.69369 19.6428 3.97941 19.6428 4.16987 19.8332C6.07464 21.8332 8.7413 22.9761 11.5032 22.9761C14.3604 22.9761 16.9318 21.9285 18.9318 20.0237C19.1223 19.8332 19.408 19.8332 19.5984 20.0237C19.7889 20.2143 19.7889 20.5 19.5984 20.6904C17.5032 22.7857 14.6461 23.9285 11.6937 23.9285Z" fill="#515DEF"/>
<path d="M1.40787 22.2142C1.31264 22.2142 1.2174 22.2142 1.12216 22.119C0.931684 22.0238 0.836445 21.7381 1.02692 21.5476C3.40787 17.6428 7.31264 15.0713 11.8841 14.5952C12.1698 14.5952 12.3602 14.7856 12.3602 14.9761C12.3602 15.2618 12.1698 15.4524 11.9793 15.4524C7.69358 15.9285 4.07455 18.2142 1.78883 21.9285C1.69359 22.119 1.59835 22.2142 1.40787 22.2142Z" fill="#515DEF"/>
<path d="M18.2651 11.7384C18.1699 11.7384 18.0745 11.7384 17.9793 11.6431C17.7888 11.4527 17.6936 11.1669 17.8841 10.9765C17.9793 10.8812 18.0745 10.6907 18.1699 10.5955C18.2651 10.405 18.5508 10.3098 18.8365 10.405C19.027 10.5003 19.1222 10.8812 19.027 11.0717C18.9317 11.2622 18.8365 11.3574 18.7413 11.4527C18.5508 11.7384 18.3603 11.7384 18.2651 11.7384Z" fill="#515DEF"/>
<path d="M14.0746 15.0712C13.8842 15.0712 13.6937 14.976 13.5985 14.7855C13.5032 14.4998 13.5985 14.3094 13.8842 14.2141C14.1699 14.1189 14.3603 14.0237 14.646 13.8332C14.8365 13.738 15.1223 13.8332 15.3128 14.0237C15.408 14.2141 15.3128 14.4998 15.1223 14.6903C14.8365 14.7855 14.5508 14.976 14.2651 15.0712C14.2651 14.976 14.1699 15.0712 14.0746 15.0712ZM16.4556 13.738C16.3603 13.738 16.1699 13.6426 16.0746 13.5474C15.8842 13.3569 15.9794 13.0712 16.1699 12.8808C16.3603 12.6903 16.646 12.4998 16.8365 12.3094C17.0271 12.1189 17.3128 12.1189 17.5032 12.3094C17.6937 12.4998 17.6937 12.7855 17.5032 12.976C17.3128 13.1665 17.0271 13.3569 16.8365 13.6426C16.646 13.6426 16.5508 13.738 16.4556 13.738Z" fill="#515DEF"/>
<path d="M11.8839 15.5476C11.5982 15.5476 11.4077 15.357 11.4077 15.1666C11.4077 14.8809 11.5982 14.6904 11.7887 14.6904C11.9791 14.6904 12.0743 14.6904 12.2649 14.5952C12.5506 14.5952 12.7411 14.6904 12.8363 14.9761C12.9315 15.2618 12.7411 15.4524 12.4554 15.5476C12.2649 15.5476 12.1697 15.5476 11.8839 15.5476C11.9791 15.5476 11.9791 15.5476 11.8839 15.5476Z" fill="#515DEF"/>
<path d="M3.88409 20.5951C3.78885 20.5951 3.59837 20.4998 3.50314 20.4046C2.74123 19.6427 2.646 18.4046 2.646 17.8331V17.7379C2.646 17.4522 2.93171 17.2617 3.12219 17.2617C3.4079 17.2617 3.59837 17.5474 3.59837 17.7379C3.59837 18.0237 3.59837 19.0713 4.1698 19.7379C4.36028 19.9285 4.36028 20.2141 4.1698 20.4046C4.07457 20.5951 3.97933 20.5951 3.88409 20.5951Z" fill="#515DEF"/>
</g>
<defs>
<clipPath id="clip0_1_2287">
<rect width="24" height="24" fill="white" transform="translate(0.360352 0.5)"/>
</clipPath>
</defs>
</svg>
