<svg width="114" height="30" viewBox="0 0 114 30" fill="none" xmlns="http://www.w3.org/2000/svg">
<path d="M41.9584 27.6355C40.3666 27.6355 39.2016 27.4164 38.4634 26.978C37.7482 26.5166 37.3906 26.0437 37.3906 25.5592C37.3906 25.2824 37.4483 24.9594 37.5636 24.5903C37.679 24.1981 37.8636 23.8521 38.1173 23.5522C38.4864 23.8982 38.9594 24.1866 39.5361 24.4173C40.1359 24.648 40.8511 24.7633 41.6816 24.7633C42.9043 24.7633 43.7694 24.4403 44.277 23.7944C44.8076 23.1484 45.0729 22.2949 45.0729 21.2336C45.0729 20.4493 44.9229 19.7226 44.623 19.0535C44.3462 18.3845 43.8271 17.6117 43.0658 16.735L39.6053 12.6863C38.821 11.7174 38.2557 10.8522 37.9097 10.0909C37.5867 9.30658 37.4252 8.49913 37.4252 7.66862C37.4252 6.21522 37.9328 5.02713 38.9478 4.10434C39.986 3.18154 41.4624 2.72015 43.3772 2.72015C45.0152 2.72015 46.1802 2.89317 46.8723 3.23922C47.5644 3.5622 47.9105 3.96592 47.9105 4.45038C47.9105 4.68108 47.8528 4.94638 47.7374 5.24629C47.6221 5.52313 47.4491 5.78843 47.2184 6.0422C46.9877 5.88071 46.5609 5.70769 45.938 5.52313C45.3382 5.3155 44.6345 5.21169 43.8271 5.21169C42.789 5.21169 41.9584 5.41932 41.3356 5.83457C40.7357 6.24983 40.4358 6.83811 40.4358 7.59941C40.4358 8.2223 40.5743 8.79904 40.8511 9.32965C41.151 9.83718 41.5547 10.4024 42.0623 11.0253L45.7996 15.2816C46.6993 16.3428 47.3106 17.3118 47.6336 18.1884C47.9566 19.0651 48.1181 20.0456 48.1181 21.1298C48.1181 22.2833 47.922 23.3561 47.5298 24.3481C47.1607 25.3401 46.5263 26.136 45.6265 26.7358C44.7499 27.3356 43.5272 27.6355 41.9584 27.6355Z" fill="#36526C"/>
<path d="M50.5195 27.2895V3.13536C50.5195 2.69703 50.5887 2.39712 50.7271 2.23563C50.8886 2.05107 51.177 1.94726 51.5922 1.92419C52.0075 1.87805 52.5958 1.85498 53.3571 1.85498V11.2329C53.9338 10.7484 54.6144 10.3678 55.3988 10.0909C56.1831 9.79099 56.9444 9.64104 57.6827 9.64104C58.444 9.64104 59.0323 9.77946 59.4475 10.0563C59.8858 10.3332 60.1857 10.7023 60.3472 11.1637C60.5318 11.602 60.6241 12.0865 60.6241 12.6171C60.6241 13.3553 60.5203 14.0128 60.3126 14.5895C60.105 15.1663 59.8397 15.6854 59.5167 16.1468C59.1937 16.5851 58.8708 16.9657 58.5478 17.2887C58.2479 17.5886 57.9826 17.8193 57.7519 17.9808C58.3056 18.2115 58.8246 18.5922 59.3091 19.1228C59.7936 19.6303 60.1973 20.2762 60.5203 21.0606C60.8663 21.845 61.0855 22.7678 61.1777 23.829C61.2239 24.2443 61.2354 24.7057 61.2124 25.2132C61.2124 25.6977 61.1777 26.2052 61.1085 26.7358C61.0855 26.9204 61.0278 27.0588 60.9355 27.1511C60.8432 27.2203 60.5779 27.2664 60.1396 27.2895C59.7243 27.2895 58.9861 27.2895 57.9249 27.2895C58.0172 26.4359 58.0633 25.663 58.0633 24.971C58.0633 24.2558 58.0172 23.6098 57.9249 23.0331C57.8096 22.341 57.6481 21.7527 57.4404 21.2682C57.2328 20.7838 56.9906 20.4031 56.7137 20.1263C56.4369 19.8264 56.137 19.6303 55.814 19.538C55.5141 19.4227 55.2027 19.3996 54.8797 19.4688C54.6721 19.5149 54.4414 19.5957 54.1876 19.711C53.9569 19.8033 53.7608 19.8956 53.5993 19.9879C53.4378 20.0802 53.3571 20.1263 53.3571 20.1263V26.7358C53.3571 26.9204 53.3109 27.0472 53.2187 27.1164C53.1495 27.1857 52.9188 27.2318 52.5266 27.2549C52.1575 27.2779 51.4884 27.2895 50.5195 27.2895ZM53.3571 18.1192C54.1645 17.7732 54.8797 17.3925 55.5026 16.9773C56.1255 16.562 56.6099 16.0775 56.956 15.5239C57.3251 14.9471 57.5096 14.3012 57.5096 13.586C57.5096 12.6401 57.0829 12.1672 56.2293 12.1672C55.7448 12.1672 55.2603 12.3056 54.7759 12.5825C54.2914 12.8362 53.8185 13.2515 53.3571 13.8282V18.1192Z" fill="#36526C"/>
<path d="M63.5302 27.2895V11.2675C63.5302 10.8292 63.6109 10.5293 63.7724 10.3678C63.9339 10.1832 64.2222 10.0794 64.6375 10.0563C65.0528 10.0102 65.641 9.98713 66.4023 9.98713V26.7358C66.4023 26.9204 66.3562 27.0472 66.2639 27.1164C66.1947 27.1857 65.964 27.2318 65.5718 27.2549C65.1796 27.2779 64.4991 27.2895 63.5302 27.2895ZM64.8797 7.5994C64.4414 7.57633 64.0954 7.41484 63.8416 7.11494C63.5878 6.79196 63.4609 6.22675 63.4609 5.41931C63.484 4.79642 63.6224 4.30042 63.8762 3.9313C64.13 3.53912 64.5337 3.34302 65.0874 3.34302C65.618 3.34302 65.9871 3.49298 66.1947 3.79288C66.4023 4.09279 66.4946 4.61186 66.4716 5.3501C66.4716 6.04219 66.3331 6.59586 66.0563 7.01112C65.8025 7.40331 65.4103 7.5994 64.8797 7.5994Z" fill="#36526C"/>
<path d="M73.9395 27.6355C73.2936 27.6355 72.6707 27.5778 72.0709 27.4625C71.4941 27.3702 70.975 27.151 70.5136 26.805C70.0523 26.4359 69.6831 25.9053 69.4063 25.2132C69.1295 24.5211 68.991 23.5752 68.991 22.3756C68.991 21.176 69.1179 20.207 69.3717 19.4688C69.6255 18.7075 69.9715 18.1308 70.4098 17.7386C70.8482 17.3233 71.3442 17.0465 71.8978 16.9081C72.4515 16.7696 73.0167 16.7004 73.5935 16.7004C73.9626 16.7004 74.3894 16.735 74.8738 16.8042C75.3814 16.8735 75.8082 16.9888 76.1542 17.1503C76.1542 17.1503 76.1542 16.9888 76.1542 16.6658C76.1542 16.3428 76.1542 15.9737 76.1542 15.5585C76.1542 15.1201 76.1542 14.7395 76.1542 14.4165C76.1542 13.8628 76.0619 13.4476 75.8774 13.1707C75.7159 12.8708 75.4737 12.6632 75.1507 12.5479C74.8508 12.4094 74.4701 12.3402 74.0087 12.3402C73.109 12.3402 72.2439 12.421 71.4134 12.5825C70.5829 12.744 69.9138 12.9285 69.4063 13.1361C69.2448 12.8593 69.141 12.5825 69.0949 12.3056C69.0487 12.0057 69.0256 11.7404 69.0256 11.5097C69.0256 11.3482 69.0487 11.1752 69.0949 10.9907C69.1641 10.8061 69.2679 10.6677 69.4063 10.5754C69.7062 10.3908 70.3291 10.1947 71.2749 9.9871C72.2208 9.7564 73.3512 9.64105 74.6662 9.64105C76.1657 9.64105 77.25 9.95249 77.9191 10.5754C78.6111 11.1983 78.9572 12.2941 78.9572 13.8628V15.6969C78.9572 17.0119 78.9457 18.3384 78.9226 19.6764C78.9226 20.9914 78.9111 22.2372 78.888 23.4137C78.8649 24.5672 78.8188 25.5823 78.7496 26.459C78.2882 26.7358 77.6538 27.0011 76.8463 27.2549C76.0389 27.5086 75.0699 27.6355 73.9395 27.6355ZM74.2164 25.2824C74.5855 25.2824 74.9431 25.2247 75.2891 25.1094C75.6351 24.994 75.8774 24.8556 76.0158 24.6941C76.0619 24.325 76.085 23.8175 76.085 23.1715C76.1081 22.5256 76.1196 21.845 76.1196 21.1298C76.1427 20.4147 76.1542 19.7456 76.1542 19.1228C75.9235 19.0074 75.6467 18.9267 75.3237 18.8805C75.0238 18.8344 74.7585 18.8113 74.5278 18.8113C74.1587 18.8113 73.8126 18.8575 73.4897 18.9497C73.1897 19.0189 72.9244 19.1804 72.6937 19.4342C72.463 19.6649 72.2785 20.0109 72.1401 20.4723C72.0016 20.9337 71.9324 21.5451 71.9324 22.3064C71.9324 22.9293 71.9786 23.4368 72.0709 23.829C72.1862 24.2212 72.3477 24.5326 72.5553 24.7633C72.763 24.971 73.0052 25.1094 73.282 25.1786C73.5589 25.2478 73.8703 25.2824 74.2164 25.2824Z" fill="#36526C"/>
<path d="M81.8125 27.2895V3.13536C81.8125 2.69703 81.8817 2.39712 82.0202 2.23563C82.1816 2.05107 82.47 1.94726 82.8853 1.92419C83.3005 1.87805 83.8773 1.85498 84.6155 1.85498V26.7358C84.6155 26.9204 84.5694 27.0472 84.4771 27.1164C84.4079 27.1857 84.1772 27.2318 83.785 27.2549C83.4159 27.2779 82.7584 27.2895 81.8125 27.2895Z" fill="#36526C"/>
<path d="M87.7941 27.2895V11.2675C87.7941 10.8292 87.8748 10.5293 88.0363 10.3678C88.1978 10.1832 88.4862 10.0794 88.9015 10.0563C89.3167 10.0102 89.905 9.98713 90.6663 9.98713V26.7358C90.6663 26.9204 90.6202 27.0472 90.5279 27.1164C90.4587 27.1857 90.228 27.2318 89.8358 27.2549C89.4436 27.2779 88.763 27.2895 87.7941 27.2895ZM89.1437 7.5994C88.7054 7.57633 88.3593 7.41484 88.1055 7.11494C87.8518 6.79196 87.7249 6.22675 87.7249 5.41931C87.748 4.79642 87.8864 4.30042 88.1401 3.9313C88.3939 3.53912 88.7975 3.34302 89.3512 3.34302C89.8818 3.34302 90.251 3.49298 90.4587 3.79288C90.6663 4.09279 90.7586 4.61186 90.7355 5.3501C90.7355 6.04219 90.5971 6.59586 90.3202 7.01112C90.0665 7.40331 89.6743 7.5994 89.1437 7.5994Z" fill="#36526C"/>
<path d="M97.5111 27.6355C96.2884 27.6355 95.2733 27.4971 94.4659 27.2203C93.6815 26.9204 93.2893 26.4705 93.2893 25.8707C93.2893 25.663 93.3239 25.4208 93.3931 25.144C93.4623 24.8441 93.5892 24.5442 93.7738 24.2443C94.2813 24.5442 94.8119 24.7633 95.3656 24.9017C95.9423 25.0402 96.5652 25.1094 97.2342 25.1094C98.1109 25.1094 98.7914 24.9363 99.2759 24.5903C99.7834 24.2212 100.037 23.679 100.037 22.9639C100.037 22.5025 99.9334 22.0526 99.7258 21.6143C99.5412 21.176 99.1836 20.7261 98.653 20.2647L95.2964 17.3925C94.512 16.7466 93.9814 16.1237 93.7045 15.5239C93.4508 14.901 93.3239 14.3012 93.3239 13.7244C93.3239 12.917 93.52 12.2134 93.9122 11.6135C94.3274 10.9907 94.9503 10.5062 95.7808 10.1601C96.6344 9.81407 97.6956 9.64105 98.9645 9.64105C100.164 9.64105 101.064 9.7564 101.664 9.9871C102.287 10.2178 102.713 10.4831 102.944 10.783C103.198 11.0599 103.325 11.3252 103.325 11.5789C103.325 12.0634 103.117 12.5363 102.702 12.9977C102.194 12.6747 101.664 12.444 101.11 12.3056C100.556 12.1672 99.9565 12.098 99.3105 12.098C98.48 12.098 97.811 12.248 97.3034 12.5479C96.819 12.8247 96.5767 13.2284 96.5767 13.759C96.5767 14.0589 96.6575 14.3704 96.819 14.6934C97.0035 15.0163 97.3842 15.4201 97.9609 15.9045L101.179 18.4999C101.941 19.215 102.471 19.8956 102.771 20.5415C103.071 21.1875 103.221 21.9488 103.221 22.8255C103.221 24.3481 102.713 25.5362 101.698 26.3897C100.683 27.2203 99.2874 27.6355 97.5111 27.6355Z" fill="#36526C"/>
<path d="M110.478 27.6355C109.51 27.6355 108.783 27.4279 108.298 27.0126C107.837 26.5743 107.537 25.9745 107.399 25.2132C107.26 24.4288 107.191 23.5176 107.191 22.4794V12.4094H104.838C104.838 11.6712 104.838 11.1406 104.838 10.8176C104.861 10.4716 104.919 10.2524 105.011 10.1601C105.103 10.0448 105.242 9.98709 105.426 9.98709H107.191V4.72717C107.191 4.38112 107.26 4.15042 107.399 4.03508C107.56 3.89666 107.837 3.81591 108.229 3.79284C108.644 3.76977 109.233 3.75824 109.994 3.75824V9.98709H113.524C113.524 10.7023 113.512 11.2329 113.489 11.5789C113.489 11.925 113.443 12.1557 113.351 12.271C113.281 12.3633 113.155 12.4094 112.97 12.4094H109.994V22.4794C109.994 22.9639 110.006 23.4253 110.029 23.8636C110.075 24.2789 110.179 24.6134 110.34 24.8671C110.525 25.0978 110.825 25.2132 111.24 25.2132C111.632 25.2132 111.978 25.1786 112.278 25.1094C112.578 25.0171 112.901 24.8787 113.247 24.6941C113.293 24.8787 113.339 25.0863 113.385 25.317C113.431 25.5477 113.454 25.813 113.454 26.1129C113.454 26.5282 113.293 26.8511 112.97 27.0818C112.67 27.2895 112.289 27.4279 111.828 27.4971C111.39 27.5894 110.94 27.6355 110.478 27.6355Z" fill="#36526C"/>
<mask id="mask0_1_6276" style="mask-type:luminance" maskUnits="userSpaceOnUse" x="0" y="0" width="30" height="30">
<path d="M29.0432 0.0999756H0V29.1432H29.0432V0.0999756Z" fill="white"/>
</mask>
<g mask="url(#mask0_1_6276)">
<path fill-rule="evenodd" clip-rule="evenodd" d="M4.09006 8.27814V0.705017H1.7666V8.28046L1.76661 8.28479C1.77065 9.36858 2.07972 10.4293 2.65846 11.3456C3.23532 12.259 4.05687 12.9921 5.0296 13.4616C5.83121 13.8625 6.7152 14.0713 7.61155 14.0713C8.51118 14.0713 9.39836 13.861 10.2023 13.4572L9.68092 12.4191L10.2084 13.4542C11.1626 12.9679 11.9628 12.2257 12.5193 11.3106C13.0751 10.3967 13.3661 9.34639 13.3597 8.27681V0.705017H11.0362V8.28046L11.0363 8.2882C11.0405 8.9281 10.8667 9.55657 10.5342 10.1033C10.2022 10.6491 9.72522 11.0919 9.15638 11.3825C8.67686 11.6227 8.14791 11.7478 7.61155 11.7478C7.07404 11.7478 6.54396 11.6222 6.06363 11.3809L5.54222 12.4191L6.04533 11.3719C5.46165 11.0915 4.96871 10.6524 4.62292 10.1049C4.27749 9.55803 4.09285 8.92499 4.09006 8.27814Z" fill="#36526C"/>
<path fill-rule="evenodd" clip-rule="evenodd" d="M6.40137 28.5381V0.705017H8.72483V28.5381H6.40137Z" fill="#36526C"/>
<path fill-rule="evenodd" clip-rule="evenodd" d="M19.2005 4.97456C18.4446 6.25435 18.0066 7.7919 18.0066 8.82496C18.0066 9.28106 18.0964 9.73268 18.2709 10.1541C18.4455 10.5755 18.7013 10.9583 19.0238 11.2808C19.3463 11.6033 19.7292 11.8592 20.1506 12.0337C20.5719 12.2082 21.0236 12.2981 21.4797 12.2981C21.9357 12.2981 22.3874 12.2082 22.8087 12.0337C23.2301 11.8592 23.613 11.6033 23.9355 11.2808C24.258 10.9583 24.5138 10.5755 24.6884 10.1541C24.8629 9.73268 24.9527 9.28105 24.9527 8.82496C24.9527 7.7919 24.5147 6.25435 23.7588 4.97456C23.3868 4.34472 22.9707 3.8346 22.5524 3.49386C22.1355 3.15419 21.7761 3.02842 21.4797 3.02842C21.1832 3.02842 20.8238 3.15419 20.4069 3.49386C19.9886 3.8346 19.5725 4.34472 19.2005 4.97456ZM18.9394 1.69243C19.632 1.12828 20.4933 0.704956 21.4797 0.704956C22.466 0.704956 23.3273 1.12828 24.0199 1.69243C24.7111 2.25551 25.2934 3.00393 25.7594 3.79298C26.6796 5.35095 27.2762 7.29254 27.2762 8.82496C27.2762 9.58618 27.1263 10.34 26.835 11.0432C26.5437 11.7465 26.1167 12.3855 25.5784 12.9238C25.0402 13.462 24.4012 13.889 23.6979 14.1803C22.9946 14.4716 22.2409 14.6215 21.4797 14.6215C20.7184 14.6215 19.9647 14.4716 19.2614 14.1803C18.5581 13.889 17.9191 13.462 17.3809 12.9238C16.8426 12.3855 16.4156 11.7465 16.1243 11.0432C15.833 10.34 15.6831 9.58618 15.6831 8.82496C15.6831 7.29254 16.2797 5.35095 17.1999 3.79298C17.6659 3.00393 18.2482 2.25551 18.9394 1.69243Z" fill="#36526C"/>
<path fill-rule="evenodd" clip-rule="evenodd" d="M22.6418 13.4598V28.5381H20.3184V13.4598H22.6418Z" fill="#36526C"/>
</g>
</svg>
