<svg width="81" height="31" viewBox="0 0 81 31" fill="none" xmlns="http://www.w3.org/2000/svg">
<g clip-path="url(#clip0_1_6250)">
<path d="M15.7078 23.6435C15.7078 23.848 15.6737 24.0525 15.6055 24.2571C15.551 24.448 15.4896 24.6388 15.4214 24.8297C15.1215 25.6069 14.7533 26.3296 14.317 26.9977C13.8807 27.6522 13.3762 28.2181 12.8035 28.6953C12.2308 29.1726 11.5831 29.5475 10.8605 29.8202C10.1378 30.0929 9.34013 30.2293 8.46747 30.2293C7.30848 30.2293 6.31311 29.9839 5.48136 29.493C4.64961 29.0021 3.94058 28.3681 3.35426 27.5909C2.76795 26.8 2.2839 25.9206 1.90211 24.9525C1.53396 23.9844 1.24081 23.0163 1.02264 22.0482C0.695396 20.6437 0.443145 19.2393 0.265887 17.8349C0.0886289 16.4168 0 14.9987 0 13.5807C0 12.7489 0.0340881 11.8899 0.102264 11.0036C0.184075 10.1173 0.320428 9.24468 0.511321 8.38566C0.702214 7.51301 0.961283 6.67444 1.28853 5.86996C1.61577 5.05185 2.02483 4.30191 2.5157 3.62015C3.00657 2.92475 3.58606 2.31117 4.25419 1.7794C4.93595 1.24762 5.72679 0.831749 6.62672 0.531775C6.95396 0.409058 7.29484 0.327246 7.64936 0.286341C8.00387 0.2318 8.35839 0.204529 8.71291 0.204529C9.42194 0.204529 10.0969 0.320429 10.7377 0.552227C11.3786 0.784026 11.9376 1.11127 12.4149 1.53396C12.9057 1.95665 13.2875 2.46797 13.5602 3.06792C13.8466 3.66787 13.9897 4.336 13.9897 5.0723C13.9897 5.31774 13.9352 5.50181 13.8261 5.62453C13.717 5.74725 13.5261 5.8086 13.2534 5.8086C12.7489 5.8086 12.3535 5.72679 12.0672 5.56317C11.7945 5.39955 11.5695 5.19502 11.3922 4.94958C11.215 4.70415 11.065 4.43826 10.9423 4.15192C10.8332 3.86559 10.6968 3.5997 10.5332 3.35426C10.3696 3.10883 10.1514 2.9043 9.87872 2.74068C9.60601 2.57706 9.23104 2.49525 8.75381 2.49525C8.27658 2.49525 7.82662 2.59069 7.40393 2.78158C6.99487 2.95884 6.61308 3.19746 6.25857 3.49743C5.91769 3.79741 5.60408 4.13829 5.31774 4.52008C5.04503 4.88823 4.7996 5.2632 4.58143 5.64498C4.00876 6.70853 3.60652 7.84707 3.37472 9.0606C3.14292 10.2605 3.02702 11.4672 3.02702 12.6808C3.02702 13.0898 3.04065 13.6216 3.06792 14.2761C3.10883 14.9169 3.16337 15.626 3.23155 16.4032C3.31336 17.1804 3.42244 18.0053 3.55879 18.878C3.69515 19.737 3.85877 20.5824 4.04966 21.4141C4.25419 22.2459 4.49281 23.0435 4.76551 23.8071C5.05185 24.5707 5.37228 25.2388 5.72679 25.8115C6.09494 26.3842 6.504 26.8409 6.95396 27.1818C7.41756 27.5227 7.9357 27.6931 8.50838 27.6931C9.09469 27.6931 9.61283 27.5431 10.0628 27.2432C10.5128 26.9296 10.8945 26.541 11.2082 26.0774C11.5354 25.6001 11.8013 25.0888 12.0058 24.5434C12.224 23.9844 12.3944 23.4662 12.5171 22.989C12.558 22.8526 12.5921 22.7299 12.6194 22.6208C12.6603 22.5117 12.708 22.4163 12.7626 22.3345C12.8307 22.2527 12.9126 22.1913 13.008 22.1504C13.1034 22.1095 13.2398 22.0891 13.4171 22.0891C13.608 22.0891 13.8329 22.13 14.092 22.2118C14.3647 22.28 14.617 22.3822 14.8488 22.5186C15.0942 22.6549 15.2987 22.8185 15.4623 23.0094C15.626 23.2003 15.7078 23.4117 15.7078 23.6435Z" fill="#36526C"/>
<path d="M25.4637 21.3118C25.4637 22.4981 25.3614 23.6844 25.1569 24.8706C24.966 26.0433 24.5638 27.1545 23.9502 28.2045C23.7593 28.5181 23.5411 28.8249 23.2957 29.1248C23.0502 29.4112 22.7775 29.6702 22.4776 29.902C22.1912 30.1475 21.8708 30.3384 21.5163 30.4747C21.1754 30.6247 20.8141 30.6997 20.4323 30.6997C19.8323 30.6997 19.3074 30.5565 18.8574 30.2702C18.4211 29.9975 18.0393 29.6362 17.7121 29.1862C17.3984 28.7226 17.1326 28.2045 16.9144 27.6318C16.7099 27.0455 16.5462 26.4523 16.4235 25.8524C16.3144 25.2388 16.2326 24.6457 16.1781 24.073C16.1372 23.5003 16.1167 22.9958 16.1167 22.5595C16.1167 22.0686 16.1372 21.53 16.1781 20.9437C16.219 20.3574 16.2872 19.7574 16.3826 19.1439C16.4917 18.5303 16.6281 17.9235 16.7917 17.3235C16.9689 16.7236 17.1939 16.1646 17.4666 15.6464C17.7393 15.1146 18.0666 14.6442 18.4484 14.2352C18.8301 13.8125 19.2733 13.4784 19.7778 13.233V13.2534C20.2141 13.0216 20.6504 12.9057 21.0868 12.9057C21.3595 12.9057 21.5708 12.9671 21.7208 13.0898C21.8708 13.1989 21.939 13.3898 21.9253 13.6625C22.6753 13.7988 23.282 14.1602 23.7456 14.7465C24.2092 15.3328 24.5638 16.0146 24.8092 16.7918C25.0683 17.569 25.2387 18.3666 25.3205 19.1848C25.416 20.0029 25.4637 20.7119 25.4637 21.3118ZM20.8413 16.1986C20.6095 16.1986 20.3914 16.11 20.1868 15.9328C19.9278 16.3282 19.7096 16.785 19.5324 17.3031C19.3551 17.8076 19.2119 18.3326 19.1028 18.878C19.0074 19.4097 18.9392 19.9483 18.8983 20.4937C18.8574 21.0391 18.837 21.5505 18.837 22.0277C18.837 22.4231 18.8574 22.9344 18.8983 23.5617C18.9392 24.1752 19.0142 24.7956 19.1233 25.4229C19.246 26.0501 19.4096 26.6364 19.6142 27.1818C19.8323 27.7272 20.1119 28.1295 20.4527 28.3885C20.8754 28.1431 21.2231 27.7545 21.4958 27.2227C21.7822 26.6773 22.0071 26.0842 22.1708 25.4433C22.3344 24.8025 22.4435 24.1548 22.498 23.5003C22.5662 22.8458 22.6003 22.2868 22.6003 21.8232C22.6003 21.4823 22.5798 21.0391 22.5389 20.4937C22.498 19.9483 22.4298 19.3961 22.3344 18.8371C22.2389 18.2644 22.1026 17.7326 21.9253 17.2417C21.7617 16.7509 21.5504 16.3827 21.2913 16.1373C21.1686 16.1782 21.0186 16.1986 20.8413 16.1986Z" fill="#36526C"/>
<path d="M35.8537 21.3118C35.8537 22.4981 35.7515 23.6844 35.5469 24.8706C35.356 26.0433 34.9538 27.1545 34.3402 28.2045C34.1493 28.5181 33.9311 28.8249 33.6857 29.1248C33.4403 29.4112 33.1676 29.6702 32.8676 29.902C32.5813 30.1475 32.2608 30.3384 31.9063 30.4747C31.5654 30.6247 31.2041 30.6997 30.8223 30.6997C30.2224 30.6997 29.6974 30.5565 29.2475 30.2702C28.8111 29.9975 28.4293 29.6362 28.1021 29.1862C27.7885 28.7226 27.5226 28.2045 27.3044 27.6318C27.0999 27.0455 26.9363 26.4523 26.8136 25.8524C26.7045 25.2388 26.6227 24.6457 26.5681 24.073C26.5272 23.5003 26.5068 22.9958 26.5068 22.5595C26.5068 22.0686 26.5272 21.53 26.5681 20.9437C26.609 20.3574 26.6772 19.7574 26.7727 19.1439C26.8817 18.5303 27.0181 17.9235 27.1817 17.3235C27.359 16.7236 27.584 16.1646 27.8567 15.6464C28.1294 15.1146 28.4566 14.6442 28.8384 14.2352C29.2202 13.8125 29.6633 13.4784 30.1678 13.233V13.2534C30.6042 13.0216 31.0405 12.9057 31.4768 12.9057C31.7495 12.9057 31.9609 12.9671 32.1108 13.0898C32.2608 13.1989 32.329 13.3898 32.3154 13.6625C33.0653 13.7988 33.6721 14.1602 34.1357 14.7465C34.5993 15.3328 34.9538 16.0146 35.1992 16.7918C35.4583 17.569 35.6287 18.3666 35.7105 19.1848C35.806 20.0029 35.8537 20.7119 35.8537 21.3118ZM31.2314 16.1986C30.9996 16.1986 30.7814 16.11 30.5769 15.9328C30.3178 16.3282 30.0997 16.785 29.9224 17.3031C29.7451 17.8076 29.602 18.3326 29.4929 18.878C29.3974 19.4097 29.3293 19.9483 29.2884 20.4937C29.2475 21.0391 29.227 21.5505 29.227 22.0277C29.227 22.4231 29.2475 22.9344 29.2884 23.5617C29.3293 24.1752 29.4043 24.7956 29.5133 25.4229C29.6361 26.0501 29.7997 26.6364 30.0042 27.1818C30.2224 27.7272 30.5019 28.1295 30.8428 28.3885C31.2655 28.1431 31.6132 27.7545 31.8859 27.2227C32.1722 26.6773 32.3972 26.0842 32.5608 25.4433C32.7244 24.8025 32.8335 24.1548 32.8881 23.5003C32.9562 22.8458 32.9903 22.2868 32.9903 21.8232C32.9903 21.4823 32.9699 21.0391 32.929 20.4937C32.8881 19.9483 32.8199 19.3961 32.7244 18.8371C32.629 18.2644 32.4926 17.7326 32.3154 17.2417C32.1518 16.7509 31.9404 16.3827 31.6813 16.1373C31.5586 16.1782 31.4086 16.1986 31.2314 16.1986Z" fill="#36526C"/>
<path d="M47.3892 30.0043C47.3892 30.1543 47.3074 30.2906 47.1438 30.4134C46.9802 30.5361 46.7893 30.6383 46.5711 30.7202C46.3666 30.802 46.1552 30.8633 45.9371 30.9042C45.7189 30.9588 45.5486 30.986 45.4258 30.986C45.194 30.986 44.9826 30.9383 44.7917 30.8429C44.6008 30.7611 44.4236 30.652 44.2599 30.5156C44.0963 30.3793 43.9396 30.2293 43.7896 30.0657C43.6533 29.902 43.5237 29.7384 43.401 29.5748C42.9238 28.9885 42.4328 28.334 41.9283 27.6113C41.4238 26.8887 40.9738 26.2001 40.5784 25.5456C40.5784 25.6001 40.5852 25.6683 40.5989 25.7501C40.6125 25.8319 40.6194 25.9001 40.6194 25.9546C40.6467 26.241 40.667 26.5273 40.6807 26.8137C40.708 27.0864 40.7421 27.3659 40.783 27.6522C40.7967 27.8158 40.8102 27.9795 40.8239 28.1431C40.8511 28.2931 40.8785 28.4567 40.9058 28.634C40.933 28.8521 40.9602 29.0703 40.9875 29.2885C41.0147 29.5066 41.0285 29.7316 41.0285 29.9634C41.0285 30.2497 40.9467 30.4406 40.783 30.5361C40.6194 30.6452 40.4013 30.6997 40.1286 30.6997C39.9377 30.6997 39.733 30.6861 39.5149 30.6588C39.2967 30.6315 39.0854 30.577 38.8808 30.4952C38.6763 30.4134 38.4923 30.3043 38.3287 30.1679C38.1651 30.0316 38.0423 29.8543 37.9605 29.6362C37.9196 29.4725 37.8786 29.1657 37.8377 28.7158C37.7968 28.2658 37.7627 27.7681 37.7355 27.2227C37.7082 26.6637 37.681 26.1046 37.6538 25.5456C37.6401 24.9865 37.6265 24.5229 37.6129 24.1548C37.6129 24.073 37.6059 24.0048 37.5924 23.9503C37.5924 23.8957 37.5924 23.8412 37.5924 23.7866C37.4833 23.6912 37.3878 23.5753 37.306 23.4389C37.2242 23.3026 37.1833 23.1731 37.1833 23.0503C37.1833 22.8731 37.2173 22.7163 37.2855 22.5799C37.3537 22.4436 37.4288 22.314 37.5106 22.1913C37.4288 20.5142 37.3878 18.8439 37.3878 17.1804C37.3878 15.8032 37.4014 14.4397 37.4287 13.0898C37.4696 11.7263 37.5037 10.3628 37.5309 8.99923L37.5924 6.25855C37.6059 6.12219 37.6129 5.94494 37.6129 5.72677C37.6129 5.50861 37.6129 5.27681 37.6129 5.03138C37.6129 4.7314 37.6129 4.41779 37.6129 4.09055C37.6129 3.7633 37.6197 3.45651 37.6333 3.17017C37.6469 2.88383 37.6605 2.62476 37.6741 2.39296C37.6878 2.16116 37.7151 1.99072 37.756 1.88164V1.90209C37.8106 1.69756 37.8855 1.54758 37.9809 1.45213C38.0764 1.35668 38.2401 1.30896 38.4719 1.30896C39.0446 1.30896 39.4877 1.4794 39.8013 1.82028C40.1149 2.16116 40.2716 2.61794 40.2716 3.19062C40.2716 4.10418 40.2649 5.01774 40.2513 5.9313C40.2513 6.83123 40.2445 7.73797 40.2308 8.65153C40.2172 9.56509 40.2034 10.4787 40.1898 11.3922C40.1898 12.2922 40.1898 13.1989 40.1898 14.1125C40.1898 14.4397 40.1898 14.7738 40.1898 15.1146C40.2034 15.4419 40.2104 15.776 40.2104 16.1168C40.224 16.3895 40.2308 16.6691 40.2308 16.9554C40.2308 17.2417 40.2308 17.5417 40.2308 17.8553L42.4397 14.3374V14.3579L42.6237 13.9897C42.6646 13.9216 42.6852 13.8738 42.6852 13.8466C42.6988 13.8193 42.7124 13.7852 42.7261 13.7443C42.7533 13.6898 42.801 13.608 42.8691 13.4989C42.9509 13.3898 43.0873 13.2262 43.2782 13.008C43.3464 12.9398 43.4283 12.8785 43.5237 12.8239C43.6192 12.7694 43.7418 12.7421 43.8918 12.7421C44.0418 12.7421 44.1919 12.7898 44.3418 12.8853C44.5055 12.9671 44.6486 13.0762 44.7714 13.2125C44.8941 13.3489 44.9962 13.4989 45.078 13.6625C45.1599 13.8261 45.2009 13.9761 45.2009 14.1125C45.2009 14.2215 45.1395 14.4124 45.0168 14.6851C44.8941 14.9442 44.7303 15.2646 44.5258 15.6464C44.3349 16.0282 44.1168 16.4441 43.8713 16.894C43.6259 17.3304 43.3669 17.7735 43.0942 18.2235C42.8351 18.6734 42.5828 19.1098 42.3374 19.5325C42.0919 19.9551 41.8738 20.3301 41.6829 20.6574L41.1511 21.5164C41.4647 22.0618 41.826 22.6686 42.2351 23.3367C42.6578 23.9912 43.1009 24.6525 43.5645 25.3206C44.0281 25.9887 44.4985 26.6296 44.9758 27.2432C45.4666 27.8568 45.944 28.3953 46.4076 28.8589L46.612 29.0226C46.7756 29.1453 46.9461 29.2953 47.1233 29.4725C47.3006 29.6362 47.3892 29.8134 47.3892 30.0043Z" fill="#36526C"/>
<path d="M63.5879 29.7384C63.5879 30.0111 63.5197 30.2293 63.3833 30.3929C63.2606 30.5565 63.0424 30.6383 62.7288 30.6383C62.5652 30.6383 62.3948 30.6179 62.2175 30.577C62.0403 30.5497 61.8698 30.502 61.7062 30.4338C61.3653 30.3384 61.0926 30.2497 60.8881 30.1679C60.6972 30.0861 60.5472 29.977 60.4381 29.8407C60.3427 29.718 60.2813 29.5543 60.254 29.3498C60.2268 29.1453 60.2063 28.8658 60.1927 28.5112C60.0836 25.716 59.9609 22.9481 59.8245 20.2074C59.7018 17.4531 59.4973 14.6851 59.2109 11.9035C59.0201 12.8444 58.836 13.7852 58.6587 14.726C58.4815 15.6669 58.2974 16.6213 58.1065 17.5894C57.9156 18.5984 57.7315 19.6279 57.5543 20.6778C57.3906 21.7277 57.1248 22.7435 56.7566 23.7253C56.6066 24.1207 56.4225 24.4343 56.2044 24.6661C55.9862 24.8843 55.6522 24.9934 55.2022 24.9934C54.875 24.9934 54.6091 24.9388 54.4045 24.8297C54.2 24.707 54.0023 24.5298 53.8114 24.298C53.6341 24.1071 53.4433 23.7389 53.2387 23.1935C53.0342 22.6481 52.816 22.0141 52.5842 21.2914C52.3661 20.5551 52.1479 19.7711 51.9297 18.9393C51.7116 18.1076 51.507 17.3099 51.3162 16.5463C51.1253 15.7691 50.9548 15.0601 50.8048 14.4192C50.6548 13.7784 50.5389 13.2943 50.4571 12.9671V15.7487C50.4571 17.5622 50.4912 19.3688 50.5594 21.1687C50.6276 22.9685 50.7435 24.7616 50.9071 26.5478C50.948 26.9432 51.0025 27.3386 51.0707 27.734C51.1525 28.1295 51.1934 28.5249 51.1934 28.9203C51.1934 29.2748 51.0707 29.5066 50.8253 29.6157C50.5935 29.7248 50.3344 29.7793 50.0481 29.7793C49.2709 29.7793 48.6709 29.6157 48.2482 29.2885C47.8392 28.9476 47.6346 28.3749 47.6346 27.5704C47.6346 25.9206 47.5937 24.2843 47.5119 22.6617C47.4301 21.0391 47.3892 19.4029 47.3892 17.7531C47.3892 17.5213 47.3892 17.119 47.3892 16.5463C47.4028 15.9737 47.4165 15.2987 47.4301 14.5215C47.4438 13.7307 47.4574 12.8785 47.471 11.9649C47.4983 11.0377 47.5256 10.1037 47.5528 9.16287C47.5801 8.22204 47.6074 7.30848 47.6346 6.42219C47.6619 5.52226 47.6892 4.71779 47.7165 4.00875C47.7437 3.29972 47.771 2.71341 47.7983 2.24981C47.8392 1.77258 47.8801 1.48624 47.921 1.39079C47.9892 1.1999 48.0642 1.07718 48.146 1.02264C48.2414 0.968101 48.3846 0.94083 48.5755 0.94083C49.0936 0.94083 49.5231 1.05673 49.864 1.28853C50.2185 1.50669 50.4571 1.88166 50.5799 2.41343C50.7707 2.69977 50.9889 3.22473 51.2343 3.9883C51.4798 4.73824 51.7388 5.61771 52.0116 6.62672C52.2843 7.63572 52.557 8.72654 52.8297 9.89917C53.116 11.0582 53.3819 12.1763 53.6273 13.2534C53.8864 14.3306 54.1182 15.3192 54.3227 16.2191C54.5409 17.119 54.7113 17.8076 54.834 18.2848C55.2295 15.9396 55.6317 13.608 56.0408 11.29C56.4498 8.97198 56.8384 6.64035 57.2066 4.29509C57.2747 3.89967 57.3429 3.51107 57.4111 3.12928C57.4929 2.7475 57.5338 2.35889 57.5338 1.96347C57.5338 1.71804 57.4997 1.49306 57.4316 1.28853C57.3634 1.07036 57.3293 0.845384 57.3293 0.613585C57.3293 0.327245 57.4179 0.156805 57.5952 0.102264C57.7861 0.034088 57.9974 0 58.2292 0C58.4474 0 58.7064 0.034088 59.0064 0.102264C59.3064 0.17044 59.5927 0.272704 59.8654 0.409057C60.1518 0.545409 60.3904 0.715849 60.5813 0.920377C60.7858 1.12491 60.8881 1.36352 60.8881 1.63623C60.8881 2.11346 60.8472 2.61796 60.7654 3.14974C61.2562 5.45409 61.6653 7.76526 61.9925 10.0832C62.3198 12.3876 62.5652 14.7124 62.7288 17.0577C62.8925 19.0757 63.022 21.0801 63.1174 23.0708C63.2265 25.0615 63.3561 27.0523 63.506 29.043C63.5333 29.1657 63.5538 29.2816 63.5674 29.3907C63.581 29.4998 63.5879 29.6157 63.5879 29.7384Z" fill="#36526C"/>
<path d="M80.6455 25.2388C80.6455 25.4706 80.5501 25.6956 80.3592 25.9137C80.1819 26.1319 79.9638 26.3432 79.7047 26.5478C79.4456 26.7523 79.1797 26.9432 78.907 27.1205C78.6343 27.2841 78.4093 27.4204 78.2321 27.5295C77.7685 27.8295 77.3049 28.109 76.8413 28.3681C76.3913 28.6271 75.9209 28.8521 75.43 29.043C74.9528 29.2339 74.4551 29.3839 73.937 29.493C73.4325 29.6021 72.9007 29.6566 72.3417 29.6566L72.0144 29.6975C71.5645 29.6975 71.1145 29.6498 70.6645 29.5543C70.2282 29.4453 69.8192 29.2885 69.4374 29.0839C69.0556 28.8658 68.7147 28.5931 68.4147 28.2658C68.1147 27.9386 67.8829 27.5431 67.7193 27.0795C67.5966 26.7114 67.5012 26.2751 67.433 25.7706C67.3648 25.2661 67.3103 24.7411 67.2694 24.1957C67.2421 23.6503 67.2148 23.1185 67.1876 22.6004C67.1739 22.0686 67.1603 21.5982 67.1467 21.1891C66.9421 17.0168 66.7785 12.8444 66.6558 8.67199C66.6285 8.19476 66.6081 7.71752 66.5944 7.24029C66.5808 6.76306 66.574 6.28583 66.574 5.80859C66.574 4.99048 66.6217 4.29508 66.7171 3.72241C66.8126 3.14973 67.0035 2.67931 67.2898 2.31116C67.5762 1.94301 67.9852 1.67712 68.517 1.5135C69.0624 1.34988 69.7782 1.26807 70.6645 1.26807C71.5508 1.26807 72.4371 1.27488 73.3234 1.28852C74.2233 1.30215 75.1233 1.30897 76.0232 1.30897C76.2959 1.30897 76.5686 1.30215 76.8413 1.28852C77.114 1.26125 77.3867 1.2817 77.6594 1.34988C77.823 1.37715 77.9662 1.42487 78.0889 1.49305C78.2116 1.54759 78.273 1.67712 78.273 1.88165C78.273 2.37252 78.1094 2.74067 77.7821 2.9861C77.4549 3.2179 77.0663 3.37471 76.6163 3.45652C76.1664 3.53833 75.6959 3.57924 75.2051 3.57924C74.7278 3.5656 74.3324 3.55878 74.0188 3.55878H71.3599C71.0872 3.55878 70.8145 3.55878 70.5418 3.55878C70.2691 3.55878 69.9964 3.57242 69.7237 3.59969C69.6419 3.80422 69.5874 4.01556 69.5601 4.23373C69.5328 4.45189 69.5192 4.67687 69.5192 4.90867C69.5192 6.39491 69.5533 7.86069 69.6214 9.30603C69.7033 10.7514 69.7782 12.2172 69.8464 13.7034C70.6918 13.6352 71.5304 13.5534 72.3621 13.458C73.1939 13.3625 74.0324 13.2534 74.8778 13.1307C75.0005 13.1307 75.1096 13.1239 75.2051 13.1103C75.3141 13.0966 75.4232 13.0898 75.5323 13.0898C75.8186 13.0898 76.0164 13.1648 76.1254 13.3148C76.2482 13.4648 76.3095 13.6761 76.3095 13.9488C76.3095 14.1397 76.2959 14.317 76.2686 14.4806C76.255 14.6442 76.2141 14.8078 76.1459 14.9715C76.0504 15.2442 75.8936 15.4419 75.6755 15.5646C75.4573 15.6873 75.2119 15.776 74.9392 15.8305C74.6665 15.8714 74.3801 15.8918 74.0802 15.8918C73.7938 15.8918 73.5416 15.8987 73.3234 15.9123C72.7507 15.9396 72.1849 15.96 71.6258 15.9737C71.0804 15.9873 70.5282 16.0077 69.9691 16.035C69.9828 16.3214 70.0032 16.7509 70.0305 17.3235C70.0578 17.8962 70.085 18.5439 70.1123 19.2666C70.1532 19.9756 70.1941 20.7119 70.235 21.4755C70.2896 22.239 70.3441 22.9617 70.3987 23.6435C70.4532 24.3116 70.5145 24.8979 70.5827 25.4024C70.6509 25.9069 70.7191 26.2478 70.7873 26.4251C70.9372 26.7114 71.1077 26.9023 71.2986 26.9977C71.4895 27.0795 71.7417 27.1205 72.0553 27.1205C72.5598 27.1205 73.0916 27.025 73.6507 26.8341C74.2097 26.6296 74.7551 26.3773 75.2869 26.0774C75.8186 25.7637 76.3232 25.4229 76.8004 25.0547C77.2913 24.6866 77.7139 24.3252 78.0685 23.9707C78.2184 23.848 78.3684 23.7253 78.5184 23.6026C78.6684 23.4662 78.8457 23.398 79.0502 23.398C79.2547 23.398 79.4524 23.4594 79.6433 23.5821C79.8342 23.7048 80.0047 23.8616 80.1546 24.0525C80.3046 24.2298 80.4205 24.4275 80.5023 24.6457C80.5978 24.8638 80.6455 25.0615 80.6455 25.2388Z" fill="#36526C"/>
</g>
<defs>
<clipPath id="clip0_1_6250">
<rect width="81" height="31" fill="white"/>
</clipPath>
</defs>
</svg>
