<svg width="114" height="23" viewBox="0 0 114 23" fill="none" xmlns="http://www.w3.org/2000/svg">
<g clip-path="url(#clip0_1_6180)">
<path d="M11.9758 7.93797C12.8833 7.5709 13.6787 7.19362 14.3618 6.80616C15.045 6.41869 15.616 6.03632 16.0748 5.65904C16.5337 5.27158 16.8804 4.8994 17.1149 4.54252C17.3494 4.18564 17.4667 3.85936 17.4667 3.56366C17.4667 3.46169 17.4157 3.34443 17.3137 3.21187C17.2118 3.07932 17.0537 2.95696 16.8396 2.8448C16.6357 2.73264 16.3756 2.64087 16.0596 2.56949C15.7435 2.48792 15.3764 2.44713 14.9583 2.44713C13.8367 2.44713 12.7967 2.58479 11.8382 2.86009C10.8797 3.1252 10.0079 3.45149 9.22277 3.83896C8.43764 4.22643 7.74427 4.63429 7.14268 5.06255C6.54108 5.48061 6.03635 5.84768 5.62849 6.16377C5.37358 6.35751 5.14925 6.55124 4.95552 6.74498C4.77198 6.92851 4.58844 7.09676 4.40491 7.2497C4.23156 7.39246 4.04293 7.50972 3.839 7.60149C3.63507 7.69325 3.39035 7.73914 3.10485 7.73914C2.67659 7.73914 2.34011 7.63717 2.09539 7.43324C1.86087 7.22931 1.74361 6.94381 1.74361 6.57673C1.74361 6.13828 1.91695 5.67434 2.26363 5.18491C2.61031 4.68528 3.08955 4.19074 3.70134 3.70131C4.31314 3.21187 5.03199 2.74793 5.85791 2.30948C6.68383 1.86083 7.57093 1.46827 8.51921 1.13178C9.47768 0.795294 10.4718 0.525086 11.5017 0.321155C12.5417 0.117224 13.5818 0.0152588 14.6218 0.0152588C15.6925 0.0152588 16.6153 0.101929 17.3902 0.27527C18.1651 0.448612 18.7973 0.68823 19.2868 0.994126C19.7864 1.30002 20.1535 1.662 20.388 2.08006C20.6327 2.49812 20.7551 2.95186 20.7551 3.4413C20.7551 3.93073 20.5919 4.44056 20.2656 4.97078C19.9393 5.501 19.4703 6.03122 18.8585 6.56144C18.2569 7.09166 17.5177 7.60149 16.6408 8.09092C15.774 8.57016 14.7952 9.00861 13.7042 9.40627C14.785 9.76315 15.6619 10.1404 16.3349 10.5381C17.018 10.9256 17.5482 11.3334 17.9255 11.7617C18.313 12.1798 18.573 12.6182 18.7056 13.077C18.8381 13.5257 18.9044 13.9896 18.9044 14.4689C18.9044 15.1724 18.7107 15.8658 18.3232 16.549C17.9357 17.2321 17.3953 17.8796 16.7019 18.4914C16.0188 19.093 15.203 19.6538 14.2548 20.1738C13.3167 20.6837 12.2919 21.1272 11.1805 21.5045C10.0691 21.8716 8.89648 22.1571 7.6627 22.361C6.42892 22.5751 5.17984 22.6822 3.91547 22.6822C3.46682 22.6822 3.01308 22.6567 2.55423 22.6057C2.09539 22.5547 1.67223 22.463 1.28476 22.3304C0.907492 22.1979 0.596498 22.0194 0.351781 21.7951C0.11726 21.5708 0 21.2802 0 20.9233C0 20.8825 0 20.8468 0 20.8162C0.0101965 20.7754 0.0203931 20.7296 0.0305896 20.6786C0.0713758 20.597 0.11726 20.5001 0.168243 20.388C0.219226 20.2656 0.336486 20.1483 0.520024 20.0362C0.703561 19.924 0.989064 19.8323 1.37653 19.7609C1.7742 19.6793 2.34011 19.6385 3.07426 19.6385C4.34882 17.3035 5.39907 15.2948 6.22499 13.6124C7.0611 11.9197 7.75957 10.5279 8.32038 9.43686C8.88119 8.34583 9.35023 7.54031 9.7275 7.02028C10.115 6.50026 10.4922 6.24025 10.8593 6.24025C11.0225 6.24025 11.1805 6.26574 11.3335 6.31672C11.4864 6.3677 11.619 6.43908 11.7311 6.53085C11.8535 6.61242 11.9503 6.71948 12.0217 6.85204C12.0931 6.9744 12.1288 7.11205 12.1288 7.265C12.0472 7.36696 12.0013 7.47403 11.9911 7.58619C11.9809 7.68816 11.9758 7.80542 11.9758 7.93797ZM11.1346 10.8593C10.6758 11.8993 10.2424 12.8323 9.83456 13.6582C9.4369 14.4842 9.05963 15.2438 8.70275 15.9372C8.34587 16.6203 8.00428 17.2627 7.67799 17.8643C7.3619 18.4557 7.05091 19.0369 6.74501 19.6079C7.92781 19.506 9.02904 19.302 10.0487 18.9961C11.0785 18.68 11.9707 18.2926 12.7253 17.8337C13.49 17.3749 14.0865 16.86 14.5148 16.289C14.9532 15.718 15.1725 15.1164 15.1725 14.4842C15.1725 14.1987 15.1062 13.8979 14.9736 13.5818C14.8513 13.2657 14.6371 12.9496 14.3312 12.6335C14.0253 12.3174 13.6124 12.0064 13.0924 11.7005C12.5723 11.3946 11.9198 11.1142 11.1346 10.8593Z" fill="#36526C"/>
<path d="M26.3225 13.0465C26.2715 13.0363 26.2256 13.0312 26.1848 13.0312C26.144 13.0312 26.0981 13.0312 26.0472 13.0312C25.6597 13.0312 25.2977 13.1076 24.9612 13.2606C24.6247 13.4135 24.3138 13.6175 24.0282 13.8724C23.7529 14.1171 23.5031 14.3975 23.2788 14.7136C23.0647 15.0297 22.8709 15.3458 22.6976 15.6619C22.5243 15.9678 22.3764 16.2635 22.254 16.549C22.1419 16.8345 22.0552 17.0741 21.994 17.2678C22.3509 17.0843 22.718 16.8753 23.0953 16.6407C23.4827 16.4062 23.8447 16.1819 24.1812 15.9678C24.5177 15.7536 24.8083 15.5599 25.053 15.3866C25.3079 15.2132 25.4864 15.096 25.5883 15.0348C26.0472 14.7493 26.3633 14.4842 26.5366 14.2395C26.7099 13.9845 26.7966 13.7653 26.7966 13.5818C26.7966 13.4288 26.7456 13.3065 26.6437 13.2147C26.5519 13.1229 26.4448 13.0669 26.3225 13.0465ZM26.8731 10.9358C27.7194 10.9358 28.3516 11.1397 28.7696 11.5476C29.1877 11.9554 29.3967 12.5213 29.3967 13.2453C29.3967 13.6735 29.2846 14.1222 29.0602 14.5912C28.8359 15.0603 28.4484 15.5395 27.8978 16.0289C27.3472 16.5082 26.608 17.0027 25.6801 17.5125C24.7624 18.0122 23.6102 18.5169 22.2235 19.0267C22.2744 19.3224 22.4325 19.5569 22.6976 19.7303C22.9627 19.8934 23.3145 19.975 23.7529 19.975C24.222 19.975 24.7216 19.9087 25.2518 19.7762C25.7922 19.6334 26.3225 19.455 26.8425 19.2409C27.3727 19.0267 27.8876 18.7973 28.3873 18.5526C28.8869 18.2977 29.3355 18.0581 29.7332 17.8337C30.1411 17.6094 30.4776 17.4157 30.7427 17.2525C31.018 17.0894 31.2015 16.9874 31.2933 16.9466C31.3851 16.8855 31.4666 16.8498 31.538 16.8396C31.6196 16.8294 31.6909 16.8243 31.7521 16.8243C31.8745 16.8243 31.9764 16.8549 32.058 16.916C32.1396 16.967 32.2059 17.0333 32.2569 17.1149C32.318 17.1863 32.3588 17.2678 32.3792 17.3596C32.3996 17.4412 32.4098 17.5125 32.4098 17.5737C32.4098 17.6655 32.3996 17.7777 32.3792 17.9102C32.3588 18.0326 32.2823 18.1753 32.1498 18.3385C32.0988 18.3894 31.9255 18.5271 31.6298 18.7514C31.3443 18.9757 30.9721 19.2409 30.5132 19.5468C30.0544 19.8526 29.5191 20.1789 28.9073 20.5256C28.3057 20.8621 27.6633 21.1731 26.9801 21.4586C26.3072 21.7441 25.6036 21.9786 24.8695 22.1622C24.1353 22.3559 23.4114 22.4528 22.6976 22.4528C22.0858 22.4528 21.5403 22.3355 21.0611 22.101C20.592 21.8665 20.1892 21.5504 19.8528 21.1527C19.5265 20.755 19.2767 20.2962 19.1033 19.7762C18.93 19.2562 18.8433 18.7106 18.8433 18.1396C18.8433 17.7012 18.93 17.2219 19.1033 16.7019C19.2767 16.1717 19.5265 15.6415 19.8528 15.1113C20.1791 14.581 20.5767 14.0661 21.0458 13.5665C21.525 13.0567 22.0603 12.608 22.6517 12.2205C23.2431 11.8331 23.8906 11.5221 24.5942 11.2876C25.3079 11.053 26.0676 10.9358 26.8731 10.9358Z" fill="#36526C"/>
<path d="M35.1628 13.4594C35.7848 13.7857 36.3405 14.1579 36.8299 14.5759C37.3193 14.994 37.7323 15.4375 38.0688 15.9066C38.4155 16.3654 38.6755 16.8345 38.8488 17.3137C39.0324 17.7929 39.1241 18.262 39.1241 18.7208C39.1241 19.302 38.9559 19.8272 38.6194 20.2962C38.2931 20.755 37.8598 21.1476 37.3193 21.4739C36.7891 21.79 36.1773 22.0296 35.484 22.1928C34.8008 22.3661 34.1074 22.4528 33.4039 22.4528C32.8736 22.4528 32.3587 22.3916 31.8591 22.2692C31.3595 22.1571 30.9006 21.9786 30.4826 21.7339C30.0747 21.4892 29.7229 21.1782 29.4272 20.8009C29.1315 20.4135 28.9225 19.9546 28.8001 19.4244C28.7797 19.3428 28.7695 19.2765 28.7695 19.2256C28.7695 18.9503 28.8664 18.7157 29.0601 18.522C29.2539 18.3181 29.468 18.2161 29.7025 18.2161C29.8147 18.2161 29.937 18.2365 30.0696 18.2773C30.2123 18.3181 30.3194 18.4098 30.3908 18.5526C30.5233 18.7973 30.7069 19.0165 30.9414 19.2103C31.1861 19.404 31.4563 19.5722 31.752 19.715C32.0477 19.8475 32.3587 19.9546 32.685 20.0362C33.0215 20.1076 33.3478 20.1432 33.6639 20.1432C33.9902 20.1432 34.3012 20.1127 34.5969 20.0515C34.9028 19.9903 35.1679 19.8934 35.3922 19.7609C35.6267 19.6283 35.8102 19.4601 35.9428 19.2562C36.0754 19.0522 36.1416 18.8024 36.1416 18.5067C36.1416 17.9867 36.0244 17.5074 35.7899 17.069C35.5553 16.6305 35.2494 16.2278 34.8722 15.8607C34.5051 15.4834 34.0819 15.1367 33.6027 14.8207C33.1337 14.4944 32.6646 14.1834 32.1956 13.8877C32.1446 13.8571 32.0681 13.7704 31.9662 13.6277C31.8642 13.4747 31.8132 13.3218 31.8132 13.1688C31.8132 13.0465 31.8438 12.9496 31.905 12.8782C32.0681 12.6641 32.2568 12.4449 32.4709 12.2205C32.685 11.9962 32.9144 11.7923 33.1591 11.6087C33.4039 11.415 33.669 11.2621 33.9545 11.1499C34.24 11.0275 34.5357 10.9664 34.8416 10.9664C35.0659 10.9664 35.2749 10.997 35.4687 11.0581C35.6624 11.1193 35.8255 11.2009 35.9581 11.3028C36.0907 11.3946 36.1926 11.5017 36.264 11.624C36.3456 11.7362 36.3864 11.8433 36.3864 11.9452C36.3864 12.088 36.3507 12.2256 36.2793 12.3582C36.2079 12.4907 36.111 12.6182 35.9887 12.7406C35.8765 12.8629 35.744 12.9853 35.591 13.1076C35.4483 13.23 35.3055 13.3473 35.1628 13.4594Z" fill="#36526C"/>
<path d="M44.6915 13.5665C44.3143 14.3006 43.9574 15.0195 43.6209 15.723C43.2844 16.4164 42.9683 17.0588 42.6726 17.6502C42.5503 17.8949 42.4279 18.1804 42.3055 18.5067C42.1934 18.8228 42.1373 19.1032 42.1373 19.3479C42.1373 19.4907 42.1679 19.6028 42.2291 19.6844C42.3004 19.766 42.4126 19.8068 42.5656 19.8068C42.7797 19.8068 43.0499 19.7456 43.3762 19.6232C43.7025 19.4907 44.0542 19.3224 44.4315 19.1185C44.8088 18.9044 45.2065 18.6648 45.6245 18.3996C46.0426 18.1243 46.4504 17.8439 46.8481 17.5584C47.256 17.2627 47.6434 16.9721 48.0105 16.6866C48.3776 16.3909 48.7039 16.1207 48.9894 15.876C49.1525 15.7638 49.3055 15.7078 49.4482 15.7078C49.6216 15.7078 49.7643 15.7842 49.8765 15.9372C49.9886 16.0901 50.0447 16.2839 50.0447 16.5184C50.0447 16.7529 49.9886 16.9925 49.8765 17.2372C49.7643 17.482 49.5604 17.7216 49.2647 17.9561C48.6019 18.5577 47.9289 19.1287 47.2458 19.6691C46.5728 20.2095 45.8998 20.6888 45.2269 21.1068C44.5641 21.5147 43.9064 21.841 43.2538 22.0857C42.6012 22.3304 41.9691 22.4528 41.3573 22.4528C40.9494 22.4528 40.6078 22.3967 40.3325 22.2845C40.0572 22.1826 39.8329 22.0398 39.6595 21.8563C39.4964 21.6625 39.3791 21.4433 39.3078 21.1986C39.2364 20.9437 39.2007 20.6735 39.2007 20.388C39.2007 19.8781 39.2874 19.3479 39.4607 18.7973C39.634 18.2467 39.8278 17.7522 40.0419 17.3137C40.3478 16.6815 40.6486 16.0544 40.9443 15.4324C41.2502 14.8105 41.5459 14.214 41.8314 13.643H41.1737C40.6027 13.643 40.2102 13.5512 39.996 13.3676C39.7819 13.1841 39.6748 12.9751 39.6748 12.7406C39.6748 12.6386 39.7054 12.5162 39.7666 12.3735C39.838 12.2205 39.9348 12.0829 40.0572 11.9605C40.1898 11.828 40.3478 11.7158 40.5313 11.624C40.7149 11.5323 40.9239 11.4864 41.1584 11.4864H42.8103L46.0375 5.07787C46.2414 4.6904 46.4912 4.4151 46.7869 4.25195C47.0928 4.07861 47.4089 3.99194 47.7352 3.99194C48.0411 3.99194 48.3215 4.07351 48.5764 4.23666C48.8313 4.3998 48.9588 4.67001 48.9588 5.04728C48.9588 5.24102 48.9129 5.43985 48.8211 5.64378C48.7396 5.83751 48.6274 6.06694 48.4846 6.33205C48.3929 6.50539 48.2807 6.71442 48.1482 6.95913C48.0156 7.19365 47.8729 7.44857 47.7199 7.72387C47.5772 7.98898 47.4242 8.26939 47.2611 8.56509C47.1081 8.86079 46.9552 9.14629 46.8022 9.4216C46.4555 10.0742 46.0885 10.7624 45.701 11.4864H50.6871C50.9318 11.4864 51.1561 11.5017 51.3601 11.5323C51.564 11.5527 51.7373 11.6036 51.8801 11.6852C52.033 11.7566 52.1503 11.8586 52.2319 11.9911C52.3134 12.1237 52.3542 12.3021 52.3542 12.5264C52.3542 12.6386 52.3338 12.7508 52.2931 12.8629C52.2625 12.9751 52.1962 13.077 52.0942 13.1688C52.0025 13.2606 51.8699 13.3371 51.6966 13.3982C51.5334 13.4594 51.3193 13.5002 51.0542 13.5206L44.6915 13.5665Z" fill="#36526C"/>
<path d="M74.8068 2.75307C74.8068 3.02838 74.7609 3.35976 74.6692 3.74723C74.5876 4.1347 74.4652 4.53747 74.3021 4.95552C74.1389 5.37358 73.9401 5.79164 73.7056 6.2097C73.4813 6.61756 73.2213 6.98973 72.9256 7.32622C72.6299 7.65251 72.3087 7.91761 71.962 8.12154C71.6153 8.32547 71.2431 8.42745 70.8455 8.42745C70.7537 8.42745 70.6313 8.42235 70.4784 8.41215C70.3356 8.39176 70.1878 8.35606 70.0348 8.30509C69.8921 8.24391 69.7646 8.15724 69.6525 8.04506C69.5505 7.9329 69.4995 7.78506 69.4995 7.60153C69.4995 7.47917 69.5301 7.33642 69.5913 7.17327C69.6627 7.01013 69.785 6.82149 69.9584 6.60736C70.1419 6.40343 70.3407 6.16381 70.5549 5.88851C70.769 5.603 70.9627 5.3073 71.1361 5.00141C71.3094 4.69551 71.4522 4.39471 71.5643 4.09901C71.6867 3.80331 71.7479 3.5382 71.7479 3.30368C71.7479 3.00798 71.6765 2.77346 71.5337 2.60012C71.4012 2.41658 71.1666 2.32482 70.8302 2.32482C70.3917 2.32482 69.8972 2.46757 69.3466 2.75307C68.796 3.03857 68.2198 3.43114 67.6183 3.93077C67.0167 4.4304 66.4049 5.0167 65.7829 5.68967C65.1609 6.35245 64.5593 7.06621 63.9781 7.83095C63.3969 8.58549 62.8463 9.37572 62.3263 10.2016C61.8164 11.0173 61.3678 11.828 60.9803 12.6335C60.603 13.4288 60.3022 14.1987 60.0779 14.943C59.8638 15.6772 59.7567 16.345 59.7567 16.9466C59.7567 17.691 59.9556 18.2875 60.3532 18.7361C60.7509 19.1848 61.4086 19.4091 62.3263 19.4091C62.7545 19.4091 63.3918 19.246 64.2381 18.9197C65.0844 18.5832 65.788 18.2518 66.3488 17.9255C66.9198 17.589 67.4908 17.2219 68.0618 16.8243C68.643 16.4164 69.1936 16.0289 69.7136 15.6619C70.2337 15.2846 70.7078 14.9481 71.1361 14.6524C71.5643 14.3465 71.9161 14.1324 72.1914 14.01C72.2424 13.9692 72.3036 13.9489 72.3749 13.9489C72.5279 13.9489 72.6299 14.0763 72.6808 14.3312C72.742 14.5759 72.7726 14.8563 72.7726 15.1724C72.7726 15.3458 72.7471 15.5599 72.6961 15.8148C72.6553 16.0595 72.5126 16.345 72.2679 16.6713C72.1557 16.8039 71.9467 17.0282 71.6408 17.3443C71.3349 17.6604 70.9525 18.0173 70.4937 18.4149C70.0348 18.8126 69.5097 19.2256 68.9183 19.6538C68.3269 20.0821 67.6845 20.4746 66.9912 20.8315C66.308 21.1884 65.4209 21.5402 64.3299 21.8869C63.249 22.2335 62.3059 22.4069 61.5003 22.4069C60.5521 22.4069 59.7414 22.2947 59.0685 22.0704C58.3955 21.8359 57.8449 21.5147 57.4166 21.1068C56.9884 20.699 56.6723 20.2146 56.4683 19.6538C56.2746 19.0828 56.1777 18.4608 56.1777 17.7878C56.1777 16.9517 56.3052 16.0544 56.5601 15.096C56.815 14.1375 57.1668 13.1637 57.6155 12.1747C58.0743 11.1856 58.6147 10.1965 59.2367 9.20748C59.8689 8.21842 60.5572 7.27524 61.3015 6.37794C62.056 5.47045 62.8565 4.62923 63.7028 3.8543C64.5491 3.07936 65.4158 2.40639 66.3029 1.83538C67.19 1.26438 68.0822 0.815723 68.9795 0.489434C69.8768 0.163144 70.7588 0 71.6255 0C72.0537 0 72.4616 0.0509827 72.8491 0.152948C73.2365 0.244717 73.573 0.397665 73.8585 0.611792C74.1542 0.825919 74.3837 1.11143 74.5468 1.46831C74.7201 1.81499 74.8068 2.24324 74.8068 2.75307Z" fill="#36526C"/>
<path d="M77.3154 13.643C76.8361 13.643 76.3722 13.7653 75.9235 14.01C75.4851 14.2446 75.0925 14.5606 74.7458 14.9583C74.4093 15.3458 74.1391 15.7893 73.9352 16.289C73.7313 16.7784 73.6293 17.2831 73.6293 17.8031C73.6293 17.9969 73.6446 18.211 73.6752 18.4455C73.7058 18.6698 73.767 18.884 73.8587 19.0879C73.9607 19.2816 74.1035 19.4448 74.287 19.5773C74.4705 19.7099 74.7152 19.7762 75.0211 19.7762C75.4902 19.7762 75.9439 19.6538 76.3824 19.4091C76.831 19.1542 77.2287 18.8279 77.5754 18.4302C77.9221 18.0224 78.1974 17.5635 78.4013 17.0537C78.6052 16.5439 78.7072 16.0289 78.7072 15.5089C78.7072 15.305 78.6919 15.096 78.6613 14.8818C78.6409 14.6575 78.5797 14.4536 78.4778 14.27C78.386 14.0865 78.2483 13.9387 78.0648 13.8265C77.8813 13.7041 77.6315 13.643 77.3154 13.643ZM78.1107 10.9511C78.4982 10.9511 78.9111 11.0021 79.3496 11.104C79.7982 11.206 80.2112 11.3793 80.5885 11.624C80.9657 11.8688 81.2767 12.195 81.5214 12.6029C81.7764 13.0006 81.9038 13.4951 81.9038 14.0865C81.9038 14.3924 81.863 14.7442 81.7814 15.1418C81.6999 15.5293 81.5775 15.9372 81.4144 16.3654C81.5163 16.4878 81.6336 16.5745 81.7662 16.6254C81.8987 16.6764 82.0415 16.7019 82.1944 16.7019C82.4085 16.7019 82.6431 16.6407 82.898 16.5184C83.1631 16.396 83.4333 16.238 83.7086 16.0442C83.9839 15.8505 84.2592 15.6313 84.5345 15.3866C84.8098 15.1418 85.0698 14.8971 85.3146 14.6524C85.5593 14.4077 85.7785 14.1783 85.9722 13.9641C86.1762 13.7398 86.3444 13.5512 86.477 13.3982C86.5483 13.3269 86.635 13.2912 86.737 13.2912C86.8797 13.2912 87.0072 13.3676 87.1193 13.5206C87.2315 13.6633 87.2876 13.8673 87.2876 14.1324C87.2876 14.3975 87.206 14.7034 87.0429 15.0501C86.8899 15.3968 86.5993 15.7587 86.1711 16.136C85.9263 16.4011 85.6459 16.707 85.3298 17.0537C85.0137 17.4004 84.6773 17.7267 84.3204 18.0326C83.9635 18.3385 83.5913 18.5985 83.2039 18.8126C82.8164 19.0267 82.4289 19.1338 82.0415 19.1338C81.7764 19.1338 81.5163 19.093 81.2614 19.0114C81.0167 18.9299 80.7669 18.7973 80.512 18.6138C80.1449 19.1848 79.7268 19.7048 79.2578 20.1738C78.7888 20.6429 78.2636 21.0456 77.6824 21.3821C77.1114 21.7186 76.4894 21.9786 75.8165 22.1622C75.1537 22.3559 74.445 22.4528 73.6905 22.4528C73.405 22.4528 73.0736 22.3967 72.6963 22.2845C72.3191 22.1724 71.9571 21.9888 71.6104 21.7339C71.2739 21.4688 70.9884 21.1272 70.7539 20.7092C70.5194 20.2911 70.4021 19.7813 70.4021 19.1797C70.4021 18.7718 70.4684 18.2824 70.6009 17.7114C70.7335 17.1404 70.9323 16.5541 71.1974 15.9525C71.4727 15.3407 71.8143 14.7391 72.2222 14.1477C72.6403 13.5461 73.1348 13.0108 73.7058 12.5417C74.2768 12.0625 74.9294 11.6801 75.6635 11.3946C76.3977 11.0989 77.2134 10.9511 78.1107 10.9511Z" fill="#36526C"/>
<path d="M90.2854 13.643C89.8061 13.643 89.3422 13.7653 88.8935 14.01C88.4551 14.2446 88.0625 14.5606 87.7158 14.9583C87.3793 15.3458 87.1091 15.7893 86.9052 16.289C86.7013 16.7784 86.5993 17.2831 86.5993 17.8031C86.5993 17.9969 86.6146 18.211 86.6452 18.4455C86.6758 18.6698 86.737 18.884 86.8287 19.0879C86.9307 19.2816 87.0735 19.4448 87.257 19.5773C87.4405 19.7099 87.6852 19.7762 87.9911 19.7762C88.4602 19.7762 88.9139 19.6538 89.3524 19.4091C89.801 19.1542 90.1987 18.8279 90.5454 18.4302C90.8921 18.0224 91.1674 17.5635 91.3713 17.0537C91.5752 16.5439 91.6772 16.0289 91.6772 15.5089C91.6772 15.305 91.6619 15.096 91.6313 14.8818C91.6109 14.6575 91.5497 14.4536 91.4478 14.27C91.356 14.0865 91.2183 13.9387 91.0348 13.8265C90.8513 13.7041 90.6015 13.643 90.2854 13.643ZM91.0807 10.9511C91.4682 10.9511 91.8811 11.0021 92.3196 11.104C92.7682 11.206 93.1812 11.3793 93.5584 11.624C93.9357 11.8688 94.2467 12.195 94.4914 12.6029C94.7463 13.0006 94.8738 13.4951 94.8738 14.0865C94.8738 14.3924 94.833 14.7442 94.7515 15.1418C94.6699 15.5293 94.5475 15.9372 94.3844 16.3654C94.4863 16.4878 94.6036 16.5745 94.7362 16.6254C94.8687 16.6764 95.0115 16.7019 95.1644 16.7019C95.3785 16.7019 95.6131 16.6407 95.868 16.5184C96.1331 16.396 96.4033 16.238 96.6786 16.0442C96.9539 15.8505 97.2292 15.6313 97.5045 15.3866C97.7798 15.1418 98.0398 14.8971 98.2845 14.6524C98.5293 14.4077 98.7485 14.1783 98.9422 13.9641C99.1462 13.7398 99.3144 13.5512 99.447 13.3982C99.5183 13.3269 99.605 13.2912 99.707 13.2912C99.8497 13.2912 99.9772 13.3676 100.089 13.5206C100.201 13.6633 100.257 13.8673 100.257 14.1324C100.257 14.3975 100.176 14.7034 100.013 15.0501C99.8599 15.3968 99.5693 15.7587 99.1411 16.136C98.8963 16.4011 98.6159 16.707 98.2998 17.0537C97.9838 17.4004 97.6473 17.7267 97.2904 18.0326C96.9335 18.3385 96.5613 18.5985 96.1739 18.8126C95.7864 19.0267 95.3989 19.1338 95.0115 19.1338C94.7463 19.1338 94.4863 19.093 94.2314 19.0114C93.9867 18.9299 93.7369 18.7973 93.482 18.6138C93.1149 19.1848 92.6968 19.7048 92.2278 20.1738C91.7588 20.6429 91.2336 21.0456 90.6524 21.3821C90.0814 21.7186 89.4594 21.9786 88.7865 22.1622C88.1237 22.3559 87.415 22.4528 86.6605 22.4528C86.375 22.4528 86.0436 22.3967 85.6663 22.2845C85.2891 22.1724 84.9271 21.9888 84.5804 21.7339C84.2439 21.4688 83.9584 21.1272 83.7239 20.7092C83.4894 20.2911 83.3721 19.7813 83.3721 19.1797C83.3721 18.7718 83.4384 18.2824 83.5709 17.7114C83.7035 17.1404 83.9023 16.5541 84.1674 15.9525C84.4427 15.3407 84.7843 14.7391 85.1922 14.1477C85.6103 13.5461 86.1048 13.0108 86.6758 12.5417C87.2468 12.0625 87.8994 11.6801 88.6335 11.3946C89.3677 11.0989 90.1834 10.9511 91.0807 10.9511Z" fill="#36526C"/>
<path d="M101.527 14.2395C101.914 13.8418 102.322 13.4492 102.751 13.0618C103.189 12.6641 103.643 12.3123 104.112 12.0064C104.591 11.6903 105.091 11.4354 105.611 11.2417C106.131 11.0479 106.676 10.9511 107.247 10.9511C107.584 10.9511 107.93 10.9919 108.287 11.0734C108.644 11.1448 108.965 11.2672 109.251 11.4405C109.547 11.6138 109.786 11.8382 109.97 12.1135C110.153 12.3888 110.245 12.7253 110.245 13.1229C110.245 13.7755 110.092 14.3669 109.786 14.8971C109.49 15.4274 109.103 15.9015 108.624 16.3195C108.145 16.7376 107.609 17.1098 107.018 17.4361C106.437 17.7522 105.866 18.0224 105.305 18.2467C105.162 18.3079 105.029 18.3894 104.907 18.4914C104.785 18.5832 104.678 18.6851 104.586 18.7973C104.504 18.8993 104.438 19.0063 104.387 19.1185C104.336 19.2205 104.311 19.3071 104.311 19.3785C104.311 19.5009 104.346 19.6079 104.418 19.6997C104.499 19.7813 104.637 19.8221 104.831 19.8221C105.208 19.8221 105.636 19.7456 106.115 19.5926C106.595 19.4397 107.15 19.2103 107.783 18.9044C108.425 18.5883 109.154 18.1906 109.97 17.7114C110.796 17.2321 111.744 16.6662 112.815 16.0137C112.988 15.9117 113.151 15.8607 113.304 15.8607C113.498 15.8607 113.651 15.9321 113.763 16.0748C113.875 16.2176 113.931 16.4062 113.931 16.6407C113.931 16.9262 113.824 17.2525 113.61 17.6196C113.406 17.9765 113.059 18.3181 112.57 18.6444C111.887 19.0624 111.188 19.4958 110.474 19.9444C109.761 20.3931 109.027 20.806 108.272 21.1833C107.517 21.5504 106.742 21.8512 105.947 22.0857C105.152 22.3304 104.336 22.4528 103.5 22.4528C102.052 22.4528 101.328 21.8257 101.328 20.5715C101.328 19.9087 101.466 19.3275 101.741 18.8279C102.027 18.3181 102.368 17.8745 102.766 17.4972C103.174 17.12 103.597 16.7988 104.035 16.5337C104.474 16.2584 104.851 16.0137 105.167 15.7995C105.412 15.6568 105.641 15.5038 105.855 15.3407C106.07 15.1775 106.258 15.0093 106.421 14.836C106.595 14.6626 106.727 14.4893 106.819 14.3159C106.921 14.1324 106.972 13.9489 106.972 13.7653C106.972 13.4696 106.834 13.3218 106.559 13.3218C105.539 13.3218 104.112 14.3057 102.276 16.2737C101.858 16.7223 101.476 17.1608 101.129 17.589C100.783 18.0071 100.456 18.42 100.15 18.8279C99.8547 19.2358 99.5692 19.6334 99.2939 20.0209C99.0186 20.3982 98.7484 20.7601 98.4833 21.1068C97.688 22.0041 96.9793 22.4528 96.3573 22.4528C96.0616 22.4528 95.8475 22.3967 95.7149 22.2845C95.5824 22.1826 95.5161 21.9837 95.5161 21.688C95.5161 21.6472 95.5161 21.6065 95.5161 21.5657C95.5161 21.5249 95.5212 21.479 95.5314 21.428C95.5518 21.2241 95.6385 20.9131 95.7914 20.495C95.9443 20.077 96.133 19.6028 96.3573 19.0726C96.5918 18.5424 96.8467 17.9765 97.122 17.3749C97.4075 16.7733 97.688 16.187 97.9633 15.616C98.2386 15.0348 98.4986 14.4944 98.7433 13.9947C98.988 13.4849 99.1919 13.0618 99.3551 12.7253L104.188 2.86014C104.249 2.72759 104.341 2.60013 104.464 2.47777C104.596 2.35542 104.739 2.24835 104.892 2.15658C105.055 2.05462 105.223 1.97814 105.397 1.92716C105.58 1.86598 105.764 1.83539 105.947 1.83539C106.406 1.83539 106.722 1.92206 106.895 2.0954C107.079 2.26874 107.171 2.47777 107.171 2.72249C107.171 2.94681 107.115 3.18134 107.002 3.42605C106.901 3.67077 106.778 3.90019 106.635 4.11432C106.207 4.87906 105.779 5.69478 105.351 6.56149C104.933 7.418 104.515 8.2898 104.096 9.1769C103.678 10.064 103.255 10.9409 102.827 11.8076C102.399 12.6641 101.965 13.4747 101.527 14.2395Z" fill="#36526C"/>
</g>
<defs>
<clipPath id="clip0_1_6180">
<rect width="114" height="23" fill="white"/>
</clipPath>
</defs>
</svg>
