<svg width="123" height="27" viewBox="0 0 123 27" fill="none" xmlns="http://www.w3.org/2000/svg">
<g clip-path="url(#clip0_1_6168)">
<path d="M38.038 8.38812H47.8555V3.80872H38.038V8.38812ZM38.038 16.951H47.5418V12.6852H38.038V16.951ZM34.5564 3.80872V25.7647H39.6376V3.80872H34.5564Z" fill="#36526C"/>
<path d="M56.2218 14.7867C56.2218 13.8039 56.3682 12.9152 56.6609 12.1206C56.9537 11.326 57.3719 10.636 57.9155 10.0505C58.4801 9.46502 59.1388 9.00499 59.8916 8.67042C60.6653 8.33586 61.5226 8.16857 62.4636 8.16857C63.4045 8.16857 64.2514 8.33586 65.0042 8.67042C65.7779 9.00499 66.4366 9.46502 66.9802 10.0505C67.5239 10.636 67.9317 11.3365 68.2035 12.152C68.4753 12.9466 68.6113 13.8248 68.6113 14.7867C68.6113 15.7486 68.4649 16.6373 68.1721 17.4528C67.8794 18.2474 67.4612 18.9375 66.9175 19.523C66.3738 20.1084 65.7256 20.5685 64.9728 20.903C64.2201 21.2376 63.3836 21.4049 62.4636 21.4049C61.5226 21.4049 60.6653 21.2376 59.8916 20.903C59.1388 20.5685 58.4801 20.1084 57.9155 19.523C57.3719 18.9375 56.9537 18.237 56.6609 17.4215C56.3682 16.6059 56.2218 15.7277 56.2218 14.7867ZM50.6387 14.7867C50.6387 16.4805 50.921 18.0383 51.4856 19.4602C52.0501 20.8821 52.8657 22.1159 53.9321 23.1614C54.9985 24.2069 56.2532 25.0224 57.696 25.6079C59.1388 26.1725 60.728 26.4548 62.4636 26.4548C64.1782 26.4548 65.7465 26.1725 67.1684 25.6079C68.6113 25.0224 69.8659 24.2069 70.9323 23.1614C71.9988 22.1159 72.8247 20.8821 73.4102 19.4602C73.9957 18.0383 74.2885 16.4805 74.2885 14.7867C74.2885 13.093 73.9853 11.5456 73.3788 10.1446C72.7724 8.7227 71.936 7.49943 70.8696 6.47482C69.8241 5.4502 68.5799 4.66606 67.1371 4.12239C65.7152 3.57872 64.1573 3.30688 62.4636 3.30688C60.7698 3.30688 59.2015 3.57872 57.7587 4.12239C56.3159 4.66606 55.0613 5.4502 53.9948 6.47482C52.9284 7.49943 52.1024 8.7227 51.5169 10.1446C50.9314 11.5456 50.6387 13.093 50.6387 14.7867Z" fill="#36526C"/>
<path d="M81.982 14.7867C81.982 13.8039 82.1284 12.9152 82.4211 12.1206C82.7139 11.326 83.1321 10.636 83.6758 10.0505C84.2404 9.46502 84.899 9.00499 85.6518 8.67042C86.4255 8.33586 87.2828 8.16857 88.2238 8.16857C89.1648 8.16857 90.0117 8.33586 90.7644 8.67042C91.5381 9.00499 92.1968 9.46502 92.7405 10.0505C93.2841 10.636 93.6919 11.3365 93.9637 12.152C94.2356 12.9466 94.3715 13.8248 94.3715 14.7867C94.3715 15.7486 94.2251 16.6373 93.9324 17.4528C93.6396 18.2474 93.2214 18.9375 92.6777 19.523C92.1341 20.1084 91.4858 20.5685 90.7331 20.903C89.9803 21.2376 89.1439 21.4049 88.2238 21.4049C87.2828 21.4049 86.4255 21.2376 85.6518 20.903C84.899 20.5685 84.2404 20.1084 83.6758 19.523C83.1321 18.9375 82.7139 18.237 82.4211 17.4215C82.1284 16.6059 81.982 15.7277 81.982 14.7867ZM76.3989 14.7867C76.3989 16.4805 76.6812 18.0383 77.2458 19.4602C77.8104 20.8821 78.6259 22.1159 79.6923 23.1614C80.7588 24.2069 82.0134 25.0224 83.4562 25.6079C84.899 26.1725 86.4882 26.4548 88.2238 26.4548C89.9385 26.4548 91.5068 26.1725 92.9287 25.6079C94.3715 25.0224 95.6261 24.2069 96.6926 23.1614C97.759 22.1159 98.585 20.8821 99.1704 19.4602C99.7559 18.0383 100.049 16.4805 100.049 14.7867C100.049 13.093 99.7455 11.5456 99.1391 10.1446C98.5327 8.7227 97.6963 7.49943 96.6298 6.47482C95.5843 5.4502 94.3401 4.66606 92.8973 4.12239C91.4754 3.57872 89.9176 3.30688 88.2238 3.30688C86.5301 3.30688 84.9618 3.57872 83.5189 4.12239C82.0761 4.66606 80.8215 5.4502 79.7551 6.47482C78.6886 7.49943 77.8627 8.7227 77.2772 10.1446C76.6917 11.5456 76.3989 13.093 76.3989 14.7867Z" fill="#36526C"/>
<path d="M103.414 3.80872V25.7647H108.903V3.80872H103.414ZM111.224 25.7647C113.022 25.7647 114.643 25.5138 116.086 25.012C117.529 24.4892 118.762 23.7573 119.787 22.8164C120.832 21.8545 121.627 20.7044 122.171 19.3661C122.714 18.0069 122.986 16.4805 122.986 14.7867C122.986 13.093 122.714 11.577 122.171 10.2387C121.627 8.87952 120.832 7.72944 119.787 6.78847C118.762 5.82658 117.529 5.09472 116.086 4.59286C114.643 4.0701 113.022 3.80872 111.224 3.80872H106.896V8.54495H111.067C111.904 8.54495 112.709 8.6495 113.482 8.8586C114.256 9.06771 114.936 9.41273 115.521 9.89367C116.128 10.3746 116.609 11.0228 116.964 11.8383C117.319 12.6329 117.497 13.6157 117.497 14.7867C117.497 15.9577 117.319 16.951 116.964 17.7665C116.609 18.5611 116.128 19.1988 115.521 19.6798C114.936 20.1607 114.256 20.5057 113.482 20.7149C112.709 20.924 111.904 21.0285 111.067 21.0285H106.896V25.7647H111.224Z" fill="#36526C"/>
<mask id="mask0_1_6168" style="mask-type:luminance" maskUnits="userSpaceOnUse" x="0" y="0" width="26" height="26">
<path d="M25.7647 0H0V25.7647H25.7647V0Z" fill="white"/>
</mask>
<g mask="url(#mask0_1_6168)">
<path d="M16.5326 10.0482V9.5651C16.5546 8.11773 16.0423 6.71304 15.0936 5.61975C14.1449 4.52645 12.8264 3.82131 11.3904 3.63922C10.5984 3.56294 9.79912 3.65299 9.04395 3.90361C8.28878 4.15423 7.59431 4.55988 7.00505 5.09455C6.4158 5.62922 5.94477 6.28112 5.62216 7.00846C5.29955 7.73579 5.13248 8.52252 5.13166 9.31819C5.13373 10.8922 4.53024 12.4067 3.44622 13.5479C2.80278 14.2165 2.31663 15.0203 2.0232 15.9006C1.72977 16.7809 1.63645 17.7155 1.75004 18.6365C1.97354 20.1802 2.74964 21.5904 3.93424 22.6052C5.11884 23.62 6.63145 24.1705 8.19122 24.1544H12.786C16.6292 24.1544 19.5063 21.8356 19.882 18.6365C20.0006 17.6748 19.8936 16.6988 19.5693 15.7857C19.2451 14.8726 18.7126 14.0476 18.0141 13.3762C17.5553 12.9502 17.1875 12.4357 16.9329 11.8638C16.6783 11.2918 16.5421 10.6742 16.5326 10.0482Z" stroke="#36526C" stroke-width="2.05044" stroke-miterlimit="10"/>
<path d="M10.8318 0.536743V3.61777" stroke="#36526C" stroke-width="2.05044" stroke-miterlimit="10"/>
<path d="M10.8318 3.6178H13.9558C15.3036 3.6178 16.6381 3.88326 17.8833 4.39902C19.1284 4.91478 20.2598 5.67074 21.2128 6.62374C22.1658 7.57675 22.9218 8.70813 23.4375 9.95328C23.9533 11.1984 24.2187 12.533 24.2187 13.8807H21.0948C20.0791 13.8855 19.0688 13.7334 18.0996 13.4299" stroke="#36526C" stroke-width="2.05044" stroke-miterlimit="10"/>
</g>
</g>
<defs>
<clipPath id="clip0_1_6168">
<rect width="123" height="27" fill="white"/>
</clipPath>
</defs>
</svg>
