<svg width="111" height="21" viewBox="0 0 111 21" fill="none" xmlns="http://www.w3.org/2000/svg">
<g clip-path="url(#clip0_1_6242)">
<path d="M3.71755 5.64814H0V0.473145H14.0844V5.64814H10.3668V20.1973H3.71755V5.64814ZM7.4351 17.8316V3.54857H11.7571V2.83886H2.32725V3.54857H6.64927V17.8316H7.4351Z" fill="#36526C"/>
<path d="M13.7683 10.35C13.7683 8.93057 14.0403 7.59 14.5844 6.32829C15.1486 5.06657 15.9042 3.97243 16.8512 3.04586C17.8183 2.09957 18.9467 1.36029 20.2363 0.827999C21.5258 0.275999 22.896 0 24.3467 0C25.7975 0 27.1676 0.275999 28.4572 0.827999C29.7467 1.36029 30.865 2.09957 31.812 3.04586C32.7792 3.97243 33.5348 5.06657 34.0788 6.32829C34.643 7.59 34.9251 8.93057 34.9251 10.35C34.9251 11.7694 34.643 13.11 34.0788 14.3717C33.5348 15.6334 32.7792 16.7374 31.812 17.6837C30.865 18.6103 29.7467 19.3496 28.4572 19.9016C27.1676 20.4339 25.7975 20.7 24.3467 20.7C22.896 20.7 21.5258 20.4339 20.2363 19.9016C18.9467 19.3496 17.8183 18.6103 16.8512 17.6837C15.9042 16.7374 15.1486 15.6334 14.5844 14.3717C14.0403 13.11 13.7683 11.7694 13.7683 10.35ZM16.6094 10.35C16.6094 11.3949 16.8109 12.3806 17.2139 13.3071C17.6169 14.214 18.171 15.0124 18.8762 15.7024C19.5814 16.3924 20.3975 16.9346 21.3243 17.3289C22.2713 17.7231 23.2788 17.9203 24.3467 17.9203C25.4146 17.9203 26.412 17.7231 27.3389 17.3289C28.2859 16.9346 29.112 16.3924 29.8173 15.7024C30.5225 15.0124 31.0766 14.214 31.4796 13.3071C31.8826 12.3806 32.0841 11.3949 32.0841 10.35C32.0841 9.30514 31.8826 8.32929 31.4796 7.42243C31.0766 6.49586 30.5225 5.68757 29.8173 4.99757C29.112 4.30757 28.2859 3.76543 27.3389 3.37114C26.412 2.97686 25.4146 2.77971 24.3467 2.77971C23.2788 2.77971 22.2713 2.97686 21.3243 3.37114C20.3975 3.76543 19.5814 4.30757 18.8762 4.99757C18.171 5.68757 17.6169 6.49586 17.2139 7.42243C16.8109 8.32929 16.6094 9.30514 16.6094 10.35ZM20.1154 10.35C20.1154 10.9217 20.2262 11.4639 20.4478 11.9764C20.6695 12.4693 20.9717 12.903 21.3546 13.2776C21.7374 13.6521 22.1807 13.9479 22.6844 14.1647C23.2083 14.3816 23.7624 14.49 24.3467 14.49C24.9311 14.49 25.4751 14.3816 25.9788 14.1647C26.5027 13.9479 26.9561 13.6521 27.3389 13.2776C27.7217 12.903 28.024 12.4693 28.2456 11.9764C28.4673 11.4639 28.5781 10.9217 28.5781 10.35C28.5781 9.77829 28.4673 9.246 28.2456 8.75314C28.024 8.24057 27.7217 7.797 27.3389 7.42243C26.9561 7.04786 26.5027 6.75214 25.9788 6.53529C25.4751 6.31843 24.9311 6.21 24.3467 6.21C23.7624 6.21 23.2083 6.31843 22.6844 6.53529C22.1807 6.75214 21.7374 7.04786 21.3546 7.42243C20.9717 7.797 20.6695 8.24057 20.4478 8.75314C20.2262 9.246 20.1154 9.77829 20.1154 10.35ZM24.3467 17.1514C23.3796 17.1514 22.4728 16.974 21.6266 16.6191C20.8004 16.2643 20.065 15.7813 19.4202 15.1701C18.7956 14.5393 18.3019 13.8197 17.9392 13.0114C17.5766 12.1834 17.3952 11.2963 17.3952 10.35C17.3952 9.40372 17.5766 8.52643 17.9392 7.71814C18.3019 6.89014 18.7956 6.17057 19.4202 5.55943C20.065 4.92857 20.8004 4.43571 21.6266 4.08086C22.4728 3.726 23.3796 3.54857 24.3467 3.54857C25.3139 3.54857 26.2105 3.726 27.0367 4.08086C27.8829 4.43571 28.6184 4.92857 29.243 5.55943C29.8878 6.17057 30.3915 6.89014 30.7542 7.71814C31.1169 8.52643 31.2982 9.40372 31.2982 10.35C31.2982 11.2963 31.1169 12.1834 30.7542 13.0114C30.3915 13.8197 29.8878 14.5393 29.243 15.1701C28.6184 15.7813 27.8829 16.2643 27.0367 16.6191C26.2105 16.974 25.3139 17.1514 24.3467 17.1514Z" fill="#36526C"/>
<path d="M52.2807 7.98429C52.2807 9.34457 52.039 10.5077 51.5554 11.4737C51.0718 12.42 50.4069 13.1889 49.5606 13.7803C48.7345 14.3717 47.7572 14.8054 46.6289 15.0814C45.5207 15.3574 44.3218 15.4954 43.0322 15.4954V20.1973H36.5945V0.473145H43.0322C44.3218 0.473145 45.5207 0.611145 46.6289 0.887145C47.7572 1.16314 48.7345 1.59686 49.5606 2.18829C50.4069 2.77971 51.0718 3.55843 51.5554 4.52443C52.039 5.47071 52.2807 6.624 52.2807 7.98429ZM49.349 7.98429C49.349 7.09714 49.1878 6.32828 48.8654 5.67771C48.5632 5.02714 48.13 4.49486 47.5658 4.08086C47.0016 3.66686 46.3266 3.36128 45.5408 3.16414C44.7751 2.94729 43.9389 2.83886 43.0322 2.83886H39.6169V17.8316H40.4027V13.1297H43.0322C43.9389 13.1297 44.7751 13.0311 45.5408 12.834C46.3266 12.6171 47.0016 12.3017 47.5658 11.8877C48.13 11.4737 48.5632 10.9414 48.8654 10.2909C49.1878 9.64028 49.349 8.87143 49.349 7.98429ZM48.5028 7.98429C48.5028 8.832 48.3516 9.54171 48.0494 10.1134C47.7472 10.6851 47.3442 11.1386 46.8404 11.4737C46.3367 11.8089 45.7524 12.0553 45.0874 12.213C44.4427 12.351 43.7576 12.42 43.0322 12.42H40.4027V3.54857H43.0322C43.7576 3.54857 44.4427 3.62743 45.0874 3.78514C45.7524 3.92314 46.3367 4.15971 46.8404 4.49486C47.3442 4.83 47.7472 5.28343 48.0494 5.85514C48.3516 6.42686 48.5028 7.13657 48.5028 7.98429ZM43.0322 10.1726H43.3042C44.1505 10.1726 44.755 9.98529 45.1177 9.61071C45.5005 9.21643 45.6919 8.67429 45.6919 7.98429C45.6919 7.29429 45.5005 6.762 45.1177 6.38743C44.755 5.99314 44.1505 5.796 43.3042 5.796H43.0322V10.1726Z" fill="#36526C"/>
<path d="M53.3489 10.35C53.3489 8.93057 53.621 7.59 54.165 6.32829C54.7292 5.06657 55.4848 3.97243 56.4318 3.04586C57.399 2.09957 58.5273 1.36029 59.8169 0.827999C61.1064 0.275999 62.4766 0 63.9273 0C65.3781 0 66.7482 0.275999 68.0378 0.827999C69.3273 1.36029 70.4456 2.09957 71.3926 3.04586C72.3598 3.97243 73.1154 5.06657 73.6594 6.32829C74.2236 7.59 74.5057 8.93057 74.5057 10.35C74.5057 11.7694 74.2236 13.11 73.6594 14.3717C73.1154 15.6334 72.3598 16.7374 71.3926 17.6837C70.4456 18.6103 69.3273 19.3496 68.0378 19.9016C66.7482 20.4339 65.3781 20.7 63.9273 20.7C62.4766 20.7 61.1064 20.4339 59.8169 19.9016C58.5273 19.3496 57.399 18.6103 56.4318 17.6837C55.4848 16.7374 54.7292 15.6334 54.165 14.3717C53.621 13.11 53.3489 11.7694 53.3489 10.35ZM56.19 10.35C56.19 11.3949 56.3915 12.3806 56.7945 13.3071C57.1975 14.214 57.7516 15.0124 58.4568 15.7024C59.162 16.3924 59.9781 16.9346 60.9049 17.3289C61.852 17.7231 62.8594 17.9203 63.9273 17.9203C64.9952 17.9203 65.9926 17.7231 66.9195 17.3289C67.8665 16.9346 68.6926 16.3924 69.3979 15.7024C70.1031 15.0124 70.6572 14.214 71.0602 13.3071C71.4632 12.3806 71.6647 11.3949 71.6647 10.35C71.6647 9.30514 71.4632 8.32929 71.0602 7.42243C70.6572 6.49586 70.1031 5.68757 69.3979 4.99757C68.6926 4.30757 67.8665 3.76543 66.9195 3.37114C65.9926 2.97686 64.9952 2.77971 63.9273 2.77971C62.8594 2.77971 61.852 2.97686 60.9049 3.37114C59.9781 3.76543 59.162 4.30757 58.4568 4.99757C57.7516 5.68757 57.1975 6.49586 56.7945 7.42243C56.3915 8.32929 56.19 9.30514 56.19 10.35ZM59.696 10.35C59.696 10.9217 59.8068 11.4639 60.0284 11.9764C60.2501 12.4693 60.5523 12.903 60.9352 13.2776C61.318 13.6521 61.7613 13.9479 62.265 14.1647C62.7889 14.3816 63.343 14.49 63.9273 14.49C64.5117 14.49 65.0557 14.3816 65.5594 14.1647C66.0833 13.9479 66.5367 13.6521 66.9195 13.2776C67.3023 12.903 67.6046 12.4693 67.8262 11.9764C68.0479 11.4639 68.1587 10.9217 68.1587 10.35C68.1587 9.77829 68.0479 9.246 67.8262 8.75314C67.6046 8.24057 67.3023 7.797 66.9195 7.42243C66.5367 7.04786 66.0833 6.75214 65.5594 6.53529C65.0557 6.31843 64.5117 6.21 63.9273 6.21C63.343 6.21 62.7889 6.31843 62.265 6.53529C61.7613 6.75214 61.318 7.04786 60.9352 7.42243C60.5523 7.797 60.2501 8.24057 60.0284 8.75314C59.8068 9.246 59.696 9.77829 59.696 10.35ZM63.9273 17.1514C62.9602 17.1514 62.0534 16.974 61.2072 16.6191C60.3811 16.2643 59.6456 15.7813 59.0008 15.1701C58.3762 14.5393 57.8825 13.8197 57.5198 13.0114C57.1572 12.1834 56.9758 11.2963 56.9758 10.35C56.9758 9.40372 57.1572 8.52643 57.5198 7.71814C57.8825 6.89014 58.3762 6.17057 59.0008 5.55943C59.6456 4.92857 60.3811 4.43571 61.2072 4.08086C62.0534 3.726 62.9602 3.54857 63.9273 3.54857C64.8945 3.54857 65.7911 3.726 66.6173 4.08086C67.4635 4.43571 68.199 4.92857 68.8236 5.55943C69.4684 6.17057 69.9721 6.89014 70.3348 7.71814C70.6975 8.52643 70.8788 9.40372 70.8788 10.35C70.8788 11.2963 70.6975 12.1834 70.3348 13.0114C69.9721 13.8197 69.4684 14.5393 68.8236 15.1701C68.199 15.7813 67.4635 16.2643 66.6173 16.6191C65.7911 16.974 64.8945 17.1514 63.9273 17.1514Z" fill="#36526C"/>
<path d="M76.175 0.473145H82.8847V15.0223H88.446V20.1973H76.175V0.473145ZM86.7534 17.8316V17.1219H79.9832V2.83886H79.1974V17.8316H86.7534Z" fill="#36526C"/>
<path d="M89.5161 0.473145H96.3467V20.1973H89.5161V0.473145ZM93.3243 17.8316V2.83886H92.5385V17.8316H93.3243Z" fill="#36526C"/>
<path d="M100.454 17.6246C100.736 17.6837 101.038 17.733 101.361 17.7724C101.643 17.8119 101.935 17.8513 102.237 17.8907C102.56 17.9104 102.882 17.9203 103.204 17.9203C103.769 17.9203 104.313 17.8611 104.837 17.7429C105.381 17.6049 105.864 17.388 106.287 17.0923C106.71 16.7966 107.043 16.422 107.285 15.9686C107.547 15.4954 107.678 14.9237 107.678 14.2534C107.678 13.6817 107.526 13.1396 107.224 12.627C106.942 12.1144 106.569 11.6216 106.106 11.1484C105.663 10.6753 105.179 10.2219 104.655 9.78814C104.151 9.35443 103.668 8.92071 103.204 8.487C102.761 8.03357 102.388 7.59 102.086 7.15629C101.804 6.70286 101.663 6.23957 101.663 5.76643C101.663 5.05671 101.895 4.51457 102.358 4.14C102.822 3.74571 103.567 3.54857 104.595 3.54857C104.756 3.54857 104.917 3.55843 105.078 3.57814C105.26 3.57814 105.431 3.588 105.592 3.60771C105.753 3.62743 105.915 3.63729 106.076 3.63729V2.86843C105.935 2.86843 105.784 2.85857 105.622 2.83886C105.481 2.81914 105.32 2.80929 105.139 2.80929C104.978 2.78957 104.806 2.77971 104.625 2.77971C103.537 2.77971 102.64 3.02614 101.935 3.519C101.23 3.99214 100.877 4.74128 100.877 5.76643C100.877 6.31843 101.018 6.84086 101.3 7.33371C101.603 7.80686 101.975 8.28 102.419 8.75314C102.882 9.20657 103.366 9.65014 103.869 10.0839C104.393 10.5176 104.877 10.9611 105.32 11.4146C105.784 11.8483 106.156 12.3017 106.438 12.7749C106.741 13.248 106.892 13.7409 106.892 14.2534C106.892 15.1997 106.559 15.9193 105.894 16.4121C105.25 16.905 104.353 17.1514 103.204 17.1514C102.519 17.1514 101.895 17.1021 101.331 17.0036C101.028 16.9641 100.736 16.9149 100.454 16.8557V17.6246ZM97.9152 14.076C98.3584 14.214 98.8219 14.3224 99.3055 14.4013C99.7084 14.4999 100.162 14.5787 100.666 14.6379C101.19 14.697 101.713 14.7266 102.237 14.7266C103.164 14.7266 103.628 14.3914 103.628 13.7211C103.628 13.4649 103.487 13.2086 103.204 12.9523C102.922 12.6763 102.56 12.3806 102.116 12.0651C101.693 11.73 101.23 11.3653 100.726 10.971C100.243 10.5767 99.779 10.1233 99.3357 9.61071C98.9126 9.09814 98.5599 8.52643 98.2778 7.89557C97.9958 7.245 97.8547 6.50571 97.8547 5.67771C97.8547 4.75114 98.026 3.933 98.3685 3.22329C98.7111 2.51357 99.1846 1.92214 99.789 1.449C100.394 0.975857 101.099 0.621 101.905 0.384429C102.731 0.128143 103.607 0 104.534 0C105.018 0 105.501 0.0295716 105.985 0.0887149C106.469 0.128143 106.902 0.167571 107.285 0.206999C107.728 0.266142 108.161 0.325286 108.584 0.384429V5.91429C108.423 5.89457 108.242 5.87486 108.04 5.85514C107.879 5.83543 107.698 5.81571 107.496 5.796C107.295 5.77629 107.083 5.76643 106.862 5.76643C106.741 5.76643 106.59 5.77629 106.408 5.796C106.227 5.796 106.056 5.81571 105.894 5.85514C105.733 5.89457 105.592 5.96357 105.471 6.06214C105.35 6.16071 105.29 6.29871 105.29 6.47614C105.29 6.63386 105.421 6.831 105.683 7.06757C105.965 7.30414 106.297 7.58014 106.68 7.89557C107.083 8.211 107.516 8.57572 107.98 8.98972C108.463 9.40372 108.897 9.87686 109.279 10.4091C109.682 10.9414 110.015 11.5427 110.277 12.213C110.559 12.8833 110.7 13.6324 110.7 14.4604C110.7 15.3279 110.559 16.146 110.277 16.9149C109.995 17.664 109.551 18.3244 108.947 18.8961C108.363 19.4481 107.607 19.8819 106.68 20.1973C105.753 20.5324 104.655 20.7 103.386 20.7C102.62 20.7 101.905 20.6606 101.24 20.5817C100.595 20.5226 100.021 20.4437 99.517 20.3451C98.9327 20.2466 98.3987 20.1283 97.9152 19.9903V14.076Z" fill="#36526C"/>
</g>
<defs>
<clipPath id="clip0_1_6242">
<rect width="111" height="21" fill="white"/>
</clipPath>
</defs>
</svg>
