<svg width="102" height="33" viewBox="0 0 102 33" fill="none" xmlns="http://www.w3.org/2000/svg">
<path d="M7.02006 27.0163C5.42108 27.0163 4.16346 26.7019 3.24719 26.073C2.34889 25.4442 1.72008 24.5908 1.36076 23.5129C1.00144 22.417 0.821777 21.1593 0.821777 19.74V11.9517C0.821777 10.4606 1.00144 9.16702 1.36076 8.0711C1.72008 6.97517 2.34889 6.13076 3.24719 5.53788C4.16346 4.945 5.42108 4.64856 7.02006 4.64856C8.52921 4.64856 9.70598 4.90907 10.5504 5.43009C11.4128 5.93314 12.0236 6.66076 12.3829 7.61296C12.7422 8.56516 12.9219 9.67007 12.9219 10.9277V12.7602H9.09514V10.8738C9.09514 10.2629 9.05921 9.70601 8.98734 9.20296C8.93344 8.69991 8.76277 8.30465 8.47531 8.0172C8.20582 7.71178 7.72972 7.55906 7.04701 7.55906C6.3643 7.55906 5.86125 7.72076 5.53786 8.04415C5.23244 8.34957 5.03481 8.77177 4.94498 9.31075C4.85515 9.83177 4.81024 10.4246 4.81024 11.0894V20.5754C4.81024 21.3659 4.87312 22.0217 4.99888 22.5427C5.12464 23.0458 5.34922 23.432 5.67261 23.7015C6.01396 23.9531 6.4721 24.0788 7.04701 24.0788C7.71175 24.0788 8.17887 23.9261 8.44836 23.6207C8.73582 23.2973 8.91548 22.8751 8.98734 22.3541C9.05921 21.8331 9.09514 21.2492 9.09514 20.6024V18.6351H12.9219V20.3868C12.9219 21.6804 12.7512 22.8302 12.4099 23.8363C12.0685 24.8244 11.4667 25.6059 10.6043 26.1808C9.75988 26.7378 8.56514 27.0163 7.02006 27.0163Z" fill="#36526C"/>
<path d="M21.6277 27.0163C20.0826 27.0163 18.8519 26.7288 17.9357 26.1539C17.0194 25.579 16.3637 24.7525 15.9684 23.6746C15.5731 22.5966 15.3755 21.321 15.3755 19.8478V11.6823C15.3755 10.209 15.5731 8.95143 15.9684 7.9094C16.3637 6.84941 17.0194 6.04093 17.9357 5.48399C18.8519 4.92704 20.0826 4.64856 21.6277 4.64856C23.2087 4.64856 24.4484 4.92704 25.3467 5.48399C26.2629 6.04093 26.9187 6.84941 27.314 7.9094C27.7272 8.95143 27.9338 10.209 27.9338 11.6823V19.8748C27.9338 21.33 27.7272 22.5966 27.314 23.6746C26.9187 24.7346 26.2629 25.561 25.3467 26.1539C24.4484 26.7288 23.2087 27.0163 21.6277 27.0163ZM21.6277 24.0788C22.2924 24.0788 22.7775 23.9351 23.083 23.6476C23.4063 23.3602 23.6219 22.9649 23.7297 22.4619C23.8375 21.9588 23.8914 21.4109 23.8914 20.818V10.766C23.8914 10.1551 23.8375 9.60719 23.7297 9.12211C23.6219 8.63703 23.4063 8.25974 23.083 7.99025C22.7775 7.70279 22.2924 7.55906 21.6277 7.55906C20.9989 7.55906 20.5228 7.70279 20.1994 7.99025C19.876 8.25974 19.6604 8.63703 19.5526 9.12211C19.4448 9.60719 19.3909 10.1551 19.3909 10.766V20.818C19.3909 21.4109 19.4358 21.9588 19.5257 22.4619C19.6335 22.9649 19.8491 23.3602 20.1725 23.6476C20.4958 23.9351 20.9809 24.0788 21.6277 24.0788Z" fill="#36526C"/>
<path d="M30.8838 26.7198V4.89111H34.8722V23.971H40.1542V26.7198H30.8838Z" fill="#36526C"/>
<path d="M41.1216 26.7198L45.4873 4.89111H49.7453L54.111 26.7198H50.419L49.5566 21.6804H45.7568L44.8675 26.7198H41.1216ZM46.1611 19.1471H49.1254L47.6433 9.98448L46.1611 19.1471Z" fill="#36526C"/>
<path d="M61.6987 27.0163C60.3871 27.0163 59.2912 26.7647 58.4109 26.2617C57.5305 25.7407 56.8658 24.9861 56.4166 23.998C55.9675 23.0098 55.716 21.7971 55.6621 20.3598L59.0846 19.6861C59.1205 20.5305 59.2193 21.2761 59.381 21.9229C59.5607 22.5697 59.8212 23.0727 60.1626 23.432C60.5219 23.7734 60.989 23.9441 61.5639 23.9441C62.2107 23.9441 62.6688 23.7554 62.9383 23.3781C63.2078 22.9829 63.3425 22.4888 63.3425 21.8959C63.3425 20.9437 63.127 20.1622 62.6958 19.5514C62.2646 18.9405 61.6897 18.3297 60.971 17.7188L58.2222 15.2934C57.4497 14.6287 56.8299 13.8921 56.3627 13.0836C55.9136 12.2572 55.689 11.2421 55.689 10.0384C55.689 8.31364 56.1921 6.98415 57.1982 6.04992C58.2043 5.11568 59.5787 4.64856 61.3214 4.64856C62.3454 4.64856 63.1988 4.81026 63.8815 5.13365C64.5642 5.43907 65.1032 5.87026 65.4985 6.4272C65.9117 6.98415 66.2171 7.62194 66.4147 8.34059C66.6124 9.04126 66.7381 9.78685 66.792 10.5773L63.3964 11.1702C63.3605 10.4875 63.2797 9.87668 63.1539 9.3377C63.0461 8.79872 62.8395 8.37652 62.5341 8.0711C62.2466 7.76567 61.8154 7.61296 61.2405 7.61296C60.6476 7.61296 60.1895 7.81059 59.8661 8.20584C59.5607 8.58313 59.408 9.05923 59.408 9.63414C59.408 10.3707 59.5607 10.9816 59.8661 11.4667C60.1715 11.9338 60.6117 12.4189 61.1866 12.9219L63.9085 15.3204C64.8068 16.0749 65.5703 16.9643 66.1991 17.9883C66.8459 18.9944 67.1693 20.2161 67.1693 21.6534C67.1693 22.6954 66.9358 23.6207 66.4686 24.4292C66.0195 25.2376 65.3817 25.8754 64.5553 26.3425C63.7468 26.7917 62.7946 27.0163 61.6987 27.0163Z" fill="#36526C"/>
<mask id="mask0_1_6137" style="mask-type:luminance" maskUnits="userSpaceOnUse" x="70" y="0" width="32" height="33">
<path d="M101.782 0.733276H70.502V32.0135H101.782V0.733276Z" fill="white"/>
</mask>
<g mask="url(#mask0_1_6137)">
<path d="M86.1421 5.17761L72.457 16.3733V21.352H99.8272V16.3733L86.1421 5.17761Z" stroke="#36526C" stroke-width="2.88092" stroke-miterlimit="10"/>
<path d="M84.4347 26.3309H72.457V21.3521H77.5922H94.705H99.8272V26.3309H87.8625" stroke="#36526C" stroke-width="2.88092" stroke-miterlimit="10"/>
<path d="M72.457 16.3733H99.8272" stroke="#36526C" stroke-width="2.88092" stroke-miterlimit="10"/>
<path d="M77.5918 21.3521L84.4344 26.3309L86.1417 27.569L87.8622 26.3309L94.7047 21.3521" stroke="#36526C" stroke-width="2.88092" stroke-miterlimit="10"/>
</g>
</svg>
