<svg width="139" height="22" viewBox="0 0 139 22" fill="none" xmlns="http://www.w3.org/2000/svg">
<g clip-path="url(#clip0_1_6221)">
<mask id="mask0_1_6221" style="mask-type:luminance" maskUnits="userSpaceOnUse" x="0" y="0" width="20" height="20">
<path d="M19.1595 0.433655H0.20166V19.3915H19.1595V0.433655Z" fill="white"/>
</mask>
<g mask="url(#mask0_1_6221)">
<path d="M15.0681 10.742C14.6813 10.7418 14.2986 10.6633 13.9429 10.5112C13.5873 10.3592 13.266 10.1368 12.9986 9.85735C12.9007 9.75942 12.8109 9.65375 12.73 9.54138C12.4797 10.1438 12.0565 10.6586 11.5138 11.0208C10.9711 11.3829 10.3334 11.5762 9.681 11.5762C9.0286 11.5762 8.39083 11.3829 7.84817 11.0208C7.30551 10.6586 6.8823 10.1438 6.63196 9.54138C6.55107 9.65375 6.46126 9.75942 6.36339 9.85735C6.09593 10.1368 5.7747 10.3592 5.41904 10.5112C5.06337 10.6633 4.68062 10.7418 4.29383 10.742C3.93141 10.7468 3.57165 10.6797 3.23535 10.5446L4.70458 18.2067H14.6574L16.1266 10.5446C15.7903 10.6797 15.4306 10.7468 15.0681 10.742Z" stroke="#36526C" stroke-width="1.69356" stroke-miterlimit="10"/>
<path d="M17.9671 7.72453C17.9713 7.76391 17.9713 7.80363 17.9671 7.84301C17.9695 8.48341 17.752 9.10522 17.351 9.60451C17.0849 9.96029 16.739 10.2486 16.3411 10.4462C15.9432 10.6437 15.5045 10.7451 15.0603 10.742C14.6735 10.7417 14.2907 10.6632 13.935 10.5112C13.5794 10.3591 13.2581 10.1367 12.9907 9.85728C12.8928 9.75935 12.803 9.65369 12.7221 9.54132C12.4718 10.1438 12.0486 10.6586 11.5059 11.0207C10.9633 11.3829 10.3255 11.5761 9.67307 11.5761C9.02067 11.5761 8.38289 11.3829 7.84024 11.0207C7.29758 10.6586 6.87437 10.1438 6.62402 9.54132C6.54314 9.65369 6.45333 9.75935 6.35545 9.85728C6.088 10.1367 5.76677 10.3591 5.41111 10.5112C5.05544 10.6632 4.67269 10.7417 4.28589 10.742C3.92348 10.7468 3.56371 10.6797 3.22741 10.5445C2.73479 10.3562 2.30693 10.0299 1.99516 9.60451C1.59697 9.10416 1.3823 8.48245 1.38693 7.84301C1.38274 7.80363 1.38274 7.76391 1.38693 7.72453C1.38693 7.62974 1.38693 7.54285 1.38693 7.44806C1.38693 4.21733 5.0995 1.61853 9.68097 1.61853C14.2624 1.61853 17.975 4.21733 17.975 7.42436C17.975 7.51915 17.975 7.60604 17.975 7.70083L17.9671 7.72453Z" stroke="#36526C" stroke-width="1.69356" stroke-miterlimit="10"/>
<path d="M9.68066 4.63605V7.6535" stroke="#36526C" stroke-width="1.69356" stroke-miterlimit="10"/>
<path d="M6.66302 4.63605L5.1543 6.89519" stroke="#36526C" stroke-width="1.69356" stroke-miterlimit="10"/>
<path d="M12.6982 4.63605L14.2069 6.89519" stroke="#36526C" stroke-width="1.69356" stroke-miterlimit="10"/>
<path d="M8.02178 18.2066L7.32666 10.584" stroke="#36526C" stroke-width="1.69356" stroke-miterlimit="10"/>
<path d="M12.034 10.584L11.3389 18.2066" stroke="#36526C" stroke-width="1.69356" stroke-miterlimit="10"/>
</g>
<path d="M28.916 16.5829V1.83789H32.1876V7.85875L37.4865 1.83789H40.3894L33.831 9.21037L40.3894 16.5829H37.1025L32.1876 10.8539V16.5829H28.916Z" fill="#36526C"/>
<path d="M46.9326 16.5829H43.6611V5.10944H46.9326V8.39634C47.0606 7.30071 47.3985 6.47898 47.9463 5.93117C48.4942 5.38335 49.2519 5.10944 50.2195 5.10944H51.8476V8.39634H48.5761C48.1255 8.39634 47.739 8.55761 47.4164 8.88016C47.0939 9.19759 46.9326 9.57901 46.9326 10.0244V16.5829Z" fill="#36526C"/>
<path d="M63.3211 5.10944V16.5829H60.0496V14.9394C59.9216 16.0351 59.3738 16.5829 58.4061 16.5829H56.7627C55.8667 16.5829 55.0962 16.2629 54.4511 15.6229C53.8111 14.9778 53.4912 14.2073 53.4912 13.3113V5.10944H56.7627V13.3113C56.7627 13.7516 56.9214 14.1331 57.2388 14.4556C57.5614 14.7782 57.9505 14.9394 58.4061 14.9394C58.8618 14.9394 59.2484 14.7782 59.5658 14.4556C59.8883 14.1331 60.0496 13.7516 60.0496 13.3113V5.10944H63.3211Z" fill="#36526C"/>
<path d="M66.585 16.5829V5.10944H69.8565V6.75289C69.9231 6.19995 70.092 5.78781 70.3634 5.51646C70.6399 5.24511 71.0187 5.10944 71.5 5.10944H73.1434C74.0394 5.10944 74.8074 5.43455 75.4473 6.08476C76.0924 6.72985 76.415 7.50038 76.415 8.39634V16.5829H73.1434V8.39634C73.1434 7.9458 72.9796 7.55926 72.6519 7.23671C72.3294 6.91416 71.9454 6.75289 71.5 6.75289C71.0494 6.75289 70.6629 6.91416 70.3404 7.23671C70.0178 7.55926 69.8565 7.9458 69.8565 8.39634V16.5829H66.585Z" fill="#36526C"/>
<path d="M89.5087 5.10944V18.2263C89.5087 19.1172 89.1836 19.8851 88.5334 20.5302C87.8883 21.1753 87.1229 21.4979 86.2372 21.4979H82.9503C81.0201 21.4979 79.9296 20.4074 79.6787 18.2263H81.3222C81.399 19.3117 81.9417 19.8544 82.9503 19.8544H84.5937C85.0391 19.8544 85.4231 19.6932 85.7457 19.3706C86.0733 19.0532 86.2372 18.6718 86.2372 18.2263V14.9394C86.1092 16.0351 85.5614 16.5829 84.5937 16.5829H82.9503C82.0543 16.5829 81.2838 16.2629 80.6387 15.6229C79.9987 14.9778 79.6787 14.2073 79.6787 13.3113V8.39634C79.6787 7.49014 80.0013 6.71705 80.6464 6.07708C81.2915 5.43199 82.0594 5.10944 82.9503 5.10944H89.5087ZM86.2372 6.75289H84.5937C84.1432 6.75289 83.7566 6.91416 83.4341 7.23671C83.1116 7.55926 82.9503 7.9458 82.9503 8.39634V13.3113C82.9503 13.7516 83.109 14.1331 83.4264 14.4556C83.749 14.7782 84.1381 14.9394 84.5937 14.9394C85.0494 14.9394 85.4359 14.7782 85.7534 14.4556C86.0759 14.1331 86.2372 13.7516 86.2372 13.3113V6.75289Z" fill="#36526C"/>
<path d="M94.4159 1.83789H97.6875V5.10943H99.3309V6.75288H97.6875V13.3113C97.6875 13.8387 97.8615 14.2431 98.2097 14.5247C98.5578 14.8012 98.8804 14.9394 99.1773 14.9394H99.3309V16.5829H97.6875C96.7864 16.5829 96.0159 16.2629 95.3759 15.6229C94.7359 14.9778 94.4159 14.2073 94.4159 13.3113V6.75288H92.7725V5.10943H94.4159V1.83789Z" fill="#36526C"/>
<path d="M102.602 16.5829V1.83789H105.874V6.75288C105.941 6.19994 106.11 5.7878 106.381 5.51645C106.657 5.2451 107.036 5.10943 107.517 5.10943H109.161C110.057 5.10943 110.825 5.43454 111.465 6.08475C112.11 6.72984 112.432 7.50037 112.432 8.39633V16.5829H109.161V8.39633C109.161 7.94579 108.997 7.55925 108.669 7.2367C108.347 6.91415 107.963 6.75288 107.517 6.75288C107.067 6.75288 106.68 6.91415 106.358 7.2367C106.035 7.55925 105.874 7.94579 105.874 8.39633V16.5829H102.602Z" fill="#36526C"/>
<path d="M125.526 11.6679H118.968V13.3113C118.968 13.7516 119.127 14.1331 119.444 14.4556C119.767 14.7782 120.156 14.9394 120.611 14.9394H122.255C123.34 14.9394 123.883 14.3967 123.883 13.3113H125.526C125.27 15.4924 124.18 16.5829 122.255 16.5829H118.968C118.072 16.5829 117.301 16.2629 116.656 15.6229C116.016 14.9778 115.696 14.2073 115.696 13.3113V8.39634C115.696 7.49014 116.019 6.71705 116.664 6.07708C117.309 5.43199 118.077 5.10944 118.968 5.10944H122.255C123.151 5.10944 123.919 5.43455 124.559 6.08476C125.204 6.72985 125.526 7.50038 125.526 8.39634V11.6679ZM118.968 10.0244H122.255V8.39634C122.255 7.9458 122.091 7.55926 121.763 7.23671C121.441 6.91416 121.057 6.75289 120.611 6.75289C120.161 6.75289 119.774 6.91416 119.452 7.23671C119.129 7.55926 118.968 7.9458 118.968 8.39634V10.0244Z" fill="#36526C"/>
<path d="M128.79 5.10944H132.062V6.75289C132.062 6.19995 132.2 5.78781 132.476 5.51646C132.753 5.24511 133.162 5.10944 133.705 5.10944H135.349C136.245 5.10944 137.012 5.43455 137.652 6.08476C138.298 6.72985 138.62 7.50038 138.62 8.39634V13.3113C138.62 14.2073 138.298 14.9778 137.652 15.6229C137.012 16.2629 136.245 16.5829 135.349 16.5829H132.062V19.8544H128.79V5.10944ZM132.062 14.9394H133.705C134.151 14.9394 134.535 14.7807 134.857 14.4633C135.185 14.1408 135.349 13.7568 135.349 13.3113V8.39634C135.349 7.9458 135.185 7.56181 134.857 7.24439C134.535 6.92184 134.151 6.76057 133.705 6.76057C133.255 6.75545 132.868 6.91416 132.545 7.23671C132.223 7.55926 132.062 7.9458 132.062 8.39634V14.9394Z" fill="#36526C"/>
</g>
<defs>
<clipPath id="clip0_1_6221">
<rect width="139" height="22" fill="white"/>
</clipPath>
</defs>
</svg>
