<svg width="37" height="36" viewBox="0 0 37 36" fill="none" xmlns="http://www.w3.org/2000/svg">
<path d="M34.7369 8.48713C34.7369 8.35036 34.7065 8.21359 34.6457 8.08442C34.5242 7.82609 34.2886 7.65133 34.0303 7.59814L18.5529 0.0911777C18.3021 -0.0303926 18.0058 -0.0303926 17.7551 0.0911777L2.12568 7.66653C1.82176 7.81089 1.62421 8.11482 1.60901 8.45673V8.46433C1.60901 8.47193 1.60901 8.47953 1.60901 8.49472V27.5053C1.60901 27.8548 1.80656 28.1739 2.12568 28.3259L17.7551 35.9012C17.7627 35.9012 17.7627 35.9012 17.7703 35.9088C17.7931 35.9164 17.8158 35.924 17.8386 35.9392C17.8462 35.9392 17.8538 35.9468 17.869 35.9468C17.8918 35.9544 17.9146 35.962 17.9374 35.9696C17.945 35.9696 17.9526 35.9772 17.9602 35.9772C17.983 35.9848 18.0134 35.9848 18.0362 35.9924C18.0438 35.9924 18.0514 35.9924 18.059 35.9924C18.0894 35.9924 18.1274 36 18.1578 36C18.1882 36 18.2261 36 18.2565 35.9924C18.2641 35.9924 18.2717 35.9924 18.2793 35.9924C18.3021 35.9924 18.3325 35.9848 18.3553 35.9772C18.3629 35.9772 18.3705 35.9696 18.3781 35.9696C18.4009 35.962 18.4237 35.9544 18.4465 35.9468C18.4541 35.9468 18.4617 35.9392 18.4769 35.9392C18.4997 35.9316 18.5225 35.924 18.5453 35.9088C18.5529 35.9088 18.5529 35.9088 18.5605 35.9012L34.2354 28.3031C34.547 28.1511 34.7521 27.832 34.7521 27.4825V8.50992C34.7369 8.50232 34.7369 8.49472 34.7369 8.48713ZM18.1502 1.92233L31.7053 8.49472L26.7133 10.9185L13.1582 4.34614L18.1502 1.92233ZM18.1502 15.0671L4.59508 8.49472L11.0687 5.35669L24.6238 11.9291L18.1502 15.0671ZM3.43256 9.96117L17.2384 16.6551V33.6218L3.43256 26.9278V9.96117ZM19.0619 33.6218V16.6551L25.5432 13.5095V17.9468C25.5432 18.4483 25.9535 18.8586 26.4549 18.8586C26.9564 18.8586 27.3667 18.4483 27.3667 17.9468V12.6205L32.9134 9.93077V26.8974L19.0619 33.6218Z" fill="#515DEF"/>
</svg>
