<svg width="40" height="40" viewBox="0 0 40 40" fill="none" xmlns="http://www.w3.org/2000/svg">
<g clip-path="url(#clip0_1_2690)">
<path d="M31.1452 17.3701C30.9849 16.8755 30.5654 16.5218 30.0508 16.4471L23.9505 15.5606L21.2224 10.0334C20.9927 9.5668 20.5269 9.27704 20.0067 9.27704C19.4866 9.27704 19.0207 9.5668 18.7911 10.0329L16.0628 15.5606L9.9625 16.4471C9.4482 16.5218 9.02883 16.8752 8.86797 17.3699C8.70766 17.8638 8.83898 18.3962 9.21109 18.7595L13.6255 23.0622L12.5834 29.1377C12.4954 29.65 12.7019 30.1581 13.1225 30.4638C13.3602 30.6366 13.6383 30.7245 13.9182 30.7244C14.1337 30.7244 14.3502 30.6723 14.5503 30.5672L20.0067 27.6986L25.4627 30.5673C25.6564 30.669 25.8745 30.7228 26.0934 30.7228C26.3818 30.7228 26.6573 30.6333 26.8905 30.4638C27.3105 30.1584 27.5172 29.6506 27.4296 29.1381L27.0174 26.7344C26.9584 26.3906 26.6316 26.1596 26.2881 26.2186C25.9443 26.2776 25.7134 26.6041 25.7724 26.9479L26.1846 29.3512C26.1905 29.3859 26.1759 29.4216 26.1477 29.4421C26.1059 29.4727 26.0755 29.4623 26.0502 29.4491L20.3002 26.4261C20.1163 26.3295 19.8966 26.3294 19.7124 26.4261L13.9619 29.4492C13.9312 29.4654 13.893 29.4626 13.8648 29.4421C13.8361 29.4213 13.822 29.3867 13.828 29.3516L14.9262 22.9485C14.9615 22.7435 14.8936 22.5345 14.7447 22.3895L10.0927 17.8552C10.0676 17.8306 10.0582 17.7933 10.0689 17.7603C10.0798 17.727 10.1091 17.7021 10.1437 17.6971L16.5727 16.7629C16.7785 16.733 16.9563 16.6038 17.0484 16.4174L19.9238 10.5915C19.955 10.5281 20.0577 10.5276 20.0893 10.5918L22.9646 16.4174C23.0566 16.6038 23.2345 16.733 23.4402 16.7629L29.8692 17.6971C29.9037 17.7022 29.933 17.7267 29.9439 17.7606C29.9547 17.7936 29.9454 17.8307 29.9204 17.855L25.2684 22.3895C25.1195 22.5345 25.0516 22.7437 25.0868 22.9485L25.4338 24.9716C25.4927 25.3153 25.8194 25.5463 26.163 25.4873C26.5068 25.4283 26.7377 25.1017 26.6787 24.758L26.3878 23.0622L30.8023 18.7592C31.1746 18.3961 31.3059 17.8636 31.1452 17.3701Z" fill="#515DEF" stroke="#515DEF" stroke-width="0.3"/>
<path d="M3.63727 19.3684H0.637422C0.288594 19.3684 0.00585938 19.6511 0.00585938 20C0.00585938 20.3488 0.288594 20.6315 0.637422 20.6315H3.63727C3.98617 20.6315 4.26883 20.3487 4.26883 20C4.26883 19.6511 3.98609 19.3684 3.63727 19.3684Z" fill="#515DEF" stroke="#515DEF" stroke-width="0.3"/>
<path d="M39.3736 19.3685H36.3737C36.0248 19.3685 35.7422 19.6513 35.7422 20C35.7422 20.3488 36.0249 20.6316 36.3737 20.6316H39.3736C39.7225 20.6316 40.0051 20.3488 40.0051 20C40.0051 19.6512 39.7225 19.3685 39.3736 19.3685Z" fill="#515DEF" stroke="#515DEF" stroke-width="0.3"/>
<path d="M7.98591 31.1275L5.86474 33.2487C5.61802 33.4952 5.61802 33.8951 5.86466 34.1418C5.98802 34.2651 6.14966 34.3268 6.3113 34.3268C6.47286 34.3268 6.63458 34.2651 6.75778 34.1419L8.87896 32.0207C9.12567 31.7741 9.12567 31.3742 8.87903 31.1275C8.63239 30.8809 8.23247 30.8809 7.98591 31.1275Z" fill="#515DEF" stroke="#515DEF" stroke-width="0.3"/>
<path d="M33.2555 5.85749L31.1343 7.97859C30.8875 8.22523 30.8875 8.62515 31.1342 8.87179C31.2575 8.99515 31.4192 9.05679 31.5808 9.05679C31.7425 9.05679 31.9041 8.99515 32.0273 8.87171L34.1485 6.75062C34.3953 6.50406 34.3953 6.10413 34.1486 5.85749C33.902 5.61077 33.5021 5.6107 33.2555 5.85749Z" fill="#515DEF" stroke="#515DEF" stroke-width="0.3"/>
<path d="M20.0066 35.7375C19.6577 35.7375 19.375 36.0203 19.375 36.3691V39.3688C19.375 39.7176 19.6577 40.0004 20.0066 40.0004C20.3554 40.0004 20.6381 39.7176 20.6381 39.3688V36.3691C20.6381 36.0202 20.3554 35.7375 20.0066 35.7375Z" fill="#515DEF" stroke="#515DEF" stroke-width="0.3"/>
<path d="M20.0066 4.26303C20.3554 4.26303 20.6381 3.98022 20.6381 3.63147V0.631623C20.6381 0.282795 20.3554 6.10352e-05 20.0066 6.10352e-05C19.6577 6.10352e-05 19.375 0.282873 19.375 0.631623V3.63147C19.375 3.9803 19.6577 4.26303 20.0066 4.26303Z" fill="#515DEF" stroke="#515DEF" stroke-width="0.3"/>
<path d="M32.0273 31.1274C31.7808 30.8808 31.3809 30.8808 31.1342 31.1274C30.8875 31.374 30.8875 31.7739 31.1343 32.0206L33.2555 34.1417C33.3788 34.2651 33.5405 34.3267 33.7021 34.3267C33.8636 34.3267 34.0253 34.2651 34.1486 34.1417C34.3953 33.8951 34.3953 33.4952 34.1485 33.2485L32.0273 31.1274Z" fill="#515DEF" stroke="#515DEF" stroke-width="0.3"/>
<path d="M7.98584 8.87195C8.10919 8.99531 8.27083 9.05695 8.43247 9.05695C8.59404 9.05695 8.75576 8.99531 8.87904 8.87211C9.12568 8.62547 9.12568 8.22555 8.87904 7.9789L6.75787 5.85765C6.51131 5.61101 6.11146 5.61101 5.86467 5.85765C5.61803 6.10421 5.61803 6.50414 5.86467 6.75078L7.98584 8.87195Z" fill="#515DEF" stroke="#515DEF" stroke-width="0.3"/>
</g>
<defs>
<clipPath id="clip0_1_2690">
<rect width="40" height="40" fill="white" transform="translate(0.00585938)"/>
</clipPath>
</defs>
</svg>
