<svg width="25" height="25" viewBox="0 0 25 25" fill="none" xmlns="http://www.w3.org/2000/svg">
<path d="M10.6457 23.8332C5.31233 23.8332 1.02661 19.5474 1.02661 14.2141V10.7856C1.02661 5.45221 5.31233 1.1665 10.6457 1.1665H14.0743C19.4075 1.1665 23.6932 5.45221 23.6932 10.7856V14.2141C23.6932 19.5474 19.4075 23.8332 14.0743 23.8332H10.6457ZM10.6457 2.11889C5.88376 2.11889 1.97899 6.02364 1.97899 10.7856V14.2141C1.97899 18.976 5.88376 22.8808 10.6457 22.8808H14.0743C18.8361 22.8808 22.7409 18.976 22.7409 14.2141V10.7856C22.7409 6.02364 18.8361 2.11889 14.0743 2.11889H10.6457Z" fill="#515DEF"/>
<path d="M12.3601 13.2621C11.8838 13.2621 11.5981 12.8812 11.5981 12.5001C11.5981 12.024 11.979 11.7383 12.3601 11.7383C12.8362 11.7383 13.1219 12.1192 13.1219 12.5001C13.1219 12.9764 12.8362 13.2621 12.3601 13.2621ZM12.3601 12.3097C12.2648 12.3097 12.1696 12.4049 12.1696 12.5001C12.1696 12.6907 12.5505 12.6907 12.5505 12.5001C12.5505 12.4049 12.4553 12.3097 12.3601 12.3097Z" fill="#515DEF"/>
<path d="M12.8361 4.5H11.8838V5.83334H12.8361V4.5Z" fill="#515DEF"/>
<path d="M12.8361 19.0713H11.8838V20.4047H12.8361V19.0713Z" fill="#515DEF"/>
<path d="M20.2653 12.0239H18.9319V12.9763H20.2653V12.0239Z" fill="#515DEF"/>
<path d="M5.69369 12.0239H4.36035V12.9763H5.69369V12.0239Z" fill="#515DEF"/>
<path d="M9.4639 6.56758L8.80123 5.41064L7.97485 5.88398L8.63752 7.04091L9.4639 6.56758Z" fill="#515DEF"/>
<path d="M16.7483 19.118L16.0825 17.9629L15.2573 18.4383L15.9232 19.5935L16.7483 19.118Z" fill="#515DEF"/>
<path d="M19.4518 8.94261L18.9775 8.1167L17.8213 8.7807L18.2956 9.60661L19.4518 8.94261Z" fill="#515DEF"/>
<path d="M6.90035 16.2215L6.42387 15.397L5.18701 16.1117L5.66349 16.9363L6.90035 16.2215Z" fill="#515DEF"/>
<path d="M6.88038 8.81169L5.7265 8.14355L5.24927 8.96775L6.40313 9.63587L6.88038 8.81169Z" fill="#515DEF"/>
<path d="M19.4762 16.0352L18.3213 15.3687L17.8452 16.1936L19.0001 16.8601L19.4762 16.0352Z" fill="#515DEF"/>
<path d="M16.7216 5.86613L15.8971 5.38965L15.23 6.54405L16.0546 7.02053L16.7216 5.86613Z" fill="#515DEF"/>
<path d="M9.49308 18.4591L8.66717 17.9849L8.00317 19.1411L8.82908 19.6154L9.49308 18.4591Z" fill="#515DEF"/>
<path d="M12.36 12.9761C12.0743 12.9761 11.8838 12.7857 11.8838 12.5V7.16661C11.8838 6.8809 12.0743 6.69043 12.36 6.69043C12.6457 6.69043 12.8361 6.8809 12.8361 7.16661V12.5C12.8361 12.7857 12.6457 12.9761 12.36 12.9761Z" fill="#515DEF"/>
<path d="M10.6452 12.0239H7.69287V12.9763H10.6452V12.0239Z" fill="#515DEF"/>
</svg>
