<svg width="270" height="234" viewBox="0 0 270 234" fill="none" xmlns="http://www.w3.org/2000/svg">
<g clip-path="url(#clip0_1_5797)">
<path d="M173.336 9.54278C157.794 13.285 143.506 21.52 127.112 24.868C100.533 30.268 70.5629 28.6804 50.8475 50.5936C35.9597 67.1446 27.5465 91.3798 32.5739 113.455C45.6635 170.889 128.154 181.139 172.569 156.736C195.611 144.073 212.318 120.556 223.95 97.5682C234.626 76.4596 245.971 48.6766 229.89 27.2548C222.222 17.0326 210.169 10.5148 197.565 8.40338C188.925 6.93998 180.977 7.70138 173.336 9.54278Z" fill="#515DEF"/>
<path opacity="0.5" d="M173.336 9.54278C157.794 13.285 143.506 21.52 127.112 24.868C100.533 30.268 70.5629 28.6804 50.8475 50.5936C35.9597 67.1446 27.5465 91.3798 32.5739 113.455C45.6635 170.889 128.154 181.139 172.569 156.736C195.611 144.073 212.318 120.556 223.95 97.5682C234.626 76.4596 245.971 48.6766 229.89 27.2548C222.222 17.0326 210.169 10.5148 197.565 8.40338C188.925 6.93998 180.977 7.70138 173.336 9.54278Z" fill="white"/>
<path d="M271.5 208.496H1.5V208.631H271.5V208.496Z" fill="#EBEBEB"/>
<path d="M95.0387 211.941H82.5215V212.076H95.0387V211.941Z" fill="#EBEBEB"/>
<path d="M249.236 214.836H218.634V214.971H249.236V214.836Z" fill="#EBEBEB"/>
<path d="M55.1706 214.836H24.5688V214.971H55.1706V214.836Z" fill="#EBEBEB"/>
<path d="M129.48 184.412H25.2113C24.3945 184.411 23.6116 184.085 23.0345 183.507C22.4574 182.929 22.1333 182.145 22.1333 181.329V34.7564C22.1404 33.9443 22.4677 33.1677 23.044 32.5955C23.6203 32.0232 24.3991 31.7014 25.2113 31.7H129.48C130.298 31.7 131.082 32.0249 131.66 32.6031C132.238 33.1814 132.563 33.9656 132.563 34.7834V181.329C132.563 182.146 132.238 182.931 131.66 183.509C131.082 184.087 130.298 184.412 129.48 184.412ZM25.2113 31.808C24.4303 31.8094 23.6817 32.1207 23.13 32.6735C22.5782 33.2263 22.2683 33.9754 22.2683 34.7564V181.329C22.2683 182.11 22.5782 182.859 23.13 183.412C23.6817 183.964 24.4303 184.276 25.2113 184.277H129.48C130.261 184.274 131.009 183.963 131.562 183.41C132.114 182.858 132.425 182.11 132.428 181.329V34.7564C132.425 33.9753 132.114 33.227 131.562 32.6747C131.009 32.1224 130.261 31.8109 129.48 31.808H25.2113Z" fill="#EBEBEB"/>
<path d="M246.287 184.412H142.013C141.196 184.409 140.414 184.083 139.836 183.506C139.259 182.928 138.933 182.145 138.93 181.329V34.7564C138.938 33.9438 139.267 33.1672 139.844 32.5951C140.421 32.023 141.201 31.7014 142.013 31.7H246.287C247.099 31.7028 247.876 32.0252 248.451 32.5973C249.026 33.1695 249.353 33.9452 249.36 34.7564V181.329C249.361 181.733 249.282 182.133 249.128 182.507C248.974 182.881 248.748 183.22 248.462 183.507C248.177 183.793 247.838 184.02 247.465 184.176C247.092 184.331 246.692 184.411 246.287 184.412ZM142.013 31.808C141.232 31.8109 140.484 32.1224 139.932 32.6747C139.379 33.227 139.068 33.9753 139.065 34.7564V181.329C139.068 182.11 139.379 182.858 139.932 183.41C140.484 183.963 141.232 184.274 142.013 184.277H246.287C247.068 184.274 247.817 183.963 248.369 183.41C248.921 182.858 249.233 182.11 249.236 181.329V34.7564C249.233 33.9753 248.921 33.227 248.369 32.6747C247.817 32.1224 247.068 31.8109 246.287 31.808H142.013Z" fill="#EBEBEB"/>
<path d="M171.638 165.636H159.169V208.788H171.638V165.636Z" fill="#E6E6E6"/>
<path d="M162.809 165.636H150.34V208.788H162.809V165.636Z" fill="#E6E6E6"/>
<path d="M160.443 208.788H162.809V202.048H157.954L160.443 208.788Z" fill="#F0F0F0"/>
<path d="M100.131 165.636H87.6624V208.788H100.131V165.636Z" fill="#E6E6E6"/>
<path d="M162.814 165.636H98.0681V205.472H162.814V165.636Z" fill="#F0F0F0"/>
<path d="M158.78 196.508H133.4C132.747 196.505 132.121 196.244 131.659 195.782C131.196 195.32 130.935 194.694 130.933 194.04V169.789C130.934 169.135 131.195 168.509 131.657 168.047C132.12 167.586 132.747 167.326 133.4 167.326H158.753C159.407 167.326 160.034 167.586 160.497 168.047C160.959 168.509 161.22 169.135 161.221 169.789V194.04C161.218 194.689 160.961 195.311 160.505 195.773C160.049 196.234 159.429 196.498 158.78 196.508ZM133.4 167.888C132.892 167.888 132.405 168.089 132.045 168.447C131.685 168.805 131.481 169.292 131.478 169.8V194.051C131.475 194.303 131.522 194.554 131.616 194.788C131.71 195.023 131.849 195.236 132.026 195.417C132.202 195.597 132.413 195.741 132.645 195.84C132.877 195.94 133.126 195.992 133.379 195.995H158.759C159.268 195.998 159.757 195.799 160.119 195.442C160.482 195.084 160.688 194.598 160.692 194.089V169.789C160.692 169.537 160.642 169.288 160.546 169.056C160.45 168.824 160.308 168.613 160.13 168.435C159.952 168.258 159.741 168.117 159.508 168.021C159.276 167.925 159.027 167.876 158.775 167.877L133.4 167.888Z" fill="#E0E0E0"/>
<path d="M127.45 196.508H102.07C101.416 196.505 100.79 196.244 100.328 195.782C99.8656 195.32 99.6046 194.694 99.6018 194.04V169.789C99.6032 169.135 99.8639 168.509 100.327 168.047C100.789 167.586 101.416 167.326 102.07 167.326H127.45C128.103 167.326 128.73 167.586 129.193 168.047C129.655 168.509 129.916 169.135 129.917 169.789V194.04C129.916 194.694 129.656 195.321 129.193 195.784C128.731 196.246 128.104 196.507 127.45 196.508ZM102.07 167.888C101.818 167.887 101.569 167.936 101.336 168.032C101.104 168.128 100.892 168.268 100.714 168.446C100.536 168.624 100.395 168.835 100.299 169.067C100.202 169.299 100.153 169.548 100.153 169.8V194.051C100.153 194.303 100.202 194.552 100.299 194.785C100.395 195.017 100.536 195.229 100.714 195.407C100.892 195.585 101.103 195.726 101.336 195.822C101.569 195.918 101.818 195.968 102.07 195.968H127.45C127.958 195.967 128.445 195.764 128.805 195.405C129.166 195.046 129.369 194.559 129.372 194.051V169.789C129.369 169.281 129.165 168.795 128.805 168.436C128.445 168.078 127.958 167.877 127.45 167.877L102.07 167.888Z" fill="#E0E0E0"/>
<path d="M125.095 174.989C124.625 174.989 124.164 174.849 123.773 174.588C123.381 174.327 123.076 173.955 122.896 173.52C122.715 173.085 122.668 172.607 122.759 172.145C122.851 171.683 123.077 171.259 123.409 170.926C123.742 170.592 124.166 170.365 124.627 170.273C125.089 170.18 125.568 170.227 126.003 170.406C126.438 170.585 126.81 170.89 127.073 171.281C127.335 171.672 127.476 172.131 127.477 172.602C127.477 173.234 127.226 173.841 126.779 174.288C126.333 174.735 125.727 174.988 125.095 174.989Z" fill="#FAFAFA"/>
<path d="M135.776 174.989C135.305 174.992 134.844 174.856 134.451 174.597C134.057 174.338 133.75 173.968 133.566 173.534C133.383 173.1 133.333 172.622 133.422 172.159C133.51 171.696 133.734 171.271 134.065 170.935C134.396 170.6 134.819 170.37 135.28 170.275C135.741 170.18 136.22 170.224 136.657 170.401C137.093 170.579 137.467 170.881 137.731 171.271C137.996 171.661 138.138 172.12 138.142 172.591V172.64C138.135 173.264 137.883 173.859 137.44 174.299C136.998 174.738 136.4 174.986 135.776 174.989Z" fill="#FAFAFA"/>
<path d="M100.433 208.788H98.0627V202.048H102.917L100.433 208.788Z" fill="#F0F0F0"/>
<path d="M96.162 165.636H83.6934V208.788H96.162V165.636Z" fill="#E6E6E6"/>
<path d="M93.7914 208.788H96.162V202.048H91.3074L93.7914 208.788Z" fill="#F0F0F0"/>
<path d="M96.162 165.636H31.416V205.472H96.162V165.636Z" fill="#F0F0F0"/>
<path d="M92.1283 196.508H66.7483C66.0938 196.508 65.4661 196.248 65.0033 195.785C64.5405 195.322 64.2805 194.695 64.2805 194.04V169.789C64.2819 169.135 64.5426 168.509 65.0052 168.047C65.4679 167.586 66.0948 167.326 66.7483 167.326H92.1013C92.7549 167.326 93.3818 167.586 93.8444 168.047C94.3071 168.509 94.5677 169.135 94.5691 169.789V194.04C94.5692 194.69 94.3129 195.314 93.8559 195.776C93.3989 196.238 92.7781 196.501 92.1283 196.508ZM66.7483 167.888C66.4968 167.887 66.2477 167.936 66.0151 168.032C65.7826 168.128 65.5712 168.268 65.3931 168.446C65.215 168.624 65.0737 168.835 64.9773 169.067C64.8809 169.299 64.8313 169.548 64.8313 169.8V194.051C64.8285 194.303 64.8754 194.554 64.9694 194.788C65.0633 195.023 65.2026 195.236 65.3791 195.417C65.5556 195.597 65.7659 195.741 65.9981 195.84C66.2302 195.94 66.4797 195.992 66.7321 195.995H92.1121C92.6216 195.998 93.1114 195.799 93.4747 195.442C93.8379 195.085 94.045 194.598 94.0507 194.089V169.789C94.0479 169.282 93.8448 168.796 93.4858 168.438C93.1267 168.08 92.6408 167.879 92.1337 167.877L66.7483 167.888Z" fill="#E0E0E0"/>
<path d="M60.7973 196.508H35.4497C34.7952 196.508 34.1675 196.248 33.7047 195.785C33.2419 195.322 32.9819 194.695 32.9819 194.04V169.789C32.9819 169.465 33.0458 169.144 33.1699 168.845C33.294 168.546 33.4758 168.274 33.7051 168.046C33.9343 167.817 34.2064 167.636 34.5058 167.512C34.8051 167.389 35.1259 167.326 35.4497 167.326H60.7973C61.1212 167.326 61.4419 167.389 61.7413 167.512C62.0407 167.636 62.3128 167.817 62.542 168.046C62.7712 168.274 62.9531 168.546 63.0772 168.845C63.2013 169.144 63.2651 169.465 63.2651 169.789V194.04C63.2637 194.694 63.0033 195.321 62.5408 195.784C62.0783 196.246 61.4514 196.507 60.7973 196.508ZM35.4497 167.888C35.1978 167.887 34.9481 167.935 34.7149 168.03C34.4817 168.126 34.2697 168.266 34.091 168.444C33.9124 168.622 33.7706 168.833 33.6739 169.066C33.5771 169.298 33.5273 169.548 33.5273 169.8V194.051C33.5245 194.303 33.5714 194.554 33.6654 194.788C33.7594 195.023 33.8986 195.236 34.0751 195.417C34.2516 195.597 34.4619 195.741 34.6941 195.84C34.9262 195.94 35.1757 195.992 35.4281 195.995H60.8081C61.0603 195.996 61.3102 195.947 61.5434 195.851C61.7766 195.755 61.9886 195.614 62.1672 195.435C62.3457 195.257 62.4874 195.046 62.5841 194.813C62.6808 194.58 62.7305 194.33 62.7305 194.078V169.778C62.7305 169.526 62.6807 169.277 62.584 169.044C62.4873 168.811 62.3455 168.6 62.1668 168.422C61.9882 168.245 61.7762 168.104 61.543 168.009C61.3098 167.913 61.0601 167.865 60.8081 167.866L35.4497 167.888Z" fill="#E0E0E0"/>
<path d="M58.4483 174.989C57.9773 174.99 57.5166 174.851 57.1244 174.591C56.7322 174.33 56.4261 173.959 56.2449 173.524C56.0636 173.089 56.0154 172.61 56.1062 172.148C56.1971 171.686 56.4229 171.261 56.7552 170.928C57.0875 170.594 57.5113 170.366 57.973 170.273C58.4348 170.18 58.9137 170.226 59.3493 170.405C59.7848 170.585 60.1574 170.889 60.42 171.28C60.6825 171.671 60.8232 172.131 60.8243 172.602C60.8257 172.915 60.7653 173.225 60.6466 173.515C60.5278 173.804 60.353 174.067 60.1322 174.289C59.9115 174.511 59.649 174.687 59.3601 174.807C59.0711 174.927 58.7612 174.989 58.4483 174.989Z" fill="#FAFAFA"/>
<path d="M69.1295 174.989C68.6585 174.992 68.1971 174.856 67.8038 174.597C67.4104 174.338 67.1026 173.968 66.9194 173.534C66.7363 173.1 66.6858 172.622 66.7746 172.159C66.8633 171.696 67.0872 171.271 67.418 170.935C67.7488 170.6 68.1716 170.37 68.6329 170.275C69.0942 170.18 69.5733 170.224 70.0096 170.401C70.446 170.579 70.82 170.881 71.0843 171.271C71.3487 171.661 71.4915 172.12 71.4947 172.591V172.64C71.4876 173.264 71.2356 173.859 70.7931 174.299C70.3506 174.738 69.7531 174.986 69.1295 174.989Z" fill="#FAFAFA"/>
<path d="M33.7812 208.788H31.416V202.048H36.2652L33.7812 208.788Z" fill="#F0F0F0"/>
<path d="M145.831 46.0208H122.633V69.2192H145.831V46.0208Z" fill="#EBEBEB"/>
<path d="M146.863 46.0262H145.837V69.2246H146.863V46.0262Z" fill="#E0E0E0"/>
<path d="M142.694 49.169H125.781V66.0818H142.694V49.169Z" fill="white"/>
<path d="M137.067 60.4496C136.695 60.822 136.254 61.1175 135.768 61.3191C135.282 61.5207 134.761 61.6245 134.235 61.6245C133.708 61.6245 133.187 61.5207 132.701 61.3191C132.215 61.1175 131.774 60.822 131.402 60.4496C130.653 59.6985 130.232 58.6809 130.232 57.62C130.232 56.5591 130.653 55.5415 131.402 54.7904C132.154 54.0409 133.173 53.62 134.235 53.62C135.296 53.62 136.315 54.0409 137.067 54.7904C137.816 55.5415 138.237 56.5591 138.237 57.62C138.237 58.6809 137.816 59.6985 137.067 60.4496Z" fill="#F5F5F5"/>
<path d="M123.108 75.8504H95.9082V103.05H123.108V75.8504Z" fill="#EBEBEB"/>
<path d="M124.312 75.8558H123.108V103.056H124.312V75.8558Z" fill="#E0E0E0"/>
<path d="M119.425 79.5386H99.5964V99.3674H119.425V79.5386Z" fill="white"/>
<path d="M113.734 85.2194H105.277V93.6758H113.734V85.2194Z" fill="#F5F5F5"/>
<path d="M244.77 67.1024H230.044V70.5422H244.77V67.1024Z" fill="#E6E6E6"/>
<path d="M230.044 67.1024H169.089V70.5422H230.044V67.1024Z" fill="#F5F5F5"/>
<path d="M203.725 48.8396H186.563V67.1078H203.725V48.8396Z" fill="#E0E0E0"/>
<path d="M186.563 48.8396H182.168V67.1078H186.563V48.8396Z" fill="#F0F0F0"/>
<path d="M208.223 46.0208H195.333V67.1024H208.223V46.0208Z" fill="#E6E6E6"/>
<path d="M195.338 46.0208H191.612V67.1024H195.338V46.0208Z" fill="#F0F0F0"/>
<path d="M210.005 48.8396H199.135V67.1078H210.005V48.8396Z" fill="#F0F0F0"/>
<path d="M199.135 48.8396H196.651V67.1078H199.135V48.8396Z" fill="#FAFAFA"/>
<path d="M222.284 51.9284H208.028V67.1024H222.284V51.9284Z" fill="#E6E6E6"/>
<path d="M208.028 51.9284H204.378V67.1024H208.028V51.9284Z" fill="#FAFAFA"/>
<path d="M226.021 49.5902H215.313V67.1078H226.021V49.5902Z" fill="#E6E6E6"/>
<path d="M215.313 49.5902H212.219V67.1078H215.313V49.5902Z" fill="#F0F0F0"/>
<path d="M228.867 51.9284H218.467V67.1024H228.867V51.9284Z" fill="#F0F0F0"/>
<path d="M218.467 51.9284H216.404V67.1024H218.467V51.9284Z" fill="#FAFAFA"/>
<path d="M221.329 169.087C225.94 163.06 236.918 160.819 240.715 157.018C245.683 152.034 245.661 144.555 241.427 141.855C237.755 139.511 225.573 155.355 224.207 157.137C219.482 163.233 218.116 167.753 217.23 172.132C217.333 168.412 217.43 164.988 217.511 162.353C217.765 153.751 218.083 150.981 218.234 150.133C218.774 149.712 219.347 149.231 219.692 148.972C222.641 146.774 229.175 144.155 232.442 140.964C237.215 136.298 236.443 130.704 233.095 128.635C229.601 126.475 223.413 131.6 220.135 136.692C216.857 141.784 218.256 146.666 217.338 150.862C217.144 151.693 216.944 154.842 216.76 159.21C215.983 154.905 213.601 151.055 210.097 148.437C205.577 144.83 201.673 140.434 197.947 141.001C194.221 141.568 196.246 147.384 199.172 151.467C201.797 155.101 214.751 158.73 216.658 161.651C216.431 167.591 216.231 175.07 216.091 182.058C215.07 178.45 215.772 178.148 211.587 172.608C209.103 169.324 198.897 165.264 197.687 167.532C196.478 169.8 198.319 174.055 202.169 177.041C205.274 179.449 212.138 179.444 213.763 180.94C214.136 181.285 215.383 182.625 216.064 183.397C215.896 191.918 215.826 199.44 215.907 202.011L216.577 202.038C216.544 201.373 216.62 197.037 216.755 191.297C218.429 188.246 229.715 186.437 233.176 183.283C236.816 179.962 239.429 176.085 237.869 173.488C236.567 171.328 226.324 174.265 222.128 177.851C219.352 180.238 217.657 182.792 216.879 186.216C216.971 182.306 217.084 178.116 217.187 174.147C218.04 173.18 219.946 170.896 221.329 169.087Z" fill="#E6E6E6"/>
<path d="M222.311 208.674H210.615C209.972 208.674 209.422 207.843 209.297 206.687L208.466 199.127H224.455L223.629 206.687C223.494 207.843 222.949 208.674 222.311 208.674Z" fill="#F0F0F0"/>
<path d="M224.79 202.048H208.131C207.731 202.048 207.397 201.508 207.353 200.763L207.013 195.169C206.959 194.31 207.321 193.549 207.791 193.549H225.136C225.6 193.549 225.962 194.299 225.908 195.169L225.568 200.763C225.53 201.498 225.19 202.048 224.79 202.048Z" fill="#F0F0F0"/>
<path d="M136.5 232.882C194.324 232.882 241.201 230.146 241.201 226.77C241.201 223.394 194.324 220.657 136.5 220.657C78.6754 220.657 31.7993 223.394 31.7993 226.77C31.7993 230.146 78.6754 232.882 136.5 232.882Z" fill="#EBEBEB"/>
<path d="M117.325 86.0672C116.131 88.967 109.106 88.7672 101.746 85.7324C94.3855 82.6976 89.3797 77.8862 90.5731 74.9864C90.8539 74.3168 91.6531 71.8058 92.4523 71.4602C95.1955 70.2992 100.417 72.9074 106.071 75.2402C111.336 77.4002 117.357 78.8096 118.291 81.6662C118.853 83.405 117.665 85.241 117.325 86.0672Z" fill="#515DEF"/>
<path opacity="0.2" d="M118.291 81.6662C118.74 83.9396 117.751 85.0304 117.325 86.0672C116.898 87.104 115.651 87.7844 113.907 88.022C113.689 88.0591 113.469 88.0843 113.248 88.0976C111.91 88.1763 110.568 88.1056 109.246 87.887C109.057 87.887 108.868 87.8276 108.674 87.7952C107.122 87.5167 105.594 87.1232 104.1 86.618L103.56 86.4344C102.961 86.2238 102.345 85.9916 101.73 85.7378C101.114 85.484 100.531 85.1978 99.953 84.944L99.4562 84.7064C98.0949 84.0333 96.783 83.2645 95.5304 82.406L95.0876 82.0928C93.9941 81.3199 92.9922 80.4249 92.1014 79.4252C91.9664 79.274 91.8422 79.1282 91.7234 78.977C90.5624 77.5082 90.1034 76.1042 90.5624 74.9864C90.8648 74.2682 91.5128 71.8112 92.4416 71.4548C93.5839 71.133 94.793 71.133 95.9354 71.4548L96.4754 71.5844C99.1754 72.2756 102.577 73.8146 106.05 75.2456C110.143 76.9358 114.987 78.6908 117.363 80.7158C117.504 80.8348 117.639 80.961 117.768 81.0938C117.957 81.2704 118.132 81.4618 118.291 81.6662Z" fill="black"/>
<g opacity="0.2">
<path d="M96.7453 71.12L96.4969 71.5736L92.1121 79.4198C91.9771 79.2686 91.8529 79.1228 91.7341 78.9716L95.9461 71.444L96.2755 70.8608L96.7453 71.12Z" fill="black"/>
</g>
<g opacity="0.2">
<path d="M100.061 74.3222L95.5412 82.4222L95.0984 82.1091L99.5912 74.0739L100.061 74.3222Z" fill="black"/>
</g>
<g opacity="0.2">
<path d="M108.371 78.9663L104.1 86.6181L103.56 86.4345L107.88 78.6801L108.371 78.9663Z" fill="black"/>
</g>
<g opacity="0.2">
<path d="M104.505 76.8062L99.9638 84.944L99.467 84.7064L104.035 76.52L104.505 76.8062Z" fill="black"/>
</g>
<g opacity="0.2">
<path d="M113.41 80.4458L109.246 87.887C109.057 87.887 108.868 87.8276 108.674 87.7952L112.935 80.1758L113.41 80.4458Z" fill="black"/>
</g>
<path d="M118.259 83.54C117.066 86.4398 110.127 86.3264 102.761 83.2862C95.3954 80.246 90.395 75.44 91.5938 72.5402C92.7926 69.6404 99.7262 69.7592 107.092 72.794C114.457 75.8288 119.452 80.624 118.259 83.54Z" fill="#515DEF"/>
<path opacity="0.2" d="M115.753 82.487C114.911 84.5336 109.5 84.2474 103.674 81.8444C97.847 79.4414 93.8078 75.8288 94.6502 73.7822C95.4926 71.7356 100.903 72.0218 106.735 74.4248C112.567 76.8278 116.601 80.4404 115.753 82.487Z" fill="white"/>
<path d="M154.542 59.8556C156.464 62.3342 152.803 68.3336 146.501 73.2098C140.199 78.086 133.541 80.03 131.624 77.5298C131.181 76.9574 129.388 75.0404 129.496 74.144C129.858 71.1902 134.713 67.961 139.551 64.2134C144.055 60.725 148.261 56.1998 151.204 56.81C152.992 57.2042 153.996 59.1536 154.542 59.8556Z" fill="#515DEF"/>
<path opacity="0.2" d="M151.204 56.8316C153.402 57.5768 153.856 58.9916 154.542 59.8556C155.227 60.7196 155.2 62.1614 154.542 63.7976C154.466 63.9974 154.374 64.1972 154.277 64.4024C153.685 65.6029 152.961 66.7332 152.117 67.772C152.004 67.9232 151.879 68.069 151.755 68.2202C150.74 69.4314 149.635 70.5649 148.45 71.6114L148.035 71.9732C147.554 72.389 147.046 72.8048 146.523 73.2098C145.999 73.6148 145.475 73.9982 144.946 74.36C144.8 74.468 144.643 74.5706 144.498 74.6732C143.236 75.5196 141.915 76.2739 140.545 76.9304C140.377 77.0168 140.215 77.087 140.059 77.1626C138.841 77.7257 137.564 78.1496 136.252 78.4262C136.057 78.4694 135.868 78.5018 135.679 78.5288C133.827 78.8042 132.38 78.5288 131.64 77.5514C131.165 76.9358 129.356 75.1484 129.513 74.171C129.795 73.0156 130.395 71.9624 131.246 71.1308C131.365 70.9958 131.494 70.8608 131.629 70.7204C133.579 68.7008 136.597 66.5354 139.567 64.2404C143.072 61.5404 147.003 58.1978 149.935 57.1502C150.112 57.0852 150.293 57.0293 150.475 56.9828C150.714 56.9147 150.958 56.8641 151.204 56.8316Z" fill="black"/>
<g opacity="0.2">
<path d="M131.343 70.2776L131.613 70.7204L136.236 78.4262C136.041 78.4694 135.852 78.5018 135.663 78.5288L131.23 71.12L130.884 70.58L131.343 70.2776Z" fill="black"/>
</g>
<g opacity="0.2">
<path d="M135.766 68.9924L140.528 76.9304C140.361 77.0168 140.199 77.087 140.042 77.1626L135.301 69.2678L135.766 68.9924Z" fill="black"/>
</g>
<g opacity="0.2">
<path d="M143.925 64.1L148.434 71.6168L148.018 71.9786L143.461 64.3754L143.925 64.1Z" fill="black"/>
</g>
<g opacity="0.2">
<path d="M140.134 66.3734L144.93 74.36C144.784 74.468 144.627 74.5706 144.481 74.6732L139.665 66.6488L140.134 66.3734Z" fill="black"/>
</g>
<g opacity="0.2">
<path d="M147.716 60.455L152.101 67.772C151.987 67.9232 151.863 68.069 151.739 68.2202L147.251 60.7358L147.716 60.455Z" fill="black"/>
</g>
<path d="M144.866 71.0906C151.164 66.2127 154.713 60.2495 152.794 57.7715C150.874 55.2935 144.213 57.2389 137.915 62.1169C131.618 66.9948 128.068 72.9579 129.988 75.436C131.907 77.914 138.568 75.9685 144.866 71.0906Z" fill="#515DEF"/>
<path opacity="0.2" d="M144.085 69.5876C149.069 65.7269 152.01 61.1771 150.653 59.4252C149.296 57.6734 144.156 59.383 139.171 63.2437C134.187 67.1044 131.246 71.6542 132.603 73.406C133.96 75.1579 139.101 73.4483 144.085 69.5876Z" fill="white"/>
<path d="M128.476 48.2456C127.86 51.7988 119.89 53.3 110.861 51.68C101.832 50.06 95.0229 45.8858 95.6547 42.3326C95.8005 41.5064 96.0543 38.4986 96.9021 37.8992C99.7047 35.9228 106.217 37.5752 113.151 38.8064C119.631 39.9566 126.721 40.0484 128.476 43.0346C129.54 44.8706 128.654 47.2304 128.476 48.2456Z" fill="#515DEF"/>
<path opacity="0.2" d="M128.476 43.04C129.556 45.4916 128.697 46.955 128.476 48.2294C128.254 49.5038 127.018 50.5676 125.117 51.2696C124.885 51.3614 124.642 51.437 124.393 51.5126C122.907 51.9305 121.378 52.1822 119.836 52.2632C119.614 52.2632 119.398 52.2632 119.172 52.301C117.355 52.3678 115.535 52.3011 113.728 52.1012L113.097 52.0202C112.368 51.9284 111.617 51.8204 110.866 51.6854C110.116 51.5504 109.387 51.3992 108.669 51.2318C108.463 51.1886 108.258 51.1346 108.053 51.086C106.356 50.6671 104.692 50.1257 103.074 49.466C102.874 49.3904 102.685 49.304 102.496 49.2284C101.076 48.6239 99.7284 47.8613 98.4788 46.955C98.2898 46.82 98.117 46.685 97.9388 46.5446C96.2648 45.1784 95.4062 43.7096 95.6492 42.3434C95.8112 41.4578 95.9408 38.5634 96.8912 37.91C97.8416 37.2566 99.2024 37.0514 100.822 37.046H101.47C104.71 37.154 108.885 38.0558 113.145 38.8118C118.167 39.7082 124.048 40.4912 127.212 42.1868C127.398 42.2852 127.578 42.3933 127.752 42.5108C128.007 42.6681 128.249 42.845 128.476 43.04Z" fill="black"/>
<g opacity="0.2">
<path d="M101.649 36.4952L101.476 37.0622L98.4733 46.9658C98.2843 46.8308 98.1115 46.6958 97.9333 46.5554L100.817 37.0568L101.044 36.317L101.649 36.4952Z" fill="black"/>
</g>
<g opacity="0.2">
<path d="M106.163 39.26L103.069 49.4606C102.869 49.385 102.68 49.2986 102.491 49.223L105.569 39.071L106.163 39.26Z" fill="black"/>
</g>
<g opacity="0.2">
<path d="M116.655 42.4568L113.723 52.1174L113.091 52.0364L116.056 42.2732L116.655 42.4568Z" fill="black"/>
</g>
<g opacity="0.2">
<path d="M111.779 40.9772L108.663 51.2372C108.458 51.194 108.253 51.14 108.048 51.0914L111.18 40.7828L111.779 40.9772Z" fill="black"/>
</g>
<g opacity="0.2">
<path d="M122.687 42.878L119.83 52.2794C119.609 52.2794 119.393 52.2794 119.166 52.3172L122.088 42.6998L122.687 42.878Z" fill="black"/>
</g>
<path d="M128.896 45.1433C129.529 41.5905 122.719 37.4075 113.688 35.8003C104.656 34.1931 96.8216 35.7704 96.1894 39.3232C95.5572 42.876 102.366 47.059 111.398 48.6662C120.43 50.2734 128.264 48.6961 128.896 45.1433Z" fill="#515DEF"/>
<path opacity="0.2" d="M125.823 44.6002C126.269 42.0897 120.838 39.0237 113.691 37.7519C106.544 36.4802 100.389 37.4844 99.9419 39.9948C99.4952 42.5053 104.927 45.5714 112.073 46.8431C119.22 48.1148 125.376 47.1107 125.823 44.6002Z" fill="white"/>
<path d="M175.617 138.96L120.046 142.2C118.083 142.316 116.157 142.784 114.36 143.583L53.9986 170.583C52.9395 171.048 52.0722 171.863 51.5415 172.891C51.0108 173.919 50.8488 175.098 51.0826 176.231L61.0564 223.4C61.225 224.16 61.565 224.87 62.0506 225.478C62.5361 226.086 63.1542 226.575 63.8577 226.908C64.5611 227.24 65.3313 227.407 66.1093 227.397C66.8872 227.386 67.6524 227.197 68.3464 226.845L127.925 197.102L182.94 195.261C183.617 195.243 184.282 195.08 184.892 194.785C185.501 194.49 186.041 194.068 186.474 193.548C186.908 193.028 187.226 192.421 187.407 191.769C187.588 191.116 187.628 190.433 187.524 189.763L180.164 144.598C179.781 142.265 178.01 138.89 175.617 138.96Z" fill="#FE8F17"/>
<path opacity="0.1" d="M175.617 138.96L120.046 142.2C118.083 142.316 116.157 142.784 114.36 143.583L53.9986 170.583C52.9395 171.048 52.0722 171.863 51.5415 172.891C51.0108 173.919 50.8488 175.098 51.0826 176.231L61.0564 223.4C61.225 224.16 61.565 224.87 62.0506 225.478C62.5361 226.086 63.1542 226.575 63.8577 226.908C64.5611 227.24 65.3313 227.407 66.1093 227.397C66.8872 227.386 67.6524 227.197 68.3464 226.845L127.925 197.102L182.94 195.261C183.617 195.243 184.282 195.08 184.892 194.785C185.501 194.49 186.041 194.068 186.474 193.548C186.908 193.028 187.226 192.421 187.407 191.769C187.588 191.116 187.628 190.433 187.524 189.763L180.164 144.598C179.781 142.265 178.01 138.89 175.617 138.96Z" fill="black"/>
<path d="M64.0746 108.247L34.9116 135.13L87.2457 191.904L116.409 165.021L64.0746 108.247Z" fill="#515DEF"/>
<path opacity="0.5" d="M116.401 165.026L87.2357 191.907L34.9097 135.137L54.0473 117.495L64.0751 108.25L65.7437 110.065L116.401 165.026Z" fill="#FAFAFA"/>
<path d="M64.2618 111.718L38.5293 135.439L87.4816 188.543L113.214 164.823L64.2618 111.718Z" stroke="#515DEF" stroke-miterlimit="10"/>
<path d="M81.6618 156.418C84.6133 153.697 84.24 148.491 80.8279 144.79C77.4159 141.088 72.2572 140.293 69.3057 143.014C66.3541 145.734 66.7274 150.941 70.1395 154.642C73.5515 158.344 78.7102 159.139 81.6618 156.418Z" fill="#515DEF"/>
<path opacity="0.1" d="M86.928 168.865L76.5654 172.446L54.0474 117.495L64.0752 108.25L65.7438 110.065L86.928 168.865Z" fill="black"/>
<path d="M88.947 86.0051L51.6594 99.5251L77.9797 172.115L115.267 158.595L88.947 86.0051Z" fill="#515DEF"/>
<path opacity="0.5" d="M88.947 86.0051L51.6594 99.5251L77.9797 172.115L115.267 158.595L88.947 86.0051Z" fill="#FAFAFA"/>
<path d="M87.7749 89.2785L54.8735 101.208L79.493 169.108L112.394 157.178L87.7749 89.2785Z" stroke="#515DEF" stroke-miterlimit="10"/>
<path d="M86.5505 137.225C90.3243 135.857 91.9925 130.911 90.2765 126.178C88.5605 121.446 84.1101 118.718 80.3363 120.087C76.5625 121.455 74.8943 126.401 76.6103 131.134C78.3263 135.866 82.7767 138.594 86.5505 137.225Z" fill="#515DEF"/>
<path d="M175.979 140.877L121.169 143.966C119.226 144.072 117.32 144.539 115.548 145.343L56.0724 172.192C55.0248 172.665 54.1701 173.482 53.6497 174.507C53.1293 175.532 52.9743 176.704 53.2104 177.829L63.1842 225.02C63.3448 225.775 63.6764 226.483 64.1534 227.09C64.6304 227.696 65.2402 228.186 65.9358 228.52C66.6315 228.854 67.3945 229.025 68.1663 229.018C68.938 229.011 69.698 228.828 70.3878 228.481L129.086 198.906L183.345 197.188C184.017 197.167 184.676 197.003 185.279 196.706C185.882 196.41 186.416 195.988 186.843 195.47C187.27 194.951 187.582 194.347 187.757 193.698C187.932 193.049 187.967 192.371 187.859 191.707L180.478 146.547C180.094 144.193 178.345 140.812 175.979 140.877Z" fill="#F2B100"/>
<path opacity="0.2" d="M123.399 152.228L170.428 149.334" stroke="black" stroke-width="2" stroke-linecap="round" stroke-linejoin="round"/>
<path opacity="0.2" d="M117.767 153.443L126.359 192.906" stroke="black" stroke-width="2" stroke-linecap="round" stroke-linejoin="round"/>
<path opacity="0.2" d="M60.4841 189.072L66.5429 219.426C66.5429 219.426 71.1869 207.384 60.4841 189.072Z" fill="#FAFAFA"/>
<path opacity="0.2" d="M61.2778 189.429C61.4884 189.969 115.094 166.965 115.094 166.965C115.239 172.18 113.935 177.334 111.327 181.852C108.719 186.371 104.909 190.078 100.32 192.561C84.1846 201.606 61.2778 189.429 61.2778 189.429Z" fill="#FAFAFA"/>
<path d="M96.8855 190.325C98.1679 190.325 99.2075 189.285 99.2075 188.003C99.2075 186.721 98.1679 185.681 96.8855 185.681C95.6031 185.681 94.5635 186.721 94.5635 188.003C94.5635 189.285 95.6031 190.325 96.8855 190.325Z" fill="#FDB900"/>
<path opacity="0.2" d="M115.121 166.965C115.121 166.965 121.769 176.971 120.16 194.013L115.121 166.965Z" fill="black"/>
<g opacity="0.2">
<path d="M57.9192 177.149L59.1558 176.604" stroke="#FAFAFA" stroke-linecap="round" stroke-linejoin="round"/>
<path d="M61.7207 175.47L111.779 153.34" stroke="#FAFAFA" stroke-linecap="round" stroke-linejoin="round" stroke-dasharray="5.2 5.2"/>
<path d="M113.064 152.773L114.295 152.228" stroke="#FAFAFA" stroke-linecap="round" stroke-linejoin="round"/>
</g>
<path opacity="0.2" d="M124.976 161.1L172.005 158.2" stroke="black" stroke-width="2" stroke-linecap="round" stroke-linejoin="round"/>
<path opacity="0.2" d="M127.093 172.165L174.122 169.265" stroke="black" stroke-width="2" stroke-linecap="round" stroke-linejoin="round"/>
<path d="M163.813 93.5624C163.813 93.5624 162.63 106.161 157.949 107.246C155.049 107.872 152.027 107.57 149.309 106.382L145.502 103.455L143.644 109.935C143.644 109.935 145.674 112.695 149.913 110.783C149.913 110.783 157.473 114.109 161.653 110.783C165.833 107.457 167.172 98.3306 167.172 98.3306L163.813 93.5624Z" fill="#B97964"/>
<path d="M167.577 87.4604C167.577 87.4604 164.31 81.893 165.795 71.8004C167.28 61.7078 175.742 60.4604 179.009 61.1894C182.276 61.9184 184.949 65.0558 187.173 71.0282C189.398 77.0006 190.219 78.5558 193.929 77.5082C197.639 76.4606 207.51 73.1882 210.258 76.0988C211.049 76.8938 211.632 77.8714 211.955 78.9451C212.278 80.0187 212.331 81.1555 212.111 82.2548C212.111 82.2548 225.843 78.9176 224.655 91.1648C223.467 103.412 203.649 114.844 184.797 102.742C165.946 90.641 167.577 87.4604 167.577 87.4604Z" fill="#263238"/>
<path d="M167.426 117.101C167.426 117.101 163.694 149.193 163.818 164.243C163.943 179.293 169.289 214.76 169.289 214.76H175.882C175.882 214.76 175.013 186.399 175.137 176.695C175.261 166.992 177 150.937 177 150.937C177 150.937 179.111 165.366 181.601 170.464C184.09 175.561 197.898 193.603 207.477 199.203L211.954 195.093C211.954 195.093 202.002 182.781 198.27 176.685C194.539 170.588 191.186 168.86 189.814 157.52C188.442 146.18 190.813 128.041 186.833 117.096L167.426 117.101Z" fill="#263238"/>
<path opacity="0.2" d="M177 150.937L174.132 130.596C174.132 130.596 171.87 142.821 176.325 157.752L177 150.937Z" fill="black"/>
<path d="M170.644 216.558L170.865 222.86L175.288 223.227L175.509 222.639V216.115L170.644 216.558Z" fill="#B97964"/>
<path d="M168.543 214.161L168.948 216.52L176.541 216.704L177.021 213.869L168.543 214.161Z" fill="#515DEF"/>
<path d="M205.398 199.64L212.435 193.084L213.984 195.552L207.942 201.082L205.398 199.64Z" fill="#515DEF"/>
<path d="M208.79 199.64L213.434 203.55L216.414 200.045L212.602 196.103L208.79 199.64Z" fill="#B97964"/>
<path d="M217.316 199.775L220.124 201.503C220.252 201.582 220.361 201.688 220.444 201.813C220.527 201.939 220.581 202.081 220.603 202.229C220.625 202.378 220.615 202.53 220.572 202.674C220.529 202.818 220.456 202.951 220.356 203.064C218.321 205.364 213.12 211.207 212.602 211.617C211.959 212.157 211.182 211.25 210.982 210.44C210.982 210.44 212.456 208.485 212.602 207.232C212.663 206.265 212.663 205.295 212.602 204.327C212.591 204.085 212.672 203.848 212.829 203.663L215.966 199.98C216.128 199.788 216.354 199.662 216.603 199.624C216.851 199.586 217.104 199.64 217.316 199.775Z" fill="#263238"/>
<path d="M176.368 223.4L176.951 226.64C176.978 226.788 176.972 226.94 176.934 227.086C176.896 227.232 176.826 227.367 176.73 227.483C176.633 227.599 176.513 227.692 176.377 227.756C176.241 227.82 176.092 227.854 175.942 227.855C172.869 227.855 165.05 227.887 164.396 227.779C163.581 227.644 163.727 226.478 164.207 225.798C164.207 225.798 166.643 225.592 167.663 224.853C168.422 224.257 169.144 223.615 169.823 222.93C169.997 222.76 170.228 222.662 170.471 222.655L175.304 222.541C175.555 222.532 175.801 222.614 175.997 222.772C176.192 222.93 176.324 223.153 176.368 223.4Z" fill="#263238"/>
<path d="M187.541 99.3026L194.28 94.5721C194.28 94.5721 192.487 87.401 189.83 87.0446C187.173 86.6882 173.987 84.1772 165.6 87.0446C165.6 87.0446 162.587 87.9032 161.658 96.365L165.244 97.5098C165.244 97.5098 166.529 113.353 167.323 115.794H186.461C186.461 115.794 186.677 102.17 187.541 99.3026Z" fill="#515DEF"/>
<path d="M188.993 98.2819C188.993 98.2819 191.548 105.572 192.001 109.492C192.001 109.492 185.932 107.073 184.366 105.966L183.178 101.7L179.16 99.7399L177.967 102.98L181.32 107.138C181.32 107.138 190.462 115.692 195.095 113.737C199.729 111.782 193.265 95.3011 193.265 95.3011L188.993 98.2819Z" fill="#B97964"/>
<path d="M171.848 66.3626C171.848 66.3626 169.51 71.0282 169.688 74.8244C169.866 78.6206 171.783 80.1704 175.428 80.705C175.428 80.705 176.984 85.565 172.901 86.0564C172.588 86.0942 172.48 87.3308 172.502 87.5306C172.61 88.319 173.393 88.751 174.122 88.9346C174.889 89.1046 175.673 89.1915 176.46 89.1938C177.286 89.2222 178.107 89.0625 178.862 88.7266C179.617 88.3908 180.286 87.8876 180.818 87.2552C180.904 87.1526 181.725 86.105 181.725 86.105C181.725 86.105 179.775 85.1384 180.461 78.8096C181.391 78.2039 182.106 77.3192 182.502 76.2824C182.875 76.0847 183.204 75.8148 183.471 75.4884C183.738 75.1621 183.938 74.7858 184.058 74.3816C184.349 73.118 183.231 71.3684 181.19 73.118C181.19 73.118 177.345 71.174 175.887 64.3646C174.806 65.469 173.382 66.1735 171.848 66.3626Z" fill="#B97964"/>
<path d="M172.944 73.7876L173.274 71.2928L171.508 73.2476C171.69 73.4415 171.914 73.591 172.163 73.6846C172.413 73.7782 172.68 73.8135 172.944 73.7876Z" fill="#A24E3F"/>
<path d="M173.97 75.6128C173.97 75.6128 175.833 75.899 176.73 74.7056" stroke="#222221" stroke-width="0.75" stroke-linecap="round" stroke-linejoin="round"/>
<path d="M175.833 67.799C176.256 67.6787 176.704 67.675 177.129 67.7881C177.554 67.9012 177.94 68.127 178.247 68.4416" stroke="#222221" stroke-linecap="round" stroke-linejoin="round"/>
<path d="M172.61 67.259C172.61 67.259 171.53 67.0916 171.049 67.7018" stroke="#222221" stroke-linecap="round" stroke-linejoin="round"/>
<path d="M176.584 71.0822C176.535 71.4602 176.292 71.7356 176.044 71.7032C175.796 71.6708 175.628 71.3414 175.677 70.9634C175.725 70.5854 175.968 70.31 176.217 70.3424C176.465 70.3748 176.633 70.7042 176.584 71.0822Z" fill="#222221"/>
<path d="M172.273 70.2464C172.322 69.8708 172.158 69.5398 171.906 69.5072C171.655 69.4745 171.412 69.7525 171.363 70.1281C171.314 70.5037 171.478 70.8347 171.73 70.8673C171.981 70.9 172.225 70.622 172.273 70.2464Z" fill="#222221"/>
<path d="M176.222 70.3424L175.369 69.9698C175.38 70.0632 175.416 70.152 175.472 70.2275C175.528 70.303 175.603 70.3625 175.689 70.4001C175.775 70.4378 175.87 70.4523 175.963 70.4421C176.057 70.432 176.146 70.3976 176.222 70.3424Z" fill="#222221"/>
<path d="M171.989 69.5432L171.135 69.1706C171.147 69.264 171.182 69.3528 171.238 69.4283C171.294 69.5038 171.369 69.5633 171.456 69.6009C171.542 69.6386 171.636 69.6531 171.73 69.6429C171.823 69.6328 171.913 69.5984 171.989 69.5432Z" fill="#222221"/>
<path d="M166.653 114.952V117.204L187.389 117.376L186.833 114.698L166.653 114.952Z" fill="#515DEF"/>
<path opacity="0.4" d="M166.653 114.952V117.204L187.389 117.376L186.833 114.698L166.653 114.952Z" fill="white"/>
<path d="M166.907 104.022L155.502 143.691C155.123 145.019 154.355 146.203 153.296 147.091C152.237 147.978 150.937 148.528 149.562 148.669C148.688 148.753 147.805 148.672 146.96 148.432L125.16 142.162C123.398 141.654 121.909 140.467 121.02 138.863C120.131 137.258 119.915 135.367 120.419 133.603L131.829 93.9242C132.338 92.1643 133.525 90.6782 135.128 89.7915C136.732 88.9049 138.621 88.6899 140.382 89.1938L162.198 95.4578C163.957 95.9718 165.44 97.1618 166.322 98.7671C167.205 100.372 167.415 102.262 166.907 104.022Z" fill="#105323"/>
<path opacity="0.2" d="M166.907 104.022L155.502 143.691C155.123 145.019 154.355 146.203 153.296 147.091C152.237 147.978 150.937 148.528 149.562 148.669C148.688 148.753 147.805 148.672 146.96 148.432L125.16 142.162C123.398 141.654 121.909 140.467 121.02 138.863C120.131 137.258 119.915 135.367 120.419 133.603L131.829 93.9242C132.338 92.1643 133.525 90.6782 135.128 89.7915C136.732 88.9049 138.621 88.6899 140.382 89.1938L162.198 95.4578C163.957 95.9718 165.44 97.1618 166.322 98.7671C167.205 100.372 167.415 102.262 166.907 104.022Z" fill="black"/>
<path d="M165.012 104.492L153.607 144.166C153.319 145.176 152.803 146.106 152.101 146.887C151.398 147.667 150.526 148.277 149.552 148.669C148.677 148.753 147.794 148.672 146.949 148.432L125.16 142.162C123.398 141.654 121.909 140.467 121.02 138.863C120.131 137.258 119.915 135.367 120.419 133.603L131.829 93.9242C132.118 92.9157 132.633 91.9865 133.336 91.2078C134.039 90.4291 134.91 89.8215 135.884 89.4314C136.759 89.3423 137.643 89.423 138.487 89.669L160.26 95.96C162.019 96.4652 163.506 97.6464 164.397 99.2452C165.287 100.844 165.508 102.731 165.012 104.492Z" fill="#105323"/>
<path opacity="0.5" d="M165.012 104.492L153.607 144.166C153.319 145.176 152.803 146.106 152.101 146.887C151.398 147.667 150.526 148.277 149.552 148.669C148.677 148.753 147.794 148.672 146.949 148.432L125.16 142.162C123.398 141.654 121.909 140.467 121.02 138.863C120.131 137.258 119.915 135.367 120.419 133.603L131.829 93.9242C132.118 92.9157 132.633 91.9865 133.336 91.2078C134.039 90.4291 134.91 89.8215 135.884 89.4314C136.759 89.3423 137.643 89.423 138.487 89.669L160.26 95.96C162.019 96.4652 163.506 97.6464 164.397 99.2452C165.287 100.844 165.508 102.731 165.012 104.492Z" fill="#FAFAFA"/>
<path d="M134.351 107.866L132.018 107.208L123.618 137.01L125.952 137.668L134.351 107.866Z" fill="#FAFAFA"/>
<path d="M129.302 138.615L126.969 137.94L135.366 108.148L137.693 108.817L129.302 138.615Z" fill="#FAFAFA"/>
<path d="M132.693 139.587L130.36 138.917L138.757 109.125L141.09 109.795L132.693 139.587Z" fill="#FAFAFA"/>
<path opacity="0.5" d="M154.67 113.699L152.336 113.041L143.936 142.844L146.27 143.502L154.67 113.699Z" fill="black"/>
<path d="M154.374 105.275L153.24 109.32L151.857 108.931C151.188 108.741 150.621 108.293 150.281 107.686C149.94 107.078 149.855 106.361 150.043 105.691L150.799 102.991L153.591 103.79C153.891 103.883 154.143 104.092 154.29 104.37C154.436 104.649 154.467 104.974 154.374 105.275Z" fill="#FAFAFA"/>
<path d="M153.71 103.293L150.918 102.494L151.755 99.5348C151.848 99.2028 152.006 98.8925 152.22 98.6216C152.433 98.3507 152.698 98.1246 152.999 97.9561C153.3 97.7876 153.631 97.68 153.973 97.6396C154.316 97.5991 154.663 97.6266 154.995 97.7204L156.431 98.1254L155.179 102.483C155.137 102.634 155.066 102.775 154.969 102.897C154.872 103.02 154.752 103.122 154.615 103.198C154.478 103.273 154.327 103.32 154.172 103.337C154.017 103.353 153.859 103.338 153.71 103.293Z" fill="#FAFAFA"/>
<path d="M156.356 104.6L159.164 105.405L158.418 108.045C158.326 108.378 158.169 108.689 157.956 108.961C157.743 109.232 157.478 109.459 157.177 109.628C156.875 109.797 156.544 109.904 156.201 109.944C155.858 109.983 155.51 109.955 155.178 109.86L153.72 109.449L154.881 105.41C154.924 105.26 154.997 105.119 155.094 104.997C155.192 104.874 155.312 104.773 155.449 104.697C155.587 104.622 155.737 104.574 155.893 104.558C156.048 104.541 156.206 104.555 156.356 104.6Z" fill="#FAFAFA"/>
<path d="M160.157 101.9L159.309 104.902L156.502 104.098C156.201 104.01 155.947 103.807 155.795 103.533C155.644 103.259 155.606 102.936 155.692 102.634L156.944 98.2766L158.343 98.6708C158.674 98.7637 158.984 98.9209 159.254 99.1335C159.525 99.346 159.75 99.6098 159.919 99.9096C160.087 100.209 160.195 100.54 160.236 100.881C160.277 101.223 160.25 101.569 160.157 101.9Z" fill="#FAFAFA"/>
</g>
<defs>
<clipPath id="clip0_1_5797">
<rect width="270" height="234" fill="white"/>
</clipPath>
</defs>
</svg>
